<?xml version="1.0" standalone="no"?>
<!DOCTYPE svg PUBLIC "-//W3C//DTD SVG 1.1//EN" "http://www.w3.org/Graphics/SVG/1.1/DTD/svg11.dtd" >
<svg xmlns="http://www.w3.org/2000/svg" xmlns:xlink="http://www.w3.org/1999/xlink" version="1.1">
<metadata>
Created by FontForge 20161013 at Tue Jan  3 17:39:06 2017
 By ,,,
Copyright (c) Mark Simonson, 2016. All rights reserved.
</metadata>
<defs>
<font id="ProximaSoft-Medium" horiz-adv-x="559" >
  <font-face 
    font-family="Proxima Soft Medium"
    font-weight="500"
    font-stretch="normal"
    units-per-em="1000"
    panose-1="2 0 5 6 3 0 0 2 0 4"
    ascent="790"
    descent="-210"
    x-height="483"
    cap-height="667"
    bbox="-365 -326 1153 1084"
    underline-thickness="20"
    underline-position="-173"
    unicode-range="U+000D-FB04"
  />
<missing-glyph horiz-adv-x="500" 
d="M116 -90q-19 0 -30.5 11.5t-11.5 30.5v758q0 19 11.5 30.5t30.5 11.5h267q19 0 30.5 -11.5t11.5 -30.5v-758q0 -19 -11.5 -30.5t-30.5 -11.5h-267zM393 722h-288v-782h288v782z" />
    <glyph glyph-name="f_f_j" unicode="ffj" horiz-adv-x="825" 
d="M708 579q-23 0 -40.5 17t-17.5 41t17 40.5t41 16.5t41 -16.5t17 -40.5t-17 -41t-41 -17zM248 483q16 0 28 -11.5t12 -27.5t-12 -28t-28 -12h-64v-364q0 -19 -13 -32t-31 -13q-19 0 -32.5 13t-13.5 32v364h-45q-17 0 -28.5 12t-11.5 28t12 27.5t28 11.5h45v32
q0 76 40.5 119t106.5 43q25 0 48 -6q28 -9 28 -35q0 -36 -36 -36q-3 0 -12 1.5t-13 1.5q-34 0 -53 -22.5t-19 -65.5v-32h64zM584 444q0 -16 -12 -28t-28 -12h-64v-364q0 -19 -13 -32t-31 -13q-19 0 -32.5 13t-13.5 32v364h-45q-17 0 -28.5 12t-11.5 28t12 27.5t28 11.5h45
v32q0 76 40.5 119t106.5 43q25 0 48 -6q28 -9 28 -35q0 -36 -36 -36q-3 0 -12 1.5t-13 1.5q-34 0 -53 -22.5t-19 -65.5v-32h64q16 0 28 -11.5t12 -27.5zM709 488q18 0 31.5 -13t13.5 -32v-481q0 -75 -39 -116.5t-112 -41.5q-12 0 -18 1q-15 1 -26 12t-11 26t10 27t24 12
q1 0 4 -0.5t6 -0.5q72 0 72 81v481q0 19 13 32t32 13z" />
    <glyph glyph-name="f_j" unicode="fj" horiz-adv-x="529" 
d="M412 579q-23 0 -40.5 17t-17.5 41t17 40.5t41 16.5t41 -16.5t17 -40.5t-17 -41t-41 -17zM288 444q0 -16 -12 -28t-28 -12h-64v-364q0 -19 -13 -32t-31 -13q-19 0 -32.5 13t-13.5 32v364h-45q-17 0 -28.5 12t-11.5 28t12 27.5t28 11.5h45v32q0 76 40.5 119t106.5 43
q25 0 48 -6q28 -9 28 -35q0 -36 -36 -36q-3 0 -12 1.5t-13 1.5q-34 0 -53 -22.5t-19 -65.5v-32h64q16 0 28 -11.5t12 -27.5zM413 488q18 0 31.5 -13t13.5 -32v-481q0 -75 -39 -116.5t-112 -41.5q-12 0 -18 1q-15 1 -26 12t-11 26t10 27t24 12q1 0 4 -0.5t6 -0.5q72 0 72 81
v481q0 19 13 32t32 13z" />
    <glyph glyph-name="f_f" unicode="ff" horiz-adv-x="592" 
d="M248 483q16 0 28 -11.5t12 -27.5t-12 -28t-28 -12h-64v-364q0 -19 -13 -32t-31 -13q-19 0 -32.5 13t-13.5 32v364h-45q-17 0 -28.5 12t-11.5 28t12 27.5t28 11.5h45v32q0 76 40.5 119t106.5 43q25 0 48 -6q28 -9 28 -35q0 -36 -36 -36q-3 0 -12 1.5t-13 1.5
q-34 0 -53 -22.5t-19 -65.5v-32h64zM552 603q-34 0 -53 -22.5t-19 -65.5v-32h64q16 0 28 -11.5t12 -27.5t-12 -28t-28 -12h-64v-364q0 -19 -13 -32t-31 -13q-19 0 -32.5 13t-13.5 32v364h-45q-17 0 -28.5 12t-11.5 28t12 27.5t28 11.5h45v32q0 76 40.5 119t106.5 43
q25 0 48 -6q28 -9 28 -35q0 -36 -36 -36q-3 0 -12 1.5t-13 1.5z" />
    <glyph glyph-name="fi" unicode="fi" horiz-adv-x="529" 
d="M412 579q-23 0 -40.5 17t-17.5 41t17 40.5t41 16.5t41 -16.5t17 -40.5t-17 -41t-41 -17zM289 671q28 -9 28 -35q0 -36 -36 -36q-3 0 -12 1.5t-13 1.5q-34 0 -53 -22.5t-19 -65.5v-32h64q16 0 28 -11.5t12 -27.5t-12 -28t-28 -12h-64v-364q0 -19 -13 -32t-31 -13
q-19 0 -32.5 13t-13.5 32v364h-45q-17 0 -28.5 12t-11.5 28t12 27.5t28 11.5h45v32q0 76 40.5 119t106.5 43q25 0 48 -6zM413 488q18 0 31.5 -13t13.5 -32v-403q0 -19 -13.5 -32t-32.5 -13q-18 0 -31 13t-13 32v403q0 19 13 32t32 13z" />
    <glyph glyph-name="fl" unicode="fl" horiz-adv-x="529" 
d="M289 671q28 -9 28 -35q0 -36 -36 -36q-3 0 -12 1.5t-13 1.5q-34 0 -53 -22.5t-19 -65.5v-32h64q16 0 28 -11.5t12 -27.5t-12 -28t-28 -12h-64v-364q0 -19 -13 -32t-31 -13q-19 0 -32.5 13t-13.5 32v364h-45q-17 0 -28.5 12t-11.5 28t12 27.5t28 11.5h45v32q0 76 40.5 119
t106.5 43q25 0 48 -6zM413 672q18 0 31.5 -13t13.5 -32v-587q0 -19 -13.5 -32t-31.5 -13q-19 0 -32 13t-13 32v587q0 19 13 32t32 13z" />
    <glyph glyph-name="f_f_i" unicode="ffi" horiz-adv-x="825" 
d="M708 579q-23 0 -40.5 17t-17.5 41t17 40.5t41 16.5t41 -16.5t17 -40.5t-17 -41t-41 -17zM248 483q16 0 28 -11.5t12 -27.5t-12 -28t-28 -12h-64v-364q0 -19 -13 -32t-31 -13q-19 0 -32.5 13t-13.5 32v364h-45q-17 0 -28.5 12t-11.5 28t12 27.5t28 11.5h45v32
q0 76 40.5 119t106.5 43q25 0 48 -6q28 -9 28 -35q0 -36 -36 -36q-3 0 -12 1.5t-13 1.5q-34 0 -53 -22.5t-19 -65.5v-32h64zM585 671q28 -9 28 -35q0 -36 -36 -36q-3 0 -12 1.5t-13 1.5q-34 0 -53 -22.5t-19 -65.5v-32h64q16 0 28 -11.5t12 -27.5t-12 -28t-28 -12h-64v-364
q0 -19 -13 -32t-31 -13q-19 0 -32.5 13t-13.5 32v364h-45q-17 0 -28.5 12t-11.5 28t12 27.5t28 11.5h45v32q0 76 40.5 119t106.5 43q25 0 48 -6zM709 488q18 0 31.5 -13t13.5 -32v-403q0 -19 -13.5 -32t-32.5 -13q-18 0 -31 13t-13 32v403q0 19 13 32t32 13z" />
    <glyph glyph-name="f_f_l" unicode="ffl" horiz-adv-x="825" 
d="M248 483q16 0 28 -11.5t12 -27.5t-12 -28t-28 -12h-64v-364q0 -19 -13 -32t-31 -13q-19 0 -32.5 13t-13.5 32v364h-45q-17 0 -28.5 12t-11.5 28t12 27.5t28 11.5h45v32q0 76 40.5 119t106.5 43q25 0 48 -6q28 -9 28 -35q0 -36 -36 -36q-3 0 -12 1.5t-13 1.5
q-34 0 -53 -22.5t-19 -65.5v-32h64zM585 671q28 -9 28 -35q0 -36 -36 -36q-3 0 -12 1.5t-13 1.5q-34 0 -53 -22.5t-19 -65.5v-32h64q16 0 28 -11.5t12 -27.5t-12 -28t-28 -12h-64v-364q0 -19 -13 -32t-31 -13q-19 0 -32.5 13t-13.5 32v364h-45q-17 0 -28.5 12t-11.5 28
t12 27.5t28 11.5h45v32q0 76 40.5 119t106.5 43q25 0 48 -6zM709 672q18 0 31.5 -13t13.5 -32v-587q0 -19 -13.5 -32t-31.5 -13q-19 0 -32 13t-13 32v587q0 19 13 32t32 13z" />
    <glyph glyph-name="f_b" unicode="fb" horiz-adv-x="874" 
d="M289 671q28 -9 28 -35q0 -36 -36 -36q-3 0 -12 1.5t-13 1.5q-34 0 -53 -22.5t-19 -65.5v-32h64q16 0 28 -11.5t12 -27.5t-12 -28t-28 -12h-64v-364q0 -19 -13 -32t-31 -13q-19 0 -32.5 13t-13.5 32v364h-45q-17 0 -28.5 12t-11.5 28t12 27.5t28 11.5h45v32q0 76 40.5 119
t106.5 43q25 0 48 -6zM616 495q95 0 155 -69.5t60 -184.5q0 -117 -60 -185t-155 -68q-97 0 -158 81v-29q0 -19 -13.5 -32t-31.5 -13q-19 0 -32 13t-13 32v587q0 19 13 32t32 13q18 0 31.5 -13t13.5 -32v-213q59 81 158 81zM592 68q67 0 106.5 48t39.5 125t-39.5 125.5
t-106.5 48.5q-40 0 -77.5 -21t-56.5 -51v-205q18 -30 56 -50t78 -20z" />
    <glyph glyph-name="f_h" unicode="fh" horiz-adv-x="856" 
d="M289 671q28 -9 28 -35q0 -36 -36 -36q-3 0 -12 1.5t-13 1.5q-34 0 -53 -22.5t-19 -65.5v-32h64q16 0 28 -11.5t12 -27.5t-12 -28t-28 -12h-64v-364q0 -19 -13 -32t-31 -13q-19 0 -32.5 13t-13.5 32v364h-45q-17 0 -28.5 12t-11.5 28t12 27.5t28 11.5h45v32q0 76 40.5 119
t106.5 43q25 0 48 -6zM629 495q155 0 155 -154v-301q0 -19 -13 -32t-32 -13q-18 0 -31.5 13t-13.5 32v271q0 57 -26.5 80.5t-76.5 23.5q-40 0 -76 -20.5t-57 -49.5v-305q0 -19 -13.5 -32t-31.5 -13q-19 0 -32 13t-13 32v587q0 19 13 32t32 13q18 0 31.5 -13t13.5 -32v-212
q27 33 73 56.5t98 23.5z" />
    <glyph glyph-name="f_k" unicode="fk" horiz-adv-x="816" 
d="M289 671q28 -9 28 -35q0 -36 -36 -36q-3 0 -12 1.5t-13 1.5q-34 0 -53 -22.5t-19 -65.5v-32h64q16 0 28 -11.5t12 -27.5t-12 -28t-28 -12h-64v-364q0 -19 -13 -32t-31 -13q-19 0 -32.5 13t-13.5 32v364h-45q-17 0 -28.5 12t-11.5 28t12 27.5t28 11.5h45v32q0 76 40.5 119
t106.5 43q25 0 48 -6zM768 70q11 -13 11 -30q0 -19 -12.5 -32t-31.5 -13q-23 0 -35 15l-167 197l-75 -70v-97q0 -19 -13.5 -32t-32.5 -13q-18 0 -31 13t-13 32v587q0 19 13 32t32 13q18 0 31.5 -13t13.5 -32v-389l243 239q11 11 29 11q17 0 29 -12.5t12 -29.5q0 -16 -13 -29
l-159 -155z" />
    <glyph glyph-name=".notdef" horiz-adv-x="500" 
d="M116 -90q-19 0 -30.5 11.5t-11.5 30.5v758q0 19 11.5 30.5t30.5 11.5h267q19 0 30.5 -11.5t11.5 -30.5v-758q0 -19 -11.5 -30.5t-30.5 -11.5h-267zM393 722h-288v-782h288v782z" />
    <glyph glyph-name=".null" horiz-adv-x="0" 
 />
    <glyph glyph-name="nonmarkingreturn" horiz-adv-x="333" 
 />
    <glyph glyph-name="NULL" horiz-adv-x="0" 
 />
    <glyph glyph-name="NULL" horiz-adv-x="0" 
 />
    <glyph glyph-name="CR" unicode="&#xd;" horiz-adv-x="0" 
 />
    <glyph glyph-name="space" unicode=" " horiz-adv-x="258" 
 />
    <glyph glyph-name="exclam" unicode="!" horiz-adv-x="238" 
d="M118 190q-16 0 -27 11t-12 27l-14 389q-1 22 15 38.5t38 16.5q23 0 39 -16t15 -39l-13 -389q-1 -16 -12.5 -27t-28.5 -11zM57 52q0 26 18 44t43 18q26 0 44.5 -18.5t18.5 -43.5t-19 -43.5t-44 -18.5t-43 18.5t-18 43.5z" />
    <glyph glyph-name="quotedbl" unicode="&#x22;" horiz-adv-x="361" 
d="M103 396q-21 0 -24 22q-28 186 -28 207t15 36.5t37 15.5t37.5 -15.5t15.5 -36.5q0 -15 -29 -207q-2 -22 -24 -22zM259 396q-22 0 -24 22q-29 174 -29 207q0 21 15.5 36.5t37.5 15.5q21 0 36 -15.5t15 -36.5q0 -39 -28 -207q-3 -22 -23 -22z" />
    <glyph glyph-name="numbersign" unicode="#" horiz-adv-x="598" 
d="M543 488q12 0 21 -8.5t9 -21.5t-9 -21.5t-21 -8.5h-89l-64 -190h73q13 0 21.5 -8.5t8.5 -21.5t-8.5 -22t-21.5 -9h-93l-53 -159q-7 -23 -32 -23q-13 0 -23 9.5t-10 23.5q0 4 2 12l46 137h-106l-53 -159q-7 -23 -32 -23q-13 0 -23 9.5t-10 23.5q0 6 2 12l45 137h-66
q-13 0 -21.5 9t-8.5 21q0 13 8.5 22t21.5 9h87l64 190h-71q-12 0 -21 8.5t-9 21.5t9 21.5t21 8.5h92l52 161q7 23 32 23q13 0 23 -10t10 -23q0 -9 -1 -12l-46 -139h106l52 161q8 23 32 23q14 0 24 -9.5t10 -23.5q0 -6 -2 -12l-47 -139h69zM319 238l65 190h-106l-63 -190h104
z" />
    <glyph glyph-name="dollar" unicode="$" horiz-adv-x="599" 
d="M554 189q0 -78 -53.5 -134.5t-160.5 -64.5v-60q0 -14 -10.5 -24.5t-24.5 -10.5q-15 0 -25.5 10.5t-10.5 24.5v59q-116 7 -200 76q-18 15 -18 38q0 19 14.5 33.5t33.5 14.5q16 0 29 -10q63 -51 141 -61v218q-36 9 -61.5 17.5t-55.5 24t-48.5 34t-31 48t-12.5 65.5
q0 77 58 129.5t151 59.5v62q0 14 10.5 24.5t25.5 10.5q14 0 24.5 -10.5t10.5 -24.5v-63q95 -9 165 -62q20 -15 20 -39q0 -20 -14 -34t-33 -14q-15 0 -28 9q-45 37 -110 48v-195q48 -13 79 -25t65.5 -34.5t52 -57.5t17.5 -82zM163 494q0 -33 27.5 -52.5t78.5 -34.5v180
q-48 -4 -77 -29t-29 -64zM340 80q57 6 84.5 35t27.5 65q0 39 -28.5 60.5t-83.5 38.5v-199z" />
    <glyph glyph-name="percent" unicode="%" horiz-adv-x="739" 
d="M192 347q-72 0 -117 46.5t-45 117.5t45 118.5t117 47.5q73 0 118.5 -47.5t45.5 -118.5t-45.5 -117.5t-118.5 -46.5zM172 -5q-10 0 -18 7.5t-8 17.5q0 7 5 14l399 626q7 12 22 12q10 0 17.5 -7.5t7.5 -17.5q0 -7 -3 -15l-402 -625q-7 -12 -20 -12zM192 400q42 0 68.5 31.5
t26.5 79.5q0 49 -26.5 80t-68.5 31q-41 0 -67.5 -31t-26.5 -80q0 -48 26.5 -79.5t67.5 -31.5zM546 -12q-72 0 -117.5 46.5t-45.5 117.5t45.5 118.5t117.5 47.5t117.5 -47.5t45.5 -118.5t-45.5 -117.5t-117.5 -46.5zM546 41q42 0 68.5 31.5t26.5 79.5q0 49 -26.5 80t-68.5 31
t-68.5 -31t-26.5 -80q0 -48 26.5 -79.5t68.5 -31.5z" />
    <glyph glyph-name="ampersand" unicode="&#x26;" horiz-adv-x="643" 
d="M568 73q17 -13 17 -35q0 -18 -13 -30.5t-30 -12.5q-13 0 -26 8q-29 22 -77 67q-84 -82 -195 -82q-92 0 -151.5 49t-59.5 139q0 71 39 116.5t107 80.5q-49 86 -49 148q0 67 50 111.5t124 44.5q69 0 113.5 -36t44.5 -98q0 -36 -13 -64.5t-41.5 -51.5t-50.5 -36t-63 -34
q24 -32 71 -89q42 -49 74 -81q31 47 55 109q10 25 37 25q17 0 28.5 -11.5t11.5 -27.5q0 -10 -4 -18q-37 -80 -73 -130q24 -21 74 -61zM221 519q0 -45 37 -107q60 29 91.5 57t31.5 70q0 33 -20.5 51.5t-52.5 18.5q-37 0 -62 -25.5t-25 -64.5zM254 61q70 0 131 59
q-52 51 -91 94q-57 70 -78 101q-87 -54 -87 -132q0 -56 37 -89t88 -33z" />
    <glyph glyph-name="quotesingle" unicode="'" horiz-adv-x="206" 
d="M103 396q-21 0 -24 22q-28 186 -28 207t15 36.5t37 15.5t37.5 -15.5t15.5 -36.5q0 -15 -29 -207q-2 -22 -24 -22z" />
    <glyph glyph-name="parenleft" unicode="(" horiz-adv-x="262" 
d="M199 -188q-19 0 -30 16q-126 187 -126 415t126 415q11 16 30 16q16 0 27 -11t11 -26q0 -10 -4 -18q-47 -93 -69.5 -180.5t-22.5 -195.5q0 -107 22.5 -195t68.5 -181q5 -8 5 -17q0 -16 -11 -27t-27 -11z" />
    <glyph glyph-name="parenright" unicode=")" horiz-adv-x="262" 
d="M62 -188q-15 0 -26 11t-11 27q0 10 4 17q47 94 69.5 181t22.5 195t-22.5 195.5t-69.5 180.5q-4 8 -4 18q0 15 11 26t26 11q20 0 30 -16q127 -186 127 -415t-127 -415q-10 -16 -30 -16z" />
    <glyph glyph-name="asterisk" unicode="*" horiz-adv-x="343" 
d="M171 377q-10 0 -17.5 8t-6.5 18l4 93l-78 -51q-4 -3 -13 -3q-10 0 -17 6.5t-7 16.5q0 14 13 22l83 42l-83 43q-13 6 -13 22q0 9 7 16t17 7q8 0 13 -3l78 -50l-4 93q-1 10 6.5 17.5t17.5 7.5q11 0 18.5 -7.5t6.5 -17.5l-5 -93l78 50q5 3 13 3q10 0 17.5 -7t7.5 -16
q0 -15 -14 -22l-82 -43l82 -42q14 -9 14 -22q0 -10 -7 -16.5t-18 -6.5q-10 0 -13 3l-78 51l5 -93q1 -10 -6.5 -18t-18.5 -8z" />
    <glyph glyph-name="plus" unicode="+" horiz-adv-x="500" 
d="M283 307v-183q0 -13 -10 -22.5t-23 -9.5t-23 9.5t-10 22.5v183h-163q-12 0 -21 8.5t-9 21.5t9 21.5t21 8.5h163v176q0 13 10 23t23 10t23 -10t10 -23v-176h163q12 0 21.5 -9t9.5 -21t-9.5 -21t-21.5 -9h-163z" />
    <glyph glyph-name="comma" unicode="," horiz-adv-x="238" 
d="M114 -119q-7 -7 -18 -7t-18.5 7.5t-7.5 19.5q0 11 8 19q41 41 47 78q-6 -2 -15 -2q-23 0 -38.5 16t-15.5 41t18 43t43 18q29 0 49.5 -22.5t20.5 -60.5q0 -85 -73 -150z" />
    <glyph glyph-name="hyphen" unicode="-" horiz-adv-x="300" 
d="M64 203q-16 0 -27.5 11.5t-11.5 27.5t11.5 27.5t27.5 11.5h172q16 0 27.5 -11.5t11.5 -27.5t-11.5 -27.5t-27.5 -11.5h-172z" />
    <glyph glyph-name="period" unicode="." horiz-adv-x="238" 
d="M56 52q0 26 18 44t44 18t44.5 -18.5t18.5 -43.5q0 -26 -18.5 -44.5t-44.5 -18.5q-25 0 -43.5 18.5t-18.5 44.5z" />
    <glyph glyph-name="slash" unicode="/" horiz-adv-x="306" 
d="M43 -25q-13 0 -22.5 9.5t-9.5 22.5q0 6 2 12l219 651q7 22 30 22q14 0 23.5 -10t9.5 -23q0 -5 -2 -11l-219 -651q-7 -22 -31 -22z" />
    <glyph glyph-name="zero" unicode="0" horiz-adv-x="614" 
d="M46 333q0 64 15 123.5t45.5 110t82 80.5t118.5 30t118.5 -30t82 -80.5t45.5 -110t15 -123.5t-15 -123.5t-45.5 -110t-82 -81t-118.5 -30.5t-118.5 30.5t-82 81t-45.5 110t-15 123.5zM466 333q0 109 -38.5 182t-120.5 73t-120.5 -73t-38.5 -182t38.5 -182.5t120.5 -73.5
t120.5 73.5t38.5 182.5z" />
    <glyph glyph-name="one" unicode="1" horiz-adv-x="359" 
d="M235 -5q-21 0 -35.5 15t-14.5 35v491l-81 -85q-13 -13 -31 -13q-17 0 -29.5 12.5t-12.5 29.5q0 16 12 30l142 145q19 17 42 17q24 0 41 -17t17 -41v-569q0 -20 -14.5 -35t-35.5 -15z" />
    <glyph glyph-name="two" unicode="2" horiz-adv-x="583" 
d="M91 0q-21 0 -36.5 15.5t-15.5 37.5q0 26 21 42q196 149 272.5 228.5t76.5 152.5q0 55 -38 83.5t-92 28.5q-88 0 -154 -56q-13 -10 -28 -10q-19 0 -32 13t-13 32q0 20 16 34q85 76 210 76q96 0 164.5 -53t68.5 -148q0 -62 -41.5 -128.5t-103 -123.5t-163.5 -136h272
q18 0 31.5 -12.5t13.5 -30.5q0 -19 -13.5 -32t-31.5 -13h-384z" />
    <glyph glyph-name="three" unicode="3" horiz-adv-x="565" 
d="M271 -12q-132 0 -219 80q-15 13 -15 33q0 19 13 32t32 13q16 0 27 -11q69 -58 159 -58q69 0 108 30.5t39 83.5q0 105 -157 105h-33q-18 0 -31.5 13t-13.5 32q0 18 13.5 31t31.5 13h33q65 0 106 25t41 74t-40.5 76.5t-102.5 27.5q-83 0 -147 -54q-13 -9 -26 -9
q-18 0 -30.5 12.5t-12.5 30.5t15 31q86 78 210 78q104 0 169 -48t65 -131q0 -64 -44 -104t-101 -50q56 -5 105.5 -48t49.5 -115q0 -85 -66 -139t-178 -54z" />
    <glyph glyph-name="four" unicode="4" horiz-adv-x="569" 
d="M499 248q18 0 31.5 -13t13.5 -31t-13.5 -31t-31.5 -13h-52v-115q0 -20 -14.5 -35t-34.5 -15q-21 0 -36 15t-15 35v115h-265q-23 0 -40 16.5t-17 40.5q0 15 9 31l254 384q25 40 72 40q36 0 61.5 -25.5t25.5 -61.5v-337h52zM129 248h218v328z" />
    <glyph glyph-name="five" unicode="5" horiz-adv-x="595" 
d="M89 63q-16 14 -16 35q0 19 13.5 32.5t32.5 13.5q16 0 29 -11q62 -56 154 -56q64 0 104.5 37t40.5 93q0 60 -39 95.5t-104 35.5q-75 0 -130 -45q-15 -12 -36 -12q-23 0 -39.5 16t-16.5 39v278q0 53 53 53h330q18 0 31.5 -13t13.5 -32q0 -18 -13.5 -30.5t-31.5 -12.5h-283
v-213q59 59 153 59q88 0 150.5 -57.5t62.5 -156.5q0 -101 -69 -162t-176 -61q-131 0 -214 75z" />
    <glyph glyph-name="six" unicode="6" horiz-adv-x="596" 
d="M46 332q0 149 73 247t210 98q93 0 159 -53q20 -12 20 -36q0 -18 -13 -31t-31 -13q-17 0 -26 8q-47 36 -109 36q-86 0 -134 -70.5t-48 -170.5q0 -15 1 -22q24 38 75 68t108 30q95 0 158 -56t63 -158q0 -93 -66.5 -157t-173.5 -64q-91 0 -153 49t-87.5 124t-25.5 171z
M451 206q0 64 -41 97.5t-104 33.5q-46 0 -88 -24.5t-69 -64.5q7 -70 45.5 -120.5t112.5 -50.5q67 0 105.5 40t38.5 89z" />
    <glyph glyph-name="seven" unicode="7" horiz-adv-x="523" 
d="M196 -5q-21 0 -35.5 14.5t-14.5 34.5q0 11 5 21l230 514h-313q-18 0 -31 12.5t-13 30.5q0 19 13 32t31 13h386q20 0 34 -14t14 -34q0 -7 -4 -19l-256 -575q-13 -30 -46 -30z" />
    <glyph glyph-name="eight" unicode="8" horiz-adv-x="588" 
d="M47 170q0 62 44 107.5t110 66.5q-63 19 -103 59t-40 100q0 85 70.5 129.5t166.5 44.5q60 0 111.5 -17.5t88 -58.5t36.5 -98q0 -60 -40.5 -100t-103.5 -59q66 -21 110 -66.5t44 -107.5q0 -84 -71 -133t-175 -49q-106 0 -177 48.5t-71 133.5zM430 488q0 46 -38.5 73
t-96.5 27q-60 0 -98 -27t-38 -73q0 -25 15 -45t38.5 -31.5t43.5 -18t39 -9.5q19 3 39 9.5t43.5 18t38 31.5t14.5 45zM441 182q0 36 -29.5 63.5t-60 39t-56.5 14.5q-26 -3 -57 -14.5t-60.5 -39t-29.5 -63.5q0 -47 42.5 -76t104.5 -29q60 0 103 29t43 76z" />
    <glyph glyph-name="nine" unicode="9" horiz-adv-x="596" 
d="M107 42q-18 11 -18 36q0 18 13 31t31 13q14 0 25 -8q46 -36 109 -36q61 0 103.5 36.5t60.5 89t18 114.5v23q-26 -38 -77 -68.5t-107 -30.5q-95 0 -158.5 56.5t-63.5 158.5q0 92 66.5 156.5t173.5 64.5q70 0 122.5 -27.5t83.5 -76.5t46 -109.5t15 -131.5
q0 -148 -73.5 -246t-209.5 -98q-91 0 -160 53zM446 418q-5 68 -44 119.5t-114 51.5q-66 0 -104.5 -40t-38.5 -89q0 -64 41 -97.5t104 -33.5q46 0 88 24t68 65z" />
    <glyph glyph-name="colon" unicode=":" horiz-adv-x="238" 
d="M56 427q0 26 18.5 44.5t43.5 18.5q26 0 44.5 -19t18.5 -44t-19 -43.5t-44 -18.5t-43.5 18.5t-18.5 43.5zM56 52q0 26 18 44t44 18t44.5 -18.5t18.5 -43.5q0 -26 -18.5 -44.5t-44.5 -18.5q-25 0 -43.5 18.5t-18.5 44.5z" />
    <glyph glyph-name="semicolon" unicode=";" horiz-adv-x="238" 
d="M118 365q-25 0 -43.5 18.5t-18.5 43.5q0 26 18.5 44.5t43.5 18.5q26 0 44.5 -19t18.5 -44t-19 -43.5t-44 -18.5zM114 -119q-7 -7 -18 -7t-18.5 7.5t-7.5 19.5q0 11 8 19q41 41 47 78q-6 -2 -15 -2q-23 0 -38.5 16t-15.5 41t18 43t43 18q29 0 49.5 -22.5t20.5 -60.5
q0 -85 -73 -150z" />
    <glyph glyph-name="less" unicode="&#x3c;" horiz-adv-x="500" 
d="M51 292q-27 14 -27 43q0 28 27 42l379 183q8 4 14 4q14 0 23.5 -10t9.5 -23q0 -20 -20 -29l-357 -168l358 -166q19 -9 19 -30q0 -13 -9.5 -22.5t-22.5 -9.5q-9 0 -15 3z" />
    <glyph glyph-name="equal" unicode="=" horiz-adv-x="500" 
d="M54 400q-12 0 -21 8.5t-9 21.5t9 21.5t21 8.5h392q12 0 21.5 -9t9.5 -21t-9.5 -21t-21.5 -9h-392zM54 208q-12 0 -21 8.5t-9 20.5q0 13 9 22t21 9h392q12 0 21.5 -9t9.5 -22q0 -12 -9.5 -20.5t-21.5 -8.5h-392z" />
    <glyph glyph-name="greater" unicode="&#x3e;" horiz-adv-x="500" 
d="M70 109q-4 -3 -14 -3q-13 0 -22.5 9.5t-9.5 22.5q0 19 18 30l357 166l-356 168q-19 10 -19 29q0 14 9.5 23.5t23.5 9.5q7 0 13 -4l379 -183q28 -14 28 -42q0 -29 -28 -43z" />
    <glyph glyph-name="question" unicode="?" horiz-adv-x="460" 
d="M159 274q0 24 7 43.5t23.5 37t28 27t34.5 25.5q27 19 39.5 29t25 29t12.5 41q0 35 -27.5 58.5t-78.5 23.5q-72 0 -123 -49q-10 -10 -28 -10q-19 0 -31.5 12.5t-12.5 30.5q0 21 15 33q77 72 190 72q91 0 145 -44t54 -112q0 -39 -18.5 -71.5t-37.5 -48.5t-53 -40
q-28 -20 -39.5 -29.5t-24.5 -28t-13 -37.5q0 -6 6 -20q2 -4 2 -10q0 -17 -12 -30t-30 -13q-24 0 -36 22q-17 25 -17 59zM162 52q0 26 18 44t44 18t44.5 -18.5t18.5 -43.5q0 -26 -18.5 -44.5t-44.5 -18.5q-25 0 -43.5 18.5t-18.5 44.5z" />
    <glyph glyph-name="at" unicode="@" horiz-adv-x="783" 
d="M432 638q139 0 227 -91t88 -223q0 -112 -55 -175.5t-125 -63.5q-41 0 -65.5 23t-27.5 56l-1 6q-27 -38 -68.5 -61.5t-85.5 -23.5q-70 0 -112 45.5t-42 118.5q0 102 71.5 175.5t161.5 73.5q45 0 78 -20.5t49 -52.5l6 32q3 14 14 22.5t25 8.5q19 0 31 -14.5t8 -33.5
l-46 -220q-2 -12 -2 -22q0 -24 12.5 -37t31.5 -13q37 0 70.5 44t33.5 132q0 123 -77.5 200.5t-203.5 77.5q-143 0 -250 -107.5t-107 -248.5q0 -120 81 -200.5t204 -80.5q93 0 172 47q5 4 11 4q7 0 11.5 -5t4.5 -12q0 -9 -8 -14q-92 -55 -195 -55q-136 0 -226.5 90.5
t-90.5 223.5q0 160 120 277t277 117zM484 233l28 133q-10 26 -35 46.5t-62 20.5q-69 0 -117 -54.5t-48 -123.5q0 -47 25.5 -76t70.5 -29q79 0 138 83z" />
    <glyph glyph-name="A" unicode="A" horiz-adv-x="666" 
d="M634 65q4 -10 4 -19q0 -21 -15 -36t-36 -15q-36 0 -47 32l-42 111h-331l-42 -111q-5 -14 -18.5 -23t-28.5 -9q-21 0 -36 15t-15 36q0 7 4 19l220 551q9 24 31.5 40t49.5 16q28 0 50 -15.5t32 -40.5zM200 227h265l-133 353z" />
    <glyph glyph-name="B" unicode="B" horiz-adv-x="638" 
d="M128 0q-54 0 -54 53v561q0 53 54 53h259q87 0 137.5 -47.5t50.5 -122.5q0 -60 -33.5 -101.5t-82.5 -51.5q54 -8 91.5 -56t37.5 -108q0 -81 -51.5 -130.5t-141.5 -49.5h-267zM174 384h194q49 0 76.5 27t27.5 70t-27.5 70.5t-76.5 27.5h-194v-195zM174 88h199q52 0 82 28
t30 77q0 44 -29.5 73.5t-82.5 29.5h-199v-208z" />
    <glyph glyph-name="C" unicode="C" horiz-adv-x="671" 
d="M388 -12q-145 0 -243.5 97t-98.5 248t98.5 248t243.5 97q142 0 232 -98q12 -12 12 -32t-14 -33.5t-33 -13.5q-23 0 -36 16q-64 72 -161 72q-102 0 -170.5 -72t-68.5 -184q0 -111 68.5 -183.5t170.5 -72.5q97 0 162 72q13 16 35 16q19 0 33 -13.5t14 -33.5t-12 -32
q-91 -98 -232 -98z" />
    <glyph glyph-name="D" unicode="D" horiz-adv-x="705" 
d="M128 0q-54 0 -54 53v561q0 53 54 53h184q154 0 250 -94t96 -240t-95.5 -239.5t-250.5 -93.5h-184zM174 88h138q112 0 177.5 70t65.5 175q0 107 -64.5 176.5t-178.5 69.5h-138v-491z" />
    <glyph glyph-name="E" unicode="E" horiz-adv-x="573" 
d="M128 0q-54 0 -54 53v561q0 53 54 53h354q18 0 31.5 -13t13.5 -32q0 -18 -13.5 -30.5t-31.5 -12.5h-308v-195h301q18 0 31.5 -12.5t13.5 -30.5q0 -19 -13.5 -32t-31.5 -13h-301v-208h308q18 0 31.5 -12.5t13.5 -30.5q0 -19 -13.5 -32t-31.5 -13h-354z" />
    <glyph glyph-name="F" unicode="F" horiz-adv-x="556" 
d="M125 -5q-21 0 -36 15t-15 35v569q0 53 54 53h354q18 0 31.5 -13t13.5 -32q0 -18 -13.5 -30.5t-31.5 -12.5h-308v-195h301q18 0 31.5 -12.5t13.5 -30.5q0 -19 -13.5 -32t-31.5 -13h-301v-251q0 -20 -14.5 -35t-34.5 -15z" />
    <glyph glyph-name="G" unicode="G" horiz-adv-x="715" 
d="M608 350q53 0 53 -53v-153q0 -41 -27 -65q-102 -92 -242 -92q-146 0 -246 96.5t-100 249.5t100 249t246 96q138 0 229 -91q14 -12 14 -33q0 -19 -13.5 -32.5t-33.5 -13.5q-18 0 -33 13q-68 68 -163 68q-105 0 -174 -72t-69 -184q0 -111 69 -184t174 -73q51 0 96 20t73 46
v120h-175q-18 0 -31 13t-13 32q0 18 13 30.5t31 12.5h222z" />
    <glyph glyph-name="H" unicode="H" horiz-adv-x="717" 
d="M593 -5q-21 0 -35.5 15t-14.5 35v253h-369v-253q0 -20 -14.5 -35t-34.5 -15q-21 0 -36 15t-15 35v577q0 20 15 35t35 15q21 0 35.5 -15t14.5 -35v-235h369v235q0 20 14.5 35t35.5 15t35.5 -15t14.5 -35v-577q0 -20 -14.5 -35t-35.5 -15z" />
    <glyph glyph-name="I" unicode="I" horiz-adv-x="249" 
d="M125 -5q-21 0 -36 15t-15 35v577q0 20 15 35t36 15q20 0 34.5 -15t14.5 -35v-577q0 -20 -14.5 -35t-34.5 -15z" />
    <glyph glyph-name="J" unicode="J" horiz-adv-x="478" 
d="M38 36q-19 13 -19 36q0 19 13 32.5t32 13.5q14 0 25 -8q40 -33 89 -33q57 0 91 35.5t34 94.5v415q0 20 15 35t35 15q21 0 35.5 -15t14.5 -35v-416q0 -107 -60 -162.5t-158 -55.5q-86 0 -147 48z" />
    <glyph glyph-name="K" unicode="K" horiz-adv-x="611" 
d="M560 75q13 -15 13 -32q0 -20 -13.5 -34t-32.5 -14q-22 0 -35 14l-254 279l-64 -68v-175q0 -20 -14.5 -35t-35.5 -15q-20 0 -35 15t-15 35v577q0 20 15 35t35 15q21 0 35.5 -15t14.5 -35v-288l294 323q14 15 35 15q19 0 33 -13.5t14 -32.5q0 -20 -13 -32l-232 -247z" />
    <glyph glyph-name="L" unicode="L" horiz-adv-x="513" 
d="M128 0q-54 0 -54 53v569q0 20 15 35t36 15q20 0 34.5 -15t14.5 -35v-534h263q18 0 31.5 -12.5t13.5 -30.5q0 -19 -13.5 -32t-31.5 -13h-309z" />
    <glyph glyph-name="M" unicode="M" horiz-adv-x="822" 
d="M697 -5q-20 0 -34.5 15t-14.5 35v485l-210 -516q-8 -19 -27 -19q-21 0 -27 19l-210 516v-485q0 -20 -14.5 -35t-34.5 -15q-21 0 -36 15t-15 35v544q0 34 24.5 58.5t59.5 24.5q26 0 47.5 -14.5t30.5 -37.5l175 -433l175 433q9 23 30.5 37.5t47.5 14.5q35 0 59.5 -24.5
t24.5 -58.5v-544q0 -20 -15 -35t-36 -15z" />
    <glyph glyph-name="N" unicode="N" horiz-adv-x="714" 
d="M578 -5q-33 0 -50 26l-354 491v-467q0 -20 -14.5 -35t-34.5 -15q-21 0 -36 15t-15 35v561q0 27 19 46.5t47 19.5q34 0 53 -27l347 -478v455q0 20 14.5 35t34.5 15q21 0 36 -15t15 -35v-565q0 -25 -18 -43.5t-44 -18.5z" />
    <glyph glyph-name="O" unicode="O" horiz-adv-x="765" 
d="M46 333q0 150 94 247.5t242 97.5t242 -97.5t94 -247.5t-94 -247.5t-242 -97.5t-242 97.5t-94 247.5zM615 333q0 112 -64.5 184t-168.5 72q-106 0 -169.5 -72t-63.5 -184t64 -184t169 -72q104 0 168.5 72.5t64.5 183.5z" />
    <glyph glyph-name="P" unicode="P" horiz-adv-x="597" 
d="M125 -5q-21 0 -36 15t-15 35v569q0 53 54 53h227q99 0 156 -59t57 -146t-57.5 -146t-155.5 -59h-181v-212q0 -20 -14.5 -35t-34.5 -15zM465 462q0 52 -34.5 84.5t-88.5 32.5h-168v-234h168q54 0 88.5 32.5t34.5 84.5z" />
    <glyph glyph-name="Q" unicode="Q" horiz-adv-x="765" 
d="M628 90l31 -34q12 -14 12 -31q0 -19 -13.5 -32t-32.5 -13q-21 0 -33 15l-35 38q-76 -45 -175 -45q-148 0 -242 97.5t-94 247.5t94 247.5t242 97.5t242 -97.5t94 -247.5q0 -147 -90 -243zM382 77q60 0 111 27l-61 68q-11 13 -11 29q0 20 12.5 33t31.5 13q22 0 35 -16
l62 -68q53 70 53 170q0 112 -64.5 184t-168.5 72q-106 0 -169.5 -72t-63.5 -184t64 -184t169 -72z" />
    <glyph glyph-name="R" unicode="R" horiz-adv-x="618" 
d="M561 72q10 -12 10 -31q0 -17 -13.5 -31.5t-33.5 -14.5q-27 0 -42 21l-167 241h-141v-212q0 -20 -14.5 -35t-34.5 -15q-21 0 -36 15t-15 35v569q0 53 54 53h227q95 0 154.5 -56.5t59.5 -148.5q0 -80 -42.5 -129.5t-106.5 -62.5zM174 579v-234h168q54 0 89 32.5t35 84.5
t-35 84.5t-89 32.5h-168z" />
    <glyph glyph-name="S" unicode="S" horiz-adv-x="590" 
d="M64 65q-19 16 -19 38q0 19 14.5 33.5t33.5 14.5q17 0 30 -10q80 -64 177 -64q74 0 110 30.5t36 72.5q0 20 -9.5 36.5t-21.5 26.5t-37.5 20t-42.5 15t-50 14q-32 8 -47 12.5t-44.5 14.5t-45 19t-36.5 24t-31.5 32t-18.5 41t-8 52q0 83 67.5 136.5t176.5 53.5
q114 0 206 -65q21 -13 21 -38q0 -20 -14 -34t-33 -14q-15 0 -28 9q-67 53 -160 53q-61 0 -97 -26t-36 -68q0 -17 9 -31.5t21 -23.5t35.5 -18t40.5 -14t49 -13q44 -12 67.5 -19t61 -24.5t57 -36.5t35 -51.5t15.5 -73.5q0 -86 -62.5 -143.5t-189.5 -57.5q-139 0 -232 77z" />
    <glyph glyph-name="T" unicode="T" horiz-adv-x="573" 
d="M287 -5q-21 0 -35.5 15t-14.5 35v534h-168q-18 0 -31 12.5t-13 30.5q0 19 13 32t31 13h435q18 0 31.5 -13t13.5 -32q0 -18 -13.5 -30.5t-31.5 -12.5h-167v-534q0 -20 -15 -35t-35 -15z" />
    <glyph glyph-name="U" unicode="U" horiz-adv-x="710" 
d="M74 261v361q0 20 15 35t36 15t35.5 -15t14.5 -35v-358q0 -87 47 -137t133 -50t132.5 50t46.5 137v358q0 20 15 35t36 15t35.5 -15t14.5 -35v-360q0 -128 -71.5 -201t-208.5 -73t-209 73.5t-72 199.5z" />
    <glyph glyph-name="V" unicode="V" horiz-adv-x="666" 
d="M332 -5q-27 0 -49.5 15.5t-32.5 40.5l-218 549q-5 10 -5 19q0 22 15.5 37.5t37.5 15.5q36 0 50 -34l202 -529l203 529q12 34 49 34q22 0 37.5 -15.5t15.5 -37.5q0 -11 -4 -19l-218 -549q-10 -25 -32.5 -40.5t-50.5 -15.5z" />
    <glyph glyph-name="W" unicode="W" horiz-adv-x="893" 
d="M639 -5q-24 0 -42.5 14t-24.5 37l-126 469l-126 -469q-5 -23 -23.5 -37t-42.5 -14t-42.5 14t-23.5 36l-160 558q-2 10 -2 16q0 22 15.5 37.5t37.5 15.5q18 0 32 -11t19 -29l130 -500l137 503q11 37 50 37q17 0 30.5 -10.5t18.5 -26.5l136 -503l130 500q5 18 19 29t32 11
q22 0 37.5 -15.5t15.5 -37.5q0 -6 -2 -16l-159 -558q-6 -22 -24 -36t-42 -14z" />
    <glyph glyph-name="X" unicode="X" horiz-adv-x="656" 
d="M618 75q12 -15 12 -31q0 -20 -13.5 -34.5t-34.5 -14.5q-24 0 -38 15l-216 259l-215 -259q-15 -15 -38 -15q-21 0 -34.5 14.5t-13.5 34.5q0 16 12 31l228 267l-214 250q-11 15 -11 30q0 20 13.5 35t33.5 15q25 0 38 -17l201 -240l201 240q14 17 38 17q20 0 34 -15t14 -35
q0 -14 -12 -30l-214 -249z" />
    <glyph glyph-name="Y" unicode="Y" horiz-adv-x="631" 
d="M588 624q0 -15 -8 -26l-214 -319v-234q0 -20 -14.5 -35t-35.5 -15t-35.5 15t-14.5 35v234l-215 318q-8 11 -8 27q0 20 14 34t34 14q27 0 41 -22l184 -282l183 282q15 22 41 22q20 0 34 -14t14 -34z" />
    <glyph glyph-name="Z" unicode="Z" horiz-adv-x="587" 
d="M98 0q-23 0 -40 16.5t-17 40.5q0 19 11 33l352 489h-319q-18 0 -31 12.5t-13 30.5q0 19 13 32t31 13h396q23 0 40 -16.5t17 -40.5q0 -19 -11 -33l-352 -489h326q18 0 31 -12.5t13 -30.5q0 -19 -13 -32t-31 -13h-403z" />
    <glyph glyph-name="bracketleft" unicode="[" horiz-adv-x="254" 
d="M81 -190q-16 0 -27.5 11t-11.5 27v791q0 17 11 28t28 11h131q13 0 22 -9.5t9 -22.5t-9 -22.5t-22 -9.5h-102v-740h102q13 0 22 -9.5t9 -22.5t-9 -22.5t-22 -9.5h-131z" />
    <glyph glyph-name="backslash" unicode="\" horiz-adv-x="306" 
d="M262 -25q-23 0 -30 22l-219 651q-2 6 -2 11q0 14 9.5 23.5t22.5 9.5q24 0 31 -22l219 -651q2 -6 2 -12q0 -13 -10 -22.5t-23 -9.5z" />
    <glyph glyph-name="bracketright" unicode="]" horiz-adv-x="254" 
d="M41 -190q-13 0 -22 9.5t-9 22.5t9.5 22.5t22.5 9.5h102v740h-102q-13 0 -22.5 9.5t-9.5 22.5q0 14 9 23t23 9h131q16 0 27.5 -11.5t11.5 -27.5v-791q0 -16 -11.5 -27t-27.5 -11h-132z" />
    <glyph glyph-name="asciicircum" unicode="^" horiz-adv-x="434" 
d="M367 328q-19 0 -29 18l-121 257l-121 -257q-7 -18 -29 -18q-13 0 -22.5 9t-9.5 23q0 6 4 14l133 270q13 28 46 28q32 0 45 -28l133 -270q3 -12 3 -14q0 -14 -9.5 -23t-22.5 -9z" />
    <glyph glyph-name="underscore" unicode="_" horiz-adv-x="564" 
d="M24 -104q-13 0 -22.5 9.5t-9.5 22.5t9.5 22.5t22.5 9.5h516q13 0 22.5 -9.5t9.5 -22.5t-9.5 -22.5t-22.5 -9.5h-516z" />
    <glyph glyph-name="grave" unicode="`" horiz-adv-x="233" 
d="M166 557l-113 97q-10 10 -10 22t8.5 20.5t20.5 8.5t21 -9l105 -105q7 -7 7 -17t-6.5 -16.5t-16.5 -6.5t-16 6z" />
    <glyph glyph-name="a" unicode="a" horiz-adv-x="532" 
d="M266 495q86 0 140 -41t54 -128v-286q0 -19 -13.5 -32t-31.5 -13t-31.5 13t-13.5 32v14q-57 -66 -158 -66q-66 0 -117 42.5t-51 117.5q0 77 50 117.5t118 40.5q103 0 158 -64v80q0 44 -32.5 70t-85.5 26q-65 0 -119 -42q-11 -7 -22 -7q-15 0 -25.5 11t-10.5 26q0 19 15 29
q75 60 176 60zM246 51q83 0 124 55v82q-41 55 -124 55q-49 0 -80 -26.5t-31 -69.5t31 -69.5t80 -26.5z" />
    <glyph glyph-name="b" unicode="b" horiz-adv-x="578" 
d="M320 495q95 0 155 -69.5t60 -184.5q0 -117 -60 -185t-155 -68q-97 0 -158 81v-29q0 -19 -13.5 -32t-31.5 -13q-19 0 -32 13t-13 32v587q0 19 13 32t32 13q18 0 31.5 -13t13.5 -32v-213q59 81 158 81zM296 68q67 0 106.5 48t39.5 125t-39.5 125.5t-106.5 48.5
q-40 0 -77.5 -21t-56.5 -51v-205q18 -30 56 -50t78 -20z" />
    <glyph glyph-name="c" unicode="c" horiz-adv-x="496" 
d="M42 242q0 110 68.5 181.5t177.5 71.5q93 0 154 -56q14 -12 14 -30q0 -17 -11.5 -29t-28.5 -12q-15 0 -27 10q-40 37 -97 37q-70 0 -113 -48.5t-43 -124.5t43 -125t113 -49q57 0 97 37q10 10 26 10q17 0 29 -11.5t12 -28.5q0 -19 -14 -31q-61 -56 -154 -56
q-109 0 -177.5 72t-68.5 182z" />
    <glyph glyph-name="d" unicode="d" horiz-adv-x="578" 
d="M461 672q19 0 32 -13t13 -32v-587q0 -19 -13 -32t-32 -13q-18 0 -31.5 13t-13.5 32v29q-61 -81 -158 -81q-96 0 -156 68t-60 185q0 115 60 184.5t156 69.5q98 0 158 -82v214q0 19 13.5 32t31.5 13zM282 68q40 0 77.5 20t56.5 50v206q-19 30 -56.5 50.5t-77.5 20.5
q-67 0 -106.5 -48.5t-39.5 -125.5q0 -76 39.5 -124.5t106.5 -48.5z" />
    <glyph glyph-name="e" unicode="e" horiz-adv-x="560" 
d="M42 242q0 106 68.5 179.5t173.5 73.5t170 -70.5t65 -169.5q0 -43 -53 -43h-329q5 -64 49.5 -107t114.5 -43q66 0 120 39q6 5 20 5q15 0 25.5 -10.5t10.5 -25.5q0 -19 -16 -30q-71 -52 -169 -52q-109 0 -179.5 70.5t-70.5 183.5zM284 421q-67 0 -105.5 -44t-42.5 -100h295
q-2 56 -39.5 100t-107.5 44z" />
    <glyph glyph-name="f" unicode="f" horiz-adv-x="296" 
d="M256 603q-34 0 -53 -22.5t-19 -65.5v-32h64q16 0 28 -11.5t12 -27.5t-12 -28t-28 -12h-64v-364q0 -19 -13 -32t-31 -13q-19 0 -32.5 13t-13.5 32v364h-45q-17 0 -28.5 12t-11.5 28t12 27.5t28 11.5h45v32q0 76 40.5 119t106.5 43q25 0 48 -6q28 -9 28 -35q0 -36 -36 -36
q-3 0 -12 1.5t-13 1.5z" />
    <glyph glyph-name="g" unicode="g" horiz-adv-x="577" 
d="M461 488q18 0 31.5 -13t13.5 -32v-424q0 -60 -20.5 -103.5t-55.5 -67t-75.5 -34t-88.5 -10.5q-105 0 -174 52q-16 12 -16 31q0 16 11 27t27 11q13 0 23 -7q50 -40 129 -40q63 0 106.5 33.5t43.5 104.5v64q-63 -84 -159 -84t-155.5 67t-59.5 183q0 114 60 181.5t155 67.5
q97 0 159 -82v30q0 19 13 32t32 13zM282 76q39 0 77 21t57 51v196q-19 30 -56.5 50.5t-77.5 20.5q-67 0 -106.5 -47t-39.5 -122q0 -76 39.5 -123t106.5 -47z" />
    <glyph glyph-name="h" unicode="h" horiz-adv-x="560" 
d="M443 -5q-18 0 -31.5 13t-13.5 32v271q0 57 -26.5 80.5t-76.5 23.5q-40 0 -76 -20.5t-57 -49.5v-305q0 -19 -13.5 -32t-31.5 -13q-19 0 -32 13t-13 32v587q0 19 13 32t32 13q18 0 31.5 -13t13.5 -32v-212q27 33 73 56.5t98 23.5q155 0 155 -154v-301q0 -19 -13 -32
t-32 -13z" />
    <glyph glyph-name="i" unicode="i" horiz-adv-x="233" 
d="M116 579q-23 0 -40.5 17t-17.5 41t17 40.5t41 16.5t41 -16.5t17 -40.5t-17 -41t-41 -17zM116 -5q-18 0 -31 13t-13 32v403q0 19 13 32t32 13q18 0 31.5 -13t13.5 -32v-403q0 -19 -13.5 -32t-32.5 -13z" />
    <glyph glyph-name="j" unicode="j" horiz-adv-x="233" 
d="M116 579q-23 0 -40.5 17t-17.5 41t17 40.5t41 16.5t41 -16.5t17 -40.5t-17 -41t-41 -17zM11 -196q-12 0 -18 1q-15 1 -26 12t-11 26t10 27t24 12q1 0 4 -0.5t6 -0.5q72 0 72 81v481q0 19 13 32t32 13q18 0 31.5 -13t13.5 -32v-481q0 -75 -39 -116.5t-112 -41.5z" />
    <glyph glyph-name="k" unicode="k" horiz-adv-x="520" 
d="M472 70q11 -13 11 -30q0 -19 -12.5 -32t-31.5 -13q-23 0 -35 15l-167 197l-75 -70v-97q0 -19 -13.5 -32t-32.5 -13q-18 0 -31 13t-13 32v587q0 19 13 32t32 13q18 0 31.5 -13t13.5 -32v-389l243 239q11 11 29 11q17 0 29 -12.5t12 -29.5q0 -16 -13 -29l-159 -155z" />
    <glyph glyph-name="l" unicode="l" horiz-adv-x="233" 
d="M117 -5q-19 0 -32 13t-13 32v587q0 19 13 32t32 13q18 0 31.5 -13t13.5 -32v-587q0 -19 -13.5 -32t-31.5 -13z" />
    <glyph glyph-name="m" unicode="m" horiz-adv-x="820" 
d="M612 495q137 0 137 -146v-309q0 -19 -13.5 -32t-32.5 -13q-18 0 -31 13t-13 32v282q0 93 -84 93q-35 0 -68 -20.5t-52 -48.5v-306q0 -19 -13 -32t-32 -13q-18 0 -31.5 13t-13.5 32v282q0 93 -85 93q-33 0 -65.5 -20.5t-52.5 -49.5v-305q0 -19 -13.5 -32t-31.5 -13
q-19 0 -32 13t-13 32v403q0 19 13 32t31 13q19 0 32.5 -13t13.5 -32v-28q18 28 62.5 54t93.5 26q53 0 86 -24.5t45 -65.5q23 37 68 63.5t95 26.5z" />
    <glyph glyph-name="n" unicode="n" 
d="M333 495q155 0 155 -156v-299q0 -19 -13.5 -32t-32.5 -13q-18 0 -31 13t-13 32v269q0 106 -103 106q-40 0 -76 -20.5t-57 -49.5v-305q0 -19 -13.5 -32t-31.5 -13q-19 0 -32 13t-13 32v403q0 19 13 32t31 13q19 0 32.5 -13t13.5 -32v-27q28 32 74 55.5t97 23.5z" />
    <glyph glyph-name="o" unicode="o" horiz-adv-x="572" 
d="M286 -12q-110 0 -177 73t-67 181q0 107 67 180t177 73t177 -73t67 -180q0 -108 -67 -181t-177 -73zM286 68q70 0 110 50.5t40 123.5q0 72 -40 122.5t-110 50.5q-69 0 -109.5 -50.5t-40.5 -122.5q0 -73 40.5 -123.5t109.5 -50.5z" />
    <glyph glyph-name="p" unicode="p" horiz-adv-x="577" 
d="M320 495q96 0 155.5 -68t59.5 -185t-59.5 -185.5t-155.5 -68.5q-98 0 -158 82v-214q0 -19 -13.5 -32t-31.5 -13q-19 0 -32 13t-13 32v587q0 19 13 32t32 13q18 0 31.5 -13t13.5 -32v-28q60 80 158 80zM296 68q66 0 105.5 48.5t39.5 125.5q0 76 -39.5 124.5t-105.5 48.5
q-40 0 -78 -20.5t-56 -50.5v-205q19 -30 56.5 -50.5t77.5 -20.5z" />
    <glyph glyph-name="q" unicode="q" horiz-adv-x="577" 
d="M460 488q19 0 32.5 -13t13.5 -32v-587q0 -19 -13.5 -32t-32.5 -13q-18 0 -31 13t-13 32v214q-62 -82 -159 -82q-96 0 -155.5 68.5t-59.5 185.5t59.5 185t155.5 68q99 0 159 -81v29q0 19 13 32t31 13zM282 68q39 0 77 20.5t57 50.5v205q-19 30 -56.5 50.5t-77.5 20.5
q-67 0 -106.5 -48.5t-39.5 -124.5q0 -77 39.5 -125.5t106.5 -48.5z" />
    <glyph glyph-name="r" unicode="r" horiz-adv-x="338" 
d="M288 491q19 0 28.5 -12.5t9.5 -30.5q0 -16 -12 -28t-35 -15q-31 -3 -66.5 -23t-50.5 -46v-296q0 -19 -13.5 -32t-31.5 -13q-19 0 -32 13t-13 32v403q0 19 13 32t31 13q19 0 32.5 -13t13.5 -32v-34q45 60 100 77q18 5 26 5z" />
    <glyph glyph-name="s" unicode="s" horiz-adv-x="468" 
d="M55 42q-17 12 -17 32q0 16 11 27.5t28 11.5q11 0 22 -7q63 -46 136 -46q50 0 77 18.5t27 50.5t-30 48.5t-87 29.5q-34 8 -51.5 12.5t-45.5 16.5t-43 25.5t-26.5 37t-11.5 53.5q0 60 49.5 101.5t134.5 41.5q93 0 161 -50q16 -12 16 -30q0 -15 -11 -26t-26 -11q-11 0 -20 7
q-50 37 -119 37q-46 0 -72.5 -17t-26.5 -46q0 -28 28 -42.5t84 -27.5q34 -8 52.5 -13t47.5 -17t44.5 -26.5t27.5 -39.5t12 -57q0 -65 -51.5 -106.5t-143.5 -41.5q-104 0 -176 54z" />
    <glyph glyph-name="t" unicode="t" horiz-adv-x="306" 
d="M259 74q17 0 27.5 -10.5t10.5 -27.5q0 -26 -23 -34q-30 -14 -69 -14q-57 0 -86 31t-29 88v297h-46q-16 0 -28 12t-12 28t12 27.5t28 11.5h46v92q0 19 13 32t32 13q18 0 31.5 -13t13.5 -32v-92h63q16 0 28 -11.5t12 -27.5t-11.5 -28t-28.5 -12h-63v-277q0 -26 12 -42.5
t35 -16.5q9 0 18.5 3t13.5 3z" />
    <glyph glyph-name="u" unicode="u" 
d="M442 488q19 0 32.5 -13t13.5 -32v-403q0 -19 -13.5 -32t-31.5 -13q-19 0 -32 13t-13 32v26q-70 -78 -172 -78q-154 0 -154 154v301q0 19 13 32t32 13q18 0 31.5 -13t13.5 -32v-271q0 -57 26 -80.5t76 -23.5q40 0 76 19.5t58 48.5v307q0 19 13 32t31 13z" />
    <glyph glyph-name="v" unicode="v" horiz-adv-x="497" 
d="M431 488q19 0 32 -13t13 -32q0 -6 -4 -18l-159 -387q-18 -43 -64 -43q-48 0 -65 43l-160 388q-3 8 -3 17q0 19 12.5 32t31.5 13q31 0 42 -28l141 -358l141 358q11 28 42 28z" />
    <glyph glyph-name="w" unicode="w" horiz-adv-x="744" 
d="M537 -5q-20 0 -36 12t-22 31l-107 333l-107 -333q-6 -19 -22 -31t-36 -12t-36.5 12t-21.5 31l-124 392q-2 8 -2 14q0 18 13 31t31 13q16 0 27.5 -9t15.5 -23l102 -341l111 337q10 36 49 36t49 -36l111 -337l102 341q4 14 15.5 23t27.5 9q18 0 31 -13t13 -32q0 -6 -2 -14
l-124 -391q-5 -19 -21.5 -31t-36.5 -12z" />
    <glyph glyph-name="x" unicode="x" horiz-adv-x="491" 
d="M454 62q9 -11 9 -26t-11 -28t-30 -13q-22 0 -32 15l-145 179l-143 -177q-13 -17 -32 -17t-30.5 13t-11.5 28q0 14 10 26l155 189l-145 168q-10 12 -10 26q0 17 12 30t30 13q19 0 30 -14l136 -162l135 162q13 14 30 14q18 0 30.5 -13t12.5 -30q0 -13 -11 -26l-145 -168z
" />
    <glyph glyph-name="y" unicode="y" horiz-adv-x="497" 
d="M49 -155q0 17 12.5 28.5t29.5 11.5q1 0 4.5 -0.5t6.5 -0.5q50 0 70 47l28 64l-177 431q-2 6 -2 17q0 19 12.5 32t31.5 13q31 0 42 -28l141 -356l141 356q11 28 42 28q19 0 32 -13t13 -32q0 -6 -4 -18l-214 -517q-40 -102 -154 -104q-11 0 -18 1q-16 2 -26.5 13t-10.5 27z
" />
    <glyph glyph-name="z" unicode="z" horiz-adv-x="474" 
d="M90 0q-19 0 -32.5 13.5t-13.5 32.5q0 17 9 29l248 329h-218q-16 0 -27.5 11.5t-11.5 27.5t11.5 28t27.5 12h297q19 0 32.5 -13t13.5 -32q0 -13 -10 -27l-250 -333h224q16 0 28 -11.5t12 -27.5t-12 -27.5t-28 -11.5h-300z" />
    <glyph glyph-name="braceleft" unicode="{" horiz-adv-x="268" 
d="M190 -190q-53 0 -93 39.5t-40 101.5v196q0 51 -37 66q-21 9 -21 31t21 31q37 15 37 66v195q0 63 40 102.5t93 39.5h38q13 0 22 -9.5t9 -22.5t-9 -22.5t-22 -9.5h-38q-27 0 -46 -22t-19 -56v-203q0 -69 -46 -89q46 -20 46 -89v-203q0 -33 19 -55.5t46 -22.5h38
q13 0 22 -9.5t9 -22.5q0 -14 -9 -23t-22 -9h-38z" />
    <glyph glyph-name="bar" unicode="|" horiz-adv-x="212" 
d="M106 -25q-13 0 -22.5 9.5t-9.5 22.5v653q0 13 9.5 22.5t22.5 9.5t22.5 -9.5t9.5 -22.5v-653q0 -13 -9.5 -22.5t-22.5 -9.5z" />
    <glyph glyph-name="braceright" unicode="}" horiz-adv-x="268" 
d="M78 -190h-38q-12 0 -21.5 9t-9.5 23q0 13 9.5 22.5t21.5 9.5h38q27 0 46 22.5t19 55.5v203q0 69 46 89q-46 20 -46 89v203q0 34 -19 56t-46 22h-38q-12 0 -21.5 9.5t-9.5 22.5t9.5 22.5t21.5 9.5h38q54 0 94 -39.5t40 -102.5v-195q0 -52 36 -66q22 -9 22 -31t-22 -31
q-36 -14 -36 -66v-196q0 -62 -40.5 -101.5t-93.5 -39.5z" />
    <glyph glyph-name="asciitilde" unicode="~" horiz-adv-x="505" 
d="M443 669q14 0 24 -11.5t8 -24.5q-7 -64 -20.5 -107.5t-43 -74.5t-74.5 -31q-26 0 -45 9t-32 29t-19.5 34t-15.5 41q-9 26 -14.5 38t-16.5 23.5t-26 11.5q-53 0 -74 -159q-1 -13 -10.5 -21t-21.5 -8q-15 0 -25 11t-8 26q12 98 43.5 154.5t95.5 56.5q26 0 44.5 -9t32 -29.5
t19.5 -33.5t16 -41q9 -26 14.5 -38.5t16.5 -24t26 -11.5q56 0 74 161q1 12 10 20.5t22 8.5z" />
    <glyph glyph-name="uni00A0" unicode="&#xa0;" horiz-adv-x="258" 
 />
    <glyph glyph-name="exclamdown" unicode="&#xa1;" horiz-adv-x="238" 
d="M118 493q25 0 44 -18.5t19 -43.5t-18.5 -43.5t-44.5 -18.5q-25 0 -43 18t-18 44q0 25 18 43.5t43 18.5zM79 254q1 16 12 27t28 11q16 0 27.5 -11t12.5 -27l14 -388q1 -22 -15.5 -38.5t-38.5 -16.5q-23 0 -38.5 16t-15.5 39z" />
    <glyph glyph-name="cent" unicode="&#xa2;" horiz-adv-x="496" 
d="M415 115q17 0 29 -11.5t12 -28.5q0 -19 -14 -31q-50 -47 -124 -55v-60q0 -14 -10 -24t-25 -10q-14 0 -24 10t-10 24v62q-93 13 -150 82.5t-57 168.5t57 168t150 82v44q0 14 10 24t24 10q15 0 25 -10t10 -24v-42q74 -8 124 -55q14 -12 14 -30q0 -17 -11.5 -29t-28.5 -12
q-15 0 -27 10q-30 29 -71 35v-343q41 6 71 35q10 10 26 10zM136 242q0 -63 30.5 -109t82.5 -59v336q-52 -14 -82.5 -59.5t-30.5 -108.5z" />
    <glyph glyph-name="sterling" unicode="&#xa3;" horiz-adv-x="527" 
d="M464 96q19 0 31.5 -13t12.5 -32q0 -25 -24 -39q-42 -25 -106 -25q-47 0 -101 25q-46 20 -79 20q-39 0 -96 -35q-4 -4 -16 -4q-16 0 -28 11.5t-12 28.5q0 23 20 36q106 68 106 141q0 32 -14 58h-112q-13 0 -22 9t-9 22t9 22t22 9h69l-1 1q-22 27 -33 42.5t-22.5 44.5
t-11.5 59q0 85 68.5 142.5t161.5 57.5q115 0 181 -75q12 -12 12 -30q0 -19 -13 -32t-32 -13q-22 0 -35 16q-39 51 -103 51q-55 0 -93.5 -32.5t-38.5 -86.5q0 -25 8.5 -48.5t18 -37t26.5 -35.5l18 -24h123q13 0 22 -9t9 -22t-9 -22t-22 -9h-92q4 -22 4 -36q0 -77 -73 -126
q24 8 52 8q32 0 76 -20q40 -18 66 -18q33 0 63 16q7 4 19 4z" />
    <glyph glyph-name="currency" unicode="&#xa4;" horiz-adv-x="605" 
d="M502 188l55 -55q11 -13 11 -27q0 -16 -11.5 -27t-27.5 -11t-27 11l-55 55q-61 -43 -145 -43q-83 0 -145 43l-54 -55q-11 -11 -27 -11t-27.5 11t-11.5 27q0 14 11 27l55 55q-44 63 -44 145q0 83 45 145l-56 56q-11 10 -11 27q0 15 11.5 26.5t27.5 11.5q14 0 27 -11l56 -56
q59 42 143 42q85 0 144 -42l56 55q12 12 27 12q16 0 27.5 -11.5t11.5 -27.5q0 -15 -11 -26l-56 -56q45 -62 45 -145q0 -82 -44 -145zM302 172q71 0 111.5 47t40.5 114t-40.5 113t-111.5 46q-70 0 -111 -46.5t-41 -112.5q0 -67 41 -114t111 -47z" />
    <glyph glyph-name="yen" unicode="&#xa5;" horiz-adv-x="632" 
d="M540 672q20 0 34 -14t14 -34q0 -15 -8 -26l-175 -259h180q12 0 21 -8.5t9 -21.5q0 -12 -9 -21t-21 -9h-219v-99h219q12 0 21 -9t9 -21t-9 -21t-21 -9h-219v-75q0 -20 -14.5 -35t-35.5 -15t-35.5 15t-14.5 35v75h-218q-12 0 -21.5 9t-9.5 21t9.5 21t21.5 9h218v99h-218
q-12 0 -21.5 9t-9.5 21t9.5 21t21.5 9h178l-174 258q-9 13 -9 27q0 20 14 34t34 14q27 0 41 -22l184 -281l183 281q14 22 41 22z" />
    <glyph glyph-name="brokenbar" unicode="&#xa6;" horiz-adv-x="212" 
d="M106 366q-13 0 -22.5 9.5t-9.5 22.5v262q0 13 9.5 22.5t22.5 9.5t22.5 -9.5t9.5 -22.5v-262q0 -13 -9.5 -22.5t-22.5 -9.5zM106 -25q-13 0 -22.5 9.5t-9.5 22.5v262q0 13 9.5 22.5t22.5 9.5t22.5 -9.5t9.5 -22.5v-262q0 -13 -9.5 -22.5t-22.5 -9.5z" />
    <glyph glyph-name="section" unicode="&#xa7;" horiz-adv-x="472" 
d="M336 190q90 -35 90 -122q0 -69 -54 -109t-141 -40q-103 0 -178 59q-14 12 -14 28q0 14 10.5 24.5t25.5 10.5q13 0 21 -8q62 -49 135 -49q48 0 78 20.5t30 57.5q0 24 -19.5 41t-40.5 24t-63 17q-34 9 -50 13.5t-44 17t-41.5 26t-25 36t-11.5 51.5q0 48 31.5 80.5
t78.5 45.5q-110 37 -110 125q0 58 50.5 98t133.5 40q96 0 163 -51q13 -10 13 -27q0 -13 -10 -23t-23 -10q-11 0 -19 6q-52 40 -120 40q-46 0 -74 -20t-28 -53q0 -16 8 -27.5t28.5 -20t34.5 -12.5t46 -12q33 -8 51.5 -13t46.5 -17t43 -26t26.5 -38t11.5 -55q0 -87 -90 -128z
M233 391q-57 -15 -80 -37.5t-23 -55.5q0 -16 8.5 -28.5t17.5 -20t31.5 -15.5t34 -11t40.5 -10q76 33 76 91q0 36 -28.5 55.5t-76.5 31.5z" />
    <glyph glyph-name="dieresis" unicode="&#xa8;" horiz-adv-x="416" 
d="M104 565q-22 0 -37.5 15.5t-15.5 37.5t15.5 37t37.5 15t37 -15t15 -37t-15 -37.5t-37 -15.5zM312 565q-22 0 -37.5 15.5t-15.5 37.5t15.5 37t37.5 15q21 0 37 -15.5t16 -36.5q0 -22 -16 -37.5t-37 -15.5z" />
    <glyph glyph-name="copyright" unicode="&#xa9;" horiz-adv-x="778" 
d="M44 334q0 143 101 244t244 101t244 -101t101 -244t-101 -244t-244 -101t-244 101.5t-101 243.5zM702 334q0 129 -92 220.5t-221 91.5t-221 -91.5t-92 -220.5t92 -221t221 -92t221 92t92 221zM184 335q0 91 60.5 151.5t147.5 60.5q86 0 140 -59q4 -4 4 -11q0 -20 -19 -20
q-7 0 -14 7q-43 48 -111 48q-69 0 -118.5 -49.5t-49.5 -127.5q0 -77 49.5 -128t118.5 -51q68 0 111 48q7 7 14 7q19 0 19 -20q0 -8 -4 -11q-56 -59 -140 -59q-87 0 -147.5 61.5t-60.5 152.5z" />
    <glyph glyph-name="ordfeminine" unicode="&#xaa;" horiz-adv-x="380" 
d="M189 648q58 0 95.5 -27.5t37.5 -87.5v-178q0 -14 -10 -24t-24 -10t-23.5 10.5t-9.5 25.5v3q-38 -42 -106 -42q-44 0 -77.5 28t-33.5 76q0 49 33.5 76t77.5 27q68 0 106 -42v51q0 28 -21.5 45t-54.5 17q-43 0 -81 -29q-5 -5 -15 -5q-11 0 -18 7t-7 18q0 14 10 21
q55 40 121 40zM176 362q53 0 79 35v50q-27 35 -79 35q-30 0 -50.5 -16.5t-20.5 -43.5t20 -43.5t51 -16.5z" />
    <glyph glyph-name="guillemotleft" unicode="&#xab;" horiz-adv-x="464" 
d="M209 58q-13 0 -24 11l-122 136q-16 19 -16 38q0 21 16 38l122 134q8 10 24 10q13 0 22.5 -9.5t9.5 -22.5t-8 -21l-116 -129l117 -131q8 -8 8 -22q0 -13 -10 -22.5t-23 -9.5zM366 58q-13 0 -24 11l-122 136q-16 19 -16 38q0 21 16 38l122 134q8 10 24 10q13 0 22.5 -9.5
t9.5 -22.5t-8 -21l-116 -129l117 -131q8 -8 8 -22q0 -13 -10 -22.5t-23 -9.5z" />
    <glyph glyph-name="logicalnot" unicode="&#xac;" horiz-adv-x="507" 
d="M471 234q0 -13 -9 -22t-22 -9t-22 9t-9 22v166h-355q-12 0 -21 8.5t-9 21.5t9 21.5t21 8.5h364q53 0 53 -53v-173z" />
    <glyph glyph-name="uni00AD" unicode="&#xad;" horiz-adv-x="300" 
d="M64 203q-16 0 -27.5 11.5t-11.5 27.5t11.5 27.5t27.5 11.5h172q16 0 27.5 -11.5t11.5 -27.5t-11.5 -27.5t-27.5 -11.5h-172z" />
    <glyph glyph-name="registered" unicode="&#xae;" horiz-adv-x="494" 
d="M35 465q0 88 62 150t150 62q89 0 150.5 -61.5t61.5 -150.5q0 -88 -62 -150t-150 -62t-150 62t-62 150zM429 465q0 76 -53 129t-129 53t-129.5 -53t-53.5 -129q0 -75 53.5 -129t129.5 -54q75 0 128.5 54t53.5 129zM310 346l-61 93h-51v-84q0 -16 -15 -16q-17 0 -17 16v211
q0 8 6 14t14 6h79q32 0 54.5 -20.5t22.5 -53.5q0 -32 -18 -49.5t-37 -21.5l52 -77q3 -5 3 -8q0 -7 -5.5 -12.5t-12.5 -5.5q-9 0 -14 8zM309 512q0 19 -13.5 32t-30.5 13h-67v-88h67q17 0 30.5 12.5t13.5 30.5z" />
    <glyph glyph-name="macron" unicode="&#xaf;" horiz-adv-x="363" 
d="M46 569q-11 0 -19 8t-8 19q0 12 8 20t19 8h271q11 0 19 -8t8 -20q0 -11 -8 -19t-19 -8h-271z" />
    <glyph glyph-name="degree" unicode="&#xb0;" horiz-adv-x="296" 
d="M147 426q-52 0 -88.5 36.5t-36.5 88.5t36.5 89t88.5 37t89 -37t37 -89t-36.5 -88.5t-89.5 -36.5zM147 623q-29 0 -49.5 -21.5t-20.5 -50.5t20.5 -50t49.5 -21t50.5 21t21.5 50t-21.5 50.5t-50.5 21.5z" />
    <glyph glyph-name="plusminus" unicode="&#xb1;" horiz-adv-x="500" 
d="M283 324v-183q0 -13 -10 -23t-23 -10t-23 10t-10 23v183h-163q-12 0 -21 9t-9 21q0 13 9 21.5t21 8.5h163v176q0 14 9.5 23.5t23.5 9.5t23.5 -9.5t9.5 -23.5v-176h163q12 0 21.5 -8.5t9.5 -20.5q0 -13 -9.5 -22t-21.5 -9h-163zM54 0q-12 0 -21 8.5t-9 21.5q0 12 9 21
t21 9h392q12 0 21.5 -9t9.5 -22q0 -12 -9.5 -20.5t-21.5 -8.5h-392z" />
    <glyph glyph-name="uni00B2" unicode="&#xb2;" horiz-adv-x="348" 
d="M48 421q-14 0 -24 10t-10 24q0 18 15 28q119 83 167 130.5t48 88.5q0 33 -23 50.5t-57 17.5q-53 0 -95 -35q-9 -7 -18 -7q-12 0 -20.5 8.5t-8.5 21.5t10 23q55 46 134 46q63 0 105.5 -31t42.5 -89q0 -53 -47.5 -106t-144.5 -123h171q12 0 20.5 -8.5t8.5 -19.5
q0 -12 -8.5 -20.5t-20.5 -8.5h-245z" />
    <glyph glyph-name="uni00B3" unicode="&#xb3;" horiz-adv-x="370" 
d="M174 414q-86 0 -139 47q-10 8 -10 23q0 12 8.5 20.5t21.5 8.5q12 0 18 -6q44 -36 98 -36q41 0 64 17t23 46q0 63 -99 63h-19q-11 0 -19.5 8.5t-8.5 19.5t8.5 19.5t19.5 8.5h18q94 0 94 58q0 28 -24 43.5t-61 15.5q-52 0 -92 -33q-7 -6 -17 -6q-11 0 -19.5 8.5t-8.5 19.5
q0 13 11 22q56 46 133 46q67 0 107 -29t40 -78q0 -39 -26.5 -63t-62.5 -30q35 -3 65.5 -28t30.5 -69q0 -52 -42 -84t-112 -32z" />
    <glyph glyph-name="acute" unicode="&#xb4;" horiz-adv-x="233" 
d="M67 557q-6 -6 -16 -6t-16.5 6.5t-6.5 16.5t7 17l105 105q9 9 21 9t20.5 -8.5t8.5 -20.5t-10 -22z" />
    <glyph glyph-name="uni00B5" unicode="&#xb5;" horiz-adv-x="573" 
d="M529 67q15 -2 23 -13.5t8 -25.5q0 -16 -11 -27.5t-26 -12.5h-10q-93 0 -112 86q-26 -38 -65 -62t-83 -24q-66 0 -91 42v-174q0 -19 -13.5 -32t-32.5 -13q-18 0 -31 13t-13 32v587q0 19 13 32t32 13q18 0 31.5 -13t13.5 -32v-271q0 -105 103 -105q39 0 75 20t58 49v307
q0 19 13 32t31 13q19 0 32.5 -13t13.5 -32v-321q0 -51 34 -54z" />
    <glyph glyph-name="paragraph" unicode="&#xb6;" horiz-adv-x="449" 
d="M360 -105q-10 0 -17.5 7.5t-7.5 17.5v697h-86v-697q0 -10 -7.5 -17.5t-17.5 -7.5t-17.5 7.5t-7.5 17.5v403q-71 0 -121.5 50.5t-50.5 121.5t50.5 121.5t121.5 50.5h133q53 0 53 -53v-694q0 -10 -7.5 -17.5t-17.5 -7.5z" />
    <glyph glyph-name="periodcentered" unicode="&#xb7;" horiz-adv-x="238" 
d="M118 182q-25 0 -43.5 18.5t-18.5 43.5q0 26 18.5 44.5t43.5 18.5q26 0 44.5 -18.5t18.5 -44.5q0 -25 -19 -43.5t-44 -18.5z" />
    <glyph glyph-name="cedilla" unicode="&#xb8;" horiz-adv-x="209" 
d="M103 -193q-53 0 -90 23q-13 4 -13 20q0 10 7 16.5t16 6.5q6 0 12 -3q31 -19 66 -19q25 0 42 10t17 29q0 32 -36 32q-18 0 -29 -10q-6 -4 -15 -4q-11 0 -18 7t-7 18q0 4 2 10l25 68h50l-26 -65q16 11 37 11q29 0 47.5 -19t18.5 -49q0 -37 -30.5 -59.5t-75.5 -22.5z" />
    <glyph glyph-name="uni00B9" unicode="&#xb9;" horiz-adv-x="242" 
d="M146 416q-14 0 -24.5 10.5t-10.5 25.5v278l-49 -50q-6 -9 -21 -9q-12 0 -20.5 8.5t-8.5 20.5t9 21l93 94q11 11 28 11q16 0 28 -11.5t12 -27.5v-335q0 -15 -10.5 -25.5t-25.5 -10.5z" />
    <glyph glyph-name="ordmasculine" unicode="&#xba;" horiz-adv-x="405" 
d="M37 483q0 70 45.5 117.5t119.5 47.5q75 0 120.5 -47.5t45.5 -117.5t-45.5 -117.5t-120.5 -47.5q-74 0 -119.5 48t-45.5 117zM298 483q0 48 -25.5 78t-70.5 30t-70 -30t-25 -78q0 -49 25 -79t70 -30t70.5 30.5t25.5 78.5z" />
    <glyph glyph-name="guillemotright" unicode="&#xbb;" horiz-adv-x="464" 
d="M98 58q-13 0 -23 9.5t-10 22.5q0 14 8 22l117 131l-116 129q-8 8 -8 21t9.5 22.5t22.5 9.5q16 0 24 -10l122 -134q16 -17 16 -38q0 -19 -16 -38l-122 -136q-11 -11 -24 -11zM255 58q-13 0 -23 9.5t-10 22.5q0 14 8 22l117 131l-116 129q-8 8 -8 21t9.5 22.5t22.5 9.5
q16 0 24 -10l122 -134q16 -17 16 -38q0 -19 -16 -38l-122 -136q-11 -11 -24 -11z" />
    <glyph glyph-name="onequarter" unicode="&#xbc;" horiz-adv-x="724" 
d="M146 262q-14 0 -24.5 10.5t-10.5 25.5v278l-49 -50q-6 -9 -21 -9q-12 0 -20.5 8.5t-8.5 20.5t9 21l93 94q11 11 28 11q16 0 28 -11.5t12 -27.5v-335q0 -15 -10.5 -25.5t-25.5 -10.5zM570 646q0 -7 -4 -14l-400 -625q-9 -12 -22 -12q-11 0 -18.5 7.5t-7.5 17.5q0 5 4 15
l399 625q7 12 22 12q11 0 19 -7.5t8 -18.5zM689 153q11 0 19.5 -8.5t8.5 -20.5q0 -11 -8.5 -19.5t-19.5 -8.5h-33v-66q0 -14 -10.5 -24.5t-24.5 -10.5q-15 0 -25 10.5t-10 24.5v66h-169q-13 0 -22.5 9.5t-9.5 23.5q0 10 5 18l153 230q18 28 52 28q25 0 43 -18t18 -43v-191
h33zM460 153h126v186z" />
    <glyph glyph-name="onehalf" unicode="&#xbd;" horiz-adv-x="764" 
d="M146 262q-14 0 -24.5 10.5t-10.5 25.5v278l-49 -50q-6 -9 -21 -9q-12 0 -20.5 8.5t-8.5 20.5t9 21l93 94q11 11 28 11q16 0 28 -11.5t12 -27.5v-335q0 -15 -10.5 -25.5t-25.5 -10.5zM166 7q-9 -12 -22 -12q-11 0 -18.5 7.5t-7.5 17.5q0 5 4 15l399 625q7 12 22 12
q11 0 19 -7.5t8 -18.5q0 -7 -4 -14zM464 0q-14 0 -24 10t-10 24q0 18 15 28q119 83 167 130.5t48 88.5q0 33 -23 50.5t-57 17.5q-53 0 -95 -35q-9 -7 -18 -7q-12 0 -20.5 8.5t-8.5 21.5t10 23q55 46 134 46q63 0 105.5 -31t42.5 -89q0 -53 -47.5 -106t-144.5 -123h171
q12 0 20.5 -8.5t8.5 -19.5q0 -12 -8.5 -20.5t-20.5 -8.5h-245z" />
    <glyph glyph-name="threequarters" unicode="&#xbe;" horiz-adv-x="822" 
d="M328 376q0 -52 -42 -84t-112 -32q-86 0 -139 47q-10 8 -10 23q0 12 8.5 20.5t21.5 8.5q12 0 18 -6q44 -36 98 -36q41 0 64 17t23 46q0 63 -99 63h-19q-11 0 -19.5 8.5t-8.5 19.5t8.5 19.5t19.5 8.5h18q94 0 94 58q0 28 -24 43.5t-61 15.5q-52 0 -92 -33q-7 -6 -17 -6
q-11 0 -19.5 8.5t-8.5 19.5q0 13 11 22q56 46 133 46q67 0 107 -29t40 -78q0 -39 -26.5 -63t-62.5 -30q35 -3 65.5 -28t30.5 -69zM668 646q0 -7 -4 -14l-400 -625q-9 -12 -22 -12q-11 0 -18.5 7.5t-7.5 17.5q0 5 4 15l399 625q7 12 22 12q11 0 19 -7.5t8 -18.5zM787 153
q11 0 19.5 -8.5t8.5 -20.5q0 -11 -8.5 -19.5t-19.5 -8.5h-33v-66q0 -14 -10.5 -24.5t-24.5 -10.5q-15 0 -25 10.5t-10 24.5v66h-169q-13 0 -22.5 9.5t-9.5 23.5q0 10 5 18l153 230q18 28 52 28q25 0 43 -18t18 -43v-191h33zM558 153h126v186z" />
    <glyph glyph-name="questiondown" unicode="&#xbf;" horiz-adv-x="395" 
d="M298 430q0 -25 -18.5 -43.5t-44.5 -18.5q-25 0 -43.5 18t-18.5 44t18.5 44.5t43.5 18.5t44 -18.5t19 -44.5zM301 209q0 -31 -16 -58.5t-31.5 -40.5t-45.5 -35q-27 -19 -40 -29t-25.5 -29t-12.5 -40q0 -36 27.5 -59.5t79.5 -23.5q73 0 123 50q12 10 28 10q18 0 31 -12.5
t13 -31.5q0 -20 -15 -33q-78 -72 -190 -72q-91 0 -145.5 44t-54.5 112q0 30 8.5 54.5t28 45t32.5 31t40 29.5q28 20 40 29.5t25 28t13 38.5q0 7 -7 19q-1 4 -1 10q0 18 12 30.5t30 12.5q23 0 35 -21q18 -29 18 -59z" />
    <glyph glyph-name="Agrave" unicode="&#xc0;" horiz-adv-x="666" 
d="M314 724l-113 97q-10 10 -10 22t8.5 20.5t20.5 8.5t21 -9l105 -105q7 -7 7 -17t-6.5 -16.5t-16.5 -6.5t-16 6zM634 65q4 -10 4 -19q0 -21 -15 -36t-36 -15q-36 0 -47 32l-42 111h-331l-42 -111q-5 -14 -18.5 -23t-28.5 -9q-21 0 -36 15t-15 36q0 7 4 19l220 551
q9 24 31.5 40t49.5 16q28 0 50 -15.5t32 -40.5zM200 227h265l-133 353z" />
    <glyph glyph-name="Aacute" unicode="&#xc1;" horiz-adv-x="666" 
d="M339 718q-10 0 -16.5 6.5t-6.5 16.5t7 17l105 105q9 9 21 9t20.5 -8.5t8.5 -20.5t-10 -22l-113 -97q-6 -6 -16 -6zM634 65q4 -10 4 -19q0 -21 -15 -36t-36 -15q-36 0 -47 32l-42 111h-331l-42 -111q-5 -14 -18.5 -23t-28.5 -9q-21 0 -36 15t-15 36q0 7 4 19l220 551
q9 24 31.5 40t49.5 16q28 0 50 -15.5t32 -40.5zM200 227h265l-133 353z" />
    <glyph glyph-name="Acircumflex" unicode="&#xc2;" horiz-adv-x="666" 
d="M239 717q-11 0 -18.5 7t-7.5 18q0 8 4 13l63 96q15 22 42 22h22q27 0 42 -22l63 -96q4 -5 4 -13q0 -11 -7.5 -18t-18.5 -7q-12 0 -18 9l-76 98l-76 -98q-6 -9 -18 -9zM634 65q4 -10 4 -19q0 -21 -15 -36t-36 -15q-36 0 -47 32l-42 111h-331l-42 -111q-5 -14 -18.5 -23
t-28.5 -9q-21 0 -36 15t-15 36q0 7 4 19l220 551q9 24 31.5 40t49.5 16q28 0 50 -15.5t32 -40.5zM200 227h265l-133 353z" />
    <glyph glyph-name="Atilde" unicode="&#xc3;" horiz-adv-x="666" 
d="M201 722q-11 0 -19 8.5t-6 19.5q5 52 30.5 81.5t67.5 29.5q18 0 33.5 -8.5t22.5 -16.5t19 -24q10 -13 14.5 -18.5t13.5 -11.5t18 -6q37 0 44 62q2 22 25 22q11 0 18.5 -8t6.5 -20q-5 -52 -30.5 -81.5t-67.5 -29.5q-19 0 -34.5 8.5t-22.5 16.5t-19 24q-25 36 -45 36
q-38 0 -44 -62q-4 -22 -25 -22zM634 65q4 -10 4 -19q0 -21 -15 -36t-36 -15q-36 0 -47 32l-42 111h-331l-42 -111q-5 -14 -18.5 -23t-28.5 -9q-21 0 -36 15t-15 36q0 7 4 19l220 551q9 24 31.5 40t49.5 16q28 0 50 -15.5t32 -40.5zM200 227h265l-133 353z" />
    <glyph glyph-name="Adieresis" unicode="&#xc4;" horiz-adv-x="666" 
d="M228 732q-22 0 -37.5 15.5t-15.5 37.5t15.5 37t37.5 15t37 -15t15 -37t-15 -37.5t-37 -15.5zM436 732q-22 0 -37.5 15.5t-15.5 37.5t15.5 37t37.5 15q21 0 37 -15.5t16 -36.5q0 -22 -16 -37.5t-37 -15.5zM634 65q4 -10 4 -19q0 -21 -15 -36t-36 -15q-36 0 -47 32l-42 111
h-331l-42 -111q-5 -14 -18.5 -23t-28.5 -9q-21 0 -36 15t-15 36q0 7 4 19l220 551q9 24 31.5 40t49.5 16q28 0 50 -15.5t32 -40.5zM200 227h265l-133 353z" />
    <glyph glyph-name="Aring" unicode="&#xc5;" horiz-adv-x="666" 
d="M333 706q-41 0 -70.5 30t-29.5 71t29.5 71t70.5 30t70 -30t29 -71t-29 -71t-70 -30zM333 862q-23 0 -39 -16t-16 -39t16.5 -39.5t38.5 -16.5q23 0 39 16.5t16 39.5t-16 39t-39 16zM634 65q4 -10 4 -19q0 -21 -15 -36t-36 -15q-36 0 -47 32l-42 111h-331l-42 -111
q-5 -14 -18.5 -23t-28.5 -9q-21 0 -36 15t-15 36q0 7 4 19l220 551q9 24 31.5 40t49.5 16q28 0 50 -15.5t32 -40.5zM200 227h265l-133 353z" />
    <glyph glyph-name="AE" unicode="&#xc6;" horiz-adv-x="953" 
d="M863 88q18 0 31.5 -12.5t13.5 -30.5q0 -19 -13.5 -32t-31.5 -13h-354q-54 0 -54 53v85h-261l-71 -121q-14 -22 -40 -22q-19 0 -33 13.5t-14 33.5q0 10 7 24l350 565q23 36 65 36h405q18 0 31.5 -13t13.5 -32q0 -18 -13.5 -30.5t-31.5 -12.5h-308v-195h301
q18 0 31.5 -12.5t13.5 -30.5q0 -19 -13.5 -32t-31.5 -13h-301v-208h308zM247 227h208v354z" />
    <glyph glyph-name="Ccedilla" unicode="&#xc7;" horiz-adv-x="671" 
d="M585 165q19 0 33 -13.5t14 -33.5t-12 -32q-85 -91 -214 -98l-17 -42q16 11 37 11q29 0 47.5 -19t18.5 -49q0 -37 -30.5 -59.5t-75.5 -22.5q-53 0 -90 23q-13 4 -13 20q0 10 7 16.5t16 6.5q6 0 12 -3q31 -19 66 -19q25 0 42 10t17 29q0 32 -36 32q-18 0 -29 -10
q-6 -4 -15 -4q-11 0 -18 7t-7 18q0 4 2 10l17 46q-134 11 -222.5 106t-88.5 238q0 151 98.5 248t243.5 97q142 0 232 -98q12 -12 12 -32t-14 -33.5t-33 -13.5q-23 0 -36 16q-64 72 -161 72q-102 0 -170.5 -72t-68.5 -184q0 -111 68.5 -183.5t170.5 -72.5q97 0 162 72
q13 16 35 16z" />
    <glyph glyph-name="Egrave" unicode="&#xc8;" horiz-adv-x="573" 
d="M286 724l-113 97q-10 10 -10 22t8.5 20.5t20.5 8.5t21 -9l105 -105q7 -7 7 -17t-6.5 -16.5t-16.5 -6.5t-16 6zM128 0q-54 0 -54 53v561q0 53 54 53h354q18 0 31.5 -13t13.5 -32q0 -18 -13.5 -30.5t-31.5 -12.5h-308v-195h301q18 0 31.5 -12.5t13.5 -30.5q0 -19 -13.5 -32
t-31.5 -13h-301v-208h308q18 0 31.5 -12.5t13.5 -30.5q0 -19 -13.5 -32t-31.5 -13h-354z" />
    <glyph glyph-name="Eacute" unicode="&#xc9;" horiz-adv-x="573" 
d="M327 724q-6 -6 -16 -6t-16.5 6.5t-6.5 16.5t7 17l105 105q9 9 21 9t20.5 -8.5t8.5 -20.5t-10 -22zM128 0q-54 0 -54 53v561q0 53 54 53h354q18 0 31.5 -13t13.5 -32q0 -18 -13.5 -30.5t-31.5 -12.5h-308v-195h301q18 0 31.5 -12.5t13.5 -30.5q0 -19 -13.5 -32t-31.5 -13
h-301v-208h308q18 0 31.5 -12.5t13.5 -30.5q0 -19 -13.5 -32t-31.5 -13h-354z" />
    <glyph glyph-name="Ecircumflex" unicode="&#xca;" horiz-adv-x="573" 
d="M381 726l-76 98l-76 -98q-6 -9 -18 -9q-11 0 -18.5 7t-7.5 18q0 8 4 13l63 96q15 22 42 22h22q27 0 42 -22l63 -96q4 -5 4 -13q0 -11 -7.5 -18t-18.5 -7q-12 0 -18 9zM128 0q-54 0 -54 53v561q0 53 54 53h354q18 0 31.5 -13t13.5 -32q0 -18 -13.5 -30.5t-31.5 -12.5h-308
v-195h301q18 0 31.5 -12.5t13.5 -30.5q0 -19 -13.5 -32t-31.5 -13h-301v-208h308q18 0 31.5 -12.5t13.5 -30.5q0 -19 -13.5 -32t-31.5 -13h-354z" />
    <glyph glyph-name="Edieresis" unicode="&#xcb;" horiz-adv-x="573" 
d="M200 732q-22 0 -37.5 15.5t-15.5 37.5t15.5 37t37.5 15t37 -15t15 -37t-15 -37.5t-37 -15.5zM408 732q-22 0 -37.5 15.5t-15.5 37.5t15.5 37t37.5 15q21 0 37 -15.5t16 -36.5q0 -22 -16 -37.5t-37 -15.5zM128 0q-54 0 -54 53v561q0 53 54 53h354q18 0 31.5 -13t13.5 -32
q0 -18 -13.5 -30.5t-31.5 -12.5h-308v-195h301q18 0 31.5 -12.5t13.5 -30.5q0 -19 -13.5 -32t-31.5 -13h-301v-208h308q18 0 31.5 -12.5t13.5 -30.5q0 -19 -13.5 -32t-31.5 -13h-354z" />
    <glyph glyph-name="Igrave" unicode="&#xcc;" horiz-adv-x="249" 
d="M107 724l-113 97q-10 10 -10 22t8.5 20.5t20.5 8.5t21 -9l105 -105q7 -7 7 -17t-6.5 -16.5t-16.5 -6.5t-16 6zM125 -5q-21 0 -36 15t-15 35v577q0 20 15 35t36 15q20 0 34.5 -15t14.5 -35v-577q0 -20 -14.5 -35t-34.5 -15z" />
    <glyph glyph-name="Iacute" unicode="&#xcd;" horiz-adv-x="249" 
d="M148 724q-6 -6 -16 -6t-16.5 6.5t-6.5 16.5t7 17l105 105q9 9 21 9t20.5 -8.5t8.5 -20.5t-10 -22zM125 -5q-21 0 -36 15t-15 35v577q0 20 15 35t36 15q20 0 34.5 -15t14.5 -35v-577q0 -20 -14.5 -35t-34.5 -15z" />
    <glyph glyph-name="Icircumflex" unicode="&#xce;" horiz-adv-x="249" 
d="M202 726l-76 98l-76 -98q-6 -9 -18 -9q-11 0 -18.5 7t-7.5 18q0 8 4 13l63 96q15 22 42 22h22q27 0 42 -22l63 -96q4 -5 4 -13q0 -11 -7.5 -18t-18.5 -7q-12 0 -18 9zM125 -5q-21 0 -36 15t-15 35v577q0 20 15 35t36 15q20 0 34.5 -15t14.5 -35v-577q0 -20 -14.5 -35
t-34.5 -15z" />
    <glyph glyph-name="Idieresis" unicode="&#xcf;" horiz-adv-x="249" 
d="M21 732q-22 0 -37.5 15.5t-15.5 37.5t15.5 37t37.5 15t37 -15t15 -37t-15 -37.5t-37 -15.5zM229 732q-22 0 -37.5 15.5t-15.5 37.5t15.5 37t37.5 15q21 0 37 -15.5t16 -36.5q0 -22 -16 -37.5t-37 -15.5zM125 -5q-21 0 -36 15t-15 35v577q0 20 15 35t36 15q20 0 34.5 -15
t14.5 -35v-577q0 -20 -14.5 -35t-34.5 -15z" />
    <glyph glyph-name="Eth" unicode="&#xd0;" horiz-adv-x="732" 
d="M339 667q154 0 250 -94t96 -240t-95.5 -239.5t-250.5 -93.5h-184q-54 0 -54 53v238h-59q-15 0 -26.5 11t-11.5 27q0 15 11.5 26t26.5 11h59v248q0 53 54 53h184zM339 88q112 0 177.5 70t65.5 175q0 107 -64.5 176.5t-178.5 69.5h-138v-213h132q15 0 26.5 -11t11.5 -26
q0 -16 -11.5 -27t-26.5 -11h-132v-203h138z" />
    <glyph glyph-name="Ntilde" unicode="&#xd1;" horiz-adv-x="714" 
d="M416 721q-19 0 -34.5 8.5t-22.5 16.5t-19 24q-25 36 -45 36q-38 0 -44 -62q-4 -22 -25 -22q-11 0 -19 8.5t-6 19.5q5 52 30.5 81.5t67.5 29.5q18 0 33.5 -8.5t22.5 -16.5t19 -24q10 -13 14.5 -18.5t13.5 -11.5t18 -6q37 0 44 62q2 22 25 22q11 0 18.5 -8t6.5 -20
q-5 -52 -30.5 -81.5t-67.5 -29.5zM578 -5q-33 0 -50 26l-354 491v-467q0 -20 -14.5 -35t-34.5 -15q-21 0 -36 15t-15 35v561q0 27 19 46.5t47 19.5q34 0 53 -27l347 -478v455q0 20 14.5 35t34.5 15q21 0 36 -15t15 -35v-565q0 -25 -18 -43.5t-44 -18.5z" />
    <glyph glyph-name="Ograve" unicode="&#xd2;" horiz-adv-x="765" 
d="M363 724l-113 97q-10 10 -10 22t8.5 20.5t20.5 8.5t21 -9l105 -105q7 -7 7 -17t-6.5 -16.5t-16.5 -6.5t-16 6zM46 333q0 150 94 247.5t242 97.5t242 -97.5t94 -247.5t-94 -247.5t-242 -97.5t-242 97.5t-94 247.5zM615 333q0 112 -64.5 184t-168.5 72q-106 0 -169.5 -72
t-63.5 -184t64 -184t169 -72q104 0 168.5 72.5t64.5 183.5z" />
    <glyph glyph-name="Oacute" unicode="&#xd3;" horiz-adv-x="765" 
d="M404 724q-6 -6 -16 -6t-16.5 6.5t-6.5 16.5t7 17l105 105q9 9 21 9t20.5 -8.5t8.5 -20.5t-10 -22zM46 333q0 150 94 247.5t242 97.5t242 -97.5t94 -247.5t-94 -247.5t-242 -97.5t-242 97.5t-94 247.5zM615 333q0 112 -64.5 184t-168.5 72q-106 0 -169.5 -72t-63.5 -184
t64 -184t169 -72q104 0 168.5 72.5t64.5 183.5z" />
    <glyph glyph-name="Ocircumflex" unicode="&#xd4;" horiz-adv-x="765" 
d="M458 726l-76 98l-76 -98q-6 -9 -18 -9q-11 0 -18.5 7t-7.5 18q0 8 4 13l63 96q15 22 42 22h22q27 0 42 -22l63 -96q4 -5 4 -13q0 -11 -7.5 -18t-18.5 -7q-12 0 -18 9zM46 333q0 150 94 247.5t242 97.5t242 -97.5t94 -247.5t-94 -247.5t-242 -97.5t-242 97.5t-94 247.5z
M615 333q0 112 -64.5 184t-168.5 72q-106 0 -169.5 -72t-63.5 -184t64 -184t169 -72q104 0 168.5 72.5t64.5 183.5z" />
    <glyph glyph-name="Otilde" unicode="&#xd5;" horiz-adv-x="765" 
d="M440 721q-19 0 -34.5 8.5t-22.5 16.5t-19 24q-25 36 -45 36q-38 0 -44 -62q-4 -22 -25 -22q-11 0 -19 8.5t-6 19.5q5 52 30.5 81.5t67.5 29.5q18 0 33.5 -8.5t22.5 -16.5t19 -24q10 -13 14.5 -18.5t13.5 -11.5t18 -6q37 0 44 62q2 22 25 22q11 0 18.5 -8t6.5 -20
q-5 -52 -30.5 -81.5t-67.5 -29.5zM46 333q0 150 94 247.5t242 97.5t242 -97.5t94 -247.5t-94 -247.5t-242 -97.5t-242 97.5t-94 247.5zM615 333q0 112 -64.5 184t-168.5 72q-106 0 -169.5 -72t-63.5 -184t64 -184t169 -72q104 0 168.5 72.5t64.5 183.5z" />
    <glyph glyph-name="Odieresis" unicode="&#xd6;" horiz-adv-x="765" 
d="M277 732q-22 0 -37.5 15.5t-15.5 37.5t15.5 37t37.5 15t37 -15t15 -37t-15 -37.5t-37 -15.5zM485 732q-22 0 -37.5 15.5t-15.5 37.5t15.5 37t37.5 15q21 0 37 -15.5t16 -36.5q0 -22 -16 -37.5t-37 -15.5zM46 333q0 150 94 247.5t242 97.5t242 -97.5t94 -247.5t-94 -247.5
t-242 -97.5t-242 97.5t-94 247.5zM615 333q0 112 -64.5 184t-168.5 72q-106 0 -169.5 -72t-63.5 -184t64 -184t169 -72q104 0 168.5 72.5t64.5 183.5z" />
    <glyph glyph-name="multiply" unicode="&#xd7;" horiz-adv-x="500" 
d="M250 291l-129 -129q-8 -8 -20 -8q-13 0 -22 9t-9 21t9 21l129 129l-129 128q-9 11 -9 22q0 12 9 21t22 9q12 0 21 -9l128 -129l129 129q9 9 21 9q13 0 21.5 -9t8.5 -21q0 -11 -9 -22l-128 -128l128 -129q9 -9 9 -21t-8.5 -21t-21.5 -9q-11 0 -21 8z" />
    <glyph glyph-name="Oslash" unicode="&#xd8;" horiz-adv-x="765" 
d="M602 601q116 -99 116 -268q0 -150 -94 -247.5t-242 -97.5q-99 0 -176 46l-18 -26q-8 -13 -25 -13q-13 0 -22 9t-9 22q0 11 5 18l19 27q-110 99 -110 262q0 150 94 247.5t242 97.5q92 0 168 -41l16 22q10 13 25 13q13 0 22 -9t9 -22t-5 -18zM149 333q0 -112 62 -182
l286 409q-50 29 -115 29q-106 0 -169.5 -72t-63.5 -184zM382 77q104 0 168.5 72.5t64.5 183.5q0 117 -69 189l-287 -412q55 -33 123 -33z" />
    <glyph glyph-name="Ugrave" unicode="&#xd9;" horiz-adv-x="710" 
d="M337 724l-113 97q-10 10 -10 22t8.5 20.5t20.5 8.5t21 -9l105 -105q7 -7 7 -17t-6.5 -16.5t-16.5 -6.5t-16 6zM74 261v361q0 20 15 35t36 15t35.5 -15t14.5 -35v-358q0 -87 47 -137t133 -50t132.5 50t46.5 137v358q0 20 15 35t36 15t35.5 -15t14.5 -35v-360
q0 -128 -71.5 -201t-208.5 -73t-209 73.5t-72 199.5z" />
    <glyph glyph-name="Uacute" unicode="&#xda;" horiz-adv-x="710" 
d="M378 724q-6 -6 -16 -6t-16.5 6.5t-6.5 16.5t7 17l105 105q9 9 21 9t20.5 -8.5t8.5 -20.5t-10 -22zM74 261v361q0 20 15 35t36 15t35.5 -15t14.5 -35v-358q0 -87 47 -137t133 -50t132.5 50t46.5 137v358q0 20 15 35t36 15t35.5 -15t14.5 -35v-360q0 -128 -71.5 -201
t-208.5 -73t-209 73.5t-72 199.5z" />
    <glyph glyph-name="Ucircumflex" unicode="&#xdb;" horiz-adv-x="710" 
d="M432 726l-76 98l-76 -98q-6 -9 -18 -9q-11 0 -18.5 7t-7.5 18q0 8 4 13l63 96q15 22 42 22h22q27 0 42 -22l63 -96q4 -5 4 -13q0 -11 -7.5 -18t-18.5 -7q-12 0 -18 9zM74 261v361q0 20 15 35t36 15t35.5 -15t14.5 -35v-358q0 -87 47 -137t133 -50t132.5 50t46.5 137v358
q0 20 15 35t36 15t35.5 -15t14.5 -35v-360q0 -128 -71.5 -201t-208.5 -73t-209 73.5t-72 199.5z" />
    <glyph glyph-name="Udieresis" unicode="&#xdc;" horiz-adv-x="710" 
d="M251 732q-22 0 -37.5 15.5t-15.5 37.5t15.5 37t37.5 15t37 -15t15 -37t-15 -37.5t-37 -15.5zM459 732q-22 0 -37.5 15.5t-15.5 37.5t15.5 37t37.5 15q21 0 37 -15.5t16 -36.5q0 -22 -16 -37.5t-37 -15.5zM74 261v361q0 20 15 35t36 15t35.5 -15t14.5 -35v-358
q0 -87 47 -137t133 -50t132.5 50t46.5 137v358q0 20 15 35t36 15t35.5 -15t14.5 -35v-360q0 -128 -71.5 -201t-208.5 -73t-209 73.5t-72 199.5z" />
    <glyph glyph-name="Yacute" unicode="&#xdd;" horiz-adv-x="631" 
d="M323 718q-10 0 -16.5 6.5t-6.5 16.5t7 17l105 105q9 9 21 9t20.5 -8.5t8.5 -20.5t-10 -22l-113 -97q-6 -6 -16 -6zM588 624q0 -15 -8 -26l-214 -319v-234q0 -20 -14.5 -35t-35.5 -15t-35.5 15t-14.5 35v234l-215 318q-8 11 -8 27q0 20 14 34t34 14q27 0 41 -22l184 -282
l183 282q15 22 41 22q20 0 34 -14t14 -34z" />
    <glyph glyph-name="Thorn" unicode="&#xde;" horiz-adv-x="597" 
d="M125 -5q-21 0 -36 15t-15 35v577q0 20 15 35t35 15q21 0 35.5 -15t14.5 -35v-71h181q99 0 156 -59.5t57 -146.5t-57 -145t-156 -58h-181v-97q0 -20 -14.5 -35t-34.5 -15zM465 346q0 51 -34.5 83.5t-88.5 32.5h-168v-232h168q54 0 88.5 32t34.5 84z" />
    <glyph glyph-name="germandbls" unicode="&#xdf;" horiz-adv-x="610" 
d="M401 -12q-99 0 -167 58q-14 12 -14 29q0 15 11 25.5t26 10.5q14 0 22 -7q55 -43 122 -43q50 0 77 21.5t27 52.5q0 30 -28 45.5t-84 29.5q-31 8 -48 13t-43 16.5t-40 25t-25 36.5t-11 52q0 28 14.5 52.5t29 37t40.5 29.5q19 13 28.5 20t18 18.5t8.5 23.5q0 29 -28.5 46
t-64.5 17q-47 0 -78.5 -28.5t-31.5 -76.5v-452q0 -19 -13.5 -32t-31.5 -13q-19 0 -32 13t-13 32v452q0 79 55 132t147 53q75 0 129 -36.5t54 -95.5q0 -28 -14.5 -51.5t-28 -34.5t-40.5 -29q-22 -15 -31.5 -22.5t-20 -22.5t-10.5 -30q0 -10 3 -17.5t12.5 -14t15.5 -10.5
t22.5 -9t23.5 -7t28 -7q32 -7 49.5 -12t45 -17t42.5 -27t26.5 -40t11.5 -57q0 -64 -50.5 -106.5t-140.5 -42.5z" />
    <glyph glyph-name="agrave" unicode="&#xe0;" horiz-adv-x="532" 
d="M249 577l-113 97q-10 10 -10 22t8.5 20.5t20.5 8.5t21 -9l105 -105q7 -7 7 -17t-6.5 -16.5t-16.5 -6.5t-16 6zM266 495q86 0 140 -41t54 -128v-286q0 -19 -13.5 -32t-31.5 -13t-31.5 13t-13.5 32v14q-57 -66 -158 -66q-66 0 -117 42.5t-51 117.5q0 77 50 117.5t118 40.5
q103 0 158 -64v80q0 44 -32.5 70t-85.5 26q-65 0 -119 -42q-11 -7 -22 -7q-15 0 -25.5 11t-10.5 26q0 19 15 29q75 60 176 60zM246 51q83 0 124 55v82q-41 55 -124 55q-49 0 -80 -26.5t-31 -69.5t31 -69.5t80 -26.5z" />
    <glyph glyph-name="aacute" unicode="&#xe1;" horiz-adv-x="532" 
d="M274 571q-10 0 -16.5 6.5t-6.5 16.5t7 17l105 105q9 9 21 9t20.5 -8.5t8.5 -20.5t-10 -22l-113 -97q-6 -6 -16 -6zM266 495q86 0 140 -41t54 -128v-286q0 -19 -13.5 -32t-31.5 -13t-31.5 13t-13.5 32v14q-57 -66 -158 -66q-66 0 -117 42.5t-51 117.5q0 77 50 117.5
t118 40.5q103 0 158 -64v80q0 44 -32.5 70t-85.5 26q-65 0 -119 -42q-11 -7 -22 -7q-15 0 -25.5 11t-10.5 26q0 19 15 29q75 60 176 60zM246 51q83 0 124 55v82q-41 55 -124 55q-49 0 -80 -26.5t-31 -69.5t31 -69.5t80 -26.5z" />
    <glyph glyph-name="acircumflex" unicode="&#xe2;" horiz-adv-x="532" 
d="M174 570q-11 0 -18.5 7t-7.5 18q0 8 4 13l63 96q15 22 42 22h22q27 0 42 -22l63 -96q4 -5 4 -13q0 -11 -7.5 -18t-18.5 -7q-12 0 -18 9l-76 98l-76 -98q-6 -9 -18 -9zM266 495q86 0 140 -41t54 -128v-286q0 -19 -13.5 -32t-31.5 -13t-31.5 13t-13.5 32v14
q-57 -66 -158 -66q-66 0 -117 42.5t-51 117.5q0 77 50 117.5t118 40.5q103 0 158 -64v80q0 44 -32.5 70t-85.5 26q-65 0 -119 -42q-11 -7 -22 -7q-15 0 -25.5 11t-10.5 26q0 19 15 29q75 60 176 60zM246 51q83 0 124 55v82q-41 55 -124 55q-49 0 -80 -26.5t-31 -69.5
t31 -69.5t80 -26.5z" />
    <glyph glyph-name="atilde" unicode="&#xe3;" horiz-adv-x="532" 
d="M136 575q-11 0 -19 8.5t-6 19.5q5 52 30.5 81.5t67.5 29.5q18 0 33.5 -8.5t22.5 -16.5t19 -24q10 -13 14.5 -18.5t13.5 -11.5t18 -6q37 0 44 62q2 22 25 22q11 0 18.5 -8t6.5 -20q-5 -52 -30.5 -81.5t-67.5 -29.5q-19 0 -34.5 8.5t-22.5 16.5t-19 24q-25 36 -45 36
q-38 0 -44 -62q-4 -22 -25 -22zM266 495q86 0 140 -41t54 -128v-286q0 -19 -13.5 -32t-31.5 -13t-31.5 13t-13.5 32v14q-57 -66 -158 -66q-66 0 -117 42.5t-51 117.5q0 77 50 117.5t118 40.5q103 0 158 -64v80q0 44 -32.5 70t-85.5 26q-65 0 -119 -42q-11 -7 -22 -7
q-15 0 -25.5 11t-10.5 26q0 19 15 29q75 60 176 60zM246 51q83 0 124 55v82q-41 55 -124 55q-49 0 -80 -26.5t-31 -69.5t31 -69.5t80 -26.5z" />
    <glyph glyph-name="adieresis" unicode="&#xe4;" horiz-adv-x="532" 
d="M163 585q-22 0 -37.5 15.5t-15.5 37.5t15.5 37t37.5 15t37 -15t15 -37t-15 -37.5t-37 -15.5zM371 585q-22 0 -37.5 15.5t-15.5 37.5t15.5 37t37.5 15q21 0 37 -15.5t16 -36.5q0 -22 -16 -37.5t-37 -15.5zM266 495q86 0 140 -41t54 -128v-286q0 -19 -13.5 -32t-31.5 -13
t-31.5 13t-13.5 32v14q-57 -66 -158 -66q-66 0 -117 42.5t-51 117.5q0 77 50 117.5t118 40.5q103 0 158 -64v80q0 44 -32.5 70t-85.5 26q-65 0 -119 -42q-11 -7 -22 -7q-15 0 -25.5 11t-10.5 26q0 19 15 29q75 60 176 60zM246 51q83 0 124 55v82q-41 55 -124 55
q-49 0 -80 -26.5t-31 -69.5t31 -69.5t80 -26.5z" />
    <glyph glyph-name="aring" unicode="&#xe5;" horiz-adv-x="532" 
d="M268 559q-41 0 -70.5 30t-29.5 71t29.5 71t70.5 30t70 -30t29 -71t-29 -71t-70 -30zM268 715q-22 0 -38.5 -16.5t-16.5 -38.5q0 -23 16.5 -39.5t38.5 -16.5q23 0 39 16.5t16 39.5t-16 39t-39 16zM266 495q86 0 140 -41t54 -128v-286q0 -19 -13.5 -32t-31.5 -13t-31.5 13
t-13.5 32v14q-57 -66 -158 -66q-66 0 -117 42.5t-51 117.5q0 77 50 117.5t118 40.5q103 0 158 -64v80q0 44 -32.5 70t-85.5 26q-65 0 -119 -42q-11 -7 -22 -7q-15 0 -25.5 11t-10.5 26q0 19 15 29q75 60 176 60zM246 51q83 0 124 55v82q-41 55 -124 55q-49 0 -80 -26.5
t-31 -69.5t31 -69.5t80 -26.5z" />
    <glyph glyph-name="ae" unicode="&#xe6;" horiz-adv-x="883" 
d="M484 212q5 -64 45.5 -106t105.5 -42q61 0 110 37q10 6 20 6q15 0 25.5 -10.5t10.5 -26.5q0 -18 -16 -30q-68 -52 -154 -52q-134 0 -192 107q-28 -48 -81.5 -77.5t-118.5 -29.5q-82 0 -138.5 42t-56.5 118q0 75 51 116.5t126 41.5q111 0 173 -62v78q0 44 -35.5 70
t-92.5 26q-74 0 -133 -43q-8 -7 -21 -7q-15 0 -26 11t-11 27q0 19 16 30q77 59 183 59q65 0 111.5 -25t61.5 -74q62 99 178 99q98 0 158 -70.5t60 -169.5q0 -43 -54 -43h-305zM755 277q-2 56 -36.5 100t-99.5 44q-62 0 -97.5 -44t-38.5 -100h272zM394 187q-48 56 -137 56
q-54 0 -88 -24t-34 -66t33.5 -65.5t88.5 -23.5q56 0 96.5 35.5t40.5 78.5v9z" />
    <glyph glyph-name="ccedilla" unicode="&#xe7;" horiz-adv-x="496" 
d="M415 115q17 0 29 -11.5t12 -28.5q0 -19 -14 -31q-55 -50 -133 -55l-17 -43q16 11 37 11q29 0 47.5 -19t18.5 -49q0 -37 -30.5 -59.5t-75.5 -22.5q-53 0 -90 23q-13 4 -13 20q0 10 7 16.5t16 6.5q6 0 12 -3q31 -19 66 -19q25 0 42 10t17 29q0 32 -36 32q-18 0 -29 -10
q-6 -4 -15 -4q-11 0 -18 7t-7 18q0 4 2 10l17 46q-98 10 -158 80t-60 173q0 110 68.5 181.5t177.5 71.5q93 0 154 -56q14 -12 14 -30q0 -17 -11.5 -29t-28.5 -12q-15 0 -27 10q-40 37 -97 37q-70 0 -113 -48.5t-43 -124.5t43 -125t113 -49q57 0 97 37q10 10 26 10z" />
    <glyph glyph-name="egrave" unicode="&#xe8;" horiz-adv-x="560" 
d="M266 577l-113 97q-10 10 -10 22t8.5 20.5t20.5 8.5t21 -9l105 -105q7 -7 7 -17t-6.5 -16.5t-16.5 -6.5t-16 6zM42 242q0 106 68.5 179.5t173.5 73.5t170 -70.5t65 -169.5q0 -43 -53 -43h-329q5 -64 49.5 -107t114.5 -43q66 0 120 39q6 5 20 5q15 0 25.5 -10.5t10.5 -25.5
q0 -19 -16 -30q-71 -52 -169 -52q-109 0 -179.5 70.5t-70.5 183.5zM284 421q-67 0 -105.5 -44t-42.5 -100h295q-2 56 -39.5 100t-107.5 44z" />
    <glyph glyph-name="eacute" unicode="&#xe9;" horiz-adv-x="560" 
d="M307 577q-6 -6 -16 -6t-16.5 6.5t-6.5 16.5t7 17l105 105q9 9 21 9t20.5 -8.5t8.5 -20.5t-10 -22zM42 242q0 106 68.5 179.5t173.5 73.5t170 -70.5t65 -169.5q0 -43 -53 -43h-329q5 -64 49.5 -107t114.5 -43q66 0 120 39q6 5 20 5q15 0 25.5 -10.5t10.5 -25.5
q0 -19 -16 -30q-71 -52 -169 -52q-109 0 -179.5 70.5t-70.5 183.5zM284 421q-67 0 -105.5 -44t-42.5 -100h295q-2 56 -39.5 100t-107.5 44z" />
    <glyph glyph-name="ecircumflex" unicode="&#xea;" horiz-adv-x="560" 
d="M361 579l-76 98l-76 -98q-6 -9 -18 -9q-11 0 -18.5 7t-7.5 18q0 8 4 13l63 96q15 22 42 22h22q27 0 42 -22l63 -96q4 -5 4 -13q0 -11 -7.5 -18t-18.5 -7q-12 0 -18 9zM42 242q0 106 68.5 179.5t173.5 73.5t170 -70.5t65 -169.5q0 -43 -53 -43h-329q5 -64 49.5 -107
t114.5 -43q66 0 120 39q6 5 20 5q15 0 25.5 -10.5t10.5 -25.5q0 -19 -16 -30q-71 -52 -169 -52q-109 0 -179.5 70.5t-70.5 183.5zM284 421q-67 0 -105.5 -44t-42.5 -100h295q-2 56 -39.5 100t-107.5 44z" />
    <glyph glyph-name="edieresis" unicode="&#xeb;" horiz-adv-x="560" 
d="M180 585q-22 0 -37.5 15.5t-15.5 37.5t15.5 37t37.5 15t37 -15t15 -37t-15 -37.5t-37 -15.5zM388 585q-22 0 -37.5 15.5t-15.5 37.5t15.5 37t37.5 15q21 0 37 -15.5t16 -36.5q0 -22 -16 -37.5t-37 -15.5zM42 242q0 106 68.5 179.5t173.5 73.5t170 -70.5t65 -169.5
q0 -43 -53 -43h-329q5 -64 49.5 -107t114.5 -43q66 0 120 39q6 5 20 5q15 0 25.5 -10.5t10.5 -25.5q0 -19 -16 -30q-71 -52 -169 -52q-109 0 -179.5 70.5t-70.5 183.5zM284 421q-67 0 -105.5 -44t-42.5 -100h295q-2 56 -39.5 100t-107.5 44z" />
    <glyph glyph-name="igrave" unicode="&#xec;" horiz-adv-x="233" 
d="M98 577l-113 97q-10 10 -10 22t8.5 20.5t20.5 8.5t21 -9l105 -105q7 -7 7 -17t-6.5 -16.5t-16.5 -6.5t-16 6zM116 -5q-18 0 -31 13t-13 32v403q0 19 13 32t32 13q18 0 31.5 -13t13.5 -32v-403q0 -19 -13.5 -32t-32.5 -13z" />
    <glyph glyph-name="iacute" unicode="&#xed;" horiz-adv-x="233" 
d="M139 577q-6 -6 -16 -6t-16.5 6.5t-6.5 16.5t7 17l105 105q9 9 21 9t20.5 -8.5t8.5 -20.5t-10 -22zM116 -5q-18 0 -31 13t-13 32v403q0 19 13 32t32 13q18 0 31.5 -13t13.5 -32v-403q0 -19 -13.5 -32t-32.5 -13z" />
    <glyph glyph-name="icircumflex" unicode="&#xee;" horiz-adv-x="233" 
d="M193 579l-76 98l-76 -98q-6 -9 -18 -9q-11 0 -18.5 7t-7.5 18q0 8 4 13l63 96q15 22 42 22h22q27 0 42 -22l63 -96q4 -5 4 -13q0 -11 -7.5 -18t-18.5 -7q-12 0 -18 9zM116 -5q-18 0 -31 13t-13 32v403q0 19 13 32t32 13q18 0 31.5 -13t13.5 -32v-403q0 -19 -13.5 -32
t-32.5 -13z" />
    <glyph glyph-name="idieresis" unicode="&#xef;" horiz-adv-x="233" 
d="M12 585q-22 0 -37.5 15.5t-15.5 37.5t15.5 37t37.5 15t37 -15t15 -37t-15 -37.5t-37 -15.5zM220 585q-22 0 -37.5 15.5t-15.5 37.5t15.5 37t37.5 15q21 0 37 -15.5t16 -36.5q0 -22 -16 -37.5t-37 -15.5zM116 -5q-18 0 -31 13t-13 32v403q0 19 13 32t32 13q18 0 31.5 -13
t13.5 -32v-403q0 -19 -13.5 -32t-32.5 -13z" />
    <glyph glyph-name="eth" unicode="&#xf0;" horiz-adv-x="572" 
d="M349 592q181 -158 181 -344q0 -114 -66.5 -187t-177.5 -73q-109 0 -176.5 68.5t-67.5 174.5q0 104 62 173t157 69q98 0 158 -89q-46 87 -158 169l-125 -56q-3 -1 -11 -1q-11 0 -18 7t-7 18q0 16 15 23l97 43q-24 16 -37 24q-21 12 -21 37q0 18 13 31t31 13q14 0 24 -7
q46 -29 83 -57l87 38q3 2 10 2q11 0 18.5 -7t7.5 -17q0 -17 -16 -24zM286 68q70 0 110 47t40 116q0 68 -40 115.5t-110 47.5q-69 0 -109.5 -47.5t-40.5 -115.5t40.5 -115.5t109.5 -47.5z" />
    <glyph glyph-name="ntilde" unicode="&#xf1;" 
d="M149 575q-11 0 -19 8.5t-6 19.5q5 52 30.5 81.5t67.5 29.5q18 0 33.5 -8.5t22.5 -16.5t19 -24q10 -13 14.5 -18.5t13.5 -11.5t18 -6q37 0 44 62q2 22 25 22q11 0 18.5 -8t6.5 -20q-5 -52 -30.5 -81.5t-67.5 -29.5q-19 0 -34.5 8.5t-22.5 16.5t-19 24q-25 36 -45 36
q-38 0 -44 -62q-4 -22 -25 -22zM333 495q155 0 155 -156v-299q0 -19 -13.5 -32t-32.5 -13q-18 0 -31 13t-13 32v269q0 106 -103 106q-40 0 -76 -20.5t-57 -49.5v-305q0 -19 -13.5 -32t-31.5 -13q-19 0 -32 13t-13 32v403q0 19 13 32t31 13q19 0 32.5 -13t13.5 -32v-27
q28 32 74 55.5t97 23.5z" />
    <glyph glyph-name="ograve" unicode="&#xf2;" horiz-adv-x="572" 
d="M268 577l-113 97q-10 10 -10 22t8.5 20.5t20.5 8.5t21 -9l105 -105q7 -7 7 -17t-6.5 -16.5t-16.5 -6.5t-16 6zM286 -12q-110 0 -177 73t-67 181q0 107 67 180t177 73t177 -73t67 -180q0 -108 -67 -181t-177 -73zM286 68q70 0 110 50.5t40 123.5q0 72 -40 122.5t-110 50.5
q-69 0 -109.5 -50.5t-40.5 -122.5q0 -73 40.5 -123.5t109.5 -50.5z" />
    <glyph glyph-name="oacute" unicode="&#xf3;" horiz-adv-x="572" 
d="M309 577q-6 -6 -16 -6t-16.5 6.5t-6.5 16.5t7 17l105 105q9 9 21 9t20.5 -8.5t8.5 -20.5t-10 -22zM286 -12q-110 0 -177 73t-67 181q0 107 67 180t177 73t177 -73t67 -180q0 -108 -67 -181t-177 -73zM286 68q70 0 110 50.5t40 123.5q0 72 -40 122.5t-110 50.5
q-69 0 -109.5 -50.5t-40.5 -122.5q0 -73 40.5 -123.5t109.5 -50.5z" />
    <glyph glyph-name="ocircumflex" unicode="&#xf4;" horiz-adv-x="572" 
d="M363 579l-76 98l-76 -98q-6 -9 -18 -9q-11 0 -18.5 7t-7.5 18q0 8 4 13l63 96q15 22 42 22h22q27 0 42 -22l63 -96q4 -5 4 -13q0 -11 -7.5 -18t-18.5 -7q-12 0 -18 9zM286 -12q-110 0 -177 73t-67 181q0 107 67 180t177 73t177 -73t67 -180q0 -108 -67 -181t-177 -73z
M286 68q70 0 110 50.5t40 123.5q0 72 -40 122.5t-110 50.5q-69 0 -109.5 -50.5t-40.5 -122.5q0 -73 40.5 -123.5t109.5 -50.5z" />
    <glyph glyph-name="otilde" unicode="&#xf5;" horiz-adv-x="572" 
d="M345 574q-19 0 -34.5 8.5t-22.5 16.5t-19 24q-25 36 -45 36q-38 0 -44 -62q-4 -22 -25 -22q-11 0 -19 8.5t-6 19.5q5 52 30.5 81.5t67.5 29.5q18 0 33.5 -8.5t22.5 -16.5t19 -24q10 -13 14.5 -18.5t13.5 -11.5t18 -6q37 0 44 62q2 22 25 22q11 0 18.5 -8t6.5 -20
q-5 -52 -30.5 -81.5t-67.5 -29.5zM286 -12q-110 0 -177 73t-67 181q0 107 67 180t177 73t177 -73t67 -180q0 -108 -67 -181t-177 -73zM286 68q70 0 110 50.5t40 123.5q0 72 -40 122.5t-110 50.5q-69 0 -109.5 -50.5t-40.5 -122.5q0 -73 40.5 -123.5t109.5 -50.5z" />
    <glyph glyph-name="odieresis" unicode="&#xf6;" horiz-adv-x="572" 
d="M182 585q-22 0 -37.5 15.5t-15.5 37.5t15.5 37t37.5 15t37 -15t15 -37t-15 -37.5t-37 -15.5zM390 585q-22 0 -37.5 15.5t-15.5 37.5t15.5 37t37.5 15q21 0 37 -15.5t16 -36.5q0 -22 -16 -37.5t-37 -15.5zM286 -12q-110 0 -177 73t-67 181q0 107 67 180t177 73t177 -73
t67 -180q0 -108 -67 -181t-177 -73zM286 68q70 0 110 50.5t40 123.5q0 72 -40 122.5t-110 50.5q-69 0 -109.5 -50.5t-40.5 -122.5q0 -73 40.5 -123.5t109.5 -50.5z" />
    <glyph glyph-name="divide" unicode="&#xf7;" horiz-adv-x="511" 
d="M255 472q-20 0 -35 15.5t-15 35.5q0 21 15 35.5t35 14.5q21 0 36 -14.5t15 -35.5q0 -20 -15 -35.5t-36 -15.5zM54 307q-12 0 -21 8.5t-9 21.5t9 21.5t21 8.5h403q12 0 21 -8.5t9 -21.5t-9 -21.5t-21 -8.5h-403zM255 98q-20 0 -35 14.5t-15 34.5q0 21 15 36t35 15
q21 0 36 -15t15 -36q0 -20 -15 -34.5t-36 -14.5z" />
    <glyph glyph-name="oslash" unicode="&#xf8;" horiz-adv-x="572" 
d="M461 424q69 -72 69 -182q0 -108 -67 -181t-177 -73q-81 0 -143 43l-22 -27q-7 -9 -18 -9q-10 0 -17 7t-7 16q0 8 6 16l23 28q-66 72 -66 180q0 107 67 180t177 73q78 0 139 -40l19 24q7 9 18 9q10 0 17 -7t7 -17t-5 -15zM136 242q0 -63 30 -108l205 254q-37 27 -85 27
q-69 0 -109.5 -50.5t-40.5 -122.5zM286 68q70 0 110 50.5t40 123.5q0 65 -32 112l-207 -256q38 -30 89 -30z" />
    <glyph glyph-name="ugrave" unicode="&#xf9;" 
d="M261 577l-113 97q-10 10 -10 22t8.5 20.5t20.5 8.5t21 -9l105 -105q7 -7 7 -17t-6.5 -16.5t-16.5 -6.5t-16 6zM442 488q19 0 32.5 -13t13.5 -32v-403q0 -19 -13.5 -32t-31.5 -13q-19 0 -32 13t-13 32v26q-70 -78 -172 -78q-154 0 -154 154v301q0 19 13 32t32 13
q18 0 31.5 -13t13.5 -32v-271q0 -57 26 -80.5t76 -23.5q40 0 76 19.5t58 48.5v307q0 19 13 32t31 13z" />
    <glyph glyph-name="uacute" unicode="&#xfa;" 
d="M286 571q-10 0 -16.5 6.5t-6.5 16.5t7 17l105 105q9 9 21 9t20.5 -8.5t8.5 -20.5t-10 -22l-113 -97q-6 -6 -16 -6zM442 488q19 0 32.5 -13t13.5 -32v-403q0 -19 -13.5 -32t-31.5 -13q-19 0 -32 13t-13 32v26q-70 -78 -172 -78q-154 0 -154 154v301q0 19 13 32t32 13
q18 0 31.5 -13t13.5 -32v-271q0 -57 26 -80.5t76 -23.5q40 0 76 19.5t58 48.5v307q0 19 13 32t31 13z" />
    <glyph glyph-name="ucircumflex" unicode="&#xfb;" 
d="M186 570q-11 0 -18.5 7t-7.5 18q0 8 4 13l63 96q15 22 42 22h22q27 0 42 -22l63 -96q4 -5 4 -13q0 -11 -7.5 -18t-18.5 -7q-12 0 -18 9l-76 98l-76 -98q-6 -9 -18 -9zM442 488q19 0 32.5 -13t13.5 -32v-403q0 -19 -13.5 -32t-31.5 -13q-19 0 -32 13t-13 32v26
q-70 -78 -172 -78q-154 0 -154 154v301q0 19 13 32t32 13q18 0 31.5 -13t13.5 -32v-271q0 -57 26 -80.5t76 -23.5q40 0 76 19.5t58 48.5v307q0 19 13 32t31 13z" />
    <glyph glyph-name="udieresis" unicode="&#xfc;" 
d="M175 585q-22 0 -37.5 15.5t-15.5 37.5t15.5 37t37.5 15t37 -15t15 -37t-15 -37.5t-37 -15.5zM383 585q-22 0 -37.5 15.5t-15.5 37.5t15.5 37t37.5 15q21 0 37 -15.5t16 -36.5q0 -22 -16 -37.5t-37 -15.5zM442 488q19 0 32.5 -13t13.5 -32v-403q0 -19 -13.5 -32t-31.5 -13
q-19 0 -32 13t-13 32v26q-70 -78 -172 -78q-154 0 -154 154v301q0 19 13 32t32 13q18 0 31.5 -13t13.5 -32v-271q0 -57 26 -80.5t76 -23.5q40 0 76 19.5t58 48.5v307q0 19 13 32t31 13z" />
    <glyph glyph-name="yacute" unicode="&#xfd;" horiz-adv-x="497" 
d="M271 577q-6 -6 -16 -6t-16.5 6.5t-6.5 16.5t7 17l105 105q9 9 21 9t20.5 -8.5t8.5 -20.5t-10 -22zM49 -155q0 17 12.5 28.5t29.5 11.5q1 0 4.5 -0.5t6.5 -0.5q50 0 70 47l28 64l-177 431q-2 6 -2 17q0 19 12.5 32t31.5 13q31 0 42 -28l141 -356l141 356q11 28 42 28
q19 0 32 -13t13 -32q0 -6 -4 -18l-214 -517q-40 -102 -154 -104q-11 0 -18 1q-16 2 -26.5 13t-10.5 27z" />
    <glyph glyph-name="thorn" unicode="&#xfe;" horiz-adv-x="577" 
d="M162 70v-214q0 -19 -13.5 -32t-31.5 -13q-19 0 -32 13t-13 32v771q0 19 13 32t31 13q19 0 32.5 -13t13.5 -32v-213q27 37 68.5 59t89.5 22q96 0 155.5 -68t59.5 -185t-59.5 -185.5t-155.5 -68.5q-98 0 -158 82zM441 242q0 76 -39.5 124.5t-105.5 48.5q-40 0 -78 -20.5
t-56 -50.5v-205q19 -30 56.5 -50.5t77.5 -20.5q66 0 105.5 48.5t39.5 125.5z" />
    <glyph glyph-name="ydieresis" unicode="&#xff;" horiz-adv-x="497" 
d="M144 585q-22 0 -37.5 15.5t-15.5 37.5t15.5 37t37.5 15t37 -15t15 -37t-15 -37.5t-37 -15.5zM352 585q-22 0 -37.5 15.5t-15.5 37.5t15.5 37t37.5 15q21 0 37 -15.5t16 -36.5q0 -22 -16 -37.5t-37 -15.5zM49 -155q0 17 12.5 28.5t29.5 11.5q1 0 4.5 -0.5t6.5 -0.5
q50 0 70 47l28 64l-177 431q-2 6 -2 17q0 19 12.5 32t31.5 13q31 0 42 -28l141 -356l141 356q11 28 42 28q19 0 32 -13t13 -32q0 -6 -4 -18l-214 -517q-40 -102 -154 -104q-11 0 -18 1q-16 2 -26.5 13t-10.5 27z" />
    <glyph glyph-name="Amacron" unicode="&#x100;" horiz-adv-x="666" 
d="M196 736q-11 0 -19 8t-8 19q0 12 8 20t19 8h271q11 0 19 -8t8 -20q0 -11 -8 -19t-19 -8h-271zM634 65q4 -10 4 -19q0 -21 -15 -36t-36 -15q-36 0 -47 32l-42 111h-331l-42 -111q-5 -14 -18.5 -23t-28.5 -9q-21 0 -36 15t-15 36q0 7 4 19l220 551q9 24 31.5 40t49.5 16
q28 0 50 -15.5t32 -40.5zM200 227h265l-133 353z" />
    <glyph glyph-name="amacron" unicode="&#x101;" horiz-adv-x="532" 
d="M131 589q-11 0 -19 8t-8 19q0 12 8 20t19 8h271q11 0 19 -8t8 -20q0 -11 -8 -19t-19 -8h-271zM266 495q86 0 140 -41t54 -128v-286q0 -19 -13.5 -32t-31.5 -13t-31.5 13t-13.5 32v14q-57 -66 -158 -66q-66 0 -117 42.5t-51 117.5q0 77 50 117.5t118 40.5q103 0 158 -64
v80q0 44 -32.5 70t-85.5 26q-65 0 -119 -42q-11 -7 -22 -7q-15 0 -25.5 11t-10.5 26q0 19 15 29q75 60 176 60zM246 51q83 0 124 55v82q-41 55 -124 55q-49 0 -80 -26.5t-31 -69.5t31 -69.5t80 -26.5z" />
    <glyph glyph-name="Abreve" unicode="&#x102;" horiz-adv-x="666" 
d="M332 719q-93 0 -160 69q-8 8 -8 20q0 11 8 19t20 8q15 0 20 -8q50 -53 120 -53t119 52q6 9 21 9q11 0 19 -8t8 -19q0 -10 -8 -20q-66 -69 -159 -69zM634 65q4 -10 4 -19q0 -21 -15 -36t-36 -15q-36 0 -47 32l-42 111h-331l-42 -111q-5 -14 -18.5 -23t-28.5 -9
q-21 0 -36 15t-15 36q0 7 4 19l220 551q9 24 31.5 40t49.5 16q28 0 50 -15.5t32 -40.5zM200 227h265l-133 353z" />
    <glyph glyph-name="abreve" unicode="&#x103;" horiz-adv-x="532" 
d="M267 572q-93 0 -160 69q-8 8 -8 20q0 11 8 19t20 8q15 0 20 -8q50 -53 120 -53t119 52q6 9 21 9q11 0 19 -8t8 -19q0 -10 -8 -20q-66 -69 -159 -69zM266 495q86 0 140 -41t54 -128v-286q0 -19 -13.5 -32t-31.5 -13t-31.5 13t-13.5 32v14q-57 -66 -158 -66
q-66 0 -117 42.5t-51 117.5q0 77 50 117.5t118 40.5q103 0 158 -64v80q0 44 -32.5 70t-85.5 26q-65 0 -119 -42q-11 -7 -22 -7q-15 0 -25.5 11t-10.5 26q0 19 15 29q75 60 176 60zM246 51q83 0 124 55v82q-41 55 -124 55q-49 0 -80 -26.5t-31 -69.5t31 -69.5t80 -26.5z" />
    <glyph glyph-name="Aogonek" unicode="&#x104;" horiz-adv-x="666" 
d="M611 -120q11 0 20 -8.5t9 -21.5q0 -20 -20 -28q-24 -8 -54 -8q-43 0 -72.5 20t-29.5 56q0 34 30 62.5t75 45.5q-23 8 -29 29l-42 111h-331l-42 -111q-5 -14 -18.5 -23t-28.5 -9q-21 0 -36 15t-15 36q0 7 4 19l220 551q9 24 31.5 40t49.5 16q28 0 50 -15.5t32 -40.5
l220 -551q4 -10 4 -19q0 -21 -15 -36q4 -1 -1 -5q-40 -31 -57 -51t-17 -43q0 -16 11.5 -25.5t27.5 -9.5q7 0 14 2t10 2zM200 227h265l-133 353z" />
    <glyph glyph-name="aogonek" unicode="&#x105;" horiz-adv-x="532" 
d="M436 0q-37 -29 -52.5 -48t-15.5 -41q0 -16 11.5 -25.5t27.5 -9.5q7 0 14 2t10 2q11 0 20 -8.5t9 -21.5q0 -20 -20 -28q-24 -8 -54 -8q-43 0 -72.5 20t-29.5 56q0 34 32 63.5t78 46.5q-24 14 -24 40v14q-57 -66 -158 -66q-66 0 -117 42.5t-51 117.5q0 77 50 117.5
t118 40.5q103 0 158 -64v80q0 44 -32.5 70t-85.5 26q-65 0 -119 -42q-11 -7 -22 -7q-15 0 -25.5 11t-10.5 26q0 19 15 29q75 60 176 60q86 0 140 -41t54 -128v-286q0 -26 -24 -40zM246 51q83 0 124 55v82q-41 55 -124 55q-49 0 -80 -26.5t-31 -69.5t31 -69.5t80 -26.5z" />
    <glyph glyph-name="Cacute" unicode="&#x106;" horiz-adv-x="671" 
d="M411 724q-6 -6 -16 -6t-16.5 6.5t-6.5 16.5t7 17l105 105q9 9 21 9t20.5 -8.5t8.5 -20.5t-10 -22zM388 -12q-145 0 -243.5 97t-98.5 248t98.5 248t243.5 97q142 0 232 -98q12 -12 12 -32t-14 -33.5t-33 -13.5q-23 0 -36 16q-64 72 -161 72q-102 0 -170.5 -72t-68.5 -184
q0 -111 68.5 -183.5t170.5 -72.5q97 0 162 72q13 16 35 16q19 0 33 -13.5t14 -33.5t-12 -32q-91 -98 -232 -98z" />
    <glyph glyph-name="cacute" unicode="&#x107;" horiz-adv-x="496" 
d="M309 577q-6 -6 -16 -6t-16.5 6.5t-6.5 16.5t7 17l105 105q9 9 21 9t20.5 -8.5t8.5 -20.5t-10 -22zM42 242q0 110 68.5 181.5t177.5 71.5q93 0 154 -56q14 -12 14 -30q0 -17 -11.5 -29t-28.5 -12q-15 0 -27 10q-40 37 -97 37q-70 0 -113 -48.5t-43 -124.5t43 -125t113 -49
q57 0 97 37q10 10 26 10q17 0 29 -11.5t12 -28.5q0 -19 -14 -31q-61 -56 -154 -56q-109 0 -177.5 72t-68.5 182z" />
    <glyph glyph-name="Ccircumflex" unicode="&#x108;" horiz-adv-x="671" 
d="M465 726l-76 98l-76 -98q-6 -9 -18 -9q-11 0 -18.5 7t-7.5 18q0 8 4 13l63 96q15 22 42 22h22q27 0 42 -22l63 -96q4 -5 4 -13q0 -11 -7.5 -18t-18.5 -7q-12 0 -18 9zM388 -12q-145 0 -243.5 97t-98.5 248t98.5 248t243.5 97q142 0 232 -98q12 -12 12 -32t-14 -33.5
t-33 -13.5q-23 0 -36 16q-64 72 -161 72q-102 0 -170.5 -72t-68.5 -184q0 -111 68.5 -183.5t170.5 -72.5q97 0 162 72q13 16 35 16q19 0 33 -13.5t14 -33.5t-12 -32q-91 -98 -232 -98z" />
    <glyph glyph-name="ccircumflex" unicode="&#x109;" horiz-adv-x="496" 
d="M363 579l-76 98l-76 -98q-6 -9 -18 -9q-11 0 -18.5 7t-7.5 18q0 8 4 13l63 96q15 22 42 22h22q27 0 42 -22l63 -96q4 -5 4 -13q0 -11 -7.5 -18t-18.5 -7q-12 0 -18 9zM42 242q0 110 68.5 181.5t177.5 71.5q93 0 154 -56q14 -12 14 -30q0 -17 -11.5 -29t-28.5 -12
q-15 0 -27 10q-40 37 -97 37q-70 0 -113 -48.5t-43 -124.5t43 -125t113 -49q57 0 97 37q10 10 26 10q17 0 29 -11.5t12 -28.5q0 -19 -14 -31q-61 -56 -154 -56q-109 0 -177.5 72t-68.5 182z" />
    <glyph glyph-name="Cdotaccent" unicode="&#x10a;" horiz-adv-x="671" 
d="M335 784q0 21 15.5 37t37.5 16q21 0 36.5 -16t15.5 -37q0 -22 -15 -37.5t-37 -15.5t-37.5 15.5t-15.5 37.5zM388 -12q-145 0 -243.5 97t-98.5 248t98.5 248t243.5 97q142 0 232 -98q12 -12 12 -32t-14 -33.5t-33 -13.5q-23 0 -36 16q-64 72 -161 72q-102 0 -170.5 -72
t-68.5 -184q0 -111 68.5 -183.5t170.5 -72.5q97 0 162 72q13 16 35 16q19 0 33 -13.5t14 -33.5t-12 -32q-91 -98 -232 -98z" />
    <glyph glyph-name="cdotaccent" unicode="&#x10b;" horiz-adv-x="496" 
d="M233 637q0 21 15.5 37t37.5 16q21 0 36.5 -16t15.5 -37q0 -22 -15 -37.5t-37 -15.5t-37.5 15.5t-15.5 37.5zM42 242q0 110 68.5 181.5t177.5 71.5q93 0 154 -56q14 -12 14 -30q0 -17 -11.5 -29t-28.5 -12q-15 0 -27 10q-40 37 -97 37q-70 0 -113 -48.5t-43 -124.5
t43 -125t113 -49q57 0 97 37q10 10 26 10q17 0 29 -11.5t12 -28.5q0 -19 -14 -31q-61 -56 -154 -56q-109 0 -177.5 72t-68.5 182z" />
    <glyph glyph-name="Ccaron" unicode="&#x10c;" horiz-adv-x="671" 
d="M480 873q11 0 18.5 -7.5t7.5 -18.5q0 -7 -4 -12l-63 -96q-15 -22 -42 -22h-22q-27 0 -42 22l-63 96q-4 5 -4 12q0 11 7.5 18.5t18.5 7.5q12 0 18 -9l76 -98l76 98q6 9 18 9zM388 -12q-145 0 -243.5 97t-98.5 248t98.5 248t243.5 97q142 0 232 -98q12 -12 12 -32
t-14 -33.5t-33 -13.5q-23 0 -36 16q-64 72 -161 72q-102 0 -170.5 -72t-68.5 -184q0 -111 68.5 -183.5t170.5 -72.5q97 0 162 72q13 16 35 16q19 0 33 -13.5t14 -33.5t-12 -32q-91 -98 -232 -98z" />
    <glyph glyph-name="ccaron" unicode="&#x10d;" horiz-adv-x="496" 
d="M378 726q11 0 18.5 -7.5t7.5 -18.5q0 -7 -4 -12l-63 -96q-15 -22 -42 -22h-22q-27 0 -42 22l-63 96q-4 5 -4 12q0 11 7.5 18.5t18.5 7.5q12 0 18 -9l76 -98l76 98q6 9 18 9zM42 242q0 110 68.5 181.5t177.5 71.5q93 0 154 -56q14 -12 14 -30q0 -17 -11.5 -29t-28.5 -12
q-15 0 -27 10q-40 37 -97 37q-70 0 -113 -48.5t-43 -124.5t43 -125t113 -49q57 0 97 37q10 10 26 10q17 0 29 -11.5t12 -28.5q0 -19 -14 -31q-61 -56 -154 -56q-109 0 -177.5 72t-68.5 182z" />
    <glyph glyph-name="Dcaron" unicode="&#x10e;" horiz-adv-x="705" 
d="M446 873q11 0 18.5 -7.5t7.5 -18.5q0 -7 -4 -12l-63 -96q-15 -22 -42 -22h-22q-27 0 -42 22l-63 96q-4 5 -4 12q0 11 7.5 18.5t18.5 7.5q12 0 18 -9l76 -98l76 98q6 9 18 9zM128 0q-54 0 -54 53v561q0 53 54 53h184q154 0 250 -94t96 -240t-95.5 -239.5t-250.5 -93.5
h-184zM174 88h138q112 0 177.5 70t65.5 175q0 107 -64.5 176.5t-178.5 69.5h-138v-491z" />
    <glyph glyph-name="dcaron" unicode="&#x10f;" horiz-adv-x="657" 
d="M603 679q24 0 41.5 -19.5t17.5 -51.5q0 -75 -65 -131q-8 -6 -15 -6q-9 0 -16 6.5t-7 15.5q0 8 12 20q34 34 40 69q-4 -2 -13 -2q-20 0 -32.5 13.5t-12.5 34.5t14.5 36t35.5 15zM461 672q19 0 32 -13t13 -32v-587q0 -19 -13 -32t-32 -13q-18 0 -31.5 13t-13.5 32v29
q-61 -81 -158 -81q-96 0 -156 68t-60 185q0 115 60 184.5t156 69.5q98 0 158 -82v214q0 19 13.5 32t31.5 13zM282 68q40 0 77.5 20t56.5 50v206q-19 30 -56.5 50.5t-77.5 20.5q-67 0 -106.5 -48.5t-39.5 -125.5q0 -76 39.5 -124.5t106.5 -48.5z" />
    <glyph glyph-name="Dcroat" unicode="&#x110;" horiz-adv-x="732" 
d="M339 667q154 0 250 -94t96 -240t-95.5 -239.5t-250.5 -93.5h-184q-54 0 -54 53v238h-59q-15 0 -26.5 11t-11.5 27q0 15 11.5 26t26.5 11h59v248q0 53 54 53h184zM339 88q112 0 177.5 70t65.5 175q0 107 -64.5 176.5t-178.5 69.5h-138v-213h132q15 0 26.5 -11t11.5 -26
q0 -16 -11.5 -27t-26.5 -11h-132v-203h138z" />
    <glyph glyph-name="dcroat" unicode="&#x111;" horiz-adv-x="581" 
d="M550 588q11 0 19 -8t8 -19q0 -12 -8 -20t-19 -8h-44v-493q0 -19 -13 -32t-32 -13q-18 0 -31.5 13t-13.5 32v29q-61 -81 -158 -81q-96 0 -156 68t-60 185q0 115 60 184.5t156 69.5q98 0 158 -82v120h-130q-11 0 -19.5 8t-8.5 19q0 12 8.5 20t19.5 8h130v39q0 19 13.5 32
t31.5 13q19 0 32 -13t13 -32v-39h44zM282 68q40 0 77.5 20t56.5 50v206q-19 30 -56.5 50.5t-77.5 20.5q-67 0 -106.5 -48.5t-39.5 -125.5q0 -76 39.5 -124.5t106.5 -48.5z" />
    <glyph glyph-name="Emacron" unicode="&#x112;" horiz-adv-x="573" 
d="M168 736q-11 0 -19 8t-8 19q0 12 8 20t19 8h271q11 0 19 -8t8 -20q0 -11 -8 -19t-19 -8h-271zM128 0q-54 0 -54 53v561q0 53 54 53h354q18 0 31.5 -13t13.5 -32q0 -18 -13.5 -30.5t-31.5 -12.5h-308v-195h301q18 0 31.5 -12.5t13.5 -30.5q0 -19 -13.5 -32t-31.5 -13h-301
v-208h308q18 0 31.5 -12.5t13.5 -30.5q0 -19 -13.5 -32t-31.5 -13h-354z" />
    <glyph glyph-name="emacron" unicode="&#x113;" horiz-adv-x="560" 
d="M148 589q-11 0 -19 8t-8 19q0 12 8 20t19 8h271q11 0 19 -8t8 -20q0 -11 -8 -19t-19 -8h-271zM42 242q0 106 68.5 179.5t173.5 73.5t170 -70.5t65 -169.5q0 -43 -53 -43h-329q5 -64 49.5 -107t114.5 -43q66 0 120 39q6 5 20 5q15 0 25.5 -10.5t10.5 -25.5q0 -19 -16 -30
q-71 -52 -169 -52q-109 0 -179.5 70.5t-70.5 183.5zM284 421q-67 0 -105.5 -44t-42.5 -100h295q-2 56 -39.5 100t-107.5 44z" />
    <glyph glyph-name="Ebreve" unicode="&#x114;" horiz-adv-x="573" 
d="M304 719q-93 0 -160 69q-8 8 -8 20q0 11 8 19t20 8q15 0 20 -8q50 -53 120 -53t119 52q6 9 21 9q11 0 19 -8t8 -19q0 -10 -8 -20q-66 -69 -159 -69zM128 0q-54 0 -54 53v561q0 53 54 53h354q18 0 31.5 -13t13.5 -32q0 -18 -13.5 -30.5t-31.5 -12.5h-308v-195h301
q18 0 31.5 -12.5t13.5 -30.5q0 -19 -13.5 -32t-31.5 -13h-301v-208h308q18 0 31.5 -12.5t13.5 -30.5q0 -19 -13.5 -32t-31.5 -13h-354z" />
    <glyph glyph-name="ebreve" unicode="&#x115;" horiz-adv-x="560" 
d="M284 572q-93 0 -160 69q-8 8 -8 20q0 11 8 19t20 8q15 0 20 -8q50 -53 120 -53t119 52q6 9 21 9q11 0 19 -8t8 -19q0 -10 -8 -20q-66 -69 -159 -69zM42 242q0 106 68.5 179.5t173.5 73.5t170 -70.5t65 -169.5q0 -43 -53 -43h-329q5 -64 49.5 -107t114.5 -43q66 0 120 39
q6 5 20 5q15 0 25.5 -10.5t10.5 -25.5q0 -19 -16 -30q-71 -52 -169 -52q-109 0 -179.5 70.5t-70.5 183.5zM284 421q-67 0 -105.5 -44t-42.5 -100h295q-2 56 -39.5 100t-107.5 44z" />
    <glyph glyph-name="Edotaccent" unicode="&#x116;" horiz-adv-x="573" 
d="M251 784q0 21 15.5 37t37.5 16q21 0 36.5 -16t15.5 -37q0 -22 -15 -37.5t-37 -15.5t-37.5 15.5t-15.5 37.5zM128 0q-54 0 -54 53v561q0 53 54 53h354q18 0 31.5 -13t13.5 -32q0 -18 -13.5 -30.5t-31.5 -12.5h-308v-195h301q18 0 31.5 -12.5t13.5 -30.5q0 -19 -13.5 -32
t-31.5 -13h-301v-208h308q18 0 31.5 -12.5t13.5 -30.5q0 -19 -13.5 -32t-31.5 -13h-354z" />
    <glyph glyph-name="edotaccent" unicode="&#x117;" horiz-adv-x="560" 
d="M231 637q0 21 15.5 37t37.5 16q21 0 36.5 -16t15.5 -37q0 -22 -15 -37.5t-37 -15.5t-37.5 15.5t-15.5 37.5zM42 242q0 106 68.5 179.5t173.5 73.5t170 -70.5t65 -169.5q0 -43 -53 -43h-329q5 -64 49.5 -107t114.5 -43q66 0 120 39q6 5 20 5q15 0 25.5 -10.5t10.5 -25.5
q0 -19 -16 -30q-71 -52 -169 -52q-109 0 -179.5 70.5t-70.5 183.5zM284 421q-67 0 -105.5 -44t-42.5 -100h295q-2 56 -39.5 100t-107.5 44z" />
    <glyph glyph-name="Eogonek" unicode="&#x118;" horiz-adv-x="573" 
d="M504 5q-40 -31 -57 -51t-17 -43q0 -16 11.5 -25.5t27.5 -9.5q7 0 14 2t10 2q11 0 20 -8.5t9 -21.5q0 -20 -20 -28q-24 -8 -54 -8q-43 0 -72.5 20t-29.5 56q0 34 31.5 63.5t77.5 46.5h-327q-54 0 -54 53v561q0 53 54 53h354q18 0 31.5 -13t13.5 -32q0 -18 -13.5 -30.5
t-31.5 -12.5h-308v-195h301q18 0 31.5 -12.5t13.5 -30.5q0 -19 -13.5 -32t-31.5 -13h-301v-208h308q18 0 31.5 -12.5t13.5 -30.5q0 -24 -20 -37q0 -2 -3 -3z" />
    <glyph glyph-name="eogonek" unicode="&#x119;" horiz-adv-x="560" 
d="M292 -12q-109 0 -179.5 70.5t-70.5 183.5q0 106 68.5 179.5t173.5 73.5t170 -70.5t65 -169.5q0 -43 -54 -43h-328q5 -64 49.5 -107t114.5 -43q66 0 120 39q6 5 19 5q16 0 26.5 -10.5t10.5 -26.5q0 -15 -12 -27q-85 -75 -85 -124q0 -21 11.5 -31.5t28.5 -10.5q6 0 14 2
q13 2 24.5 -6.5t11.5 -22.5q0 -21 -23 -29q-23 -6 -48 -6q-42 0 -72 20t-30 56q0 52 78 109q-42 -11 -83 -11zM284 421q-67 0 -105.5 -44t-42.5 -100h295q-2 56 -39.5 100t-107.5 44z" />
    <glyph glyph-name="Ecaron" unicode="&#x11a;" horiz-adv-x="573" 
d="M396 873q11 0 18.5 -7.5t7.5 -18.5q0 -7 -4 -12l-63 -96q-15 -22 -42 -22h-22q-27 0 -42 22l-63 96q-4 5 -4 12q0 11 7.5 18.5t18.5 7.5q12 0 18 -9l76 -98l76 98q6 9 18 9zM128 0q-54 0 -54 53v561q0 53 54 53h354q18 0 31.5 -13t13.5 -32q0 -18 -13.5 -30.5
t-31.5 -12.5h-308v-195h301q18 0 31.5 -12.5t13.5 -30.5q0 -19 -13.5 -32t-31.5 -13h-301v-208h308q18 0 31.5 -12.5t13.5 -30.5q0 -19 -13.5 -32t-31.5 -13h-354z" />
    <glyph glyph-name="ecaron" unicode="&#x11b;" horiz-adv-x="560" 
d="M376 726q11 0 18.5 -7.5t7.5 -18.5q0 -7 -4 -12l-63 -96q-15 -22 -42 -22h-22q-27 0 -42 22l-63 96q-4 5 -4 12q0 11 7.5 18.5t18.5 7.5q12 0 18 -9l76 -98l76 98q6 9 18 9zM42 242q0 106 68.5 179.5t173.5 73.5t170 -70.5t65 -169.5q0 -43 -53 -43h-329q5 -64 49.5 -107
t114.5 -43q66 0 120 39q6 5 20 5q15 0 25.5 -10.5t10.5 -25.5q0 -19 -16 -30q-71 -52 -169 -52q-109 0 -179.5 70.5t-70.5 183.5zM284 421q-67 0 -105.5 -44t-42.5 -100h295q-2 56 -39.5 100t-107.5 44z" />
    <glyph glyph-name="Gcircumflex" unicode="&#x11c;" horiz-adv-x="715" 
d="M299 717q-11 0 -18.5 7t-7.5 18q0 8 4 13l63 96q15 22 42 22h22q27 0 42 -22l63 -96q4 -5 4 -13q0 -11 -7.5 -18t-18.5 -7q-12 0 -18 9l-76 98l-76 -98q-6 -9 -18 -9zM608 350q53 0 53 -53v-153q0 -41 -27 -65q-102 -92 -242 -92q-146 0 -246 96.5t-100 249.5t100 249
t246 96q138 0 229 -91q14 -12 14 -33q0 -19 -13.5 -32.5t-33.5 -13.5q-18 0 -33 13q-68 68 -163 68q-105 0 -174 -72t-69 -184q0 -111 69 -184t174 -73q51 0 96 20t73 46v120h-175q-18 0 -31 13t-13 32q0 18 13 30.5t31 12.5h222z" />
    <glyph glyph-name="gcircumflex" unicode="&#x11d;" horiz-adv-x="577" 
d="M198 570q-11 0 -18.5 7t-7.5 18q0 8 4 13l63 96q15 22 42 22h22q27 0 42 -22l63 -96q4 -5 4 -13q0 -11 -7.5 -18t-18.5 -7q-12 0 -18 9l-76 98l-76 -98q-6 -9 -18 -9zM461 488q18 0 31.5 -13t13.5 -32v-424q0 -60 -20.5 -103.5t-55.5 -67t-75.5 -34t-88.5 -10.5
q-105 0 -174 52q-16 12 -16 31q0 16 11 27t27 11q13 0 23 -7q50 -40 129 -40q63 0 106.5 33.5t43.5 104.5v64q-63 -84 -159 -84t-155.5 67t-59.5 183q0 114 60 181.5t155 67.5q97 0 159 -82v30q0 19 13 32t32 13zM282 76q39 0 77 21t57 51v196q-19 30 -56.5 50.5t-77.5 20.5
q-67 0 -106.5 -47t-39.5 -122q0 -76 39.5 -123t106.5 -47z" />
    <glyph glyph-name="Gbreve" unicode="&#x11e;" horiz-adv-x="715" 
d="M392 719q-93 0 -160 69q-8 8 -8 20q0 11 8 19t20 8q15 0 20 -8q50 -53 120 -53t119 52q6 9 21 9q11 0 19 -8t8 -19q0 -10 -8 -20q-66 -69 -159 -69zM608 350q53 0 53 -53v-153q0 -41 -27 -65q-102 -92 -242 -92q-146 0 -246 96.5t-100 249.5t100 249t246 96
q138 0 229 -91q14 -12 14 -33q0 -19 -13.5 -32.5t-33.5 -13.5q-18 0 -33 13q-68 68 -163 68q-105 0 -174 -72t-69 -184q0 -111 69 -184t174 -73q51 0 96 20t73 46v120h-175q-18 0 -31 13t-13 32q0 18 13 30.5t31 12.5h222z" />
    <glyph glyph-name="gbreve" unicode="&#x11f;" horiz-adv-x="577" 
d="M291 572q-93 0 -160 69q-8 8 -8 20q0 11 8 19t20 8q15 0 20 -8q50 -53 120 -53t119 52q6 9 21 9q11 0 19 -8t8 -19q0 -10 -8 -20q-66 -69 -159 -69zM461 488q18 0 31.5 -13t13.5 -32v-424q0 -60 -20.5 -103.5t-55.5 -67t-75.5 -34t-88.5 -10.5q-105 0 -174 52
q-16 12 -16 31q0 16 11 27t27 11q13 0 23 -7q50 -40 129 -40q63 0 106.5 33.5t43.5 104.5v64q-63 -84 -159 -84t-155.5 67t-59.5 183q0 114 60 181.5t155 67.5q97 0 159 -82v30q0 19 13 32t32 13zM282 76q39 0 77 21t57 51v196q-19 30 -56.5 50.5t-77.5 20.5
q-67 0 -106.5 -47t-39.5 -122q0 -76 39.5 -123t106.5 -47z" />
    <glyph glyph-name="Gdotaccent" unicode="&#x120;" horiz-adv-x="715" 
d="M392 731q-22 0 -37.5 15.5t-15.5 37.5q0 21 15.5 37t37.5 16q21 0 36.5 -16t15.5 -37q0 -22 -15 -37.5t-37 -15.5zM608 350q53 0 53 -53v-153q0 -41 -27 -65q-102 -92 -242 -92q-146 0 -246 96.5t-100 249.5t100 249t246 96q138 0 229 -91q14 -12 14 -33
q0 -19 -13.5 -32.5t-33.5 -13.5q-18 0 -33 13q-68 68 -163 68q-105 0 -174 -72t-69 -184q0 -111 69 -184t174 -73q51 0 96 20t73 46v120h-175q-18 0 -31 13t-13 32q0 18 13 30.5t31 12.5h222z" />
    <glyph glyph-name="gdotaccent" unicode="&#x121;" horiz-adv-x="577" 
d="M291 584q-22 0 -37.5 15.5t-15.5 37.5q0 21 15.5 37t37.5 16q21 0 36.5 -16t15.5 -37q0 -22 -15 -37.5t-37 -15.5zM461 488q18 0 31.5 -13t13.5 -32v-424q0 -60 -20.5 -103.5t-55.5 -67t-75.5 -34t-88.5 -10.5q-105 0 -174 52q-16 12 -16 31q0 16 11 27t27 11q13 0 23 -7
q50 -40 129 -40q63 0 106.5 33.5t43.5 104.5v64q-63 -84 -159 -84t-155.5 67t-59.5 183q0 114 60 181.5t155 67.5q97 0 159 -82v30q0 19 13 32t32 13zM282 76q39 0 77 21t57 51v196q-19 30 -56.5 50.5t-77.5 20.5q-67 0 -106.5 -47t-39.5 -122q0 -76 39.5 -123t106.5 -47z
" />
    <glyph glyph-name="uni0122" unicode="&#x122;" horiz-adv-x="715" 
d="M608 350q53 0 53 -53v-153q0 -41 -27 -65q-102 -92 -242 -92q-146 0 -246 96.5t-100 249.5t100 249t246 96q138 0 229 -91q14 -12 14 -33q0 -19 -13.5 -32.5t-33.5 -13.5q-18 0 -33 13q-68 68 -163 68q-105 0 -174 -72t-69 -184q0 -111 69 -184t174 -73q51 0 96 20t73 46
v120h-175q-18 0 -31 13t-13 32q0 18 13 30.5t31 12.5h222zM392 -67q24 0 41.5 -19.5t17.5 -51.5q0 -75 -65 -131q-8 -6 -15 -6q-9 0 -16 6.5t-7 15.5q0 8 12 20q34 34 40 69q-4 -2 -13 -2q-20 0 -32.5 13.5t-12.5 34.5t14.5 36t35.5 15z" />
    <glyph glyph-name="uni0123" unicode="&#x123;" horiz-adv-x="577" 
d="M291 558q-24 0 -41 19.5t-17 51.5q0 77 65 131q8 6 15 6q9 0 16 -6.5t7 -15.5q0 -8 -12 -20q-35 -32 -40 -69q4 2 13 2q19 0 32 -13.5t13 -33.5q0 -22 -14.5 -37t-36.5 -15zM461 488q18 0 31.5 -13t13.5 -32v-424q0 -60 -20.5 -103.5t-55.5 -67t-75.5 -34t-88.5 -10.5
q-105 0 -174 52q-16 12 -16 31q0 16 11 27t27 11q13 0 23 -7q50 -40 129 -40q63 0 106.5 33.5t43.5 104.5v64q-63 -84 -159 -84t-155.5 67t-59.5 183q0 114 60 181.5t155 67.5q97 0 159 -82v30q0 19 13 32t32 13zM282 76q39 0 77 21t57 51v196q-19 30 -56.5 50.5t-77.5 20.5
q-67 0 -106.5 -47t-39.5 -122q0 -76 39.5 -123t106.5 -47z" />
    <glyph glyph-name="Hcircumflex" unicode="&#x124;" horiz-adv-x="717" 
d="M436 726l-76 98l-76 -98q-6 -9 -18 -9q-11 0 -18.5 7t-7.5 18q0 8 4 13l63 96q15 22 42 22h22q27 0 42 -22l63 -96q4 -5 4 -13q0 -11 -7.5 -18t-18.5 -7q-12 0 -18 9zM593 -5q-21 0 -35.5 15t-14.5 35v253h-369v-253q0 -20 -14.5 -35t-34.5 -15q-21 0 -36 15t-15 35v577
q0 20 15 35t35 15q21 0 35.5 -15t14.5 -35v-235h369v235q0 20 14.5 35t35.5 15t35.5 -15t14.5 -35v-577q0 -20 -14.5 -35t-35.5 -15z" />
    <glyph glyph-name="hcircumflex" unicode="&#x125;" horiz-adv-x="560" 
d="M357 726l-76 98l-76 -98q-6 -9 -18 -9q-11 0 -18.5 7t-7.5 18q0 8 4 13l63 96q15 22 42 22h22q27 0 42 -22l63 -96q4 -5 4 -13q0 -11 -7.5 -18t-18.5 -7q-12 0 -18 9zM443 -5q-18 0 -31.5 13t-13.5 32v271q0 57 -26.5 80.5t-76.5 23.5q-40 0 -76 -20.5t-57 -49.5v-305
q0 -19 -13.5 -32t-31.5 -13q-19 0 -32 13t-13 32v587q0 19 13 32t32 13q18 0 31.5 -13t13.5 -32v-212q27 33 73 56.5t98 23.5q155 0 155 -154v-301q0 -19 -13 -32t-32 -13z" />
    <glyph glyph-name="Hbar" unicode="&#x126;" horiz-adv-x="736" 
d="M707 552q11 0 19 -8t8 -19q0 -12 -8 -20t-19 -8h-54v-452q0 -20 -15 -35t-36 -15q-20 0 -34.5 15t-14.5 35v253h-369v-253q0 -20 -14.5 -35t-35.5 -15t-35.5 15t-14.5 35v452h-52q-11 0 -19.5 8t-8.5 20q0 11 8.5 19t19.5 8h52v70q0 20 14.5 35t35.5 15t35.5 -15
t14.5 -35v-70h369v70q0 20 14.5 35t35.5 15q20 0 35 -15t15 -35v-70h54zM553 387v110h-369v-110h369z" />
    <glyph glyph-name="hbar" unicode="&#x127;" horiz-adv-x="562" 
d="M335 495q155 0 155 -154v-301q0 -19 -13 -32t-32 -13q-18 0 -31.5 13t-13.5 32v271q0 57 -26.5 80.5t-76.5 23.5q-40 0 -76 -20.5t-57 -49.5v-305q0 -19 -13.5 -32t-31.5 -13q-19 0 -32 13t-13 32v493h-42q-11 0 -19.5 8t-8.5 20q0 11 8.5 19t19.5 8h42v39q0 19 13 32
t32 13q18 0 31.5 -13t13.5 -32v-39h132q11 0 19 -8t8 -19q0 -12 -8 -20t-19 -8h-132v-118q27 33 73 56.5t98 23.5z" />
    <glyph glyph-name="Itilde" unicode="&#x128;" horiz-adv-x="249" 
d="M184 721q-19 0 -34.5 8.5t-22.5 16.5t-19 24q-25 36 -45 36q-38 0 -44 -62q-4 -22 -25 -22q-11 0 -19 8.5t-6 19.5q5 52 30.5 81.5t67.5 29.5q18 0 33.5 -8.5t22.5 -16.5t19 -24q10 -13 14.5 -18.5t13.5 -11.5t18 -6q37 0 44 62q2 22 25 22q11 0 18.5 -8t6.5 -20
q-5 -52 -30.5 -81.5t-67.5 -29.5zM125 -5q-21 0 -36 15t-15 35v577q0 20 15 35t36 15q20 0 34.5 -15t14.5 -35v-577q0 -20 -14.5 -35t-34.5 -15z" />
    <glyph glyph-name="itilde" unicode="&#x129;" horiz-adv-x="233" 
d="M175 574q-19 0 -34.5 8.5t-22.5 16.5t-19 24q-25 36 -45 36q-38 0 -44 -62q-4 -22 -25 -22q-11 0 -19 8.5t-6 19.5q5 52 30.5 81.5t67.5 29.5q18 0 33.5 -8.5t22.5 -16.5t19 -24q10 -13 14.5 -18.5t13.5 -11.5t18 -6q37 0 44 62q2 22 25 22q11 0 18.5 -8t6.5 -20
q-5 -52 -30.5 -81.5t-67.5 -29.5zM116 -5q-18 0 -31 13t-13 32v403q0 19 13 32t32 13q18 0 31.5 -13t13.5 -32v-403q0 -19 -13.5 -32t-32.5 -13z" />
    <glyph glyph-name="Imacron" unicode="&#x12a;" horiz-adv-x="249" 
d="M-11 736q-11 0 -19 8t-8 19q0 12 8 20t19 8h271q11 0 19 -8t8 -20q0 -11 -8 -19t-19 -8h-271zM125 -5q-21 0 -36 15t-15 35v577q0 20 15 35t36 15q20 0 34.5 -15t14.5 -35v-577q0 -20 -14.5 -35t-34.5 -15z" />
    <glyph glyph-name="imacron" unicode="&#x12b;" horiz-adv-x="233" 
d="M-20 589q-11 0 -19 8t-8 19q0 12 8 20t19 8h271q11 0 19 -8t8 -20q0 -11 -8 -19t-19 -8h-271zM116 -5q-18 0 -31 13t-13 32v403q0 19 13 32t32 13q18 0 31.5 -13t13.5 -32v-403q0 -19 -13.5 -32t-32.5 -13z" />
    <glyph glyph-name="Ibreve" unicode="&#x12c;" horiz-adv-x="249" 
d="M125 719q-93 0 -160 69q-8 8 -8 20q0 11 8 19t20 8q15 0 20 -8q50 -53 120 -53t119 52q6 9 21 9q11 0 19 -8t8 -19q0 -10 -8 -20q-66 -69 -159 -69zM125 -5q-21 0 -36 15t-15 35v577q0 20 15 35t36 15q20 0 34.5 -15t14.5 -35v-577q0 -20 -14.5 -35t-34.5 -15z" />
    <glyph glyph-name="ibreve" unicode="&#x12d;" horiz-adv-x="233" 
d="M116 572q-93 0 -160 69q-8 8 -8 20q0 11 8 19t20 8q15 0 20 -8q50 -53 120 -53t119 52q6 9 21 9q11 0 19 -8t8 -19q0 -10 -8 -20q-66 -69 -159 -69zM116 -5q-18 0 -31 13t-13 32v403q0 19 13 32t32 13q18 0 31.5 -13t13.5 -32v-403q0 -19 -13.5 -32t-32.5 -13z" />
    <glyph glyph-name="Iogonek" unicode="&#x12e;" horiz-adv-x="249" 
d="M174 45q0 -21 -15 -36q1 -1 -3 -4q-40 -31 -57 -51t-17 -43q0 -16 11.5 -25.5t27.5 -9.5q7 0 14 2t10 2q11 0 20 -8.5t9 -21.5q0 -20 -20 -28q-24 -8 -54 -8q-43 0 -72.5 20t-29.5 56q0 34 30.5 63t76.5 46q-31 14 -31 46v577q0 20 15 35t36 15q20 0 34.5 -15t14.5 -35
v-577z" />
    <glyph glyph-name="iogonek" unicode="&#x12f;" horiz-adv-x="233" 
d="M116 579q-23 0 -40.5 17t-17.5 41t17 40.5t41 16.5t41 -16.5t17 -40.5t-17 -41t-41 -17zM117 488q18 0 31.5 -13t13.5 -32v-403q0 -26 -23 -39q-37 -29 -53 -48.5t-16 -41.5q0 -16 11.5 -25.5t27.5 -9.5q7 0 14 2t10 2q11 0 20 -8.5t9 -21.5q0 -20 -20 -28q-24 -8 -54 -8
q-43 0 -72.5 20t-29.5 56q0 34 32 63.5t78 46.5q-24 14 -24 40v403q0 19 13 32t32 13z" />
    <glyph glyph-name="Idotaccent" unicode="&#x130;" horiz-adv-x="249" 
d="M72 784q0 21 15.5 37t37.5 16q21 0 36.5 -16t15.5 -37q0 -22 -15 -37.5t-37 -15.5t-37.5 15.5t-15.5 37.5zM125 -5q-21 0 -36 15t-15 35v577q0 20 15 35t36 15q20 0 34.5 -15t14.5 -35v-577q0 -20 -14.5 -35t-34.5 -15z" />
    <glyph glyph-name="dotlessi" unicode="&#x131;" horiz-adv-x="233" 
d="M116 -5q-18 0 -31 13t-13 32v403q0 19 13 32t32 13q18 0 31.5 -13t13.5 -32v-403q0 -19 -13.5 -32t-32.5 -13z" />
    <glyph glyph-name="IJ" unicode="&#x132;" horiz-adv-x="727" 
d="M125 -5q-21 0 -36 15t-15 35v577q0 20 15 35t36 15q20 0 34.5 -15t14.5 -35v-577q0 -20 -14.5 -35t-34.5 -15zM287 36q-19 13 -19 36q0 19 13 32.5t32 13.5q14 0 25 -8q40 -33 89 -33q57 0 91 35.5t34 94.5v415q0 20 15 35t35 15q21 0 35.5 -15t14.5 -35v-416
q0 -107 -60 -162.5t-158 -55.5q-86 0 -147 48z" />
    <glyph glyph-name="ij" unicode="&#x133;" horiz-adv-x="466" 
d="M116 579q-23 0 -40.5 17t-17.5 41t17 40.5t41 16.5t41 -16.5t17 -40.5t-17 -41t-41 -17zM349 579q-23 0 -40.5 17t-17.5 41t17 40.5t41 16.5t41 -16.5t17 -40.5t-17 -41t-41 -17zM116 -5q-18 0 -31 13t-13 32v403q0 19 13 32t32 13q18 0 31.5 -13t13.5 -32v-403
q0 -19 -13.5 -32t-32.5 -13zM244 -196q-12 0 -18 1q-15 1 -26 12t-11 26t10 27t24 12q1 0 4 -0.5t6 -0.5q72 0 72 81v481q0 19 13 32t32 13q18 0 31.5 -13t13.5 -32v-481q0 -75 -39 -116.5t-112 -41.5z" />
    <glyph glyph-name="Jcircumflex" unicode="&#x134;" horiz-adv-x="478" 
d="M432 743l-76 98l-76 -98q-6 -9 -18 -9q-11 0 -18.5 7t-7.5 18q0 8 4 13l63 96q15 22 42 22h22q27 0 42 -22l63 -96q4 -5 4 -13q0 -11 -7.5 -18t-18.5 -7q-12 0 -18 9zM38 36q-19 13 -19 36q0 19 13 32.5t32 13.5q14 0 25 -8q40 -33 89 -33q57 0 91 35.5t34 94.5v415
q0 20 15 35t35 15q21 0 35.5 -15t14.5 -35v-416q0 -107 -60 -162.5t-158 -55.5q-86 0 -147 48z" />
    <glyph glyph-name="jcircumflex" unicode="&#x135;" horiz-adv-x="233" 
d="M193 579l-76 98l-76 -98q-6 -9 -18 -9q-11 0 -18.5 7t-7.5 18q0 8 4 13l63 96q15 22 42 22h22q27 0 42 -22l63 -96q4 -5 4 -13q0 -11 -7.5 -18t-18.5 -7q-12 0 -18 9zM11 -196q-12 0 -18 1q-15 1 -26 12t-11 26t10 27t24 12q1 0 4 -0.5t6 -0.5q72 0 72 81v481q0 19 13 32
t32 13q18 0 31.5 -13t13.5 -32v-481q0 -75 -39 -116.5t-112 -41.5z" />
    <glyph glyph-name="uni0136" unicode="&#x136;" horiz-adv-x="611" 
d="M560 75q13 -15 13 -32q0 -20 -13.5 -34t-32.5 -14q-22 0 -35 14l-254 279l-64 -68v-175q0 -20 -14.5 -35t-35.5 -15q-20 0 -35 15t-15 35v577q0 20 15 35t35 15q21 0 35.5 -15t14.5 -35v-288l294 323q14 15 35 15q19 0 33 -13.5t14 -32.5q0 -20 -13 -32l-232 -247z
M312 -67q24 0 41.5 -19.5t17.5 -51.5q0 -75 -65 -131q-8 -6 -15 -6q-9 0 -16 6.5t-7 15.5q0 8 12 20q34 34 40 69q-4 -2 -13 -2q-20 0 -32.5 13.5t-12.5 34.5t14.5 36t35.5 15z" />
    <glyph glyph-name="uni0137" unicode="&#x137;" horiz-adv-x="520" 
d="M472 70q11 -13 11 -30q0 -19 -12.5 -32t-31.5 -13q-23 0 -35 15l-167 197l-75 -70v-97q0 -19 -13.5 -32t-32.5 -13q-18 0 -31 13t-13 32v587q0 19 13 32t32 13q18 0 31.5 -13t13.5 -32v-389l243 239q11 11 29 11q17 0 29 -12.5t12 -29.5q0 -16 -13 -29l-159 -155z
M263 -67q24 0 41.5 -19.5t17.5 -51.5q0 -75 -65 -131q-8 -6 -15 -6q-9 0 -16 6.5t-7 15.5q0 8 12 20q34 34 40 69q-4 -2 -13 -2q-20 0 -32.5 13.5t-12.5 34.5t14.5 36t35.5 15z" />
    <glyph glyph-name="kgreenlandic" unicode="&#x138;" horiz-adv-x="520" 
d="M472 70q11 -13 11 -30q0 -19 -12.5 -32t-31.5 -13q-23 0 -35 15l-167 197l-75 -70v-97q0 -19 -13.5 -32t-32.5 -13q-18 0 -31 13t-13 32v403q0 19 13 32t32 13q18 0 31.5 -13t13.5 -32v-205l243 239q11 11 29 11q17 0 29 -12.5t12 -29.5q0 -16 -13 -29l-159 -155z" />
    <glyph glyph-name="Lacute" unicode="&#x139;" horiz-adv-x="513" 
d="M148 724q-6 -6 -16 -6t-16.5 6.5t-6.5 16.5t7 17l105 105q9 9 21 9t20.5 -8.5t8.5 -20.5t-10 -22zM128 0q-54 0 -54 53v569q0 20 15 35t36 15q20 0 34.5 -15t14.5 -35v-534h263q18 0 31.5 -12.5t13.5 -30.5q0 -19 -13.5 -32t-31.5 -13h-309z" />
    <glyph glyph-name="lacute" unicode="&#x13a;" horiz-adv-x="233" 
d="M139 724q-6 -6 -16 -6t-16.5 6.5t-6.5 16.5t7 17l105 105q9 9 21 9t20.5 -8.5t8.5 -20.5t-10 -22zM117 -5q-19 0 -32 13t-13 32v587q0 19 13 32t32 13q18 0 31.5 -13t13.5 -32v-587q0 -19 -13.5 -32t-31.5 -13z" />
    <glyph glyph-name="uni013B" unicode="&#x13b;" horiz-adv-x="513" 
d="M128 0q-54 0 -54 53v569q0 20 15 35t36 15q20 0 34.5 -15t14.5 -35v-534h263q18 0 31.5 -12.5t13.5 -30.5q0 -19 -13.5 -32t-31.5 -13h-309zM255 -275q-9 0 -16 6.5t-7 15.5q0 8 12 20q34 34 40 69q-4 -2 -13 -2q-20 0 -32.5 13.5t-12.5 34.5t14.5 36t35.5 15
q24 0 41.5 -19.5t17.5 -51.5q0 -75 -65 -131q-8 -6 -15 -6z" />
    <glyph glyph-name="uni013C" unicode="&#x13c;" horiz-adv-x="233" 
d="M117 -5q-19 0 -32 13t-13 32v587q0 19 13 32t32 13q18 0 31.5 -13t13.5 -32v-587q0 -19 -13.5 -32t-31.5 -13zM95 -275q-9 0 -16 6.5t-7 15.5q0 8 12 20q34 34 40 69q-4 -2 -13 -2q-20 0 -32.5 13.5t-12.5 34.5t14.5 36t35.5 15q24 0 41.5 -19.5t17.5 -51.5
q0 -75 -65 -131q-8 -6 -15 -6z" />
    <glyph glyph-name="Lcaron" unicode="&#x13d;" horiz-adv-x="513" 
d="M294 472q-9 0 -16 6.5t-7 15.5q0 8 12 20q34 34 40 69q-4 -2 -13 -2q-20 0 -32.5 13.5t-12.5 34.5t14.5 36t35.5 15q24 0 41.5 -19.5t17.5 -51.5q0 -75 -65 -131q-8 -6 -15 -6zM128 0q-54 0 -54 53v569q0 20 15 35t36 15q20 0 34.5 -15t14.5 -35v-534h263
q18 0 31.5 -12.5t13.5 -30.5q0 -19 -13.5 -32t-31.5 -13h-309z" />
    <glyph glyph-name="lcaron" unicode="&#x13e;" horiz-adv-x="309" 
d="M237 471q-9 0 -16 6.5t-7 15.5q0 8 12 20q34 34 40 69q-4 -2 -13 -2q-20 0 -32.5 13.5t-12.5 34.5t14.5 36t35.5 15q24 0 41.5 -19.5t17.5 -51.5q0 -75 -65 -131q-8 -6 -15 -6zM117 -5q-19 0 -32 13t-13 32v587q0 19 13 32t32 13q18 0 31.5 -13t13.5 -32v-587
q0 -19 -13.5 -32t-31.5 -13z" />
    <glyph glyph-name="Ldot" unicode="&#x13f;" horiz-adv-x="513" 
d="M128 0q-54 0 -54 53v569q0 20 15 35t36 15q20 0 34.5 -15t14.5 -35v-534h263q18 0 31.5 -12.5t13.5 -30.5q0 -19 -13.5 -32t-31.5 -13h-309zM377 279q-25 0 -43.5 18.5t-18.5 43.5q0 26 18.5 44.5t43.5 18.5t44 -19t19 -44t-19 -43.5t-44 -18.5z" />
    <glyph glyph-name="ldot" unicode="&#x140;" horiz-adv-x="329" 
d="M117 -5q-19 0 -32 13t-13 32v587q0 19 13 32t32 13q18 0 31.5 -13t13.5 -32v-587q0 -19 -13.5 -32t-31.5 -13zM280 182q-25 0 -43.5 18.5t-18.5 43.5q0 26 18.5 44.5t43.5 18.5q26 0 44.5 -18.5t18.5 -44.5q0 -25 -19 -43.5t-44 -18.5z" />
    <glyph glyph-name="Lslash" unicode="&#x141;" horiz-adv-x="531" 
d="M455 88q18 0 31.5 -12.5t13.5 -30.5q0 -19 -13.5 -32t-31.5 -13h-309q-54 0 -54 53v207l-33 -19q-8 -5 -18 -5q-15 0 -26 10.5t-11 26.5q0 20 19 32l69 40v277q0 20 15 35t36 15q20 0 34.5 -15t14.5 -35v-220l41 24q6 5 18 5q15 0 26 -10.5t11 -25.5q0 -21 -18 -32
l-78 -45v-230h263z" />
    <glyph glyph-name="lslash" unicode="&#x142;" horiz-adv-x="293" 
d="M258 428q12 0 21 -8.5t9 -21.5q0 -16 -15 -26l-81 -46v-286q0 -19 -13.5 -32t-31.5 -13q-19 0 -32 13t-13 32v234l-53 -30q-5 -4 -15 -4q-12 0 -21 8.5t-9 21.5q0 16 15 26l83 47v284q0 19 13 32t32 13q18 0 31.5 -13t13.5 -32v-232l51 29q5 4 15 4z" />
    <glyph glyph-name="Nacute" unicode="&#x143;" horiz-adv-x="714" 
d="M380 724q-6 -6 -16 -6t-16.5 6.5t-6.5 16.5t7 17l105 105q9 9 21 9t20.5 -8.5t8.5 -20.5t-10 -22zM578 -5q-33 0 -50 26l-354 491v-467q0 -20 -14.5 -35t-34.5 -15q-21 0 -36 15t-15 35v561q0 27 19 46.5t47 19.5q34 0 53 -27l347 -478v455q0 20 14.5 35t34.5 15
q21 0 36 -15t15 -35v-565q0 -25 -18 -43.5t-44 -18.5z" />
    <glyph glyph-name="nacute" unicode="&#x144;" 
d="M287 571q-10 0 -16.5 6.5t-6.5 16.5t7 17l105 105q9 9 21 9t20.5 -8.5t8.5 -20.5t-10 -22l-113 -97q-6 -6 -16 -6zM333 495q155 0 155 -156v-299q0 -19 -13.5 -32t-32.5 -13q-18 0 -31 13t-13 32v269q0 106 -103 106q-40 0 -76 -20.5t-57 -49.5v-305q0 -19 -13.5 -32
t-31.5 -13q-19 0 -32 13t-13 32v403q0 19 13 32t31 13q19 0 32.5 -13t13.5 -32v-27q28 32 74 55.5t97 23.5z" />
    <glyph glyph-name="uni0145" unicode="&#x145;" horiz-adv-x="714" 
d="M578 -5q-33 0 -50 26l-354 491v-467q0 -20 -14.5 -35t-34.5 -15q-21 0 -36 15t-15 35v561q0 27 19 46.5t47 19.5q34 0 53 -27l347 -478v455q0 20 14.5 35t34.5 15q21 0 36 -15t15 -35v-565q0 -25 -18 -43.5t-44 -18.5zM333 -275q-9 0 -16 6.5t-7 15.5q0 8 12 20
q34 34 40 69q-4 -2 -13 -2q-20 0 -32.5 13.5t-12.5 34.5t14.5 36t35.5 15q24 0 41.5 -19.5t17.5 -51.5q0 -75 -65 -131q-8 -6 -15 -6z" />
    <glyph glyph-name="uni0146" unicode="&#x146;" 
d="M333 495q155 0 155 -156v-299q0 -19 -13.5 -32t-32.5 -13q-18 0 -31 13t-13 32v269q0 106 -103 106q-40 0 -76 -20.5t-57 -49.5v-305q0 -19 -13.5 -32t-31.5 -13q-19 0 -32 13t-13 32v403q0 19 13 32t31 13q19 0 32.5 -13t13.5 -32v-27q28 32 74 55.5t97 23.5zM280 -67
q24 0 41.5 -19.5t17.5 -51.5q0 -75 -65 -131q-8 -6 -15 -6q-9 0 -16 6.5t-7 15.5q0 8 12 20q34 34 40 69q-4 -2 -13 -2q-20 0 -32.5 13.5t-12.5 34.5t14.5 36t35.5 15z" />
    <glyph glyph-name="Ncaron" unicode="&#x147;" horiz-adv-x="714" 
d="M449 873q11 0 18.5 -7.5t7.5 -18.5q0 -7 -4 -12l-63 -96q-15 -22 -42 -22h-22q-27 0 -42 22l-63 96q-4 5 -4 12q0 11 7.5 18.5t18.5 7.5q12 0 18 -9l76 -98l76 98q6 9 18 9zM578 -5q-33 0 -50 26l-354 491v-467q0 -20 -14.5 -35t-34.5 -15q-21 0 -36 15t-15 35v561
q0 27 19 46.5t47 19.5q34 0 53 -27l347 -478v455q0 20 14.5 35t34.5 15q21 0 36 -15t15 -35v-565q0 -25 -18 -43.5t-44 -18.5z" />
    <glyph glyph-name="ncaron" unicode="&#x148;" 
d="M225 592l-63 96q-4 5 -4 12q0 11 7.5 18.5t18.5 7.5q12 0 18 -9l76 -98l76 98q6 9 18 9q11 0 18.5 -7.5t7.5 -18.5q0 -7 -4 -12l-63 -96q-15 -22 -42 -22h-22q-27 0 -42 22zM333 495q155 0 155 -156v-299q0 -19 -13.5 -32t-32.5 -13q-18 0 -31 13t-13 32v269
q0 106 -103 106q-40 0 -76 -20.5t-57 -49.5v-305q0 -19 -13.5 -32t-31.5 -13q-19 0 -32 13t-13 32v403q0 19 13 32t31 13q19 0 32.5 -13t13.5 -32v-27q28 32 74 55.5t97 23.5z" />
    <glyph glyph-name="napostrophe" unicode="&#x149;" 
d="M100 547q-8 -6 -15 -6q-9 0 -16 6.5t-7 15.5q0 8 12 20q34 34 40 69q-4 -2 -13 -2q-20 0 -32.5 13.5t-12.5 34.5t14.5 36t35.5 15q24 0 41.5 -19.5t17.5 -51.5q0 -75 -65 -131zM333 495q155 0 155 -156v-299q0 -19 -13.5 -32t-32.5 -13q-18 0 -31 13t-13 32v269
q0 106 -103 106q-40 0 -76 -20.5t-57 -49.5v-305q0 -19 -13.5 -32t-31.5 -13q-19 0 -32 13t-13 32v403q0 19 13 32t31 13q19 0 32.5 -13t13.5 -32v-27q28 32 74 55.5t97 23.5z" />
    <glyph glyph-name="Eng" unicode="&#x14a;" horiz-adv-x="714" 
d="M589 672q21 0 36 -15t15 -35v-602q0 -107 -60.5 -161.5t-158.5 -54.5q-86 0 -148 48q-19 14 -19 36q0 19 13.5 32.5t31.5 13.5q15 0 26 -8q40 -33 89 -33q55 0 86.5 32t33.5 87l-360 500v-467q0 -20 -14.5 -35t-34.5 -15q-21 0 -36 15t-15 35v561q0 27 19 46.5t47 19.5
q34 0 53 -27l347 -478v455q0 20 14.5 35t34.5 15z" />
    <glyph glyph-name="eng" unicode="&#x14b;" 
d="M333 495q155 0 155 -156v-377q0 -75 -39 -116.5t-112 -41.5q-13 0 -18 1q-15 1 -26 12t-11 26t10 27t24 12q1 0 4 -0.5t6 -0.5q72 0 72 81v347q0 106 -103 106q-40 0 -76 -20.5t-57 -49.5v-305q0 -19 -13.5 -32t-31.5 -13q-19 0 -32 13t-13 32v403q0 19 13 32t31 13
q19 0 32.5 -13t13.5 -32v-27q28 32 74 55.5t97 23.5z" />
    <glyph glyph-name="Omacron" unicode="&#x14c;" horiz-adv-x="765" 
d="M245 736q-11 0 -19 8t-8 19q0 12 8 20t19 8h271q11 0 19 -8t8 -20q0 -11 -8 -19t-19 -8h-271zM46 333q0 150 94 247.5t242 97.5t242 -97.5t94 -247.5t-94 -247.5t-242 -97.5t-242 97.5t-94 247.5zM615 333q0 112 -64.5 184t-168.5 72q-106 0 -169.5 -72t-63.5 -184
t64 -184t169 -72q104 0 168.5 72.5t64.5 183.5z" />
    <glyph glyph-name="omacron" unicode="&#x14d;" horiz-adv-x="572" 
d="M150 589q-11 0 -19 8t-8 19q0 12 8 20t19 8h271q11 0 19 -8t8 -20q0 -11 -8 -19t-19 -8h-271zM286 -12q-110 0 -177 73t-67 181q0 107 67 180t177 73t177 -73t67 -180q0 -108 -67 -181t-177 -73zM286 68q70 0 110 50.5t40 123.5q0 72 -40 122.5t-110 50.5
q-69 0 -109.5 -50.5t-40.5 -122.5q0 -73 40.5 -123.5t109.5 -50.5z" />
    <glyph glyph-name="Obreve" unicode="&#x14e;" horiz-adv-x="765" 
d="M381 719q-93 0 -160 69q-8 8 -8 20q0 11 8 19t20 8q15 0 20 -8q50 -53 120 -53t119 52q6 9 21 9q11 0 19 -8t8 -19q0 -10 -8 -20q-66 -69 -159 -69zM46 333q0 150 94 247.5t242 97.5t242 -97.5t94 -247.5t-94 -247.5t-242 -97.5t-242 97.5t-94 247.5zM615 333
q0 112 -64.5 184t-168.5 72q-106 0 -169.5 -72t-63.5 -184t64 -184t169 -72q104 0 168.5 72.5t64.5 183.5z" />
    <glyph glyph-name="obreve" unicode="&#x14f;" horiz-adv-x="572" 
d="M286 572q-93 0 -160 69q-8 8 -8 20q0 11 8 19t20 8q15 0 20 -8q50 -53 120 -53t119 52q6 9 21 9q11 0 19 -8t8 -19q0 -10 -8 -20q-66 -69 -159 -69zM286 -12q-110 0 -177 73t-67 181q0 107 67 180t177 73t177 -73t67 -180q0 -108 -67 -181t-177 -73zM286 68
q70 0 110 50.5t40 123.5q0 72 -40 122.5t-110 50.5q-69 0 -109.5 -50.5t-40.5 -122.5q0 -73 40.5 -123.5t109.5 -50.5z" />
    <glyph glyph-name="Ohungarumlaut" unicode="&#x150;" horiz-adv-x="765" 
d="M317 716q-10 0 -17 7t-7 17q0 8 4 13l69 107q8 14 25 14q12 0 21 -9t9 -22q0 -11 -7 -18l-79 -99q-6 -10 -18 -10zM461 716q-10 0 -17 7t-7 17q0 8 4 13l69 107q8 14 25 14q12 0 21 -9t9 -22q0 -11 -7 -18l-79 -99q-6 -10 -18 -10zM46 333q0 150 94 247.5t242 97.5
t242 -97.5t94 -247.5t-94 -247.5t-242 -97.5t-242 97.5t-94 247.5zM615 333q0 112 -64.5 184t-168.5 72q-106 0 -169.5 -72t-63.5 -184t64 -184t169 -72q104 0 168.5 72.5t64.5 183.5z" />
    <glyph glyph-name="ohungarumlaut" unicode="&#x151;" horiz-adv-x="572" 
d="M222 569q-10 0 -17 7t-7 17q0 8 4 13l69 107q8 14 25 14q12 0 21 -9t9 -22q0 -11 -7 -18l-79 -99q-6 -10 -18 -10zM366 569q-10 0 -17 7t-7 17q0 8 4 13l69 107q8 14 25 14q12 0 21 -9t9 -22q0 -11 -7 -18l-79 -99q-6 -10 -18 -10zM286 -12q-110 0 -177 73t-67 181
q0 107 67 180t177 73t177 -73t67 -180q0 -108 -67 -181t-177 -73zM286 68q70 0 110 50.5t40 123.5q0 72 -40 122.5t-110 50.5q-69 0 -109.5 -50.5t-40.5 -122.5q0 -73 40.5 -123.5t109.5 -50.5z" />
    <glyph glyph-name="OE" unicode="&#x152;" horiz-adv-x="1099" 
d="M1008 88q18 0 31.5 -12.5t13.5 -30.5q0 -19 -13.5 -32t-31.5 -13h-354q-53 0 -53 53v55q-34 -57 -96.5 -88.5t-131.5 -31.5q-145 0 -236 97.5t-91 247.5t91 247t236 97q69 0 131.5 -31t96.5 -88v56q0 53 53 53h354q18 0 31.5 -13t13.5 -32q0 -18 -13.5 -30.5t-31.5 -12.5
h-307v-195h300q18 0 31.5 -12.5t13.5 -30.5q0 -19 -13.5 -32t-31.5 -13h-300v-208h307zM385 77q74 0 131 38t85 110v216q-28 72 -85 109.5t-131 37.5q-108 0 -172 -71.5t-64 -183.5t64 -184t172 -72z" />
    <glyph glyph-name="oe" unicode="&#x153;" horiz-adv-x="953" 
d="M531 212q5 -64 49 -107t114 -43q66 0 121 39q6 5 19 5q16 0 26.5 -10t10.5 -26q0 -20 -17 -30q-71 -52 -168 -52q-140 0 -204 129q-66 -129 -196 -129q-110 0 -177 73t-67 181q0 107 67 180t177 73q132 0 197 -130q25 51 73 90.5t122 39.5q107 0 170.5 -74t63.5 -187
q0 -22 -53 -22h-328zM825 277q-3 56 -40.5 100t-107.5 44q-67 0 -105.5 -44t-41.5 -100h295zM286 415q-68 0 -109 -50t-41 -123q0 -74 41 -124.5t109 -50.5t109 50.5t41 124.5t-41 123.5t-109 49.5z" />
    <glyph glyph-name="Racute" unicode="&#x154;" horiz-adv-x="618" 
d="M317 718q-10 0 -16.5 6.5t-6.5 16.5t7 17l105 105q9 9 21 9t20.5 -8.5t8.5 -20.5t-10 -22l-113 -97q-6 -6 -16 -6zM561 72q10 -12 10 -31q0 -17 -13.5 -31.5t-33.5 -14.5q-27 0 -42 21l-167 241h-141v-212q0 -20 -14.5 -35t-34.5 -15q-21 0 -36 15t-15 35v569q0 53 54 53
h227q95 0 154.5 -56.5t59.5 -148.5q0 -80 -42.5 -129.5t-106.5 -62.5zM174 579v-234h168q54 0 89 32.5t35 84.5t-35 84.5t-89 32.5h-168z" />
    <glyph glyph-name="racute" unicode="&#x155;" horiz-adv-x="338" 
d="M310 725q12 0 20.5 -8.5t8.5 -20.5t-10 -22l-113 -97q-6 -6 -16 -6t-16.5 6.5t-6.5 16.5t7 17l105 105q9 9 21 9zM288 491q19 0 28.5 -12.5t9.5 -30.5q0 -16 -12 -28t-35 -15q-31 -3 -66.5 -23t-50.5 -46v-296q0 -19 -13.5 -32t-31.5 -13q-19 0 -32 13t-13 32v403
q0 19 13 32t31 13q19 0 32.5 -13t13.5 -32v-34q45 60 100 77q18 5 26 5z" />
    <glyph glyph-name="uni0156" unicode="&#x156;" horiz-adv-x="618" 
d="M561 72q10 -12 10 -31q0 -17 -13.5 -31.5t-33.5 -14.5q-27 0 -42 21l-167 241h-141v-212q0 -20 -14.5 -35t-34.5 -15q-21 0 -36 15t-15 35v569q0 53 54 53h227q95 0 154.5 -56.5t59.5 -148.5q0 -80 -42.5 -129.5t-106.5 -62.5zM174 579v-234h168q54 0 89 32.5t35 84.5
t-35 84.5t-89 32.5h-168zM310 -67q24 0 41.5 -19.5t17.5 -51.5q0 -75 -65 -131q-8 -6 -15 -6q-9 0 -16 6.5t-7 15.5q0 8 12 20q34 34 40 69q-4 -2 -13 -2q-20 0 -32.5 13.5t-12.5 34.5t14.5 36t35.5 15z" />
    <glyph glyph-name="uni0157" unicode="&#x157;" horiz-adv-x="338" 
d="M288 491q19 0 28.5 -12.5t9.5 -30.5q0 -16 -12 -28t-35 -15q-31 -3 -66.5 -23t-50.5 -46v-296q0 -19 -13.5 -32t-31.5 -13q-19 0 -32 13t-13 32v403q0 19 13 32t31 13q19 0 32.5 -13t13.5 -32v-34q45 60 100 77q18 5 26 5zM119 -67q24 0 41.5 -19.5t17.5 -51.5
q0 -75 -65 -131q-8 -6 -15 -6q-9 0 -16 6.5t-7 15.5q0 8 12 20q34 34 40 69q-4 -2 -13 -2q-20 0 -32.5 13.5t-12.5 34.5t14.5 36t35.5 15z" />
    <glyph glyph-name="Rcaron" unicode="&#x158;" horiz-adv-x="618" 
d="M255 739l-63 96q-4 5 -4 12q0 11 7.5 18.5t18.5 7.5q12 0 18 -9l76 -98l76 98q6 9 18 9q11 0 18.5 -7.5t7.5 -18.5q0 -7 -4 -12l-63 -96q-15 -22 -42 -22h-22q-27 0 -42 22zM561 72q10 -12 10 -31q0 -17 -13.5 -31.5t-33.5 -14.5q-27 0 -42 21l-167 241h-141v-212
q0 -20 -14.5 -35t-34.5 -15q-21 0 -36 15t-15 35v569q0 53 54 53h227q95 0 154.5 -56.5t59.5 -148.5q0 -80 -42.5 -129.5t-106.5 -62.5zM174 579v-234h168q54 0 89 32.5t35 84.5t-35 84.5t-89 32.5h-168z" />
    <glyph glyph-name="rcaron" unicode="&#x159;" horiz-adv-x="338" 
d="M138 592l-63 96q-4 5 -4 12q0 11 7.5 18.5t18.5 7.5q12 0 18 -9l76 -98l76 98q6 9 18 9q11 0 18.5 -7.5t7.5 -18.5q0 -7 -4 -12l-63 -96q-15 -22 -42 -22h-22q-27 0 -42 22zM288 491q19 0 28.5 -12.5t9.5 -30.5q0 -16 -12 -28t-35 -15q-31 -3 -66.5 -23t-50.5 -46v-296
q0 -19 -13.5 -32t-31.5 -13q-19 0 -32 13t-13 32v403q0 19 13 32t31 13q19 0 32.5 -13t13.5 -32v-34q45 60 100 77q18 5 26 5z" />
    <glyph glyph-name="Sacute" unicode="&#x15a;" horiz-adv-x="590" 
d="M313 724q-6 -6 -16 -6t-16.5 6.5t-6.5 16.5t7 17l105 105q9 9 21 9t20.5 -8.5t8.5 -20.5t-10 -22zM64 65q-19 16 -19 38q0 19 14.5 33.5t33.5 14.5q17 0 30 -10q80 -64 177 -64q74 0 110 30.5t36 72.5q0 20 -9.5 36.5t-21.5 26.5t-37.5 20t-42.5 15t-50 14
q-32 8 -47 12.5t-44.5 14.5t-45 19t-36.5 24t-31.5 32t-18.5 41t-8 52q0 83 67.5 136.5t176.5 53.5q114 0 206 -65q21 -13 21 -38q0 -20 -14 -34t-33 -14q-15 0 -28 9q-67 53 -160 53q-61 0 -97 -26t-36 -68q0 -17 9 -31.5t21 -23.5t35.5 -18t40.5 -14t49 -13
q44 -12 67.5 -19t61 -24.5t57 -36.5t35 -51.5t15.5 -73.5q0 -86 -62.5 -143.5t-189.5 -57.5q-139 0 -232 77z" />
    <glyph glyph-name="sacute" unicode="&#x15b;" horiz-adv-x="468" 
d="M251 577q-6 -6 -16 -6t-16.5 6.5t-6.5 16.5t7 17l105 105q9 9 21 9t20.5 -8.5t8.5 -20.5t-10 -22zM55 42q-17 12 -17 32q0 16 11 27.5t28 11.5q11 0 22 -7q63 -46 136 -46q50 0 77 18.5t27 50.5t-30 48.5t-87 29.5q-34 8 -51.5 12.5t-45.5 16.5t-43 25.5t-26.5 37
t-11.5 53.5q0 60 49.5 101.5t134.5 41.5q93 0 161 -50q16 -12 16 -30q0 -15 -11 -26t-26 -11q-11 0 -20 7q-50 37 -119 37q-46 0 -72.5 -17t-26.5 -46q0 -28 28 -42.5t84 -27.5q34 -8 52.5 -13t47.5 -17t44.5 -26.5t27.5 -39.5t12 -57q0 -65 -51.5 -106.5t-143.5 -41.5
q-104 0 -176 54z" />
    <glyph glyph-name="Scircumflex" unicode="&#x15c;" horiz-adv-x="590" 
d="M367 726l-76 98l-76 -98q-6 -9 -18 -9q-11 0 -18.5 7t-7.5 18q0 8 4 13l63 96q15 22 42 22h22q27 0 42 -22l63 -96q4 -5 4 -13q0 -11 -7.5 -18t-18.5 -7q-12 0 -18 9zM64 65q-19 16 -19 38q0 19 14.5 33.5t33.5 14.5q17 0 30 -10q80 -64 177 -64q74 0 110 30.5t36 72.5
q0 20 -9.5 36.5t-21.5 26.5t-37.5 20t-42.5 15t-50 14q-32 8 -47 12.5t-44.5 14.5t-45 19t-36.5 24t-31.5 32t-18.5 41t-8 52q0 83 67.5 136.5t176.5 53.5q114 0 206 -65q21 -13 21 -38q0 -20 -14 -34t-33 -14q-15 0 -28 9q-67 53 -160 53q-61 0 -97 -26t-36 -68
q0 -17 9 -31.5t21 -23.5t35.5 -18t40.5 -14t49 -13q44 -12 67.5 -19t61 -24.5t57 -36.5t35 -51.5t15.5 -73.5q0 -86 -62.5 -143.5t-189.5 -57.5q-139 0 -232 77z" />
    <glyph glyph-name="scircumflex" unicode="&#x15d;" horiz-adv-x="468" 
d="M305 579l-76 98l-76 -98q-6 -9 -18 -9q-11 0 -18.5 7t-7.5 18q0 8 4 13l63 96q15 22 42 22h22q27 0 42 -22l63 -96q4 -5 4 -13q0 -11 -7.5 -18t-18.5 -7q-12 0 -18 9zM55 42q-17 12 -17 32q0 16 11 27.5t28 11.5q11 0 22 -7q63 -46 136 -46q50 0 77 18.5t27 50.5
t-30 48.5t-87 29.5q-34 8 -51.5 12.5t-45.5 16.5t-43 25.5t-26.5 37t-11.5 53.5q0 60 49.5 101.5t134.5 41.5q93 0 161 -50q16 -12 16 -30q0 -15 -11 -26t-26 -11q-11 0 -20 7q-50 37 -119 37q-46 0 -72.5 -17t-26.5 -46q0 -28 28 -42.5t84 -27.5q34 -8 52.5 -13t47.5 -17
t44.5 -26.5t27.5 -39.5t12 -57q0 -65 -51.5 -106.5t-143.5 -41.5q-104 0 -176 54z" />
    <glyph glyph-name="uni015E" unicode="&#x15e;" horiz-adv-x="590" 
d="M548 189q0 -83 -58.5 -140t-176.5 -61l-17 -42q16 11 37 11q29 0 47.5 -19t18.5 -49q0 -37 -30.5 -59.5t-75.5 -22.5q-53 0 -90 23q-13 4 -13 20q0 10 7 16.5t16 6.5q6 0 12 -3q31 -19 66 -19q25 0 42 10t17 29q0 32 -36 32q-18 0 -29 -10q-6 -4 -15 -4q-11 0 -18 7
t-7 18q0 4 2 10l17 46q-118 9 -200 76q-19 16 -19 38q0 19 14.5 33.5t33.5 14.5q17 0 30 -10q80 -64 177 -64q74 0 110 30.5t36 72.5q0 20 -9.5 36.5t-21.5 26.5t-37.5 20t-42.5 15t-50 14q-32 8 -47 12.5t-44.5 14.5t-45 19t-36.5 24t-31.5 32t-18.5 41t-8 52
q0 83 67.5 136.5t176.5 53.5q114 0 206 -65q21 -13 21 -38q0 -20 -14 -34t-33 -14q-15 0 -28 9q-67 53 -160 53q-61 0 -97 -26t-36 -68q0 -17 9 -31.5t21 -23.5t35.5 -18t40.5 -14t49 -13q44 -12 67.5 -19t61 -24.5t57 -36.5t35 -51.5t15.5 -73.5z" />
    <glyph glyph-name="uni015F" unicode="&#x15f;" horiz-adv-x="468" 
d="M426 136q0 -61 -46 -102t-129 -45l-17 -43q16 11 37 11q29 0 47.5 -19t18.5 -49q0 -37 -30.5 -59.5t-75.5 -22.5q-53 0 -90 23q-13 4 -13 20q0 10 7 16.5t16 6.5q6 0 12 -3q31 -19 66 -19q25 0 42 10t17 29q0 32 -36 32q-18 0 -29 -10q-6 -4 -15 -4q-11 0 -18 7t-7 18
q0 4 2 10l17 46q-86 6 -147 53q-17 12 -17 32q0 16 11 27.5t28 11.5q11 0 22 -7q63 -46 136 -46q50 0 77 18.5t27 50.5t-30 48.5t-87 29.5q-34 8 -51.5 12.5t-45.5 16.5t-43 25.5t-26.5 37t-11.5 53.5q0 60 49.5 101.5t134.5 41.5q93 0 161 -50q16 -12 16 -30q0 -15 -11 -26
t-26 -11q-11 0 -20 7q-50 37 -119 37q-46 0 -72.5 -17t-26.5 -46q0 -28 28 -42.5t84 -27.5q34 -8 52.5 -13t47.5 -17t44.5 -26.5t27.5 -39.5t12 -57z" />
    <glyph glyph-name="Scaron" unicode="&#x160;" horiz-adv-x="590" 
d="M382 873q11 0 18.5 -7.5t7.5 -18.5q0 -7 -4 -12l-63 -96q-15 -22 -42 -22h-22q-27 0 -42 22l-63 96q-4 5 -4 12q0 11 7.5 18.5t18.5 7.5q12 0 18 -9l76 -98l76 98q6 9 18 9zM64 65q-19 16 -19 38q0 19 14.5 33.5t33.5 14.5q17 0 30 -10q80 -64 177 -64q74 0 110 30.5
t36 72.5q0 20 -9.5 36.5t-21.5 26.5t-37.5 20t-42.5 15t-50 14q-32 8 -47 12.5t-44.5 14.5t-45 19t-36.5 24t-31.5 32t-18.5 41t-8 52q0 83 67.5 136.5t176.5 53.5q114 0 206 -65q21 -13 21 -38q0 -20 -14 -34t-33 -14q-15 0 -28 9q-67 53 -160 53q-61 0 -97 -26t-36 -68
q0 -17 9 -31.5t21 -23.5t35.5 -18t40.5 -14t49 -13q44 -12 67.5 -19t61 -24.5t57 -36.5t35 -51.5t15.5 -73.5q0 -86 -62.5 -143.5t-189.5 -57.5q-139 0 -232 77z" />
    <glyph glyph-name="scaron" unicode="&#x161;" horiz-adv-x="468" 
d="M320 726q11 0 18.5 -7.5t7.5 -18.5q0 -7 -4 -12l-63 -96q-15 -22 -42 -22h-22q-27 0 -42 22l-63 96q-4 5 -4 12q0 11 7.5 18.5t18.5 7.5q12 0 18 -9l76 -98l76 98q6 9 18 9zM55 42q-17 12 -17 32q0 16 11 27.5t28 11.5q11 0 22 -7q63 -46 136 -46q50 0 77 18.5t27 50.5
t-30 48.5t-87 29.5q-34 8 -51.5 12.5t-45.5 16.5t-43 25.5t-26.5 37t-11.5 53.5q0 60 49.5 101.5t134.5 41.5q93 0 161 -50q16 -12 16 -30q0 -15 -11 -26t-26 -11q-11 0 -20 7q-50 37 -119 37q-46 0 -72.5 -17t-26.5 -46q0 -28 28 -42.5t84 -27.5q34 -8 52.5 -13t47.5 -17
t44.5 -26.5t27.5 -39.5t12 -57q0 -65 -51.5 -106.5t-143.5 -41.5q-104 0 -176 54z" />
    <glyph glyph-name="uni0162" unicode="&#x162;" horiz-adv-x="573" 
d="M287 -5q-21 0 -35.5 15t-14.5 35v534h-168q-18 0 -31 12.5t-13 30.5q0 19 13 32t31 13h435q18 0 31.5 -13t13.5 -32q0 -18 -13.5 -30.5t-31.5 -12.5h-167v-534q0 -20 -15 -35t-35 -15zM266 -275q-9 0 -16 6.5t-7 15.5q0 8 12 20q34 34 40 69q-4 -2 -13 -2
q-20 0 -32.5 13.5t-12.5 34.5t14.5 36t35.5 15q24 0 41.5 -19.5t17.5 -51.5q0 -75 -65 -131q-8 -6 -15 -6z" />
    <glyph glyph-name="uni0163" unicode="&#x163;" horiz-adv-x="306" 
d="M259 74q17 0 27.5 -10.5t10.5 -27.5q0 -26 -23 -34q-30 -14 -69 -14q-57 0 -86 31t-29 88v297h-46q-16 0 -28 12t-12 28t12 27.5t28 11.5h46v92q0 19 13 32t32 13q18 0 31.5 -13t13.5 -32v-92h63q16 0 28 -11.5t12 -27.5t-11.5 -28t-28.5 -12h-63v-277q0 -26 12 -42.5
t35 -16.5q9 0 18.5 3t13.5 3zM156 -67q24 0 41.5 -19.5t17.5 -51.5q0 -75 -65 -131q-8 -6 -15 -6q-9 0 -16 6.5t-7 15.5q0 8 12 20q34 34 40 69q-4 -2 -13 -2q-20 0 -32.5 13.5t-12.5 34.5t14.5 36t35.5 15z" />
    <glyph glyph-name="Tcaron" unicode="&#x164;" horiz-adv-x="573" 
d="M379 873q11 0 18.5 -7.5t7.5 -18.5q0 -7 -4 -12l-63 -96q-15 -22 -42 -22h-22q-27 0 -42 22l-63 96q-4 5 -4 12q0 11 7.5 18.5t18.5 7.5q12 0 18 -9l76 -98l76 98q6 9 18 9zM287 -5q-21 0 -35.5 15t-14.5 35v534h-168q-18 0 -31 12.5t-13 30.5q0 19 13 32t31 13h435
q18 0 31.5 -13t13.5 -32q0 -18 -13.5 -30.5t-31.5 -12.5h-167v-534q0 -20 -15 -35t-35 -15z" />
    <glyph glyph-name="tcaron" unicode="&#x165;" horiz-adv-x="332" 
d="M284 650q-20 0 -32.5 13.5t-12.5 34.5t14.5 36t35.5 15q24 0 41.5 -19.5t17.5 -51.5q0 -75 -65 -131q-8 -6 -15 -6q-9 0 -16 6.5t-7 15.5q0 8 12 20q34 34 40 69q-4 -2 -13 -2zM259 74q17 0 27.5 -10.5t10.5 -27.5q0 -26 -23 -34q-30 -14 -69 -14q-57 0 -86 31t-29 88
v297h-46q-16 0 -28 12t-12 28t12 27.5t28 11.5h46v92q0 19 13 32t32 13q18 0 31.5 -13t13.5 -32v-92h63q16 0 28 -11.5t12 -27.5t-11.5 -28t-28.5 -12h-63v-277q0 -26 12 -42.5t35 -16.5q9 0 18.5 3t13.5 3z" />
    <glyph glyph-name="Tbar" unicode="&#x166;" horiz-adv-x="573" 
d="M504 667q18 0 31.5 -13t13.5 -32q0 -18 -13.5 -30.5t-31.5 -12.5h-167v-239h123q11 0 19.5 -8t8.5 -20q0 -11 -8.5 -19t-19.5 -8h-123v-240q0 -20 -15 -35t-35 -15q-21 0 -35.5 15t-14.5 35v240h-124q-11 0 -19 8t-8 20q0 11 8 19t19 8h124v239h-168q-18 0 -31 12.5
t-13 30.5q0 19 13 32t31 13h435z" />
    <glyph glyph-name="tbar" unicode="&#x167;" horiz-adv-x="306" 
d="M259 74q17 0 27.5 -10.5t10.5 -27.5q0 -26 -23 -34q-30 -14 -69 -14q-57 0 -86 31t-29 88v114h-58q-11 0 -19.5 8.5t-8.5 19.5t8.5 19t19.5 8h58v128h-46q-16 0 -28 12t-12 28t12 27.5t28 11.5h46v92q0 19 13 32t32 13q18 0 31.5 -13t13.5 -32v-92h63q16 0 28 -11.5
t12 -27.5t-11.5 -28t-28.5 -12h-63v-128h47q11 0 19 -8t8 -19t-8 -19.5t-19 -8.5h-47v-94q0 -26 12 -42.5t35 -16.5q9 0 18.5 3t13.5 3z" />
    <glyph glyph-name="Utilde" unicode="&#x168;" horiz-adv-x="710" 
d="M414 721q-19 0 -34.5 8.5t-22.5 16.5t-19 24q-25 36 -45 36q-38 0 -44 -62q-4 -22 -25 -22q-11 0 -19 8.5t-6 19.5q5 52 30.5 81.5t67.5 29.5q18 0 33.5 -8.5t22.5 -16.5t19 -24q10 -13 14.5 -18.5t13.5 -11.5t18 -6q37 0 44 62q2 22 25 22q11 0 18.5 -8t6.5 -20
q-5 -52 -30.5 -81.5t-67.5 -29.5zM74 261v361q0 20 15 35t36 15t35.5 -15t14.5 -35v-358q0 -87 47 -137t133 -50t132.5 50t46.5 137v358q0 20 15 35t36 15t35.5 -15t14.5 -35v-360q0 -128 -71.5 -201t-208.5 -73t-209 73.5t-72 199.5z" />
    <glyph glyph-name="utilde" unicode="&#x169;" 
d="M148 575q-11 0 -19 8.5t-6 19.5q5 52 30.5 81.5t67.5 29.5q18 0 33.5 -8.5t22.5 -16.5t19 -24q10 -13 14.5 -18.5t13.5 -11.5t18 -6q37 0 44 62q2 22 25 22q11 0 18.5 -8t6.5 -20q-5 -52 -30.5 -81.5t-67.5 -29.5q-19 0 -34.5 8.5t-22.5 16.5t-19 24q-25 36 -45 36
q-38 0 -44 -62q-4 -22 -25 -22zM442 488q19 0 32.5 -13t13.5 -32v-403q0 -19 -13.5 -32t-31.5 -13q-19 0 -32 13t-13 32v26q-70 -78 -172 -78q-154 0 -154 154v301q0 19 13 32t32 13q18 0 31.5 -13t13.5 -32v-271q0 -57 26 -80.5t76 -23.5q40 0 76 19.5t58 48.5v307
q0 19 13 32t31 13z" />
    <glyph glyph-name="Umacron" unicode="&#x16a;" horiz-adv-x="710" 
d="M219 736q-11 0 -19 8t-8 19q0 12 8 20t19 8h271q11 0 19 -8t8 -20q0 -11 -8 -19t-19 -8h-271zM74 261v361q0 20 15 35t36 15t35.5 -15t14.5 -35v-358q0 -87 47 -137t133 -50t132.5 50t46.5 137v358q0 20 15 35t36 15t35.5 -15t14.5 -35v-360q0 -128 -71.5 -201
t-208.5 -73t-209 73.5t-72 199.5z" />
    <glyph glyph-name="umacron" unicode="&#x16b;" 
d="M143 589q-11 0 -19 8t-8 19q0 12 8 20t19 8h271q11 0 19 -8t8 -20q0 -11 -8 -19t-19 -8h-271zM442 488q19 0 32.5 -13t13.5 -32v-403q0 -19 -13.5 -32t-31.5 -13q-19 0 -32 13t-13 32v26q-70 -78 -172 -78q-154 0 -154 154v301q0 19 13 32t32 13q18 0 31.5 -13t13.5 -32
v-271q0 -57 26 -80.5t76 -23.5q40 0 76 19.5t58 48.5v307q0 19 13 32t31 13z" />
    <glyph glyph-name="Ubreve" unicode="&#x16c;" horiz-adv-x="710" 
d="M355 719q-93 0 -160 69q-8 8 -8 20q0 11 8 19t20 8q15 0 20 -8q50 -53 120 -53t119 52q6 9 21 9q11 0 19 -8t8 -19q0 -10 -8 -20q-66 -69 -159 -69zM74 261v361q0 20 15 35t36 15t35.5 -15t14.5 -35v-358q0 -87 47 -137t133 -50t132.5 50t46.5 137v358q0 20 15 35t36 15
t35.5 -15t14.5 -35v-360q0 -128 -71.5 -201t-208.5 -73t-209 73.5t-72 199.5z" />
    <glyph glyph-name="ubreve" unicode="&#x16d;" 
d="M279 572q-93 0 -160 69q-8 8 -8 20q0 11 8 19t20 8q15 0 20 -8q50 -53 120 -53t119 52q6 9 21 9q11 0 19 -8t8 -19q0 -10 -8 -20q-66 -69 -159 -69zM442 488q19 0 32.5 -13t13.5 -32v-403q0 -19 -13.5 -32t-31.5 -13q-19 0 -32 13t-13 32v26q-70 -78 -172 -78
q-154 0 -154 154v301q0 19 13 32t32 13q18 0 31.5 -13t13.5 -32v-271q0 -57 26 -80.5t76 -23.5q40 0 76 19.5t58 48.5v307q0 19 13 32t31 13z" />
    <glyph glyph-name="Uring" unicode="&#x16e;" horiz-adv-x="710" 
d="M256 807q0 41 29.5 71t70.5 30t70 -30t29 -71t-29 -71t-70 -30t-70.5 30t-29.5 71zM411 807q0 23 -16 39t-39 16q-22 0 -38.5 -16t-16.5 -39t16.5 -39.5t38.5 -16.5q23 0 39 16.5t16 39.5zM74 261v361q0 20 15 35t36 15t35.5 -15t14.5 -35v-358q0 -87 47 -137t133 -50
t132.5 50t46.5 137v358q0 20 15 35t36 15t35.5 -15t14.5 -35v-360q0 -128 -71.5 -201t-208.5 -73t-209 73.5t-72 199.5z" />
    <glyph glyph-name="uring" unicode="&#x16f;" 
d="M280 559q-41 0 -70.5 30t-29.5 71t29.5 71t70.5 30t70 -30t29 -71t-29 -71t-70 -30zM280 715q-22 0 -38.5 -16.5t-16.5 -38.5q0 -23 16.5 -39.5t38.5 -16.5q23 0 39 16.5t16 39.5t-16 39t-39 16zM442 488q19 0 32.5 -13t13.5 -32v-403q0 -19 -13.5 -32t-31.5 -13
q-19 0 -32 13t-13 32v26q-70 -78 -172 -78q-154 0 -154 154v301q0 19 13 32t32 13q18 0 31.5 -13t13.5 -32v-271q0 -57 26 -80.5t76 -23.5q40 0 76 19.5t58 48.5v307q0 19 13 32t31 13z" />
    <glyph glyph-name="Uhungarumlaut" unicode="&#x170;" horiz-adv-x="710" 
d="M291 716q-10 0 -17 7t-7 17q0 8 4 13l69 107q8 14 25 14q12 0 21 -9t9 -22q0 -11 -7 -18l-79 -99q-6 -10 -18 -10zM435 716q-10 0 -17 7t-7 17q0 8 4 13l69 107q8 14 25 14q12 0 21 -9t9 -22q0 -11 -7 -18l-79 -99q-6 -10 -18 -10zM74 261v361q0 20 15 35t36 15t35.5 -15
t14.5 -35v-358q0 -87 47 -137t133 -50t132.5 50t46.5 137v358q0 20 15 35t36 15t35.5 -15t14.5 -35v-360q0 -128 -71.5 -201t-208.5 -73t-209 73.5t-72 199.5z" />
    <glyph glyph-name="uhungarumlaut" unicode="&#x171;" 
d="M215 569q-10 0 -17 7t-7 17q0 8 4 13l69 107q8 14 25 14q12 0 21 -9t9 -22q0 -11 -7 -18l-79 -99q-6 -10 -18 -10zM359 569q-10 0 -17 7t-7 17q0 8 4 13l69 107q8 14 25 14q12 0 21 -9t9 -22q0 -11 -7 -18l-79 -99q-6 -10 -18 -10zM442 488q19 0 32.5 -13t13.5 -32v-403
q0 -19 -13.5 -32t-31.5 -13q-19 0 -32 13t-13 32v26q-70 -78 -172 -78q-154 0 -154 154v301q0 19 13 32t32 13q18 0 31.5 -13t13.5 -32v-271q0 -57 26 -80.5t76 -23.5q40 0 76 19.5t58 48.5v307q0 19 13 32t31 13z" />
    <glyph glyph-name="Uogonek" unicode="&#x172;" horiz-adv-x="710" 
d="M355 -12q-137 0 -209 73.5t-72 199.5v361q0 20 15 35t36 15t35.5 -15t14.5 -35v-358q0 -87 47 -137t133 -50t132.5 50t46.5 137v358q0 20 15 35t36 15t35.5 -15t14.5 -35v-360q0 -98 -42 -164t-122 -93q-51 -17 -79.5 -42t-28.5 -52q0 -16 11 -25.5t27 -9.5q4 0 14 2
q13 2 24 -6.5t11 -22.5q0 -22 -22 -29q-22 -6 -48 -6q-42 0 -72 20t-30 56q0 58 85 98h-8z" />
    <glyph glyph-name="uogonek" unicode="&#x173;" 
d="M464 0q-37 -29 -52.5 -48t-15.5 -41q0 -16 11.5 -25.5t27.5 -9.5q7 0 14 2t10 2q11 0 20 -8.5t9 -21.5q0 -20 -20 -28q-24 -8 -54 -8q-43 0 -72.5 20t-29.5 56q0 34 32 63.5t78 46.5q-24 14 -24 40v26q-70 -78 -172 -78q-154 0 -154 154v301q0 19 13 32t32 13
q18 0 31.5 -13t13.5 -32v-271q0 -57 26 -80.5t76 -23.5q40 0 76 19.5t58 48.5v307q0 19 13 32t31 13q19 0 32.5 -13t13.5 -32v-403q0 -26 -24 -40z" />
    <glyph glyph-name="Wcircumflex" unicode="&#x174;" horiz-adv-x="893" 
d="M523 726l-76 98l-76 -98q-6 -9 -18 -9q-11 0 -18.5 7t-7.5 18q0 8 4 13l63 96q15 22 42 22h22q27 0 42 -22l63 -96q4 -5 4 -13q0 -11 -7.5 -18t-18.5 -7q-12 0 -18 9zM639 -5q-24 0 -42.5 14t-24.5 37l-126 469l-126 -469q-5 -23 -23.5 -37t-42.5 -14t-42.5 14t-23.5 36
l-160 558q-2 10 -2 16q0 22 15.5 37.5t37.5 15.5q18 0 32 -11t19 -29l130 -500l137 503q11 37 50 37q17 0 30.5 -10.5t18.5 -26.5l136 -503l130 500q5 18 19 29t32 11q22 0 37.5 -15.5t15.5 -37.5q0 -6 -2 -16l-159 -558q-6 -22 -24 -36t-42 -14z" />
    <glyph glyph-name="wcircumflex" unicode="&#x175;" horiz-adv-x="744" 
d="M449 563l-76 98l-76 -98q-6 -9 -18 -9q-11 0 -18.5 7t-7.5 18q0 8 4 13l63 96q15 22 42 22h22q27 0 42 -22l63 -96q4 -5 4 -13q0 -11 -7.5 -18t-18.5 -7q-12 0 -18 9zM537 -5q-20 0 -36 12t-22 31l-107 333l-107 -333q-6 -19 -22 -31t-36 -12t-36.5 12t-21.5 31l-124 392
q-2 8 -2 14q0 18 13 31t31 13q16 0 27.5 -9t15.5 -23l102 -341l111 337q10 36 49 36t49 -36l111 -337l102 341q4 14 15.5 23t27.5 9q18 0 31 -13t13 -32q0 -6 -2 -14l-124 -391q-5 -19 -21.5 -31t-36.5 -12z" />
    <glyph glyph-name="Ycircumflex" unicode="&#x176;" horiz-adv-x="631" 
d="M223 717q-11 0 -18.5 7t-7.5 18q0 8 4 13l63 96q15 22 42 22h22q27 0 42 -22l63 -96q4 -5 4 -13q0 -11 -7.5 -18t-18.5 -7q-12 0 -18 9l-76 98l-76 -98q-6 -9 -18 -9zM588 624q0 -15 -8 -26l-214 -319v-234q0 -20 -14.5 -35t-35.5 -15t-35.5 15t-14.5 35v234l-215 318
q-8 11 -8 27q0 20 14 34t34 14q27 0 41 -22l184 -282l183 282q15 22 41 22q20 0 34 -14t14 -34z" />
    <glyph glyph-name="ycircumflex" unicode="&#x177;" horiz-adv-x="497" 
d="M325 579l-76 98l-76 -98q-6 -9 -18 -9q-11 0 -18.5 7t-7.5 18q0 8 4 13l63 96q15 22 42 22h22q27 0 42 -22l63 -96q4 -5 4 -13q0 -11 -7.5 -18t-18.5 -7q-12 0 -18 9zM49 -155q0 17 12.5 28.5t29.5 11.5q1 0 4.5 -0.5t6.5 -0.5q50 0 70 47l28 64l-177 431q-2 6 -2 17
q0 19 12.5 32t31.5 13q31 0 42 -28l141 -356l141 356q11 28 42 28q19 0 32 -13t13 -32q0 -6 -4 -18l-214 -517q-40 -102 -154 -104q-11 0 -18 1q-16 2 -26.5 13t-10.5 27z" />
    <glyph glyph-name="Ydieresis" unicode="&#x178;" horiz-adv-x="631" 
d="M212 732q-22 0 -37.5 15.5t-15.5 37.5t15.5 37t37.5 15t37 -15t15 -37t-15 -37.5t-37 -15.5zM420 732q-22 0 -37.5 15.5t-15.5 37.5t15.5 37t37.5 15q21 0 37 -15.5t16 -36.5q0 -22 -16 -37.5t-37 -15.5zM588 624q0 -15 -8 -26l-214 -319v-234q0 -20 -14.5 -35t-35.5 -15
t-35.5 15t-14.5 35v234l-215 318q-8 11 -8 27q0 20 14 34t34 14q27 0 41 -22l184 -282l183 282q15 22 41 22q20 0 34 -14t14 -34z" />
    <glyph glyph-name="Zacute" unicode="&#x179;" horiz-adv-x="587" 
d="M317 724q-6 -6 -16 -6t-16.5 6.5t-6.5 16.5t7 17l105 105q9 9 21 9t20.5 -8.5t8.5 -20.5t-10 -22zM98 0q-23 0 -40 16.5t-17 40.5q0 19 11 33l352 489h-319q-18 0 -31 12.5t-13 30.5q0 19 13 32t31 13h396q23 0 40 -16.5t17 -40.5q0 -19 -11 -33l-352 -489h326
q18 0 31 -12.5t13 -30.5q0 -19 -13 -32t-31 -13h-403z" />
    <glyph glyph-name="zacute" unicode="&#x17a;" horiz-adv-x="474" 
d="M260 577q-6 -6 -16 -6t-16.5 6.5t-6.5 16.5t7 17l105 105q9 9 21 9t20.5 -8.5t8.5 -20.5t-10 -22zM90 0q-19 0 -32.5 13.5t-13.5 32.5q0 17 9 29l248 329h-218q-16 0 -27.5 11.5t-11.5 27.5t11.5 28t27.5 12h297q19 0 32.5 -13t13.5 -32q0 -13 -10 -27l-250 -333h224
q16 0 28 -11.5t12 -27.5t-12 -27.5t-28 -11.5h-300z" />
    <glyph glyph-name="Zdotaccent" unicode="&#x17b;" horiz-adv-x="587" 
d="M241 784q0 21 15.5 37t37.5 16q21 0 36.5 -16t15.5 -37q0 -22 -15 -37.5t-37 -15.5t-37.5 15.5t-15.5 37.5zM98 0q-23 0 -40 16.5t-17 40.5q0 19 11 33l352 489h-319q-18 0 -31 12.5t-13 30.5q0 19 13 32t31 13h396q23 0 40 -16.5t17 -40.5q0 -19 -11 -33l-352 -489h326
q18 0 31 -12.5t13 -30.5q0 -19 -13 -32t-31 -13h-403z" />
    <glyph glyph-name="zdotaccent" unicode="&#x17c;" horiz-adv-x="474" 
d="M184 637q0 21 15.5 37t37.5 16q21 0 36.5 -16t15.5 -37q0 -22 -15 -37.5t-37 -15.5t-37.5 15.5t-15.5 37.5zM90 0q-19 0 -32.5 13.5t-13.5 32.5q0 17 9 29l248 329h-218q-16 0 -27.5 11.5t-11.5 27.5t11.5 28t27.5 12h297q19 0 32.5 -13t13.5 -32q0 -13 -10 -27
l-250 -333h224q16 0 28 -11.5t12 -27.5t-12 -27.5t-28 -11.5h-300z" />
    <glyph glyph-name="Zcaron" unicode="&#x17d;" horiz-adv-x="587" 
d="M386 873q11 0 18.5 -7.5t7.5 -18.5q0 -7 -4 -12l-63 -96q-15 -22 -42 -22h-22q-27 0 -42 22l-63 96q-4 5 -4 12q0 11 7.5 18.5t18.5 7.5q12 0 18 -9l76 -98l76 98q6 9 18 9zM98 0q-23 0 -40 16.5t-17 40.5q0 19 11 33l352 489h-319q-18 0 -31 12.5t-13 30.5q0 19 13 32
t31 13h396q23 0 40 -16.5t17 -40.5q0 -19 -11 -33l-352 -489h326q18 0 31 -12.5t13 -30.5q0 -19 -13 -32t-31 -13h-403z" />
    <glyph glyph-name="zcaron" unicode="&#x17e;" horiz-adv-x="474" 
d="M329 726q11 0 18.5 -7.5t7.5 -18.5q0 -7 -4 -12l-63 -96q-15 -22 -42 -22h-22q-27 0 -42 22l-63 96q-4 5 -4 12q0 11 7.5 18.5t18.5 7.5q12 0 18 -9l76 -98l76 98q6 9 18 9zM90 0q-19 0 -32.5 13.5t-13.5 32.5q0 17 9 29l248 329h-218q-16 0 -27.5 11.5t-11.5 27.5
t11.5 28t27.5 12h297q19 0 32.5 -13t13.5 -32q0 -13 -10 -27l-250 -333h224q16 0 28 -11.5t12 -27.5t-12 -27.5t-28 -11.5h-300z" />
    <glyph glyph-name="longs" unicode="&#x17f;" horiz-adv-x="296" 
d="M289 671q28 -9 28 -35q0 -36 -36 -36q-3 0 -12 1.5t-13 1.5q-34 0 -53 -22.5t-19 -65.5v-475q0 -19 -13 -32t-31 -13q-19 0 -32.5 13t-13.5 32v364h-45q-17 0 -28.5 12t-11.5 28t12 27.5t28 11.5h45v32q0 76 40.5 119t106.5 43q25 0 48 -6z" />
    <glyph glyph-name="uni018F" unicode="&#x18f;" horiz-adv-x="746" 
d="M353 678q147 0 247 -96t100 -249t-96 -249.5t-237 -96.5t-228.5 86t-101.5 235q-2 26 12 40t41 14h505q-9 101 -76.5 164t-165.5 63q-94 0 -162 -68q-15 -13 -34 -13t-32.5 13.5t-13.5 32.5q0 21 14 33q91 91 228 91zM359 76q89 0 152 54.5t79 143.5h-446
q12 -87 68.5 -142.5t146.5 -55.5z" />
    <glyph glyph-name="uni0192" unicode="&#x192;" horiz-adv-x="438" 
d="M420 663q26 -13 26 -39q0 -18 -13 -31t-31 -13q-2 0 -14 3q-12 6 -26 6q-34 0 -59 -22.5t-34 -62.5l-39 -174h97q16 0 28 -12t12 -29q0 -16 -12 -28t-28 -12h-115l-83 -376q-4 -17 -17 -28t-31 -11q-22 0 -36.5 15t-13.5 35q0 5 2 13l78 352h-29q-16 0 -28 12.5t-12 28.5
t12 28t28 12h46l43 193q16 70 65 112t116 42q41 0 68 -14z" />
    <glyph glyph-name="uni019D" unicode="&#x19d;" horiz-adv-x="714" 
d="M540 622q0 20 14.5 35t34.5 15q21 0 36 -15t15 -35v-565q0 -25 -18 -43.5t-44 -18.5q-33 0 -50 26l-354 491v-490q0 -107 -60 -162.5t-158 -55.5q-7 0 -10 1q-18 0 -31.5 13t-13.5 31t12 32t28 13q4 -1 9 -1q57 1 90.5 36.5t33.5 93.5v583q0 27 19 46.5t47 19.5
q34 0 53 -27l347 -478v455z" />
    <glyph glyph-name="Ohorn" unicode="&#x1a0;" horiz-adv-x="765" 
d="M726 665q0 -78 -67 -128q59 -89 59 -204q0 -150 -94 -247.5t-242 -97.5t-242 97.5t-94 247.5t94 247.5t242 97.5q157 0 252 -109q40 33 45 72q-2 -2 -12 -2q-17 0 -29 12.5t-12 31.5q0 20 13.5 33.5t32.5 13.5q22 0 38 -17.5t16 -47.5zM382 77q104 0 168.5 72.5
t64.5 183.5q0 112 -64.5 184t-168.5 72q-106 0 -169.5 -72t-63.5 -184t64 -184t169 -72z" />
    <glyph glyph-name="ohorn" unicode="&#x1a1;" horiz-adv-x="572" 
d="M534 531q0 -72 -59 -122q55 -71 55 -167q0 -108 -67 -181t-177 -73t-177 73t-67 181q0 107 67 180t177 73q96 0 161 -57q36 33 41 70q-4 -2 -12 -2q-18 0 -30 12.5t-12 31.5t13.5 32.5t33.5 13.5q22 0 37.5 -17.5t15.5 -47.5zM286 68q70 0 110 50.5t40 123.5
q0 72 -40 122.5t-110 50.5q-69 0 -109.5 -50.5t-40.5 -122.5q0 -73 40.5 -123.5t109.5 -50.5z" />
    <glyph glyph-name="Uhorn" unicode="&#x1af;" horiz-adv-x="710" 
d="M749 728q0 -48 -30.5 -90.5t-83.5 -64.5v-311q0 -128 -71.5 -201t-208.5 -73t-209 73.5t-72 199.5v361q0 20 15 35t36 15t35.5 -15t14.5 -35v-358q0 -87 47 -137t133 -50t132.5 50t46.5 137v358q0 20 15 35t36 15t35.5 -15t14.5 -35v-6q27 14 46.5 39t21.5 50
q-4 -2 -12 -2q-18 0 -30 12.5t-12 31.5t13.5 32.5t32.5 13.5q23 0 38.5 -17.5t15.5 -47.5z" />
    <glyph glyph-name="uhorn" unicode="&#x1b0;" 
d="M578 539q0 -42 -24 -80.5t-66 -62.5v-356q0 -19 -13.5 -32t-31.5 -13q-19 0 -32 13t-13 32v26q-70 -78 -172 -78q-154 0 -154 154v301q0 19 13 32t32 13q18 0 31.5 -13t13.5 -32v-271q0 -57 26 -80.5t76 -23.5q40 0 76 19.5t58 48.5v307q0 19 13 32t31 13q19 0 32.5 -13
t13.5 -32q40 35 43 73q-2 -2 -11 -2q-19 0 -31 12.5t-12 31.5t13.5 32.5t33.5 13.5q23 0 38.5 -17.5t15.5 -47.5z" />
    <glyph glyph-name="Gcaron" unicode="&#x1e6;" horiz-adv-x="715" 
d="M337 739l-63 96q-4 5 -4 12q0 11 7.5 18.5t18.5 7.5q12 0 18 -9l76 -98l76 98q6 9 18 9q11 0 18.5 -7.5t7.5 -18.5q0 -7 -4 -12l-63 -96q-15 -22 -42 -22h-22q-27 0 -42 22zM608 350q53 0 53 -53v-153q0 -41 -27 -65q-102 -92 -242 -92q-146 0 -246 96.5t-100 249.5
t100 249t246 96q138 0 229 -91q14 -12 14 -33q0 -19 -13.5 -32.5t-33.5 -13.5q-18 0 -33 13q-68 68 -163 68q-105 0 -174 -72t-69 -184q0 -111 69 -184t174 -73q51 0 96 20t73 46v120h-175q-18 0 -31 13t-13 32q0 18 13 30.5t31 12.5h222z" />
    <glyph glyph-name="gcaron" unicode="&#x1e7;" horiz-adv-x="577" 
d="M236 592l-63 96q-4 5 -4 12q0 11 7.5 18.5t18.5 7.5q12 0 18 -9l76 -98l76 98q6 9 18 9q11 0 18.5 -7.5t7.5 -18.5q0 -7 -4 -12l-63 -96q-15 -22 -42 -22h-22q-27 0 -42 22zM461 488q18 0 31.5 -13t13.5 -32v-424q0 -60 -20.5 -103.5t-55.5 -67t-75.5 -34t-88.5 -10.5
q-105 0 -174 52q-16 12 -16 31q0 16 11 27t27 11q13 0 23 -7q50 -40 129 -40q63 0 106.5 33.5t43.5 104.5v64q-63 -84 -159 -84t-155.5 67t-59.5 183q0 114 60 181.5t155 67.5q97 0 159 -82v30q0 19 13 32t32 13zM282 76q39 0 77 21t57 51v196q-19 30 -56.5 50.5t-77.5 20.5
q-67 0 -106.5 -47t-39.5 -122q0 -76 39.5 -123t106.5 -47z" />
    <glyph glyph-name="uni01EA" unicode="&#x1ea;" horiz-adv-x="765" 
d="M435 -8q-57 -46 -57 -81q0 -16 11.5 -25.5t27.5 -9.5q7 0 14 2t10 2q11 0 20 -8.5t9 -21.5q0 -20 -20 -28q-24 -8 -54 -8q-43 0 -72.5 20t-29.5 56q0 56 82 98q-146 2 -238 99.5t-92 245.5q0 150 94 247.5t242 97.5t242 -97.5t94 -247.5q0 -135 -78 -229.5t-205 -111.5z
M149 333q0 -112 64 -184t169 -72q104 0 168.5 72.5t64.5 183.5q0 112 -64.5 184t-168.5 72q-106 0 -169.5 -72t-63.5 -184z" />
    <glyph glyph-name="uni01EB" unicode="&#x1eb;" horiz-adv-x="572" 
d="M327 -9q-56 -45 -56 -80q0 -16 11.5 -25.5t27.5 -9.5q7 0 14 2t10 2q11 0 20 -8.5t9 -21.5q0 -20 -20 -28q-24 -8 -54 -8q-43 0 -72.5 20t-29.5 56q0 57 83 98q-103 6 -165.5 78t-62.5 176q0 107 67 180t177 73t177 -73t67 -180q0 -97 -55 -167t-148 -84zM136 242
q0 -73 40.5 -123.5t109.5 -50.5q70 0 110 50.5t40 123.5q0 72 -40 122.5t-110 50.5q-69 0 -109.5 -50.5t-40.5 -122.5z" />
    <glyph glyph-name="Aringacute" unicode="&#x1fa;" horiz-adv-x="666" 
d="M339 930q-10 0 -16.5 6.5t-6.5 16.5t7 17l105 105q9 9 21 9t20.5 -8.5t8.5 -20.5t-10 -22l-113 -97q-6 -6 -16 -6zM333 706q-41 0 -70.5 30t-29.5 71t29.5 71t70.5 30t70 -30t29 -71t-29 -71t-70 -30zM333 862q-23 0 -39 -16t-16 -39t16.5 -39.5t38.5 -16.5q23 0 39 16.5
t16 39.5t-16 39t-39 16zM634 65q4 -10 4 -19q0 -21 -15 -36t-36 -15q-36 0 -47 32l-42 111h-331l-42 -111q-5 -14 -18.5 -23t-28.5 -9q-21 0 -36 15t-15 36q0 7 4 19l220 551q9 24 31.5 40t49.5 16q28 0 50 -15.5t32 -40.5zM200 227h265l-133 353z" />
    <glyph glyph-name="aringacute" unicode="&#x1fb;" horiz-adv-x="532" 
d="M274 783q-10 0 -16.5 6.5t-6.5 16.5t7 17l105 105q9 9 21 9t20.5 -8.5t8.5 -20.5t-10 -22l-113 -97q-6 -6 -16 -6zM268 559q-41 0 -70.5 30t-29.5 71t29.5 71t70.5 30t70 -30t29 -71t-29 -71t-70 -30zM268 715q-22 0 -38.5 -16.5t-16.5 -38.5q0 -23 16.5 -39.5
t38.5 -16.5q23 0 39 16.5t16 39.5t-16 39t-39 16zM266 495q86 0 140 -41t54 -128v-286q0 -19 -13.5 -32t-31.5 -13t-31.5 13t-13.5 32v14q-57 -66 -158 -66q-66 0 -117 42.5t-51 117.5q0 77 50 117.5t118 40.5q103 0 158 -64v80q0 44 -32.5 70t-85.5 26q-65 0 -119 -42
q-11 -7 -22 -7q-15 0 -25.5 11t-10.5 26q0 19 15 29q75 60 176 60zM246 51q83 0 124 55v82q-41 55 -124 55q-49 0 -80 -26.5t-31 -69.5t31 -69.5t80 -26.5z" />
    <glyph glyph-name="AEacute" unicode="&#x1fc;" horiz-adv-x="953" 
d="M511 718q-10 0 -16.5 6.5t-6.5 16.5t7 17l105 105q9 9 21 9t20.5 -8.5t8.5 -20.5t-10 -22l-113 -97q-6 -6 -16 -6zM863 88q18 0 31.5 -12.5t13.5 -30.5q0 -19 -13.5 -32t-31.5 -13h-354q-54 0 -54 53v85h-261l-71 -121q-14 -22 -40 -22q-19 0 -33 13.5t-14 33.5
q0 10 7 24l350 565q23 36 65 36h405q18 0 31.5 -13t13.5 -32q0 -18 -13.5 -30.5t-31.5 -12.5h-308v-195h301q18 0 31.5 -12.5t13.5 -30.5q0 -19 -13.5 -32t-31.5 -13h-301v-208h308zM247 227h208v354z" />
    <glyph glyph-name="aeacute" unicode="&#x1fd;" horiz-adv-x="883" 
d="M464 577q-6 -6 -16 -6t-16.5 6.5t-6.5 16.5t7 17l105 105q9 9 21 9t20.5 -8.5t8.5 -20.5t-10 -22zM484 212q5 -64 45.5 -106t105.5 -42q61 0 110 37q10 6 20 6q15 0 25.5 -10.5t10.5 -26.5q0 -18 -16 -30q-68 -52 -154 -52q-134 0 -192 107q-28 -48 -81.5 -77.5
t-118.5 -29.5q-82 0 -138.5 42t-56.5 118q0 75 51 116.5t126 41.5q111 0 173 -62v78q0 44 -35.5 70t-92.5 26q-74 0 -133 -43q-8 -7 -21 -7q-15 0 -26 11t-11 27q0 19 16 30q77 59 183 59q65 0 111.5 -25t61.5 -74q62 99 178 99q98 0 158 -70.5t60 -169.5q0 -43 -54 -43
h-305zM755 277q-2 56 -36.5 100t-99.5 44q-62 0 -97.5 -44t-38.5 -100h272zM394 187q-48 56 -137 56q-54 0 -88 -24t-34 -66t33.5 -65.5t88.5 -23.5q56 0 96.5 35.5t40.5 78.5v9z" />
    <glyph glyph-name="Oslashacute" unicode="&#x1fe;" horiz-adv-x="765" 
d="M388 718q-10 0 -16.5 6.5t-6.5 16.5t7 17l105 105q9 9 21 9t20.5 -8.5t8.5 -20.5t-10 -22l-113 -97q-6 -6 -16 -6zM602 601q116 -99 116 -268q0 -150 -94 -247.5t-242 -97.5q-99 0 -176 46l-18 -26q-8 -13 -25 -13q-13 0 -22 9t-9 22q0 11 5 18l19 27q-110 99 -110 262
q0 150 94 247.5t242 97.5q92 0 168 -41l16 22q10 13 25 13q13 0 22 -9t9 -22t-5 -18zM149 333q0 -112 62 -182l286 409q-50 29 -115 29q-106 0 -169.5 -72t-63.5 -184zM382 77q104 0 168.5 72.5t64.5 183.5q0 117 -69 189l-287 -412q55 -33 123 -33z" />
    <glyph glyph-name="oslashacute" unicode="&#x1ff;" horiz-adv-x="572" 
d="M293 571q-10 0 -16.5 6.5t-6.5 16.5t7 17l105 105q9 9 21 9t20.5 -8.5t8.5 -20.5t-10 -22l-113 -97q-6 -6 -16 -6zM461 424q69 -72 69 -182q0 -108 -67 -181t-177 -73q-81 0 -143 43l-22 -27q-7 -9 -18 -9q-10 0 -17 7t-7 16q0 8 6 16l23 28q-66 72 -66 180q0 107 67 180
t177 73q78 0 139 -40l19 24q7 9 18 9q10 0 17 -7t7 -17t-5 -15zM136 242q0 -63 30 -108l205 254q-37 27 -85 27q-69 0 -109.5 -50.5t-40.5 -122.5zM286 68q70 0 110 50.5t40 123.5q0 65 -32 112l-207 -256q38 -30 89 -30z" />
    <glyph glyph-name="uni0218" unicode="&#x218;" horiz-adv-x="590" 
d="M64 65q-19 16 -19 38q0 19 14.5 33.5t33.5 14.5q17 0 30 -10q80 -64 177 -64q74 0 110 30.5t36 72.5q0 20 -9.5 36.5t-21.5 26.5t-37.5 20t-42.5 15t-50 14q-32 8 -47 12.5t-44.5 14.5t-45 19t-36.5 24t-31.5 32t-18.5 41t-8 52q0 83 67.5 136.5t176.5 53.5
q114 0 206 -65q21 -13 21 -38q0 -20 -14 -34t-33 -14q-15 0 -28 9q-67 53 -160 53q-61 0 -97 -26t-36 -68q0 -17 9 -31.5t21 -23.5t35.5 -18t40.5 -14t49 -13q44 -12 67.5 -19t61 -24.5t57 -36.5t35 -51.5t15.5 -73.5q0 -86 -62.5 -143.5t-189.5 -57.5q-139 0 -232 77z
M269 -275q-9 0 -16 6.5t-7 15.5q0 8 12 20q34 34 40 69q-4 -2 -13 -2q-20 0 -32.5 13.5t-12.5 34.5t14.5 36t35.5 15q24 0 41.5 -19.5t17.5 -51.5q0 -75 -65 -131q-8 -6 -15 -6z" />
    <glyph glyph-name="uni0219" unicode="&#x219;" horiz-adv-x="468" 
d="M55 42q-17 12 -17 32q0 16 11 27.5t28 11.5q11 0 22 -7q63 -46 136 -46q50 0 77 18.5t27 50.5t-30 48.5t-87 29.5q-34 8 -51.5 12.5t-45.5 16.5t-43 25.5t-26.5 37t-11.5 53.5q0 60 49.5 101.5t134.5 41.5q93 0 161 -50q16 -12 16 -30q0 -15 -11 -26t-26 -11q-11 0 -20 7
q-50 37 -119 37q-46 0 -72.5 -17t-26.5 -46q0 -28 28 -42.5t84 -27.5q34 -8 52.5 -13t47.5 -17t44.5 -26.5t27.5 -39.5t12 -57q0 -65 -51.5 -106.5t-143.5 -41.5q-104 0 -176 54zM207 -275q-9 0 -16 6.5t-7 15.5q0 8 12 20q34 34 40 69q-4 -2 -13 -2q-20 0 -32.5 13.5
t-12.5 34.5t14.5 36t35.5 15q24 0 41.5 -19.5t17.5 -51.5q0 -75 -65 -131q-8 -6 -15 -6z" />
    <glyph glyph-name="uni021A" unicode="&#x21a;" horiz-adv-x="573" 
d="M287 -5q-21 0 -35.5 15t-14.5 35v534h-168q-18 0 -31 12.5t-13 30.5q0 19 13 32t31 13h435q18 0 31.5 -13t13.5 -32q0 -18 -13.5 -30.5t-31.5 -12.5h-167v-534q0 -20 -15 -35t-35 -15zM266 -275q-9 0 -16 6.5t-7 15.5q0 8 12 20q34 34 40 69q-4 -2 -13 -2
q-20 0 -32.5 13.5t-12.5 34.5t14.5 36t35.5 15q24 0 41.5 -19.5t17.5 -51.5q0 -75 -65 -131q-8 -6 -15 -6z" />
    <glyph glyph-name="uni021B" unicode="&#x21b;" horiz-adv-x="306" 
d="M259 74q17 0 27.5 -10.5t10.5 -27.5q0 -26 -23 -34q-30 -14 -69 -14q-57 0 -86 31t-29 88v297h-46q-16 0 -28 12t-12 28t12 27.5t28 11.5h46v92q0 19 13 32t32 13q18 0 31.5 -13t13.5 -32v-92h63q16 0 28 -11.5t12 -27.5t-11.5 -28t-28.5 -12h-63v-277q0 -26 12 -42.5
t35 -16.5q9 0 18.5 3t13.5 3zM156 -67q24 0 41.5 -19.5t17.5 -51.5q0 -75 -65 -131q-8 -6 -15 -6q-9 0 -16 6.5t-7 15.5q0 8 12 20q34 34 40 69q-4 -2 -13 -2q-20 0 -32.5 13.5t-12.5 34.5t14.5 36t35.5 15z" />
    <glyph glyph-name="uni0232" unicode="&#x232;" horiz-adv-x="631" 
d="M180 736q-11 0 -19 8t-8 19q0 12 8 20t19 8h271q11 0 19 -8t8 -20q0 -11 -8 -19t-19 -8h-271zM588 624q0 -15 -8 -26l-214 -319v-234q0 -20 -14.5 -35t-35.5 -15t-35.5 15t-14.5 35v234l-215 318q-8 11 -8 27q0 20 14 34t34 14q27 0 41 -22l184 -282l183 282q15 22 41 22
q20 0 34 -14t14 -34z" />
    <glyph glyph-name="uni0233" unicode="&#x233;" horiz-adv-x="497" 
d="M112 589q-11 0 -19 8t-8 19q0 12 8 20t19 8h271q11 0 19 -8t8 -20q0 -11 -8 -19t-19 -8h-271zM49 -155q0 17 12.5 28.5t29.5 11.5q1 0 4.5 -0.5t6.5 -0.5q50 0 70 47l28 64l-177 431q-2 6 -2 17q0 19 12.5 32t31.5 13q31 0 42 -28l141 -356l141 356q11 28 42 28
q19 0 32 -13t13 -32q0 -6 -4 -18l-214 -517q-40 -102 -154 -104q-11 0 -18 1q-16 2 -26.5 13t-10.5 27z" />
    <glyph glyph-name="uni0237" unicode="&#x237;" horiz-adv-x="233" 
d="M11 -196q-12 0 -18 1q-15 1 -26 12t-11 26t10 27t24 12q1 0 4 -0.5t6 -0.5q72 0 72 81v481q0 19 13 32t32 13q18 0 31.5 -13t13.5 -32v-481q0 -75 -39 -116.5t-112 -41.5z" />
    <glyph glyph-name="uni0259" unicode="&#x259;" horiz-adv-x="560" 
d="M517 241q0 -106 -68.5 -179.5t-172.5 -73.5q-107 0 -171 73.5t-64 187.5q0 22 53 22h329q-5 64 -49.5 107t-114.5 43q-66 0 -120 -39q-8 -5 -20 -5q-15 0 -26 10.5t-11 25.5q0 18 16 30q71 52 170 52q109 0 179 -70.5t70 -183.5zM276 62q67 0 105.5 44t41.5 100h-294
q1 -55 39 -99.5t108 -44.5z" />
    <glyph glyph-name="uni0272" unicode="&#x272;" 
d="M333 495q155 0 155 -156v-299q0 -19 -13.5 -32t-32.5 -13q-18 0 -31 13t-13 32v269q0 106 -103 106q-40 0 -76 -20.5t-57 -49.5v-383q0 -75 -39 -116.5t-112 -41.5q-12 0 -18 1q-15 1 -26 12t-11 26q0 16 11 27.5t26 11.5q3 -1 9 -1q70 2 70 81v481q0 19 13 32t32 13
q18 0 31.5 -13t13.5 -32v-27q28 32 74 55.5t97 23.5z" />
    <glyph glyph-name="uni02B0" unicode="&#x2b0;" horiz-adv-x="401" 
d="M310 321q-14 0 -24 10t-10 24v169q0 37 -17 52t-49 15q-52 0 -86 -42v-194q0 -14 -10 -24t-24 -10q-13 0 -23 10t-10 24v376q0 14 10 24t24 10q13 0 23 -10t10 -24v-134q47 51 115 51q105 0 105 -106v-187q0 -14 -9.5 -24t-24.5 -10z" />
    <glyph glyph-name="uni02BC" unicode="&#x2bc;" horiz-adv-x="237" 
d="M114 443q-9 -7 -18 -7q-11 0 -18.5 8t-7.5 19q0 12 8 20q41 39 47 78q-9 -3 -15 -3q-23 0 -38.5 16t-15.5 41q0 26 18 44t43 18q29 0 49.5 -22.5t20.5 -60.5q0 -86 -73 -151z" />
    <glyph glyph-name="circumflex" unicode="&#x2c6;" horiz-adv-x="275" 
d="M213 559l-76 98l-76 -98q-6 -9 -18 -9q-11 0 -18.5 7t-7.5 18q0 8 4 13l63 96q15 22 42 22h22q27 0 42 -22l63 -96q4 -5 4 -13q0 -11 -7.5 -18t-18.5 -7q-12 0 -18 9z" />
    <glyph glyph-name="caron" unicode="&#x2c7;" horiz-adv-x="275" 
d="M231 706q11 0 18.5 -7.5t7.5 -18.5q0 -7 -4 -12l-63 -96q-15 -22 -42 -22h-22q-27 0 -42 22l-63 96q-4 5 -4 12q0 11 7.5 18.5t18.5 7.5q12 0 18 -9l76 -98l76 98q6 9 18 9z" />
    <glyph glyph-name="uni02C9" unicode="&#x2c9;" horiz-adv-x="363" 
d="M46 591q-11 0 -19 8t-8 19q0 12 8 20t19 8h271q11 0 19 -8t8 -20q0 -11 -8 -19t-19 -8h-271z" />
    <glyph glyph-name="uni02CB" unicode="&#x2cb;" horiz-adv-x="233" 
d="M166 557l-113 97q-10 10 -10 22t8.5 20.5t20.5 8.5t21 -9l105 -105q7 -7 7 -17t-6.5 -16.5t-16.5 -6.5t-16 6z" />
    <glyph glyph-name="breve" unicode="&#x2d8;" horiz-adv-x="351" 
d="M176 552q-93 0 -160 69q-8 8 -8 20q0 11 8 19t20 8q15 0 20 -8q50 -53 120 -53t119 52q6 9 21 9q11 0 19 -8t8 -19q0 -10 -8 -20q-66 -69 -159 -69z" />
    <glyph glyph-name="dotaccent" unicode="&#x2d9;" horiz-adv-x="137" 
d="M16 617q0 21 15.5 37t37.5 16q21 0 36.5 -16t15.5 -37q0 -22 -15 -37.5t-37 -15.5t-37.5 15.5t-15.5 37.5z" />
    <glyph glyph-name="ring" unicode="&#x2da;" horiz-adv-x="239" 
d="M20 640q0 41 29.5 71t70.5 30t70 -30t29 -71t-29 -71t-70 -30t-70.5 30t-29.5 71zM175 640q0 23 -16 39t-39 16q-22 0 -38.5 -16.5t-16.5 -38.5q0 -23 16.5 -39.5t38.5 -16.5q23 0 39 16.5t16 39.5z" />
    <glyph glyph-name="ogonek" unicode="&#x2db;" horiz-adv-x="200" 
d="M114 -186q-43 0 -72.5 20t-29.5 56q0 35 32.5 64.5t79.5 46.5q44 15 49 8q1 -1 -3 -4q-40 -31 -57 -51t-17 -43q0 -16 11.5 -25.5t27.5 -9.5q7 0 14 2t10 2q11 0 20 -8.5t9 -21.5q0 -20 -20 -28q-24 -8 -54 -8z" />
    <glyph glyph-name="tilde" unicode="&#x2dc;" horiz-adv-x="317" 
d="M217 554q-19 0 -34.5 8.5t-22.5 16.5t-19 24q-25 36 -45 36q-38 0 -44 -62q-4 -22 -25 -22q-11 0 -19 8.5t-6 19.5q5 52 30.5 81.5t67.5 29.5q18 0 33.5 -8.5t22.5 -16.5t19 -24q10 -13 14.5 -18.5t13.5 -11.5t18 -6q37 0 44 62q2 22 25 22q11 0 18.5 -8t6.5 -20
q-5 -52 -30.5 -81.5t-67.5 -29.5z" />
    <glyph glyph-name="hungarumlaut" unicode="&#x2dd;" horiz-adv-x="315" 
d="M39 549q-10 0 -17 7t-7 17q0 8 4 13l69 107q8 14 25 14q12 0 21 -9t9 -22q0 -11 -7 -18l-79 -99q-6 -10 -18 -10zM183 549q-10 0 -17 7t-7 17q0 8 4 13l69 107q8 14 25 14q12 0 21 -9t9 -22q0 -11 -7 -18l-79 -99q-6 -10 -18 -10z" />
    <glyph glyph-name="gravecomb" unicode="&#x300;" horiz-adv-x="0" 
d="M-67 557l-113 97q-10 10 -10 22t8.5 20.5t20.5 8.5t21 -9l105 -105q7 -7 7 -17t-6.5 -16.5t-16.5 -6.5t-16 6z" />
    <glyph glyph-name="acutecomb" unicode="&#x301;" horiz-adv-x="0" 
d="M-166 557q-6 -6 -16 -6t-16.5 6.5t-6.5 16.5t7 17l105 105q9 9 21 9t20.5 -8.5t8.5 -20.5t-10 -22z" />
    <glyph glyph-name="uni0302" unicode="&#x302;" horiz-adv-x="0" 
d="M-62 559l-76 98l-76 -98q-6 -9 -18 -9q-11 0 -18.5 7t-7.5 18q0 8 4 13l63 96q15 22 42 22h22q27 0 42 -22l63 -96q4 -5 4 -13q0 -11 -7.5 -18t-18.5 -7q-12 0 -18 9z" />
    <glyph glyph-name="tildecomb" unicode="&#x303;" horiz-adv-x="0" 
d="M-100 554q-19 0 -34.5 8.5t-22.5 16.5t-19 24q-25 36 -45 36q-38 0 -44 -62q-4 -22 -25 -22q-11 0 -19 8.5t-6 19.5q5 52 30.5 81.5t67.5 29.5q18 0 33.5 -8.5t22.5 -16.5t19 -24q10 -13 14.5 -18.5t13.5 -11.5t18 -6q37 0 44 62q2 22 25 22q11 0 18.5 -8t6.5 -20
q-5 -52 -30.5 -81.5t-67.5 -29.5z" />
    <glyph glyph-name="uni0304" unicode="&#x304;" horiz-adv-x="0" 
d="M-317 569q-11 0 -19 8t-8 19q0 12 8 20t19 8h271q11 0 19 -8t8 -20q0 -11 -8 -19t-19 -8h-271z" />
    <glyph glyph-name="uni0306" unicode="&#x306;" horiz-adv-x="0" 
d="M-175 552q-93 0 -160 69q-8 8 -8 20q0 11 8 19t20 8q15 0 20 -8q50 -53 120 -53t119 52q6 9 21 9q11 0 19 -8t8 -19q0 -10 -8 -20q-66 -69 -159 -69z" />
    <glyph glyph-name="uni0307" unicode="&#x307;" horiz-adv-x="0" 
d="M-121 617q0 21 15.5 37t37.5 16q21 0 36.5 -16t15.5 -37q0 -22 -15 -37.5t-37 -15.5t-37.5 15.5t-15.5 37.5z" />
    <glyph glyph-name="uni0308" unicode="&#x308;" horiz-adv-x="0" 
d="M-312 565q-22 0 -37.5 15.5t-15.5 37.5t15.5 37t37.5 15t37 -15t15 -37t-15 -37.5t-37 -15.5zM-104 565q-22 0 -37.5 15.5t-15.5 37.5t15.5 37t37.5 15q21 0 37 -15.5t16 -36.5q0 -22 -16 -37.5t-37 -15.5z" />
    <glyph glyph-name="uni0309" unicode="&#x309;" horiz-adv-x="0" 
d="M-38 552q-9 0 -16 6.5t-7 14.5t4 17q7 13 7 34q0 47 -44 47q-31 0 -44 -28q-6 -12 -21 -12q-10 0 -17.5 7t-7.5 17q0 5 4 13q30 48 86 48q41 0 68.5 -23t27.5 -68q0 -29 -19 -60q-8 -13 -21 -13z" />
    <glyph glyph-name="uni030A" unicode="&#x30a;" horiz-adv-x="0" 
d="M-219 640q0 41 29.5 71t70.5 30t70 -30t29 -71t-29 -71t-70 -30t-70.5 30t-29.5 71zM-64 640q0 23 -16 39t-39 16t-39 -16.5t-16 -38.5q0 -23 16.5 -39.5t38.5 -16.5q23 0 39 16.5t16 39.5z" />
    <glyph glyph-name="uni030B" unicode="&#x30b;" horiz-adv-x="0" 
d="M-276 549q-10 0 -17 7t-7 17q0 8 4 13l69 107q8 14 25 14q12 0 21 -9t9 -22q0 -11 -7 -18l-79 -99q-6 -10 -18 -10zM-132 549q-10 0 -17 7t-7 17q0 8 4 13l69 107q8 14 25 14q12 0 21 -9t9 -22q0 -11 -7 -18l-79 -99q-6 -10 -18 -10z" />
    <glyph glyph-name="uni030C" unicode="&#x30c;" horiz-adv-x="0" 
d="M-44 706q11 0 18.5 -7.5t7.5 -18.5q0 -7 -4 -12l-63 -96q-15 -22 -42 -22h-22q-27 0 -42 22l-63 96q-4 5 -4 12q0 11 7.5 18.5t18.5 7.5q12 0 18 -9l76 -98l76 98q6 9 18 9z" />
    <glyph glyph-name="dotbelowcomb" unicode="&#x323;" horiz-adv-x="0" 
d="M-121 -118q0 22 15.5 37.5t37.5 15.5t37 -15.5t15 -37.5t-15 -37.5t-37 -15.5t-37.5 15.5t-15.5 37.5z" />
    <glyph glyph-name="uni0326" unicode="&#x326;" horiz-adv-x="0" 
d="M-141 -275q-9 0 -16 6.5t-7 15.5q0 8 12 20q34 34 40 69q-4 -2 -13 -2q-20 0 -32.5 13.5t-12.5 34.5t14.5 36t35.5 15q24 0 41.5 -19.5t17.5 -51.5q0 -75 -65 -131q-8 -6 -15 -6z" />
    <glyph glyph-name="uni0327" unicode="&#x327;" horiz-adv-x="0" 
d="M-106 -193q-53 0 -90 23q-13 4 -13 20q0 10 7 16.5t16 6.5q6 0 12 -3q31 -19 66 -19q25 0 42 10t17 29q0 32 -36 32q-18 0 -29 -10q-6 -4 -15 -4q-11 0 -18 7t-7 18q0 4 2 10l25 68h50l-26 -65q16 11 37 11q29 0 47.5 -19t18.5 -49q0 -37 -30.5 -59.5t-75.5 -22.5z" />
    <glyph glyph-name="uni0328" unicode="&#x328;" horiz-adv-x="0" 
d="M-86 -186q-43 0 -72.5 20t-29.5 56q0 35 32.5 64.5t79.5 46.5q44 15 49 8q1 -1 -3 -4q-40 -31 -57 -51t-17 -43q0 -16 11.5 -25.5t27.5 -9.5q7 0 14 2t10 2q11 0 20 -8.5t9 -21.5q0 -20 -20 -28q-24 -8 -54 -8z" />
    <glyph glyph-name="uni037E" unicode="&#x37e;" horiz-adv-x="238" 
d="M118 365q-25 0 -43.5 18.5t-18.5 43.5q0 26 18.5 44.5t43.5 18.5q26 0 44.5 -19t18.5 -44t-19 -43.5t-44 -18.5zM114 -119q-7 -7 -18 -7t-18.5 7.5t-7.5 19.5q0 11 8 19q41 41 47 78q-6 -2 -15 -2q-23 0 -38.5 16t-15.5 41t18 43t43 18q29 0 49.5 -22.5t20.5 -60.5
q0 -85 -73 -150z" />
    <glyph glyph-name="tonos" unicode="&#x384;" horiz-adv-x="128" 
d="M36 565q-9 0 -16 8t-6 17l15 154q1 15 12 25t25 10q16 0 27.5 -11t11.5 -27q0 -4 -2 -12l-45 -148q-4 -16 -22 -16z" />
    <glyph glyph-name="dieresistonos" unicode="&#x385;" horiz-adv-x="407" 
d="M192 565q-10 0 -17 8t-6 18l15 153q1 16 12 25.5t25 9.5q16 0 27.5 -11t11.5 -27q0 -6 -2 -12l-44 -148q-4 -16 -22 -16zM65 565q-22 0 -37.5 15.5t-15.5 37.5t15.5 37t37.5 15q21 0 36.5 -15t15.5 -37t-15.5 -37.5t-36.5 -15.5zM342 565q-22 0 -37 15.5t-15 37.5t15 37
t37 15t37.5 -15t15.5 -37t-15.5 -37.5t-37.5 -15.5z" />
    <glyph glyph-name="Alphatonos" unicode="&#x386;" horiz-adv-x="666" 
d="M107 461q-9 0 -16 8t-6 17l15 154q1 15 12 25t25 10q16 0 27.5 -11t11.5 -27q0 -4 -2 -12l-45 -148q-4 -16 -22 -16zM634 65q4 -10 4 -19q0 -21 -15 -36t-36 -15q-36 0 -47 32l-42 111h-331l-42 -111q-5 -14 -18.5 -23t-28.5 -9q-21 0 -36 15t-15 36q0 7 4 19l220 551
q9 24 31.5 40t49.5 16q28 0 50 -15.5t32 -40.5zM200 227h265l-133 353z" />
    <glyph glyph-name="Epsilontonos" unicode="&#x388;" horiz-adv-x="621" 
d="M9 461q-9 0 -16 8t-6 17l15 154q1 15 12 25t25 10q16 0 27.5 -11t11.5 -27q0 -4 -2 -12l-45 -148q-4 -16 -22 -16zM176 0q-54 0 -54 53v561q0 53 54 53h354q18 0 31.5 -13t13.5 -32q0 -18 -13.5 -30.5t-31.5 -12.5h-308v-195h301q18 0 31.5 -12.5t13.5 -30.5
q0 -19 -13.5 -32t-31.5 -13h-301v-208h308q18 0 31.5 -12.5t13.5 -30.5q0 -19 -13.5 -32t-31.5 -13h-354z" />
    <glyph glyph-name="Etatonos" unicode="&#x389;" horiz-adv-x="765" 
d="M9 461q-9 0 -16 8t-6 17l15 154q1 15 12 25t25 10q16 0 27.5 -11t11.5 -27q0 -4 -2 -12l-45 -148q-4 -16 -22 -16zM641 -5q-21 0 -35.5 15t-14.5 35v253h-369v-253q0 -20 -14.5 -35t-34.5 -15q-21 0 -36 15t-15 35v577q0 20 15 35t35 15q21 0 35.5 -15t14.5 -35v-235h369
v235q0 20 14.5 35t35.5 15t35.5 -15t14.5 -35v-577q0 -20 -14.5 -35t-35.5 -15z" />
    <glyph glyph-name="Iotatonos" unicode="&#x38a;" horiz-adv-x="296" 
d="M9 461q-9 0 -16 8t-6 17l15 154q1 15 12 25t25 10q16 0 27.5 -11t11.5 -27q0 -4 -2 -12l-45 -148q-4 -16 -22 -16zM173 -5q-21 0 -36 15t-15 35v577q0 20 15 35t36 15q20 0 34.5 -15t14.5 -35v-577q0 -20 -14.5 -35t-34.5 -15z" />
    <glyph glyph-name="Omicrontonos" unicode="&#x38c;" horiz-adv-x="783" 
d="M64 333q0 150 94 247.5t242 97.5t242 -97.5t94 -247.5t-94 -247.5t-242 -97.5t-242 97.5t-94 247.5zM11 461q-9 0 -16 8t-6 17l15 154q1 15 12 25t25 10q16 0 27.5 -11t11.5 -27q0 -4 -2 -12l-45 -148q-4 -16 -22 -16zM633 333q0 112 -64.5 184t-168.5 72
q-106 0 -169.5 -72t-63.5 -184t64 -184t169 -72q104 0 168.5 72.5t64.5 183.5z" />
    <glyph glyph-name="Upsilontonos" unicode="&#x38e;" horiz-adv-x="696" 
d="M41 675q16 0 27.5 -11t11.5 -27q0 -4 -2 -12l-45 -148q-4 -16 -22 -16q-9 0 -16 8t-6 17l15 154q1 15 12 25t25 10zM652 624q0 -15 -8 -26l-214 -319v-234q0 -20 -14.5 -35t-35.5 -15t-35.5 15t-14.5 35v234l-215 318q-8 11 -8 27q0 20 14 34t34 14q27 0 41 -22l184 -282
l183 282q15 22 41 22q20 0 34 -14t14 -34z" />
    <glyph glyph-name="Omegatonos" unicode="&#x38f;" horiz-adv-x="792" 
d="M221 88q-148 94 -148 265q0 143 94 234t242 91q149 0 242.5 -90.5t93.5 -234.5q0 -173 -147 -265h91q18 0 31 -12.5t13 -31.5q0 -18 -13 -31t-31 -13h-163q-22 0 -37 15t-15 36q0 34 31 48q60 25 98.5 87t38.5 148q0 107 -61.5 180.5t-171.5 73.5t-171.5 -73.5
t-61.5 -180.5q0 -86 39 -148t99 -87q31 -14 31 -48q0 -21 -15 -36t-37 -15h-163q-18 0 -31 13t-13 32q0 18 13 30.5t31 12.5h91zM11 461q-9 0 -16 8t-6 17l15 154q1 15 12 25t25 10q16 0 27.5 -11t11.5 -27q0 -4 -2 -12l-45 -148q-4 -16 -22 -16z" />
    <glyph glyph-name="iotadieresistonos" unicode="&#x390;" horiz-adv-x="247" 
d="M120 585q-10 0 -17 8t-6 18l15 153q1 16 12 25.5t25 9.5q16 0 27.5 -11t11.5 -27q0 -6 -2 -12l-44 -148q-4 -16 -22 -16zM-7 585q-22 0 -37.5 15.5t-15.5 37.5t15.5 37t37.5 15q21 0 36.5 -15t15.5 -37t-15.5 -37.5t-36.5 -15.5zM270 585q-22 0 -37 15.5t-15 37.5t15 37
t37 15t37.5 -15t15.5 -37t-15.5 -37.5t-37.5 -15.5zM187 -12q-115 0 -115 119v336q0 19 13 32t32 13q18 0 31.5 -13t13.5 -32v-321q0 -51 34 -54l7 -1q15 -2 23 -13.5t8 -25.5q0 -16 -11 -27.5t-26 -12.5h-10z" />
    <glyph glyph-name="Alpha" unicode="&#x391;" horiz-adv-x="666" 
d="M634 65q4 -10 4 -19q0 -21 -15 -36t-36 -15q-36 0 -47 32l-42 111h-331l-42 -111q-5 -14 -18.5 -23t-28.5 -9q-21 0 -36 15t-15 36q0 7 4 19l220 551q9 24 31.5 40t49.5 16q28 0 50 -15.5t32 -40.5zM200 227h265l-133 353z" />
    <glyph glyph-name="Beta" unicode="&#x392;" horiz-adv-x="638" 
d="M128 0q-54 0 -54 53v561q0 53 54 53h259q87 0 137.5 -47.5t50.5 -122.5q0 -60 -33.5 -101.5t-82.5 -51.5q54 -8 91.5 -56t37.5 -108q0 -81 -51.5 -130.5t-141.5 -49.5h-267zM174 384h194q49 0 76.5 27t27.5 70t-27.5 70.5t-76.5 27.5h-194v-195zM174 88h199q52 0 82 28
t30 77q0 44 -29.5 73.5t-82.5 29.5h-199v-208z" />
    <glyph glyph-name="Gamma" unicode="&#x393;" horiz-adv-x="548" 
d="M125 -5q-21 0 -36 15t-15 35v569q0 53 54 53h354q18 0 31.5 -13t13.5 -32q0 -18 -13.5 -30.5t-31.5 -12.5h-308v-534q0 -20 -14.5 -35t-34.5 -15z" />
    <glyph glyph-name="uni0394" unicode="&#x394;" horiz-adv-x="666" 
d="M71 0q-29 0 -40.5 17t-1.5 45l221 554q10 25 32.5 40.5t49.5 15.5q28 0 50.5 -15.5t32.5 -40.5l221 -554q10 -28 -1.5 -45t-40.5 -17h-523zM332 565l-185 -477h371z" />
    <glyph glyph-name="Epsilon" unicode="&#x395;" horiz-adv-x="573" 
d="M128 0q-54 0 -54 53v561q0 53 54 53h354q18 0 31.5 -13t13.5 -32q0 -18 -13.5 -30.5t-31.5 -12.5h-308v-195h301q18 0 31.5 -12.5t13.5 -30.5q0 -19 -13.5 -32t-31.5 -13h-301v-208h308q18 0 31.5 -12.5t13.5 -30.5q0 -19 -13.5 -32t-31.5 -13h-354z" />
    <glyph glyph-name="Zeta" unicode="&#x396;" horiz-adv-x="587" 
d="M98 0q-23 0 -40 16.5t-17 40.5q0 19 11 33l352 489h-319q-18 0 -31 12.5t-13 30.5q0 19 13 32t31 13h396q23 0 40 -16.5t17 -40.5q0 -19 -11 -33l-352 -489h326q18 0 31 -12.5t13 -30.5q0 -19 -13 -32t-31 -13h-403z" />
    <glyph glyph-name="Eta" unicode="&#x397;" horiz-adv-x="717" 
d="M593 -5q-21 0 -35.5 15t-14.5 35v253h-369v-253q0 -20 -14.5 -35t-34.5 -15q-21 0 -36 15t-15 35v577q0 20 15 35t35 15q21 0 35.5 -15t14.5 -35v-235h369v235q0 20 14.5 35t35.5 15t35.5 -15t14.5 -35v-577q0 -20 -14.5 -35t-35.5 -15z" />
    <glyph glyph-name="Theta" unicode="&#x398;" horiz-adv-x="765" 
d="M46 333q0 150 94 247.5t242 97.5t242 -97.5t94 -247.5t-94 -247.5t-242 -97.5t-242 97.5t-94 247.5zM615 333q0 112 -64.5 184t-168.5 72q-106 0 -169.5 -72t-63.5 -184t64 -184t169 -72q104 0 168.5 72.5t64.5 183.5zM245 296q-18 0 -31.5 13t-13.5 32q0 18 13.5 30.5
t31.5 12.5h275q18 0 31.5 -12.5t13.5 -30.5q0 -19 -13.5 -32t-31.5 -13h-275z" />
    <glyph glyph-name="Iota" unicode="&#x399;" horiz-adv-x="249" 
d="M125 -5q-21 0 -36 15t-15 35v577q0 20 15 35t36 15q20 0 34.5 -15t14.5 -35v-577q0 -20 -14.5 -35t-34.5 -15z" />
    <glyph glyph-name="Kappa" unicode="&#x39a;" horiz-adv-x="611" 
d="M560 75q13 -15 13 -32q0 -20 -13.5 -34t-32.5 -14q-22 0 -35 14l-254 279l-64 -68v-175q0 -20 -14.5 -35t-35.5 -15q-20 0 -35 15t-15 35v577q0 20 15 35t35 15q21 0 35.5 -15t14.5 -35v-288l294 323q14 15 35 15q19 0 33 -13.5t14 -32.5q0 -20 -13 -32l-232 -247z" />
    <glyph glyph-name="Lambda" unicode="&#x39b;" horiz-adv-x="666" 
d="M584 -5q-37 0 -49 34l-203 536l-202 -536q-14 -34 -50 -34q-22 0 -37.5 15.5t-15.5 37.5q0 9 5 19l219 549q9 24 31.5 40t49.5 16q28 0 50 -15.5t32 -40.5l219 -549q4 -8 4 -19q0 -22 -15.5 -37.5t-37.5 -15.5z" />
    <glyph glyph-name="Mu" unicode="&#x39c;" horiz-adv-x="822" 
d="M697 -5q-20 0 -34.5 15t-14.5 35v485l-210 -516q-8 -19 -27 -19q-21 0 -27 19l-210 516v-485q0 -20 -14.5 -35t-34.5 -15q-21 0 -36 15t-15 35v544q0 34 24.5 58.5t59.5 24.5q26 0 47.5 -14.5t30.5 -37.5l175 -433l175 433q9 23 30.5 37.5t47.5 14.5q35 0 59.5 -24.5
t24.5 -58.5v-544q0 -20 -15 -35t-36 -15z" />
    <glyph glyph-name="Nu" unicode="&#x39d;" horiz-adv-x="714" 
d="M578 -5q-33 0 -50 26l-354 491v-467q0 -20 -14.5 -35t-34.5 -15q-21 0 -36 15t-15 35v561q0 27 19 46.5t47 19.5q34 0 53 -27l347 -478v455q0 20 14.5 35t34.5 15q21 0 36 -15t15 -35v-565q0 -25 -18 -43.5t-44 -18.5z" />
    <glyph glyph-name="Xi" unicode="&#x39e;" horiz-adv-x="618" 
d="M91 579q-18 0 -31 12.5t-13 31.5q0 18 13 31t31 13h435q18 0 31 -13t13 -31q0 -19 -13 -31.5t-31 -12.5h-435zM98 296q-18 0 -31 13t-13 31q0 19 13 31.5t31 12.5h422q18 0 31 -12.5t13 -30.5q0 -19 -13 -32t-31 -13h-422zM91 0q-18 0 -31.5 13t-13.5 31t13.5 31t31.5 13
h435q18 0 31 -12.5t13 -31.5q0 -18 -13 -31t-31 -13h-435z" />
    <glyph glyph-name="Omicron" unicode="&#x39f;" horiz-adv-x="765" 
d="M46 333q0 150 94 247.5t242 97.5t242 -97.5t94 -247.5t-94 -247.5t-242 -97.5t-242 97.5t-94 247.5zM615 333q0 112 -64.5 184t-168.5 72q-106 0 -169.5 -72t-63.5 -184t64 -184t169 -72q104 0 168.5 72.5t64.5 183.5z" />
    <glyph glyph-name="Pi" unicode="&#x3a0;" horiz-adv-x="717" 
d="M593 -5q-21 0 -35.5 15t-14.5 35v534h-369v-534q0 -20 -14.5 -35t-34.5 -15q-21 0 -36 15t-15 35v569q0 53 54 53h462q53 0 53 -53v-569q0 -20 -14.5 -35t-35.5 -15z" />
    <glyph glyph-name="Rho" unicode="&#x3a1;" horiz-adv-x="597" 
d="M125 -5q-21 0 -36 15t-15 35v569q0 53 54 53h227q99 0 156 -59t57 -146t-57.5 -146t-155.5 -59h-181v-212q0 -20 -14.5 -35t-34.5 -15zM465 462q0 52 -34.5 84.5t-88.5 32.5h-168v-234h168q54 0 88.5 32.5t34.5 84.5z" />
    <glyph glyph-name="Sigma" unicode="&#x3a3;" horiz-adv-x="578" 
d="M172 88h315q18 0 31.5 -12.5t13.5 -30.5q0 -19 -13.5 -32t-31.5 -13h-380q-25 0 -43 17.5t-18 42.5q0 22 16 40l213 242l-211 225q-17 17 -17 41t17.5 41.5t42.5 17.5h380q18 0 31.5 -13t13.5 -32q0 -18 -13.5 -30.5t-31.5 -12.5h-311l186 -200q34 -37 1 -74z" />
    <glyph glyph-name="Tau" unicode="&#x3a4;" horiz-adv-x="573" 
d="M287 -5q-21 0 -35.5 15t-14.5 35v534h-168q-18 0 -31 12.5t-13 30.5q0 19 13 32t31 13h435q18 0 31.5 -13t13.5 -32q0 -18 -13.5 -30.5t-31.5 -12.5h-167v-534q0 -20 -15 -35t-35 -15z" />
    <glyph glyph-name="Upsilon" unicode="&#x3a5;" horiz-adv-x="631" 
d="M588 624q0 -15 -8 -26l-214 -319v-234q0 -20 -14.5 -35t-35.5 -15t-35.5 15t-14.5 35v234l-215 318q-8 11 -8 27q0 20 14 34t34 14q27 0 41 -22l184 -282l183 282q15 22 41 22q20 0 34 -14t14 -34z" />
    <glyph glyph-name="Phi" unicode="&#x3a6;" horiz-adv-x="820" 
d="M773 333q0 -114 -83.5 -185.5t-229.5 -81.5v-21q0 -20 -15 -35t-35 -15q-21 0 -35.5 15t-14.5 35v21q-146 10 -230 82t-84 185t84 185t230 82v22q0 20 14.5 35t35.5 15q20 0 35 -15t15 -35v-22q146 -10 229.5 -82t83.5 -185zM149 333q0 -74 55 -121t156 -57v356
q-101 -10 -156 -57t-55 -121zM460 156q100 10 155 57t55 120t-55 120t-155 57v-354z" />
    <glyph glyph-name="Chi" unicode="&#x3a7;" horiz-adv-x="656" 
d="M618 75q12 -15 12 -31q0 -20 -13.5 -34.5t-34.5 -14.5q-24 0 -38 15l-216 259l-215 -259q-15 -15 -38 -15q-21 0 -34.5 14.5t-13.5 34.5q0 16 12 31l228 267l-214 250q-11 15 -11 30q0 20 13.5 35t33.5 15q25 0 38 -17l201 -240l201 240q14 17 38 17q20 0 34 -15t14 -35
q0 -14 -12 -30l-214 -249z" />
    <glyph glyph-name="Psi" unicode="&#x3a8;" horiz-adv-x="816" 
d="M640 621q0 20 15 35.5t35 15.5q22 0 37 -15t15 -36v-223q0 -117 -72.5 -189t-211.5 -83v-81q0 -20 -14.5 -35t-35.5 -15q-20 0 -35 15t-15 35v81q-139 11 -211.5 82.5t-72.5 188.5v225q0 20 15 35t36 15t35.5 -15t14.5 -35v-222q0 -79 47 -126.5t136 -57.5v406
q0 20 15 35t36 15q20 0 34.5 -15t14.5 -35v-406q89 10 135.5 58t46.5 126v221z" />
    <glyph glyph-name="uni03A9" unicode="&#x3a9;" horiz-adv-x="765" 
d="M194 88q-148 94 -148 265q0 143 94 234t242 91q149 0 242.5 -90.5t93.5 -234.5q0 -173 -147 -265h91q18 0 31 -12.5t13 -31.5q0 -18 -13 -31t-31 -13h-163q-22 0 -37 15t-15 36q0 34 31 48q60 25 98.5 87t38.5 148q0 107 -61.5 180.5t-171.5 73.5t-171.5 -73.5
t-61.5 -180.5q0 -86 39 -148t99 -87q31 -14 31 -48q0 -21 -15 -36t-37 -15h-163q-18 0 -31 13t-13 32q0 18 13 30.5t31 12.5h91z" />
    <glyph glyph-name="Iotadieresis" unicode="&#x3aa;" horiz-adv-x="249" 
d="M21 732q-22 0 -37.5 15.5t-15.5 37.5t15.5 37t37.5 15t37 -15t15 -37t-15 -37.5t-37 -15.5zM229 732q-22 0 -37.5 15.5t-15.5 37.5t15.5 37t37.5 15q21 0 37 -15.5t16 -36.5q0 -22 -16 -37.5t-37 -15.5zM125 -5q-21 0 -36 15t-15 35v577q0 20 15 35t36 15q20 0 34.5 -15
t14.5 -35v-577q0 -20 -14.5 -35t-34.5 -15z" />
    <glyph glyph-name="Upsilondieresis" unicode="&#x3ab;" horiz-adv-x="631" 
d="M212 732q-22 0 -37.5 15.5t-15.5 37.5t15.5 37t37.5 15t37 -15t15 -37t-15 -37.5t-37 -15.5zM420 732q-22 0 -37.5 15.5t-15.5 37.5t15.5 37t37.5 15q21 0 37 -15.5t16 -36.5q0 -22 -16 -37.5t-37 -15.5zM588 624q0 -15 -8 -26l-214 -319v-234q0 -20 -14.5 -35t-35.5 -15
t-35.5 15t-14.5 35v234l-215 318q-8 11 -8 27q0 20 14 34t34 14q27 0 41 -22l184 -282l183 282q15 22 41 22q20 0 34 -14t14 -34z" />
    <glyph glyph-name="alphatonos" unicode="&#x3ac;" horiz-adv-x="592" 
d="M293 585q-9 0 -16 8t-6 17l15 154q1 15 12 25t25 10q16 0 27.5 -11t11.5 -27q0 -4 -2 -12l-45 -148q-4 -16 -22 -16zM547 67q15 -2 23.5 -13.5t8.5 -25.5q0 -16 -11 -27.5t-27 -12.5h-9q-95 0 -111 89q-25 -40 -68.5 -64.5t-94.5 -24.5q-96 0 -156 68t-60 185
q0 115 60 184.5t156 69.5q98 0 158 -83v31q0 19 13 32t32 13t32 -13t13 -32v-321q0 -51 35 -54zM416 138v205q-19 30 -56.5 50.5t-77.5 20.5q-67 0 -106.5 -48t-39.5 -125q0 -76 39.5 -124.5t106.5 -48.5q40 0 77.5 20t56.5 50z" />
    <glyph glyph-name="epsilontonos" unicode="&#x3ad;" horiz-adv-x="485" 
d="M261 585q-9 0 -16 8t-6 17l15 154q1 15 12 25t25 10q16 0 27.5 -11t11.5 -27q0 -4 -2 -12l-45 -148q-4 -16 -22 -16zM253 -12q-99 0 -155 39.5t-56 102.5q0 53 41.5 83t89.5 34q-47 7 -84 38t-37 79q0 61 56.5 96t152.5 34q97 0 167 -57q13 -10 13 -29q0 -14 -10.5 -25
t-25.5 -11q-11 0 -21 7q-52 42 -127 42q-49 0 -80.5 -19t-31.5 -49q0 -35 31 -53.5t85 -18.5h48q17 0 29 -10.5t12 -26.5q0 -17 -11.5 -26.5t-28.5 -9.5h-49q-125 0 -125 -71q0 -34 31 -55t86 -21q71 0 132 47q10 7 23 7q17 0 28.5 -12t11.5 -29q0 -20 -17 -32
q-73 -54 -178 -54z" />
    <glyph glyph-name="etatonos" unicode="&#x3ae;" 
d="M282 585q-9 0 -16 8t-6 17l15 154q1 15 12 25t25 10q16 0 27.5 -11t11.5 -27q0 -4 -2 -12l-45 -148q-4 -16 -22 -16zM333 495q155 0 155 -156v-483q0 -19 -13.5 -32t-31.5 -13q-19 0 -32 13t-13 32v453q0 106 -103 106q-40 0 -76 -20.5t-57 -49.5v-305q0 -19 -13.5 -32
t-31.5 -13q-19 0 -32 13t-13 32v403q0 19 13 32t31 13q19 0 32.5 -13t13.5 -32v-27q28 32 74 55.5t97 23.5z" />
    <glyph glyph-name="iotatonos" unicode="&#x3af;" horiz-adv-x="247" 
d="M118 585q-9 0 -16 8t-6 17l15 154q1 15 12 25t25 10q16 0 27.5 -11t11.5 -27q0 -4 -2 -12l-45 -148q-4 -16 -22 -16zM187 -12q-115 0 -115 119v336q0 19 13 32t32 13q18 0 31.5 -13t13.5 -32v-321q0 -51 34 -54l7 -1q15 -2 23 -13.5t8 -25.5q0 -16 -11 -27.5t-26 -12.5
h-10z" />
    <glyph glyph-name="upsilondieresistonos" unicode="&#x3b0;" horiz-adv-x="566" 
d="M283 585q-10 0 -17 8t-6 18l15 153q1 16 12 25.5t25 9.5q16 0 27.5 -11t11.5 -27q0 -6 -2 -12l-44 -148q-4 -16 -22 -16zM156 585q-22 0 -37.5 15.5t-15.5 37.5t15.5 37t37.5 15q21 0 36.5 -15t15.5 -37t-15.5 -37.5t-36.5 -15.5zM433 585q-22 0 -37 15.5t-15 37.5t15 37
t37 15t37.5 -15t15.5 -37t-15.5 -37.5t-37.5 -15.5zM279 -12q-101 0 -154 60.5t-53 164.5v230q0 19 13 32t32 13q18 0 31.5 -13t13.5 -32v-228q0 -68 30.5 -107.5t86.5 -39.5q70 0 110.5 52.5t40.5 131.5q0 96 -45 171q-6 10 -6 22q0 18 13 31t32 13q26 0 38 -22
q61 -94 61 -215q0 -115 -66 -189.5t-178 -74.5z" />
    <glyph glyph-name="alpha" unicode="&#x3b1;" horiz-adv-x="592" 
d="M547 67q15 -2 23.5 -13.5t8.5 -25.5q0 -16 -11 -27.5t-27 -12.5h-9q-95 0 -111 89q-25 -40 -68.5 -64.5t-94.5 -24.5q-96 0 -156 68t-60 185q0 115 60 184.5t156 69.5q98 0 158 -83v31q0 19 13 32t32 13t32 -13t13 -32v-321q0 -51 35 -54zM416 138v205q-19 30 -56.5 50.5
t-77.5 20.5q-67 0 -106.5 -48t-39.5 -125q0 -76 39.5 -124.5t106.5 -48.5q40 0 77.5 20t56.5 50z" />
    <glyph glyph-name="beta" unicode="&#x3b2;" horiz-adv-x="578" 
d="M162 -144q0 -19 -13.5 -32t-31.5 -13q-19 0 -32 13t-13 32v597q0 110 69 167t164 57q97 0 156 -48t59 -131q0 -64 -41.5 -104t-97.5 -50q56 -5 105 -49.5t49 -122.5q0 -80 -59 -132t-146 -52q-107 0 -168 81v-213zM162 138q20 -31 58 -50.5t82 -19.5q67 0 103.5 32
t36.5 87q0 56 -40.5 85t-104.5 28q-17 1 -29 13.5t-12 29.5q1 15 12 25.5t27 12.5q58 -1 94.5 27t36.5 80q0 50 -34.5 79t-86.5 29q-62 0 -102.5 -37.5t-40.5 -105.5v-315z" />
    <glyph glyph-name="gamma" unicode="&#x3b3;" horiz-adv-x="497" 
d="M248 -189q-18 0 -31.5 13t-13.5 32v87q0 129 -44 255.5t-116 225.5q-8 11 -8 24q0 17 12 28.5t29 11.5q19 0 31 -15q58 -70 102.5 -173.5t54.5 -190.5q45 64 77 155.5t39 182.5q1 17 14 29t30 12q20 0 33 -14.5t12 -34.5q-9 -111 -56.5 -226.5t-119.5 -207.5v-149
q0 -19 -13 -32t-32 -13z" />
    <glyph glyph-name="delta" unicode="&#x3b4;" horiz-adv-x="572" 
d="M295 469q41 -12 64.5 -20.5t60.5 -28.5t57.5 -43.5t36.5 -64t16 -90.5q0 -95 -65.5 -164.5t-173.5 -69.5q-112 0 -180.5 70t-68.5 167q0 71 36.5 124t97.5 80q-75 36 -75 107q0 61 49.5 102t135.5 41q91 0 159 -50q16 -12 16 -30q0 -15 -10.5 -26t-25.5 -11q-12 0 -21 7
q-50 37 -118 37q-45 0 -71.5 -18.5t-26.5 -48.5q0 -17 16 -31t34.5 -21t56.5 -18zM288 68q70 0 112 47.5t42 106.5q0 40 -13.5 69.5t-41.5 49t-52.5 30.5t-64.5 24q-65 -21 -99.5 -66t-34.5 -104q0 -61 41.5 -109t110.5 -48z" />
    <glyph glyph-name="epsilon" unicode="&#x3b5;" horiz-adv-x="485" 
d="M253 -12q-99 0 -155 39.5t-56 102.5q0 53 41.5 83t89.5 34q-47 7 -84 38t-37 79q0 61 56.5 96t152.5 34q97 0 167 -57q13 -10 13 -29q0 -14 -10.5 -25t-25.5 -11q-11 0 -21 7q-52 42 -127 42q-49 0 -80.5 -19t-31.5 -49q0 -35 31 -53.5t85 -18.5h48q17 0 29 -10.5
t12 -26.5q0 -17 -11.5 -26.5t-28.5 -9.5h-49q-125 0 -125 -71q0 -34 31 -55t86 -21q71 0 132 47q10 7 23 7q17 0 28.5 -12t11.5 -29q0 -20 -17 -32q-73 -54 -178 -54z" />
    <glyph glyph-name="zeta" unicode="&#x3b6;" horiz-adv-x="488" 
d="M308 0q-122 0 -194 55t-72 156q0 112 75.5 208t210.5 169h-235q-17 0 -28.5 12t-11.5 28t12 27.5t28 11.5h315q17 0 30 -12.5t13 -30.5q0 -23 -21 -36q-294 -169 -294 -370q0 -138 183 -138q133 0 133 -105q0 -40 -34 -113q-12 -24 -39 -24q-17 0 -29.5 12.5t-12.5 29.5
q0 10 4 18q17 36 17 58q0 19 -12.5 31.5t-37.5 12.5z" />
    <glyph glyph-name="eta" unicode="&#x3b7;" 
d="M333 495q155 0 155 -156v-483q0 -19 -13.5 -32t-31.5 -13q-19 0 -32 13t-13 32v453q0 106 -103 106q-40 0 -76 -20.5t-57 -49.5v-305q0 -19 -13.5 -32t-31.5 -13q-19 0 -32 13t-13 32v403q0 19 13 32t31 13q19 0 32.5 -13t13.5 -32v-27q28 32 74 55.5t97 23.5z" />
    <glyph glyph-name="theta" unicode="&#x3b8;" horiz-adv-x="572" 
d="M286 679q117 0 180.5 -97.5t63.5 -247.5t-63.5 -248t-180.5 -98t-180.5 98t-63.5 248t63.5 247.5t180.5 97.5zM286 599q-71 0 -107 -60t-42 -164h298q-12 224 -149 224zM286 68q139 0 149 228h-298q12 -228 149 -228z" />
    <glyph glyph-name="iota" unicode="&#x3b9;" horiz-adv-x="247" 
d="M187 -12q-115 0 -115 119v336q0 19 13 32t32 13q18 0 31.5 -13t13.5 -32v-321q0 -51 34 -54l7 -1q15 -2 23 -13.5t8 -25.5q0 -16 -11 -27.5t-26 -12.5h-10z" />
    <glyph glyph-name="kappa" unicode="&#x3ba;" horiz-adv-x="520" 
d="M472 70q11 -13 11 -30q0 -19 -12.5 -32t-31.5 -13q-23 0 -35 15l-167 197l-75 -70v-97q0 -19 -13.5 -32t-32.5 -13q-18 0 -31 13t-13 32v403q0 19 13 32t32 13q18 0 31.5 -13t13.5 -32v-205l243 239q11 11 29 11q17 0 29 -12.5t12 -29.5q0 -16 -13 -29l-159 -155z" />
    <glyph glyph-name="lambda" unicode="&#x3bb;" horiz-adv-x="497" 
d="M431 -5q-31 0 -42 28l-141 356l-141 -356q-11 -28 -42 -28q-19 0 -31.5 13t-12.5 32q0 11 2 16l177 432l-28 64q-20 47 -70 47q-7 0 -11 -1q-17 0 -29.5 11.5t-12.5 28.5q0 16 11 27t25 12q6 2 19 2q113 -3 154 -104l214 -518q4 -10 4 -17q0 -19 -13 -32t-32 -13z" />
    <glyph glyph-name="uni03BC" unicode="&#x3bc;" horiz-adv-x="573" 
d="M529 67q15 -2 23 -13.5t8 -25.5q0 -16 -11 -27.5t-26 -12.5h-10q-93 0 -112 86q-26 -38 -65 -62t-83 -24q-66 0 -91 42v-174q0 -19 -13.5 -32t-32.5 -13q-18 0 -31 13t-13 32v587q0 19 13 32t32 13q18 0 31.5 -13t13.5 -32v-271q0 -105 103 -105q39 0 75 20t58 49v307
q0 19 13 32t31 13q19 0 32.5 -13t13.5 -32v-321q0 -51 34 -54z" />
    <glyph glyph-name="nu" unicode="&#x3bd;" horiz-adv-x="497" 
d="M252 -5q-49 0 -70 46l-158 386q-3 7 -3 16q0 19 12.5 32t31.5 13q30 0 41 -28l146 -370q54 76 88 170t40 187q1 17 14 29t30 12q20 0 33.5 -14.5t11.5 -34.5q-9 -103 -50.5 -211.5t-105.5 -200.5q-22 -32 -61 -32z" />
    <glyph glyph-name="xi" unicode="&#x3be;" horiz-adv-x="488" 
d="M42 171q0 67 40.5 106.5t92.5 50.5q-47 8 -84.5 40t-37.5 86q0 43 30 80.5t75 53.5h-62q-16 0 -28 12t-12 28t12 27.5t28 11.5h308q16 0 27.5 -12t11.5 -28t-11.5 -27.5t-27.5 -11.5h-154q-44 -10 -73.5 -41.5t-29.5 -68.5q0 -47 40 -72.5t102 -25.5h110q16 0 27.5 -11.5
t11.5 -27.5t-11.5 -27.5t-27.5 -11.5h-110q-70 0 -111.5 -27.5t-41.5 -85.5q0 -109 183 -109q133 0 133 -105q0 -39 -34 -112q-12 -25 -39 -25q-18 0 -31 13t-13 30q0 7 4 17q19 45 19 68q0 34 -50 34q-130 0 -198 43.5t-68 127.5z" />
    <glyph glyph-name="omicron" unicode="&#x3bf;" horiz-adv-x="572" 
d="M286 -12q-110 0 -177 73t-67 181q0 107 67 180t177 73t177 -73t67 -180q0 -108 -67 -181t-177 -73zM286 68q70 0 110 50.5t40 123.5q0 72 -40 122.5t-110 50.5q-69 0 -109.5 -50.5t-40.5 -122.5q0 -73 40.5 -123.5t109.5 -50.5z" />
    <glyph glyph-name="pi" unicode="&#x3c0;" horiz-adv-x="596" 
d="M552 483q16 0 28 -11.5t12 -27.5t-12 -28t-28 -12h-46v-364q0 -19 -13 -32t-32 -13q-18 0 -31.5 13t-13.5 32v364h-236v-364q0 -19 -13.5 -32t-31.5 -13q-19 0 -32 13t-13 32v364h-46q-16 0 -28 12t-12 28t12 27.5t28 11.5h508z" />
    <glyph glyph-name="rho" unicode="&#x3c1;" horiz-adv-x="575" 
d="M162 70v-214q0 -19 -13.5 -32t-31.5 -13q-19 0 -32 13t-13 32v386q0 108 63 180.5t167 72.5q105 0 169 -73t64 -180q0 -117 -59.5 -185.5t-155.5 -68.5q-98 0 -158 82zM441 242q0 72 -37.5 122.5t-102.5 50.5t-102 -50.5t-37 -122.5v-103q19 -30 56.5 -50.5t77.5 -20.5
q66 0 105.5 48.5t39.5 125.5z" />
    <glyph glyph-name="uni03C2" unicode="&#x3c2;" horiz-adv-x="485" 
d="M42 242q0 110 68.5 181.5t177.5 71.5q93 0 154 -56q14 -12 14 -30q0 -17 -11.5 -29t-28.5 -12q-15 0 -27 10q-40 37 -97 37q-70 0 -113 -48.5t-43 -124.5q0 -83 48.5 -122.5t131.5 -39.5q71 0 104.5 -22.5t33.5 -70.5q0 -47 -34 -125q-12 -24 -38 -24q-18 0 -30 12.5
t-12 29.5q0 8 3 17q21 47 21 71q0 32 -52 32q-124 0 -197 63t-73 179z" />
    <glyph glyph-name="sigma" unicode="&#x3c3;" horiz-adv-x="572" 
d="M554 443q0 -16 -12 -28t-28 -12h-73q83 -67 83 -181q0 -99 -64 -166.5t-174 -67.5t-177 73t-67 181q0 103 69 172t187 69h216q16 0 28 -12t12 -28zM286 68q69 0 109.5 50t40.5 119q0 57 -25 100t-66 66h-47q-77 0 -119.5 -47.5t-42.5 -113.5q0 -73 40.5 -123.5
t109.5 -50.5z" />
    <glyph glyph-name="tau" unicode="&#x3c4;" horiz-adv-x="462" 
d="M403 483q17 0 28.5 -11.5t11.5 -28.5q0 -16 -12 -27.5t-28 -11.5h-132v-277q0 -26 12 -42.5t35 -16.5q11 0 23 5q8 2 11 2q15 0 25.5 -11.5t10.5 -27.5q0 -24 -23 -34q-32 -14 -69 -14q-57 0 -86 31t-29 88v297h-122q-16 0 -28 11.5t-12 27.5t12 28t28 12h344z" />
    <glyph glyph-name="upsilon" unicode="&#x3c5;" horiz-adv-x="566" 
d="M279 -12q-101 0 -154 60.5t-53 164.5v230q0 19 13 32t32 13q18 0 31.5 -13t13.5 -32v-228q0 -68 30.5 -107.5t86.5 -39.5q70 0 110.5 52.5t40.5 131.5q0 96 -45 171q-6 10 -6 22q0 18 13 31t32 13q26 0 38 -22q61 -94 61 -215q0 -115 -66 -189.5t-178 -74.5z" />
    <glyph glyph-name="phi" unicode="&#x3c6;" horiz-adv-x="688" 
d="M646 236q0 -112 -67.5 -176.5t-189.5 -69.5v-134q0 -19 -13.5 -32t-31.5 -13t-31.5 13t-13.5 32v134q-121 5 -189 74t-68 187q0 73 37 130.5t100 94.5q11 6 20 6q17 0 29.5 -12t12.5 -29q0 -22 -18 -33q-87 -59 -87 -157q0 -87 44 -134.5t119 -48.5v360q0 25 18.5 43
t43.5 17q139 -4 212 -70.5t73 -181.5zM389 68q76 1 119.5 44.5t43.5 123.5q0 79 -44 122.5t-119 44.5v-335z" />
    <glyph glyph-name="chi" unicode="&#x3c7;" horiz-adv-x="491" 
d="M467 -122q7 -12 7 -23q0 -17 -13.5 -30.5t-29.5 -13.5q-26 0 -39 21l-146 241l-147 -241q-13 -21 -38 -21q-17 0 -30 13.5t-13 30.5q0 13 6 23l169 280l-158 264q-7 10 -7 22q0 17 12.5 30.5t31.5 13.5q25 0 37 -21l137 -225l136 225q12 21 38 21q18 0 30.5 -13.5
t12.5 -30.5q0 -12 -6 -22l-159 -265z" />
    <glyph glyph-name="psi" unicode="&#x3c8;" horiz-adv-x="710" 
d="M549 443q0 19 13 32t32 13q18 0 31.5 -13t13.5 -32v-216q0 -107 -56.5 -167.5t-182.5 -69.5v-134q0 -19 -13 -32t-31 -13q-19 0 -32.5 13t-13.5 32v134q-127 9 -182.5 69.5t-55.5 167.5v216q0 19 13 32t32 13q18 0 31.5 -13t13.5 -32v-216q0 -70 34.5 -109t113.5 -48v557
q0 19 13.5 32t32.5 13q18 0 31 -13t13 -32v-557q79 9 114 48t35 109v216z" />
    <glyph glyph-name="omega" unicode="&#x3c9;" horiz-adv-x="772" 
d="M545 -12q-114 0 -159 144q-22 -66 -58 -105t-101 -39q-85 0 -135 71t-50 173q0 156 79 244q13 15 33 15q18 0 30.5 -13t12.5 -30q0 -14 -7 -24q-54 -73 -54 -192q0 -67 26.5 -115.5t75.5 -48.5q53 0 78 49t25 125v82q0 19 13.5 32.5t31.5 13.5q19 0 32 -13.5t13 -32.5
v-82q0 -76 25 -125t77 -49q49 0 75.5 48.5t26.5 115.5q0 120 -52 191q-8 11 -8 24q0 18 12.5 31t31.5 13t32 -15q78 -89 78 -244q0 -102 -49.5 -173t-134.5 -71z" />
    <glyph glyph-name="iotadieresis" unicode="&#x3ca;" horiz-adv-x="247" 
d="M12 585q-22 0 -37.5 15.5t-15.5 37.5t15.5 37t37.5 15t37 -15t15 -37t-15 -37.5t-37 -15.5zM220 585q-22 0 -37.5 15.5t-15.5 37.5t15.5 37t37.5 15q21 0 37 -15.5t16 -36.5q0 -22 -16 -37.5t-37 -15.5zM187 -12q-115 0 -115 119v336q0 19 13 32t32 13q18 0 31.5 -13
t13.5 -32v-321q0 -51 34 -54l7 -1q15 -2 23 -13.5t8 -25.5q0 -16 -11 -27.5t-26 -12.5h-10z" />
    <glyph glyph-name="upsilondieresis" unicode="&#x3cb;" horiz-adv-x="566" 
d="M175 585q-22 0 -37.5 15.5t-15.5 37.5t15.5 37t37.5 15t37 -15t15 -37t-15 -37.5t-37 -15.5zM383 585q-22 0 -37.5 15.5t-15.5 37.5t15.5 37t37.5 15q21 0 37 -15.5t16 -36.5q0 -22 -16 -37.5t-37 -15.5zM279 -12q-101 0 -154 60.5t-53 164.5v230q0 19 13 32t32 13
q18 0 31.5 -13t13.5 -32v-228q0 -68 30.5 -107.5t86.5 -39.5q70 0 110.5 52.5t40.5 131.5q0 96 -45 171q-6 10 -6 22q0 18 13 31t32 13q26 0 38 -22q61 -94 61 -215q0 -115 -66 -189.5t-178 -74.5z" />
    <glyph glyph-name="omicrontonos" unicode="&#x3cc;" horiz-adv-x="572" 
d="M288 585q-9 0 -16 8t-6 17l15 154q1 15 12 25t25 10q16 0 27.5 -11t11.5 -27q0 -4 -2 -12l-45 -148q-4 -16 -22 -16zM286 -12q-110 0 -177 73t-67 181q0 107 67 180t177 73t177 -73t67 -180q0 -108 -67 -181t-177 -73zM286 68q70 0 110 50.5t40 123.5q0 72 -40 122.5
t-110 50.5q-69 0 -109.5 -50.5t-40.5 -122.5q0 -73 40.5 -123.5t109.5 -50.5z" />
    <glyph glyph-name="upsilontonos" unicode="&#x3cd;" horiz-adv-x="566" 
d="M281 585q-9 0 -16 8t-6 17l15 154q1 15 12 25t25 10q16 0 27.5 -11t11.5 -27q0 -4 -2 -12l-45 -148q-4 -16 -22 -16zM279 -12q-101 0 -154 60.5t-53 164.5v230q0 19 13 32t32 13q18 0 31.5 -13t13.5 -32v-228q0 -68 30.5 -107.5t86.5 -39.5q70 0 110.5 52.5t40.5 131.5
q0 96 -45 171q-6 10 -6 22q0 18 13 31t32 13q26 0 38 -22q61 -94 61 -215q0 -115 -66 -189.5t-178 -74.5z" />
    <glyph glyph-name="omegatonos" unicode="&#x3ce;" horiz-adv-x="772" 
d="M388 585q-9 0 -16 8t-6 17l15 154q1 15 12 25t25 10q16 0 27.5 -11t11.5 -27q0 -4 -2 -12l-45 -148q-4 -16 -22 -16zM545 -12q-114 0 -159 144q-22 -66 -58 -105t-101 -39q-85 0 -135 71t-50 173q0 156 79 244q13 15 33 15q18 0 30.5 -13t12.5 -30q0 -14 -7 -24
q-54 -73 -54 -192q0 -67 26.5 -115.5t75.5 -48.5q53 0 78 49t25 125v82q0 19 13.5 32.5t31.5 13.5q19 0 32 -13.5t13 -32.5v-82q0 -76 25 -125t77 -49q49 0 75.5 48.5t26.5 115.5q0 120 -52 191q-8 11 -8 24q0 18 12.5 31t31.5 13t32 -15q78 -89 78 -244q0 -102 -49.5 -173
t-134.5 -71z" />
    <glyph glyph-name="uni0401" unicode="&#x401;" horiz-adv-x="573" 
d="M200 732q-22 0 -37.5 15.5t-15.5 37.5t15.5 37t37.5 15t37 -15t15 -37t-15 -37.5t-37 -15.5zM408 732q-22 0 -37.5 15.5t-15.5 37.5t15.5 37t37.5 15q21 0 37 -15.5t16 -36.5q0 -22 -16 -37.5t-37 -15.5zM128 0q-54 0 -54 53v561q0 53 54 53h354q18 0 31.5 -13t13.5 -32
q0 -18 -13.5 -30.5t-31.5 -12.5h-308v-195h301q18 0 31.5 -12.5t13.5 -30.5q0 -19 -13.5 -32t-31.5 -13h-301v-208h308q18 0 31.5 -12.5t13.5 -30.5q0 -19 -13.5 -32t-31.5 -13h-354z" />
    <glyph glyph-name="uni0402" unicode="&#x402;" horiz-adv-x="767" 
d="M497 36q0 16 11 28.5t27 15.5q93 13 93 112v26q0 116 -140 116q-85 0 -151 -28v-261q0 -20 -15 -35t-36 -15q-20 0 -34.5 15t-14.5 35v534h-168q-18 0 -31 12.5t-13 30.5q0 19 13 32t31 13h435q18 0 31.5 -13t13.5 -32q0 -18 -13.5 -30.5t-31.5 -12.5h-167v-193
q92 36 181 36q210 0 210 -204v-26q0 -180 -179 -201q-20 -2 -36 11.5t-16 33.5z" />
    <glyph glyph-name="uni0403" unicode="&#x403;" horiz-adv-x="548" 
d="M344 726q-8 -8 -20 -8t-20.5 8.5t-8.5 20.5q0 13 8 21l95 94q9 10 24 10q14 0 24 -10t10 -24q0 -17 -11 -26zM125 -5q-21 0 -36 15t-15 35v569q0 53 54 53h354q18 0 31.5 -13t13.5 -32q0 -18 -13.5 -30.5t-31.5 -12.5h-308v-534q0 -20 -14.5 -35t-34.5 -15z" />
    <glyph glyph-name="uni0404" unicode="&#x404;" horiz-adv-x="679" 
d="M392 77q93 0 158 72q13 16 35 16q19 0 33 -13.5t14 -33.5t-12 -32q-91 -98 -228 -98q-148 0 -247 96.5t-99 248.5t99 248.5t247 96.5q140 0 228 -98q12 -12 12 -32t-14 -33.5t-33 -13.5q-22 0 -36 16q-64 72 -157 72q-91 0 -157 -56.5t-81 -148.5h328q18 0 31 -12.5
t13 -30.5q0 -19 -13 -32t-31 -13h-330q11 -97 78 -158t162 -61z" />
    <glyph glyph-name="uni0405" unicode="&#x405;" horiz-adv-x="590" 
d="M64 65q-19 16 -19 38q0 19 14.5 33.5t33.5 14.5q17 0 30 -10q80 -64 177 -64q74 0 110 30.5t36 72.5q0 20 -9.5 36.5t-21.5 26.5t-37.5 20t-42.5 15t-50 14q-32 8 -47 12.5t-44.5 14.5t-45 19t-36.5 24t-31.5 32t-18.5 41t-8 52q0 83 67.5 136.5t176.5 53.5
q114 0 206 -65q21 -13 21 -38q0 -20 -14 -34t-33 -14q-15 0 -28 9q-67 53 -160 53q-61 0 -97 -26t-36 -68q0 -17 9 -31.5t21 -23.5t35.5 -18t40.5 -14t49 -13q44 -12 67.5 -19t61 -24.5t57 -36.5t35 -51.5t15.5 -73.5q0 -86 -62.5 -143.5t-189.5 -57.5q-139 0 -232 77z" />
    <glyph glyph-name="uni0406" unicode="&#x406;" horiz-adv-x="249" 
d="M125 -5q-21 0 -36 15t-15 35v577q0 20 15 35t36 15q20 0 34.5 -15t14.5 -35v-577q0 -20 -14.5 -35t-34.5 -15z" />
    <glyph glyph-name="uni0407" unicode="&#x407;" horiz-adv-x="249" 
d="M21 732q-22 0 -37.5 15.5t-15.5 37.5t15.5 37t37.5 15t37 -15t15 -37t-15 -37.5t-37 -15.5zM229 732q-22 0 -37.5 15.5t-15.5 37.5t15.5 37t37.5 15q21 0 37 -15.5t16 -36.5q0 -22 -16 -37.5t-37 -15.5zM125 -5q-21 0 -36 15t-15 35v577q0 20 15 35t36 15q20 0 34.5 -15
t14.5 -35v-577q0 -20 -14.5 -35t-34.5 -15z" />
    <glyph glyph-name="uni0408" unicode="&#x408;" horiz-adv-x="478" 
d="M38 36q-19 13 -19 36q0 19 13 32.5t32 13.5q14 0 25 -8q40 -33 89 -33q57 0 91 35.5t34 94.5v415q0 20 15 35t35 15q21 0 35.5 -15t14.5 -35v-416q0 -107 -60 -162.5t-158 -55.5q-86 0 -147 48z" />
    <glyph glyph-name="uni0409" unicode="&#x409;" horiz-adv-x="1066" 
d="M824 0h-228q-53 0 -53 53v526h-245l-10 -116q-11 -127 -29.5 -216t-44 -140.5t-54 -77t-66.5 -34.5q-10 -3 -21 -3q-20 0 -34.5 14.5t-14.5 35.5q0 36 36 49q52 13 85 95t50 279l13 151q4 51 56 51h326q53 0 53 -53v-204h181q98 0 155.5 -59t57.5 -146t-57.5 -146
t-155.5 -59zM643 322v-234h168q54 0 88.5 32.5t34.5 84.5t-34.5 84.5t-88.5 32.5h-168z" />
    <glyph glyph-name="uni040A" unicode="&#x40a;" horiz-adv-x="1066" 
d="M74 622q0 20 15 35t36 15q20 0 34.5 -15t14.5 -35v-235h369v235q0 20 14.5 35t35.5 15t35.5 -15t14.5 -35v-235h193q93 0 147 -56t54 -138t-54 -137.5t-147 -55.5h-240q-53 0 -53 53v245h-369v-253q0 -20 -14.5 -35t-35.5 -15q-20 0 -35 15t-15 35v577zM823 88
q49 0 80 29t31 76t-30.5 76t-80.5 29h-180v-210h180z" />
    <glyph glyph-name="uni040B" unicode="&#x40b;" horiz-adv-x="787" 
d="M628 187q0 81 -31.5 114t-108.5 33q-85 0 -151 -28v-261q0 -20 -15 -35t-36 -15q-20 0 -34.5 15t-14.5 35v534h-168q-18 0 -31 12.5t-13 30.5q0 19 13 32t31 13h435q18 0 31.5 -13t13.5 -32q0 -18 -13.5 -30.5t-31.5 -12.5h-167v-193q92 36 181 36q110 0 160 -55t50 -180
v-142q0 -20 -14.5 -35t-35.5 -15t-35.5 15t-14.5 35v142z" />
    <glyph glyph-name="uni040C" unicode="&#x40c;" horiz-adv-x="611" 
d="M333 718q-12 0 -20.5 8.5t-8.5 20.5q0 13 8 21l95 94q9 10 24 10q14 0 24 -10t10 -24q0 -17 -11 -26l-101 -86q-8 -8 -20 -8zM560 75q13 -15 13 -32q0 -20 -13.5 -34t-32.5 -14q-22 0 -35 14l-254 279l-64 -68v-175q0 -20 -14.5 -35t-35.5 -15q-20 0 -35 15t-15 35v577
q0 20 15 35t35 15q21 0 35.5 -15t14.5 -35v-288l294 323q14 15 35 15q19 0 33 -13.5t14 -32.5q0 -20 -13 -32l-232 -247z" />
    <glyph glyph-name="uni040E" unicode="&#x40e;" horiz-adv-x="638" 
d="M321 719q-86 0 -149 61q-9 10 -9 24t9.5 23.5t22.5 9.5q14 0 23 -9q42 -44 103 -44t102 43q10 10 23 10q14 0 23.5 -9.5t9.5 -23.5q0 -12 -10 -24q-61 -61 -148 -61zM554 672q21 0 35.5 -15t14.5 -35q0 -14 -4 -23l-230 -477q-33 -67 -76.5 -100.5t-117.5 -33.5
q-17 0 -35 3q-17 3 -27.5 15.5t-10.5 28.5q0 19 14.5 33t34.5 12l7 -1q6 -2 13 -2q38 0 62 20t51 72l2 4l-238 425q-6 12 -6 24q0 21 14.5 35.5t35.5 14.5q30 0 44 -27l203 -380l168 376q12 31 46 31z" />
    <glyph glyph-name="uni040F" unicode="&#x40f;" horiz-adv-x="699" 
d="M575 672q21 0 35.5 -15t14.5 -35v-569q0 -53 -53 -53h-178v-88q0 -18 -13 -31.5t-31 -13.5t-31 13.5t-13 31.5v88h-178q-54 0 -54 53v569q0 20 15 35t36 15q20 0 34.5 -15t14.5 -35v-534h351v534q0 20 14.5 35t35.5 15z" />
    <glyph glyph-name="uni0410" unicode="&#x410;" horiz-adv-x="666" 
d="M634 65q4 -10 4 -19q0 -21 -15 -36t-36 -15q-36 0 -47 32l-42 111h-331l-42 -111q-5 -14 -18.5 -23t-28.5 -9q-21 0 -36 15t-15 36q0 7 4 19l220 551q9 24 31.5 40t49.5 16q28 0 50 -15.5t32 -40.5zM200 227h265l-133 353z" />
    <glyph glyph-name="uni0411" unicode="&#x411;" horiz-adv-x="597" 
d="M480 667q18 0 31.5 -13t13.5 -32q0 -18 -13.5 -30.5t-31.5 -12.5h-306v-169h181q98 0 155.5 -59t57.5 -146t-57 -146t-156 -59h-227q-54 0 -54 53v561q0 53 54 53h352zM174 322v-234h168q54 0 88.5 32.5t34.5 84.5t-34.5 84.5t-88.5 32.5h-168z" />
    <glyph glyph-name="uni0412" unicode="&#x412;" horiz-adv-x="638" 
d="M128 0q-54 0 -54 53v561q0 53 54 53h259q87 0 137.5 -47.5t50.5 -122.5q0 -60 -33.5 -101.5t-82.5 -51.5q54 -8 91.5 -56t37.5 -108q0 -81 -51.5 -130.5t-141.5 -49.5h-267zM174 384h194q49 0 76.5 27t27.5 70t-27.5 70.5t-76.5 27.5h-194v-195zM174 88h199q52 0 82 28
t30 77q0 44 -29.5 73.5t-82.5 29.5h-199v-208z" />
    <glyph glyph-name="uni0413" unicode="&#x413;" horiz-adv-x="548" 
d="M125 -5q-21 0 -36 15t-15 35v569q0 53 54 53h354q18 0 31.5 -13t13.5 -32q0 -18 -13.5 -30.5t-31.5 -12.5h-308v-534q0 -20 -14.5 -35t-34.5 -15z" />
    <glyph glyph-name="uni0414" unicode="&#x414;" horiz-adv-x="720" 
d="M643 88q53 0 53 -53v-119q0 -18 -12.5 -31t-30.5 -13q-19 0 -32 13t-13 31v84h-498v-84q0 -18 -12.5 -31t-31.5 -13q-18 0 -31 13t-13 31v119q0 53 45 53h6q82 84 113 404l12 124q4 51 56 51h310q53 0 53 -53v-526h26zM517 88v491h-233l-9 -93q-28 -319 -98 -398h340z
" />
    <glyph glyph-name="uni0415" unicode="&#x415;" horiz-adv-x="573" 
d="M128 0q-54 0 -54 53v561q0 53 54 53h354q18 0 31.5 -13t13.5 -32q0 -18 -13.5 -30.5t-31.5 -12.5h-308v-195h301q18 0 31.5 -12.5t13.5 -30.5q0 -19 -13.5 -32t-31.5 -13h-301v-208h308q18 0 31.5 -12.5t13.5 -30.5q0 -19 -13.5 -32t-31.5 -13h-354z" />
    <glyph glyph-name="uni0416" unicode="&#x416;" horiz-adv-x="928" 
d="M879 72q11 -13 11 -30q0 -20 -14 -33.5t-33 -13.5q-22 0 -38 18l-250 290h-41v-258q0 -20 -14.5 -35t-35.5 -15t-35.5 15t-14.5 35v258h-41l-250 -290q-18 -18 -38 -18q-19 0 -33 13.5t-14 33.5q0 17 10 30l245 274l-223 250q-11 11 -11 29q0 19 14 33t33 14q22 0 38 -19
l230 -271h40v240q0 20 14.5 35t35.5 15t35.5 -15t14.5 -35v-240h40l230 271q13 19 37 19q20 0 34 -14t14 -33q0 -18 -11 -29l-224 -250z" />
    <glyph glyph-name="uni0417" unicode="&#x417;" horiz-adv-x="592" 
d="M54 68q-16 13 -16 34q0 18 13 31t31 13q16 0 27 -9q75 -60 172 -60q75 0 117.5 30.5t42.5 83.5q0 105 -167 105h-75q-19 0 -33 13t-14 32t14 31.5t33 12.5h75q69 0 112.5 25t43.5 74t-43.5 76.5t-110.5 27.5q-92 0 -161 -56q-14 -8 -24 -8q-18 0 -30.5 12.5t-12.5 30.5
q0 21 16 32q90 78 221 78q106 0 176 -48.5t70 -130.5q0 -64 -44 -104t-101 -50q56 -5 105.5 -48t49.5 -115q0 -84 -72 -138.5t-185 -54.5q-141 0 -230 80z" />
    <glyph glyph-name="uni0418" unicode="&#x418;" horiz-adv-x="714" 
d="M74 622q0 20 15 35t36 15q20 0 34.5 -15t14.5 -35v-470l347 492q21 28 54 28q27 0 46 -19t19 -46v-562q0 -20 -15 -35t-36 -15q-20 0 -34.5 15t-14.5 35v481l-354 -505q-19 -26 -51 -26q-25 0 -43 18.5t-18 43.5v565z" />
    <glyph glyph-name="uni0419" unicode="&#x419;" horiz-adv-x="714" 
d="M357 719q-86 0 -149 61q-9 10 -9 24t9.5 23.5t22.5 9.5q14 0 23 -9q42 -44 103 -44t102 43q10 10 23 10q14 0 23.5 -9.5t9.5 -23.5q0 -12 -10 -24q-61 -61 -148 -61zM74 622q0 20 15 35t36 15q20 0 34.5 -15t14.5 -35v-470l347 492q21 28 54 28q27 0 46 -19t19 -46v-562
q0 -20 -15 -35t-36 -15q-20 0 -34.5 15t-14.5 35v481l-354 -505q-19 -26 -51 -26q-25 0 -43 18.5t-18 43.5v565z" />
    <glyph glyph-name="uni041A" unicode="&#x41a;" horiz-adv-x="611" 
d="M560 75q13 -15 13 -32q0 -20 -13.5 -34t-32.5 -14q-22 0 -35 14l-254 279l-64 -68v-175q0 -20 -14.5 -35t-35.5 -15q-20 0 -35 15t-15 35v577q0 20 15 35t35 15q21 0 35.5 -15t14.5 -35v-288l294 323q14 15 35 15q19 0 33 -13.5t14 -32.5q0 -20 -13 -32l-232 -247z" />
    <glyph glyph-name="uni041B" unicode="&#x41b;" horiz-adv-x="717" 
d="M593 -5q-21 0 -35.5 15t-14.5 35v534h-245l-10 -116q-11 -127 -29.5 -216t-44 -140.5t-54 -77t-66.5 -34.5q-10 -3 -21 -3q-20 0 -34.5 14.5t-14.5 35.5q0 36 36 49q52 13 85 95t50 279l13 151q4 51 56 51h326q53 0 53 -53v-569q0 -20 -14.5 -35t-35.5 -15z" />
    <glyph glyph-name="uni041C" unicode="&#x41c;" horiz-adv-x="822" 
d="M697 -5q-20 0 -34.5 15t-14.5 35v485l-210 -516q-8 -19 -27 -19q-21 0 -27 19l-210 516v-485q0 -20 -14.5 -35t-34.5 -15q-21 0 -36 15t-15 35v544q0 34 24.5 58.5t59.5 24.5q26 0 47.5 -14.5t30.5 -37.5l175 -433l175 433q9 23 30.5 37.5t47.5 14.5q35 0 59.5 -24.5
t24.5 -58.5v-544q0 -20 -15 -35t-36 -15z" />
    <glyph glyph-name="uni041D" unicode="&#x41d;" horiz-adv-x="717" 
d="M593 -5q-21 0 -35.5 15t-14.5 35v253h-369v-253q0 -20 -14.5 -35t-34.5 -15q-21 0 -36 15t-15 35v577q0 20 15 35t35 15q21 0 35.5 -15t14.5 -35v-235h369v235q0 20 14.5 35t35.5 15t35.5 -15t14.5 -35v-577q0 -20 -14.5 -35t-35.5 -15z" />
    <glyph glyph-name="uni041E" unicode="&#x41e;" horiz-adv-x="765" 
d="M46 333q0 150 94 247.5t242 97.5t242 -97.5t94 -247.5t-94 -247.5t-242 -97.5t-242 97.5t-94 247.5zM615 333q0 112 -64.5 184t-168.5 72q-106 0 -169.5 -72t-63.5 -184t64 -184t169 -72q104 0 168.5 72.5t64.5 183.5z" />
    <glyph glyph-name="uni041F" unicode="&#x41f;" horiz-adv-x="717" 
d="M593 -5q-21 0 -35.5 15t-14.5 35v534h-369v-534q0 -20 -14.5 -35t-34.5 -15q-21 0 -36 15t-15 35v569q0 53 54 53h462q53 0 53 -53v-569q0 -20 -14.5 -35t-35.5 -15z" />
    <glyph glyph-name="uni0420" unicode="&#x420;" horiz-adv-x="597" 
d="M125 -5q-21 0 -36 15t-15 35v569q0 53 54 53h227q99 0 156 -59t57 -146t-57.5 -146t-155.5 -59h-181v-212q0 -20 -14.5 -35t-34.5 -15zM465 462q0 52 -34.5 84.5t-88.5 32.5h-168v-234h168q54 0 88.5 32.5t34.5 84.5z" />
    <glyph glyph-name="uni0421" unicode="&#x421;" horiz-adv-x="671" 
d="M388 -12q-145 0 -243.5 97t-98.5 248t98.5 248t243.5 97q142 0 232 -98q12 -12 12 -32t-14 -33.5t-33 -13.5q-23 0 -36 16q-64 72 -161 72q-102 0 -170.5 -72t-68.5 -184q0 -111 68.5 -183.5t170.5 -72.5q97 0 162 72q13 16 35 16q19 0 33 -13.5t14 -33.5t-12 -32
q-91 -98 -232 -98z" />
    <glyph glyph-name="uni0422" unicode="&#x422;" horiz-adv-x="573" 
d="M287 -5q-21 0 -35.5 15t-14.5 35v534h-168q-18 0 -31 12.5t-13 30.5q0 19 13 32t31 13h435q18 0 31.5 -13t13.5 -32q0 -18 -13.5 -30.5t-31.5 -12.5h-167v-534q0 -20 -15 -35t-35 -15z" />
    <glyph glyph-name="uni0423" unicode="&#x423;" horiz-adv-x="638" 
d="M554 672q21 0 35.5 -15t14.5 -35q0 -14 -4 -23l-230 -477q-33 -67 -76.5 -100.5t-117.5 -33.5q-17 0 -35 3q-17 3 -27.5 15.5t-10.5 28.5q0 19 14.5 33t34.5 12l7 -1q6 -2 13 -2q38 0 62 20t51 72l2 4l-238 425q-6 12 -6 24q0 21 14.5 35.5t35.5 14.5q30 0 44 -27
l203 -380l168 376q12 31 46 31z" />
    <glyph glyph-name="uni0424" unicode="&#x424;" horiz-adv-x="820" 
d="M773 333q0 -114 -83.5 -185.5t-229.5 -81.5v-21q0 -20 -15 -35t-35 -15q-21 0 -35.5 15t-14.5 35v21q-146 10 -230 82t-84 185t84 185t230 82v22q0 20 14.5 35t35.5 15q20 0 35 -15t15 -35v-22q146 -10 229.5 -82t83.5 -185zM149 333q0 -74 55 -121t156 -57v356
q-101 -10 -156 -57t-55 -121zM460 156q100 10 155 57t55 120t-55 120t-155 57v-354z" />
    <glyph glyph-name="uni0425" unicode="&#x425;" horiz-adv-x="656" 
d="M618 75q12 -15 12 -31q0 -20 -13.5 -34.5t-34.5 -14.5q-24 0 -38 15l-216 259l-215 -259q-15 -15 -38 -15q-21 0 -34.5 14.5t-13.5 34.5q0 16 12 31l228 267l-214 250q-11 15 -11 30q0 20 13.5 35t33.5 15q25 0 38 -17l201 -240l201 240q14 17 38 17q20 0 34 -15t14 -35
q0 -14 -12 -30l-214 -249z" />
    <glyph glyph-name="uni0426" unicode="&#x426;" horiz-adv-x="728" 
d="M651 88q53 0 53 -53v-119q0 -18 -12.5 -31t-30.5 -13q-19 0 -32 13t-13 31v84h-488q-54 0 -54 53v569q0 20 15 35t36 15q20 0 34.5 -15t14.5 -35v-534h351v534q0 20 14.5 35t35.5 15t35.5 -15t14.5 -35v-534h26z" />
    <glyph glyph-name="uni0427" unicode="&#x427;" horiz-adv-x="621" 
d="M155 480q0 -81 31.5 -114t108.5 -33q85 0 151 28v261q0 20 15 35t35 15q21 0 35.5 -15t14.5 -35v-577q0 -20 -14.5 -35t-34.5 -15q-21 0 -36 15t-15 35v236q-92 -36 -181 -36q-110 0 -160 55t-50 180v142q0 20 14.5 35t35.5 15t35.5 -15t14.5 -35v-142z" />
    <glyph glyph-name="uni0428" unicode="&#x428;" horiz-adv-x="956" 
d="M831 672q21 0 35.5 -15t14.5 -35v-569q0 -53 -53 -53h-700q-54 0 -54 53v569q0 20 15 35t36 15q20 0 34.5 -15t14.5 -35v-534h254v534q0 20 14.5 35t35.5 15t35.5 -15t14.5 -35v-534h253v534q0 20 14.5 35t35.5 15z" />
    <glyph glyph-name="uni0429" unicode="&#x429;" horiz-adv-x="984" 
d="M907 88q54 0 54 -53v-119q0 -18 -13 -31t-31 -13q-19 0 -32 13t-13 31v84h-744q-54 0 -54 53v569q0 20 15 35t36 15q20 0 34.5 -15t14.5 -35v-534h254v534q0 20 14.5 35t35.5 15t35.5 -15t14.5 -35v-534h253v534q0 20 14.5 35t35.5 15t35.5 -15t14.5 -35v-534h26z" />
    <glyph glyph-name="uni042A" unicode="&#x42a;" horiz-adv-x="760" 
d="M290 0q-53 0 -53 53v526h-168q-18 0 -31 12.5t-13 30.5q0 19 13 32t31 13h214q54 0 54 -53v-204h180q99 0 156.5 -59t57.5 -146t-57.5 -146t-156.5 -59h-227zM337 322v-234h167q55 0 89.5 32.5t34.5 84.5t-34.5 84.5t-89.5 32.5h-167z" />
    <glyph glyph-name="uni042B" unicode="&#x42b;" horiz-adv-x="810" 
d="M125 672q20 0 34.5 -15t14.5 -35v-212h181q98 0 155.5 -59t57.5 -146t-57 -146t-156 -59h-227q-54 0 -54 53v569q0 20 15 35t36 15zM686 -5q-21 0 -36 15t-15 35v577q0 20 15 35t36 15q20 0 34.5 -15t14.5 -35v-577q0 -20 -14.5 -35t-34.5 -15zM174 322v-234h168
q54 0 88.5 32.5t34.5 84.5t-34.5 84.5t-88.5 32.5h-168z" />
    <glyph glyph-name="uni042C" unicode="&#x42c;" horiz-adv-x="597" 
d="M125 672q20 0 34.5 -15t14.5 -35v-212h181q98 0 155.5 -59t57.5 -146t-57 -146t-156 -59h-227q-54 0 -54 53v569q0 20 15 35t36 15zM174 322v-234h168q54 0 88.5 32.5t34.5 84.5t-34.5 84.5t-88.5 32.5h-168z" />
    <glyph glyph-name="uni042D" unicode="&#x42d;" horiz-adv-x="679" 
d="M287 678q148 0 247 -96.5t99 -248.5t-99 -248.5t-247 -96.5q-137 0 -228 98q-12 12 -12 32t13.5 33.5t33.5 13.5q22 0 35 -16q65 -72 158 -72q95 0 162 61t78 158h-330q-18 0 -31 13t-13 32q0 18 13 30.5t31 12.5h328q-15 92 -81 148.5t-157 56.5q-93 0 -157 -72
q-13 -16 -36 -16q-20 0 -33.5 13.5t-13.5 33.5t12 32q88 98 228 98z" />
    <glyph glyph-name="uni042E" unicode="&#x42e;" horiz-adv-x="1003" 
d="M621 678q148 0 242 -98t94 -247t-94 -247t-242 -98q-139 0 -231 87t-104 223h-112v-253q0 -20 -14.5 -35t-34.5 -15q-21 0 -36 15t-15 35v577q0 20 15 35t35 15q21 0 35.5 -15t14.5 -35v-235h115q17 129 107.5 210t224.5 81zM621 77q104 0 168.5 72.5t64.5 183.5
q0 112 -64.5 184t-168.5 72q-106 0 -170 -72t-64 -184q0 -111 64 -183.5t170 -72.5z" />
    <glyph glyph-name="uni042F" unicode="&#x42f;" horiz-adv-x="618" 
d="M491 667q53 0 53 -53v-569q0 -21 -15 -35.5t-36 -14.5q-20 0 -34.5 15t-14.5 35v212h-141l-166 -241q-16 -21 -42 -21q-21 0 -34.5 14.5t-13.5 31.5t10 31l141 198q-64 14 -106 63.5t-42 128.5q0 92 59 148.5t154 56.5h228zM444 345v234h-168q-54 0 -88.5 -32.5
t-34.5 -84.5t34.5 -84.5t88.5 -32.5h168z" />
    <glyph glyph-name="uni0430" unicode="&#x430;" horiz-adv-x="532" 
d="M266 495q86 0 140 -41t54 -128v-286q0 -19 -13.5 -32t-31.5 -13t-31.5 13t-13.5 32v14q-57 -66 -158 -66q-66 0 -117 42.5t-51 117.5q0 77 50 117.5t118 40.5q103 0 158 -64v80q0 44 -32.5 70t-85.5 26q-65 0 -119 -42q-11 -7 -22 -7q-15 0 -25.5 11t-10.5 26q0 19 15 29
q75 60 176 60zM246 51q83 0 124 55v82q-41 55 -124 55q-49 0 -80 -26.5t-31 -69.5t31 -69.5t80 -26.5z" />
    <glyph glyph-name="uni0431" unicode="&#x431;" horiz-adv-x="573" 
d="M43 286q0 167 71.5 257.5t249.5 116.5l71 11q24 4 36.5 -6.5t12.5 -29.5q0 -37 -48 -44l-84 -14q-115 -19 -170 -69t-69 -131q30 48 80 75t109 27q100 0 163.5 -69t63.5 -167q0 -107 -66 -181t-177 -74q-113 0 -178 81t-65 217zM436 244q0 71 -40 121t-110 50
q-69 0 -109.5 -50t-40.5 -121q0 -74 40.5 -125t109.5 -51q70 0 110 51t40 125z" />
    <glyph glyph-name="uni0432" unicode="&#x432;" horiz-adv-x="544" 
d="M125 0q-53 0 -53 53v377q0 53 53 53h205q77 0 118 -34.5t41 -89.5q0 -42 -23 -71t-58 -39q39 -9 64.5 -42.5t25.5 -75.5q0 -60 -42 -95.5t-123 -35.5h-208zM397 345q0 27 -18 43t-49 16h-168v-117h168q31 0 49 16t18 42zM405 143q0 27 -19 46t-53 19h-171v-129h171
q34 0 53 17t19 47z" />
    </font>
</defs>
</svg>
