<?xml version="1.0" standalone="no"?>
<!DOCTYPE svg PUBLIC "-//W3C//DTD SVG 1.1//EN" "http://www.w3.org/Graphics/SVG/1.1/DTD/svg11.dtd" >
<svg xmlns="http://www.w3.org/2000/svg" xmlns:xlink="http://www.w3.org/1999/xlink" version="1.1">
<metadata>
Created by FontForge 20161013 at Tue Jan  3 17:39:06 2017
 By ,,,
Copyright (c) Mark Simonson, 2016. All rights reserved.
</metadata>
<defs>
<font id="ProximaSoft-Light" horiz-adv-x="571" >
  <font-face 
    font-family="Proxima Soft Light"
    font-weight="300"
    font-stretch="normal"
    units-per-em="1000"
    panose-1="2 0 5 6 3 0 0 2 0 4"
    ascent="790"
    descent="-210"
    x-height="483"
    cap-height="667"
    bbox="-345 -305 1111 1082"
    underline-thickness="20"
    underline-position="-173"
    unicode-range="U+000D-FB04"
  />
<missing-glyph horiz-adv-x="517" 
d="M125 -90q-19 0 -30.5 11.5t-11.5 30.5v758q0 19 11.5 30.5t30.5 11.5h267q19 0 30.5 -11.5t11.5 -30.5v-758q0 -19 -11.5 -30.5t-30.5 -11.5h-267zM402 722h-288v-782h288v782z" />
    <glyph glyph-name="f_f_j" unicode="ffj" horiz-adv-x="744" 
d="M234 632q-84 0 -84 -105v-44h78q9 0 16.5 -6.5t7.5 -16.5t-7.5 -16.5t-16.5 -6.5h-78v-414q0 -11 -8 -18.5t-18 -7.5t-18 7.5t-8 18.5v414h-60q-9 0 -16 6.5t-7 16.5t7 16.5t16 6.5h60v44q0 71 35 110.5t96 39.5q25 0 45 -7q17 -5 17 -21q0 -22 -22 -22q-3 0 -14.5 2.5
t-20.5 2.5zM493 437h-78v-414q0 -11 -7.5 -18.5t-18.5 -7.5t-18.5 7.5t-7.5 18.5v414h-60q-9 0 -16 6.5t-7 16.5t7 16.5t16 6.5h60v44q0 71 35 110.5t96 39.5q25 0 45 -7q17 -5 17 -21q0 -22 -22 -22q-3 0 -14.5 2.5t-20.5 2.5q-84 0 -84 -105v-44h78q9 0 16.5 -6.5
t7.5 -16.5t-7.5 -16.5t-16.5 -6.5zM637 663q17 0 28.5 -11.5t11.5 -28.5t-11.5 -28.5t-28.5 -11.5q-16 0 -28 12t-12 28t12 28t28 12zM637 486q11 0 18.5 -8t7.5 -18v-522q0 -66 -33.5 -100t-94.5 -34q-18 0 -33 4q-20 3 -20 23q0 9 6 16t15 7q1 0 9.5 -2t18.5 -2
q80 0 80 88v522q0 10 7.5 18t18.5 8z" />
    <glyph glyph-name="f_j" unicode="fj" horiz-adv-x="479" 
d="M228 437h-78v-414q0 -11 -8 -18.5t-18 -7.5t-18 7.5t-8 18.5v414h-60q-9 0 -16 6.5t-7 16.5t7 16.5t16 6.5h60v44q0 71 35 110.5t96 39.5q25 0 45 -7q17 -5 17 -21q0 -22 -22 -22q-3 0 -14.5 2.5t-20.5 2.5q-84 0 -84 -105v-44h78q9 0 16.5 -6.5t7.5 -16.5t-7.5 -16.5
t-16.5 -6.5zM372 663q16 0 28 -11.5t12 -28.5t-12 -28.5t-28 -11.5t-28 12t-12 28t12 28t28 12zM372 486q10 0 18 -8t8 -18v-522q0 -66 -33.5 -100t-94.5 -34q-18 0 -33 4q-20 3 -20 23q0 9 6 16t15 7q1 0 9.5 -2t18.5 -2q80 0 80 88v522q0 10 8 18t18 8z" />
    <glyph glyph-name="f_f" unicode="ff" horiz-adv-x="530" 
d="M234 632q-84 0 -84 -105v-44h78q9 0 16.5 -6.5t7.5 -16.5t-7.5 -16.5t-16.5 -6.5h-78v-414q0 -11 -8 -18.5t-18 -7.5t-18 7.5t-8 18.5v414h-60q-9 0 -16 6.5t-7 16.5t7 16.5t16 6.5h60v44q0 71 35 110.5t96 39.5q25 0 45 -7q17 -5 17 -21q0 -22 -22 -22q-3 0 -14.5 2.5
t-20.5 2.5zM539 670q17 -5 17 -21q0 -22 -22 -22q-3 0 -14.5 2.5t-20.5 2.5q-84 0 -84 -105v-44h78q9 0 16.5 -6.5t7.5 -16.5t-7.5 -16.5t-16.5 -6.5h-78v-414q0 -11 -7.5 -18.5t-18.5 -7.5t-18.5 7.5t-7.5 18.5v414h-60q-9 0 -16 6.5t-7 16.5t7 16.5t16 6.5h60v44
q0 71 35 110.5t96 39.5q25 0 45 -7z" />
    <glyph glyph-name="fi" unicode="fi" horiz-adv-x="479" 
d="M274 670q17 -5 17 -21q0 -22 -22 -22q-3 0 -14.5 2.5t-20.5 2.5q-84 0 -84 -105v-44h78q9 0 16.5 -6.5t7.5 -16.5t-7.5 -16.5t-16.5 -6.5h-78v-414q0 -11 -8 -18.5t-18 -7.5t-18 7.5t-8 18.5v414h-60q-9 0 -16 6.5t-7 16.5t7 16.5t16 6.5h60v44q0 71 35 110.5t96 39.5
q25 0 45 -7zM372 663q16 0 28 -11.5t12 -28.5t-12 -28.5t-28 -11.5t-28 12t-12 28t12 28t28 12zM372 486q10 0 18 -8t8 -18v-437q0 -11 -8 -18.5t-18 -7.5t-18 7.5t-8 18.5v437q0 10 8 18t18 8z" />
    <glyph glyph-name="fl" unicode="fl" horiz-adv-x="479" 
d="M274 670q17 -5 17 -21q0 -22 -22 -22q-3 0 -14.5 2.5t-20.5 2.5q-84 0 -84 -105v-44h78q9 0 16.5 -6.5t7.5 -16.5t-7.5 -16.5t-16.5 -6.5h-78v-414q0 -11 -8 -18.5t-18 -7.5t-18 7.5t-8 18.5v414h-60q-9 0 -16 6.5t-7 16.5t7 16.5t16 6.5h60v44q0 71 35 110.5t96 39.5
q25 0 45 -7zM372 670q10 0 18 -8t8 -18v-621q0 -11 -8 -18.5t-18 -7.5t-18 7.5t-8 18.5v621q0 10 8 18t18 8z" />
    <glyph glyph-name="f_f_i" unicode="ffi" horiz-adv-x="744" 
d="M234 632q-84 0 -84 -105v-44h78q9 0 16.5 -6.5t7.5 -16.5t-7.5 -16.5t-16.5 -6.5h-78v-414q0 -11 -8 -18.5t-18 -7.5t-18 7.5t-8 18.5v414h-60q-9 0 -16 6.5t-7 16.5t7 16.5t16 6.5h60v44q0 71 35 110.5t96 39.5q25 0 45 -7q17 -5 17 -21q0 -22 -22 -22q-3 0 -14.5 2.5
t-20.5 2.5zM539 670q17 -5 17 -21q0 -22 -22 -22q-3 0 -14.5 2.5t-20.5 2.5q-84 0 -84 -105v-44h78q9 0 16.5 -6.5t7.5 -16.5t-7.5 -16.5t-16.5 -6.5h-78v-414q0 -11 -7.5 -18.5t-18.5 -7.5t-18.5 7.5t-7.5 18.5v414h-60q-9 0 -16 6.5t-7 16.5t7 16.5t16 6.5h60v44
q0 71 35 110.5t96 39.5q25 0 45 -7zM637 663q17 0 28.5 -11.5t11.5 -28.5t-11.5 -28.5t-28.5 -11.5q-16 0 -28 12t-12 28t12 28t28 12zM637 486q11 0 18.5 -8t7.5 -18v-437q0 -11 -7.5 -18.5t-18.5 -7.5t-18.5 7.5t-7.5 18.5v437q0 10 7.5 18t18.5 8z" />
    <glyph glyph-name="f_f_l" unicode="ffl" horiz-adv-x="744" 
d="M234 632q-84 0 -84 -105v-44h78q9 0 16.5 -6.5t7.5 -16.5t-7.5 -16.5t-16.5 -6.5h-78v-414q0 -11 -8 -18.5t-18 -7.5t-18 7.5t-8 18.5v414h-60q-9 0 -16 6.5t-7 16.5t7 16.5t16 6.5h60v44q0 71 35 110.5t96 39.5q25 0 45 -7q17 -5 17 -21q0 -22 -22 -22q-3 0 -14.5 2.5
t-20.5 2.5zM539 670q17 -5 17 -21q0 -22 -22 -22q-3 0 -14.5 2.5t-20.5 2.5q-84 0 -84 -105v-44h78q9 0 16.5 -6.5t7.5 -16.5t-7.5 -16.5t-16.5 -6.5h-78v-414q0 -11 -7.5 -18.5t-18.5 -7.5t-18.5 7.5t-7.5 18.5v414h-60q-9 0 -16 6.5t-7 16.5t7 16.5t16 6.5h60v44
q0 71 35 110.5t96 39.5q25 0 45 -7zM637 670q11 0 18.5 -8t7.5 -18v-621q0 -11 -7.5 -18.5t-18.5 -7.5t-18.5 7.5t-7.5 18.5v621q0 10 7.5 18t18.5 8z" />
    <glyph glyph-name="f_b" unicode="fb" horiz-adv-x="836" 
d="M274 670q17 -5 17 -21q0 -22 -22 -22q-3 0 -14.5 2.5t-20.5 2.5q-84 0 -84 -105v-44h78q9 0 16.5 -6.5t7.5 -16.5t-7.5 -16.5t-16.5 -6.5h-78v-414q0 -11 -8 -18.5t-18 -7.5t-18 7.5t-8 18.5v414h-60q-9 0 -16 6.5t-7 16.5t7 16.5t16 6.5h60v44q0 71 35 110.5t96 39.5
q25 0 45 -7zM566 495q97 0 156.5 -69.5t59.5 -184.5t-59.5 -184t-156.5 -69q-51 0 -95.5 25t-72.5 64v-54q0 -11 -8 -18.5t-18 -7.5t-18 7.5t-8 18.5v621q0 10 8 18t18 8t18 -8t8 -18v-239q63 90 168 90zM557 35q79 0 124 58t45 148q0 91 -45 149t-124 58q-48 0 -92.5 -26
t-66.5 -62v-239q22 -36 66 -61t93 -25z" />
    <glyph glyph-name="f_h" unicode="fh" horiz-adv-x="805" 
d="M274 670q17 -5 17 -21q0 -22 -22 -22q-3 0 -14.5 2.5t-20.5 2.5q-84 0 -84 -105v-44h78q9 0 16.5 -6.5t7.5 -16.5t-7.5 -16.5t-16.5 -6.5h-78v-414q0 -11 -8 -18.5t-18 -7.5t-18 7.5t-8 18.5v414h-60q-9 0 -16 6.5t-7 16.5t7 16.5t16 6.5h60v44q0 71 35 110.5t96 39.5
q25 0 45 -7zM572 495q152 0 152 -155v-317q0 -11 -8 -18.5t-18 -7.5t-18 7.5t-8 18.5v306q0 66 -30 92.5t-87 26.5q-45 0 -89 -24t-68 -59v-342q0 -11 -8 -18.5t-18 -7.5t-18 7.5t-8 18.5v621q0 10 8 18t18 8t18 -8t8 -18v-234q29 34 77 59.5t97 25.5z" />
    <glyph glyph-name="f_k" unicode="fk" horiz-adv-x="770" 
d="M274 670q17 -5 17 -21q0 -22 -22 -22q-3 0 -14.5 2.5t-20.5 2.5q-84 0 -84 -105v-44h78q9 0 16.5 -6.5t7.5 -16.5t-7.5 -16.5t-16.5 -6.5h-78v-414q0 -11 -8 -18.5t-18 -7.5t-18 7.5t-8 18.5v414h-60q-9 0 -16 6.5t-7 16.5t7 16.5t16 6.5h60v44q0 71 35 110.5t96 39.5
q25 0 45 -7zM723 42q6 -8 6 -18q0 -11 -7.5 -19t-18.5 -8q-13 0 -21 9l-194 224l-90 -85v-122q0 -11 -8 -18.5t-18 -7.5t-18 7.5t-8 18.5v621q0 10 8 18t18 8t18 -8t8 -18v-436l287 272q7 6 17 6t17 -7.5t7 -17.5t-8 -18l-190 -179z" />
    <glyph glyph-name=".notdef" horiz-adv-x="517" 
d="M125 -90q-19 0 -30.5 11.5t-11.5 30.5v758q0 19 11.5 30.5t30.5 11.5h267q19 0 30.5 -11.5t11.5 -30.5v-758q0 -19 -11.5 -30.5t-30.5 -11.5h-267zM402 722h-288v-782h288v782z" />
    <glyph glyph-name=".null" horiz-adv-x="0" 
 />
    <glyph glyph-name="nonmarkingreturn" horiz-adv-x="333" 
 />
    <glyph glyph-name="NULL" horiz-adv-x="0" 
 />
    <glyph glyph-name="NULL" horiz-adv-x="0" 
 />
    <glyph glyph-name="CR" unicode="&#xd;" horiz-adv-x="0" 
 />
    <glyph glyph-name="space" unicode=" " horiz-adv-x="259" 
 />
    <glyph glyph-name="exclam" unicode="!" horiz-adv-x="219" 
d="M109 171q-19 0 -21 20l-12 445q0 14 10 24t23 10q14 0 24 -10t10 -24l-12 -445q0 -8 -6.5 -14t-15.5 -6zM66 35q0 17 12.5 30t30.5 13t31.5 -13t13.5 -30q0 -18 -13.5 -31t-31.5 -13t-30.5 13t-12.5 31z" />
    <glyph glyph-name="quotedbl" unicode="&#x22;" horiz-adv-x="317" 
d="M94 424q-15 0 -17 15q-19 175 -19 202q0 15 10 25.5t26 10.5q15 0 25.5 -10.5t10.5 -25.5q0 -18 -20 -202q0 -15 -16 -15zM223 424q-16 0 -16 15q-5 40 -12.5 116.5t-7.5 85.5q0 15 10.5 25.5t25.5 10.5t25.5 -10.5t10.5 -25.5q0 -39 -19 -202q-2 -15 -17 -15z" />
    <glyph glyph-name="numbersign" unicode="#" horiz-adv-x="579" 
d="M531 481q8 0 14.5 -6t6.5 -15q0 -8 -6.5 -14t-14.5 -6h-100l-73 -213h92q8 0 14.5 -6t6.5 -15q0 -8 -6.5 -14t-14.5 -6h-104l-58 -174q-5 -15 -22 -15q-9 0 -15.5 6.5t-6.5 14.5q0 4 3 13l53 155h-118l-58 -174q-5 -15 -22 -15q-9 0 -15.5 7t-6.5 15q0 4 2 10l53 157h-86
q-8 0 -14.5 6t-6.5 14q0 9 6.5 15t14.5 6h99l72 213h-89q-8 0 -14 6t-6 14q0 9 6 15t14 6h103l57 174q5 15 21 15q10 0 16.5 -7t6.5 -15q0 -4 -2 -10l-52 -157h117l57 174q5 15 22 15q9 0 15.5 -7t6.5 -15q0 -4 -2 -10l-53 -157h87zM311 227l73 213h-117l-72 -213h116z" />
    <glyph glyph-name="dollar" unicode="$" horiz-adv-x="584" 
d="M529 177q0 -71 -50.5 -126.5t-159.5 -61.5v-69q0 -9 -6.5 -16t-16.5 -7t-16.5 7t-6.5 16v68q-126 6 -208 88q-9 8 -9 21q0 12 8.5 20.5t20.5 8.5q10 0 19 -7q71 -71 169 -78v281q-38 11 -61 18.5t-53.5 22.5t-47.5 32t-29.5 44t-12.5 61q0 76 58 124.5t146 52.5v71
q0 9 6.5 16t16.5 7t16.5 -7t6.5 -16v-72q106 -7 176 -74q11 -9 11 -22q0 -11 -8.5 -19.5t-20.5 -8.5t-18 7q-55 55 -140 64v-251q38 -11 62.5 -19.5t55.5 -24.5t49 -35t30.5 -49t12.5 -67zM129 503q0 -48 36.5 -73t107.5 -45v240q-62 -3 -103 -37t-41 -85zM319 42
q42 3 72.5 16t46.5 33t23.5 40t7.5 42q0 57 -39 86t-111 50v-267z" />
    <glyph glyph-name="percent" unicode="%" horiz-adv-x="720" 
d="M190 350q-69 0 -112.5 46t-43.5 116q0 71 44 118t112 47q69 0 113 -47t44 -118q0 -70 -44 -116t-113 -46zM161 -3q-8 0 -14 5.5t-6 13.5q0 5 4 11l404 634q6 9 17 9q8 0 13.5 -5.5t5.5 -13.5q0 -5 -2 -11l-407 -634q-5 -9 -15 -9zM190 386q49 0 80 36.5t31 89.5
q0 54 -31 91t-80 37q-48 0 -79 -37t-31 -91q0 -53 31 -89.5t79 -36.5zM530 -12q-69 0 -113 46.5t-44 116.5q0 71 44 118t113 47t113 -47t44 -118q0 -70 -44 -116.5t-113 -46.5zM530 25q49 0 79.5 36.5t30.5 89.5q0 54 -30.5 90.5t-79.5 36.5t-80 -36.5t-31 -90.5
q0 -53 31 -89.5t80 -36.5z" />
    <glyph glyph-name="ampersand" unicode="&#x26;" horiz-adv-x="639" 
d="M561 46q10 -9 10 -22q0 -11 -8 -19t-19 -8q-10 0 -17 6q-31 26 -86 79q-84 -94 -198 -94q-87 0 -144 48t-57 134q0 72 39.5 118t109.5 85q-55 89 -55 152q0 65 46 108.5t113 43.5q63 0 101.5 -33.5t38.5 -92.5q0 -29 -11 -54.5t-23.5 -41.5t-41.5 -36.5t-44 -29
t-52 -28.5q32 -46 85 -105q30 -35 90 -97q40 61 67 138q7 17 24 17q11 0 18.5 -7t7.5 -18q0 -5 -3 -12q-44 -102 -78 -152q35 -34 87 -79zM192 524q0 -50 46 -126q36 19 56 30.5t44 30.5t34.5 41t10.5 49q0 40 -24.5 62t-62.5 22q-43 0 -73.5 -31t-30.5 -78zM247 34
q87 0 159 83q-64 63 -101 105q-55 65 -89 113q-55 -33 -85.5 -70.5t-30.5 -91.5q0 -65 43 -102t104 -37z" />
    <glyph glyph-name="quotesingle" unicode="'" horiz-adv-x="187" 
d="M94 424q-15 0 -17 15q-19 175 -19 202q0 15 10 25.5t26 10.5q15 0 25.5 -10.5t10.5 -25.5q0 -18 -20 -202q0 -15 -16 -15z" />
    <glyph glyph-name="parenleft" unicode="(" horiz-adv-x="227" 
d="M185 -193q-10 0 -17 10q-122 195 -122 426q0 230 122 427q6 9 17 9q8 0 14.5 -6t6.5 -14q0 -4 -3 -11q-50 -102 -74.5 -195t-24.5 -210t24.5 -210t74.5 -195q3 -6 3 -11q0 -8 -6 -14t-15 -6z" />
    <glyph glyph-name="parenright" unicode=")" horiz-adv-x="227" 
d="M41 -193q-8 0 -14 6t-6 14q0 5 3 11q50 103 74.5 195.5t24.5 209.5t-24.5 210t-74.5 195q-3 7 -3 11q0 8 6 14t14 6q13 0 17 -9q124 -197 124 -427t-124 -426q-5 -10 -17 -10z" />
    <glyph glyph-name="asterisk" unicode="*" horiz-adv-x="335" 
d="M167 396q-7 0 -12.5 5.5t-4.5 13.5l4 101l-85 -55q-5 -3 -10 -3q-7 0 -12 5.5t-5 12.5q0 10 10 16l89 46l-89 46q-10 4 -10 16q0 7 5 12.5t12 5.5q5 0 10 -3l85 -55l-4 101q-1 8 4.5 13.5t12.5 5.5q8 0 13.5 -5.5t4.5 -13.5l-5 -101l85 55q4 3 10 3q7 0 12.5 -5t5.5 -13
q0 -11 -10 -16l-89 -46l89 -46q10 -7 10 -16q0 -8 -5.5 -13t-12.5 -5t-10 3l-85 55l5 -101q1 -8 -4.5 -13.5t-13.5 -5.5z" />
    <glyph glyph-name="plus" unicode="+" horiz-adv-x="496" 
d="M271 316v-198q0 -9 -6.5 -15.5t-16.5 -6.5q-9 0 -15.5 6.5t-6.5 15.5v198h-179q-8 0 -14.5 6.5t-6.5 14.5t6.5 14.5t14.5 6.5h179v192q0 8 6.5 15t15.5 7q10 0 16.5 -7t6.5 -15v-192h179q8 0 14.5 -6.5t6.5 -14.5t-6.5 -14.5t-14.5 -6.5h-179z" />
    <glyph glyph-name="comma" unicode="," horiz-adv-x="219" 
d="M98 -115q-4 -4 -13 -4q-8 0 -13 5.5t-5 13.5t5 13q42 41 44 81q-3 -1 -10 -1q-18 0 -29.5 12t-11.5 30q0 17 12.5 30t30.5 13q21 0 36 -17t15 -47q0 -73 -61 -129z" />
    <glyph glyph-name="hyphen" unicode="-" horiz-adv-x="300" 
d="M51 218q-10 0 -17 7t-7 17t7 17t17 7h198q10 0 17 -7t7 -17t-7 -17t-17 -7h-198z" />
    <glyph glyph-name="period" unicode="." horiz-adv-x="219" 
d="M65 35q0 17 13 30t31 13t31.5 -13t13.5 -30q0 -18 -13.5 -31.5t-31.5 -13.5t-31 13.5t-13 31.5z" />
    <glyph glyph-name="slash" unicode="/" horiz-adv-x="282" 
d="M29 -23q-9 0 -15.5 6.5t-6.5 14.5q0 4 2 10l224 668q6 14 20 14q10 0 16 -6.5t6 -15.5q0 -3 -2 -9l-224 -668q-6 -14 -20 -14z" />
    <glyph glyph-name="zero" unicode="0" horiz-adv-x="608" 
d="M58 333q0 63 14 121.5t41.5 109.5t77 82t114.5 31q64 0 113 -31t77 -82t42 -109.5t14 -121.5q0 -62 -14 -121t-42 -110.5t-77 -82.5t-113 -31t-114 31t-77.5 82.5t-41.5 110t-14 121.5zM490 333q0 55 -9.5 104.5t-30 93t-58 69t-87.5 25.5q-51 0 -88.5 -25.5t-58 -69
t-30.5 -93t-10 -104.5t10 -104.5t30.5 -93t58 -69.5t88.5 -26q50 0 87.5 26t58 69.5t30 93t9.5 104.5z" />
    <glyph glyph-name="one" unicode="1" horiz-adv-x="308" 
d="M196 -3q-12 0 -20 8.5t-8 20.5v563l-90 -97q-8 -8 -19 -8q-10 0 -17.5 7.5t-7.5 18.5q0 9 7 18l125 131q9 11 25 11q14 0 24 -10t10 -24v-610q0 -11 -8.5 -20t-20.5 -9z" />
    <glyph glyph-name="two" unicode="2" horiz-adv-x="579" 
d="M82 0q-13 0 -22.5 9.5t-9.5 22.5q0 15 13 25q96 77 153.5 126.5t112 106.5t79 105t24.5 94q0 67 -45.5 101.5t-106.5 34.5q-105 0 -168 -70q-8 -8 -19 -8t-19 8t-8 19q0 12 9 19q76 84 205 84q83 0 146.5 -48t63.5 -140q0 -53 -25 -106t-79 -111.5t-105.5 -104
t-138.5 -115.5h328q10 0 18 -8t8 -18t-8 -18t-18 -8h-388z" />
    <glyph glyph-name="three" unicode="3" horiz-adv-x="544" 
d="M259 -12q-134 0 -211 91q-8 8 -8 19t8 19t19 8t18 -9q67 -76 173 -76q77 0 122.5 38t45.5 104q0 68 -49.5 101.5t-129.5 33.5h-39q-11 0 -19 8t-8 19q0 10 8 17.5t19 7.5h39q72 0 120.5 32t48.5 95q0 60 -46 94.5t-114 34.5q-93 0 -163 -70q-7 -7 -18 -7t-18.5 8t-7.5 18
q0 9 8 19q82 84 202 84q91 0 153 -47t62 -129q0 -47 -25 -83t-55 -51.5t-63 -21.5q54 -6 103.5 -49t49.5 -117q0 -84 -60.5 -137.5t-164.5 -53.5z" />
    <glyph glyph-name="four" unicode="4" horiz-adv-x="541" 
d="M483 234q11 0 18.5 -8t7.5 -18t-7.5 -18t-18.5 -8h-75v-156q0 -12 -8 -20.5t-20 -8.5t-20.5 9t-8.5 20v156h-283q-14 0 -25 10.5t-11 25.5q0 10 6 20l280 410q15 22 41 22q20 0 34.5 -14.5t14.5 -34.5v-387h75zM94 234h257v376z" />
    <glyph glyph-name="five" unicode="5" horiz-adv-x="582" 
d="M89 79q-8 6 -8 18t8 20t19 8q13 0 19 -8q66 -77 172 -77q72 0 119.5 46t47.5 115q0 75 -46.5 119t-119.5 44q-83 0 -147 -53q-11 -9 -23 -9q-15 0 -25 10.5t-10 24.5v299q0 31 31 31h332q10 0 18 -7.5t8 -18.5t-8 -18.5t-18 -7.5h-306v-261q64 62 159 62q89 0 151 -56.5
t62 -156.5q0 -97 -65 -156t-160 -59q-137 0 -210 91z" />
    <glyph glyph-name="six" unicode="6" horiz-adv-x="584" 
d="M58 333q0 53 8.5 101.5t28.5 93.5t48.5 77.5t72.5 52t97 19.5q100 0 164 -69q10 -7 10 -20q0 -11 -8 -18.5t-19 -7.5q-10 0 -18 6q-50 57 -129 57q-52 0 -91.5 -25.5t-61.5 -68.5t-33 -93t-11 -106q0 -21 1 -31q25 41 79 76t116 35q95 0 155 -54.5t60 -156.5
q0 -87 -61 -150t-163 -63q-52 0 -94 19t-70 51t-46.5 76.5t-26.5 93.5t-8 105zM469 200q0 79 -46 120t-121 41q-54 0 -103.5 -31.5t-78.5 -82.5q4 -51 22 -95t59 -78t100 -34q79 0 123.5 49.5t44.5 110.5z" />
    <glyph glyph-name="seven" unicode="7" horiz-adv-x="502" 
d="M165 -3q-12 0 -20.5 8.5t-8.5 19.5q0 6 4 14l262 576h-346q-10 0 -18 7.5t-8 18.5t8 18.5t18 7.5h389q11 0 19 -8t8 -19q0 -6 -3 -12l-277 -614q-8 -17 -27 -17z" />
    <glyph glyph-name="eight" unicode="8" 
d="M59 167q0 65 48 111.5t118 65.5q-66 18 -110.5 58.5t-44.5 102.5q0 83 64 127.5t152 44.5q86 0 151 -44.5t65 -127.5q0 -62 -44.5 -102.5t-110.5 -58.5q70 -19 117.5 -65t47.5 -112q0 -80 -64.5 -129.5t-161.5 -49.5q-98 0 -162.5 49.5t-64.5 129.5zM444 499q0 58 -45 92
t-113 34t-113 -34t-45 -92q0 -32 18 -57.5t47 -40.5t50 -22t43 -11q22 4 43 11.5t50 22t47 40t18 57.5zM455 171q0 36 -20 65t-50 45.5t-55 25.5t-44 11q-19 -2 -44.5 -11t-55 -25.5t-49.5 -45.5t-20 -65q0 -59 49.5 -95t119.5 -36q68 0 118.5 36.5t50.5 94.5z" />
    <glyph glyph-name="nine" unicode="9" horiz-adv-x="584" 
d="M107 58q-9 7 -9 20q0 11 7.5 19t18.5 8q9 0 18 -7q50 -57 129 -57q53 0 92.5 25.5t61.5 69t32.5 93t10.5 105.5v31q-26 -41 -80.5 -76.5t-115.5 -35.5q-95 0 -155 55t-60 157q0 87 61 150t163 63q52 0 94 -19t70 -51t46.5 -76.5t26.5 -93.5t8 -105q0 -53 -8.5 -101.5
t-28.5 -93.5t-48.5 -77.5t-72.5 -52t-97 -19.5q-98 0 -164 69zM464 419q-4 51 -22 95t-59 78t-100 34q-79 0 -123.5 -49.5t-44.5 -110.5q0 -79 46 -120t121 -41q54 0 103.5 31.5t78.5 82.5z" />
    <glyph glyph-name="colon" unicode=":" horiz-adv-x="219" 
d="M65 446q0 18 13 31t31 13t31.5 -13t13.5 -31q0 -17 -13.5 -30t-31.5 -13t-31 13t-13 30zM65 35q0 17 13 30t31 13t31.5 -13t13.5 -30q0 -18 -13.5 -31.5t-31.5 -13.5t-31 13.5t-13 31.5z" />
    <glyph glyph-name="semicolon" unicode=";" horiz-adv-x="219" 
d="M109 403q-18 0 -31 13t-13 30q0 18 13 31t31 13t31.5 -13t13.5 -31q0 -17 -13.5 -30t-31.5 -13zM98 -115q-4 -4 -13 -4q-8 0 -13 5.5t-5 13.5t5 13q42 41 44 81q-3 -1 -10 -1q-18 0 -29.5 12t-11.5 30q0 17 12.5 30t30.5 13q21 0 36 -17t15 -47q0 -73 -61 -129z" />
    <glyph glyph-name="less" unicode="&#x3c;" horiz-adv-x="496" 
d="M42 310q-16 7 -16 25q0 16 16 25l396 205q9 3 10 3q10 0 16.5 -6.5t6.5 -16.5q0 -13 -13 -19l-377 -192l377 -190q13 -6 13 -20q0 -9 -6.5 -15.5t-15.5 -6.5q-7 0 -11 3z" />
    <glyph glyph-name="equal" unicode="=" horiz-adv-x="496" 
d="M47 411q-8 0 -14.5 6.5t-6.5 14.5t6.5 14.5t14.5 6.5h403q8 0 14.5 -6.5t6.5 -14.5t-6.5 -14.5t-14.5 -6.5h-403zM47 216q-8 0 -14.5 6t-6.5 14t6.5 14.5t14.5 6.5h403q8 0 14.5 -6.5t6.5 -14.5t-6.5 -14t-14.5 -6h-403z" />
    <glyph glyph-name="greater" unicode="&#x3e;" horiz-adv-x="496" 
d="M58 105q-3 -3 -10 -3q-9 0 -15.5 6.5t-6.5 15.5q0 15 12 20l377 190l-376 192q-13 6 -13 19q0 10 6.5 16.5t15.5 6.5q4 0 10 -3l397 -205q16 -9 16 -25q0 -18 -16 -25z" />
    <glyph glyph-name="question" unicode="?" horiz-adv-x="464" 
d="M173 255q0 31 16.5 58t33.5 41.5t50 36.5q24 17 36 26t28.5 25.5t23.5 34.5t7 40q0 46 -35.5 77t-98.5 31q-101 0 -160 -72q-8 -8 -18 -8q-11 0 -19 7.5t-8 18.5q0 12 8 18q75 88 200 88q87 0 139 -44.5t52 -109.5q0 -39 -19.5 -72.5t-39.5 -50t-57 -41.5
q-30 -21 -44.5 -32t-29 -32t-14.5 -43q0 -16 17 -35q4 -6 4 -11q0 -10 -7.5 -17.5t-17.5 -7.5q-13 0 -20 10q-27 28 -27 64zM179 35q0 17 13 30t31 13t31 -13t13 -30q0 -18 -13 -31.5t-31 -13.5t-31 13.5t-13 31.5z" />
    <glyph glyph-name="at" unicode="@" horiz-adv-x="783" 
d="M432 638q139 0 227 -92.5t88 -229.5q0 -108 -48 -169.5t-114 -61.5q-39 0 -63 25t-25 60l-1 6q-28 -39 -72 -65t-92 -26q-69 0 -111 43.5t-42 116.5q0 104 73.5 179t165.5 75q47 0 80.5 -23t48.5 -58l10 48q4 20 24 20q11 0 18.5 -9.5t5.5 -20.5l-54 -256q-2 -12 -2 -19
q0 -25 14.5 -40t35.5 -15q40 0 78 46.5t38 144.5q0 125 -80 207t-206 82q-145 0 -253.5 -109.5t-108.5 -251.5q0 -121 82 -202.5t207 -81.5q93 0 176 50q4 3 8 3q15 0 15 -16q0 -8 -7 -12q-92 -56 -196 -56q-136 0 -226.5 90.5t-90.5 223.5q0 106 55.5 197.5t147 144
t194.5 52.5zM506 227l32 148q-11 32 -40 57.5t-74 25.5q-79 0 -136 -64.5t-57 -145.5q0 -54 29.5 -88t81.5 -34q95 0 164 101z" />
    <glyph glyph-name="A" unicode="A" horiz-adv-x="647" 
d="M616 39q3 -9 3 -12q0 -12 -8.5 -21t-21.5 -9q-21 0 -28 19l-59 148h-357l-59 -148q-7 -19 -28 -19q-13 0 -21.5 9t-8.5 21q0 5 3 12l246 600q12 31 46 31q33 0 47 -31zM166 216h315l-158 395z" />
    <glyph glyph-name="B" unicode="B" horiz-adv-x="614" 
d="M114 0q-31 0 -31 31v605q0 31 31 31h243q84 0 134 -46t50 -124q0 -60 -34.5 -101.5t-82.5 -51.5q53 -8 91.5 -56.5t38.5 -107.5q0 -83 -51 -131.5t-140 -48.5h-249zM140 368h210q62 0 96.5 34.5t34.5 88.5q0 53 -34.5 88.5t-96.5 35.5h-210v-247zM140 52h214
q66 0 103 35.5t37 96.5q0 55 -37 93.5t-103 38.5h-214v-264z" />
    <glyph glyph-name="C" unicode="C" horiz-adv-x="669" 
d="M394 -12q-142 0 -239 97t-97 248t97 248t239 97q136 0 226 -95q7 -7 7 -19t-8 -20t-20 -8q-13 0 -21 9q-73 81 -184 81q-118 0 -197 -82t-79 -211q0 -128 79.5 -210.5t196.5 -82.5q113 0 185 82q7 9 20 9q12 0 20.5 -8.5t8.5 -19.5q0 -13 -8 -19q-91 -96 -226 -96z" />
    <glyph glyph-name="D" unicode="D" horiz-adv-x="692" 
d="M114 0q-31 0 -31 31v605q0 31 31 31h182q151 0 244 -96.5t93 -237.5q0 -142 -92.5 -237.5t-244.5 -95.5h-182zM140 52h156q128 0 202.5 80t74.5 201t-74 201.5t-203 80.5h-156v-563z" />
    <glyph glyph-name="E" unicode="E" horiz-adv-x="564" 
d="M114 0q-31 0 -31 31v605q0 31 31 31h369q11 0 18.5 -7.5t7.5 -18.5t-7.5 -18.5t-18.5 -7.5h-343v-247h336q10 0 18 -8t8 -18t-8 -18t-18 -8h-336v-264h343q11 0 18.5 -8t7.5 -18t-7.5 -18t-18.5 -8h-369z" />
    <glyph glyph-name="F" unicode="F" horiz-adv-x="542" 
d="M112 -3q-12 0 -20.5 9t-8.5 20v610q0 31 31 31h369q11 0 18.5 -7.5t7.5 -18.5t-7.5 -18.5t-18.5 -7.5h-343v-247h336q10 0 18 -8t8 -18t-8 -18t-18 -8h-336v-290q0 -12 -8 -20.5t-20 -8.5z" />
    <glyph glyph-name="G" unicode="G" horiz-adv-x="711" 
d="M618 331q31 0 31 -31v-179q0 -25 -16 -38q-96 -96 -237 -96q-143 0 -240.5 97t-97.5 249t97.5 248.5t240.5 96.5q138 0 233 -93q7 -6 7 -18t-7.5 -19.5t-19.5 -7.5q-11 0 -18 7q-79 79 -195 79q-119 0 -198.5 -82t-79.5 -211q0 -128 79.5 -211t198.5 -83q61 0 112 24
t84 57v160h-230q-11 0 -18.5 7.5t-7.5 18.5q0 10 7.5 17.5t18.5 7.5h256z" />
    <glyph glyph-name="H" unicode="H" horiz-adv-x="703" 
d="M592 -3q-12 0 -20.5 9t-8.5 20v291h-423v-291q0 -12 -8 -20.5t-20 -8.5t-20.5 9t-8.5 20v615q0 12 8.5 20.5t20.5 8.5t20 -8.5t8 -20.5v-272h423v272q0 12 8.5 20.5t20.5 8.5t20.5 -8.5t8.5 -20.5v-615q0 -11 -8.5 -20t-20.5 -9z" />
    <glyph glyph-name="I" unicode="I" horiz-adv-x="223" 
d="M112 -3q-12 0 -20.5 9t-8.5 20v615q0 12 8.5 20.5t20.5 8.5t20 -8.5t8 -20.5v-615q0 -12 -8 -20.5t-20 -8.5z" />
    <glyph glyph-name="J" unicode="J" horiz-adv-x="470" 
d="M30 53q-10 8 -10 20t8.5 20.5t19.5 8.5t19 -8q49 -54 115 -54q67 0 107 42.5t40 110.5v448q0 12 8.5 20.5t20.5 8.5t20.5 -8.5t8.5 -20.5v-448q0 -100 -57 -152.5t-145 -52.5q-94 0 -155 65z" />
    <glyph glyph-name="K" unicode="K" horiz-adv-x="586" 
d="M533 44q8 -10 8 -19q0 -11 -8 -19.5t-19 -8.5q-13 0 -21 8l-279 307l-74 -80v-206q0 -12 -8 -20.5t-20 -8.5t-20.5 9t-8.5 20v615q0 12 8.5 20.5t20.5 8.5t20 -8.5t8 -20.5v-340l326 360q7 9 20 9q11 0 19.5 -8t8.5 -19t-8 -19l-255 -276z" />
    <glyph glyph-name="L" unicode="L" horiz-adv-x="504" 
d="M114 0q-31 0 -31 31v610q0 12 8.5 20.5t20.5 8.5t20 -8.5t8 -20.5v-589h300q10 0 18 -8t8 -18t-8 -18t-18 -8h-326z" />
    <glyph glyph-name="M" unicode="M" horiz-adv-x="790" 
d="M678 -3q-12 0 -20.5 9t-8.5 20v566l-237 -581q-6 -14 -17 -14q-12 0 -17 14l-238 581v-566q0 -12 -8 -20.5t-20 -8.5t-20.5 9t-8.5 20v594q0 20 14.5 35t35.5 15q35 0 47 -31l215 -529l215 529q12 31 47 31q21 0 35.5 -15t14.5 -35v-594q0 -11 -8.5 -20t-20.5 -9z" />
    <glyph glyph-name="N" unicode="N" horiz-adv-x="699" 
d="M581 -3q-20 0 -30 15l-411 564v-550q0 -12 -8 -20.5t-20 -8.5t-20.5 9t-8.5 20v606q0 16 10.5 27t26.5 11q20 0 31 -16l408 -555v542q0 12 8 20.5t20 8.5t20.5 -8.5t8.5 -20.5v-608q0 -14 -10.5 -25t-24.5 -11z" />
    <glyph glyph-name="O" unicode="O" horiz-adv-x="764" 
d="M58 333q0 149 89.5 247t234.5 98q144 0 234 -98t90 -247t-90 -247t-234 -98q-145 0 -234.5 98t-89.5 247zM646 333q0 129 -72.5 211t-191.5 82q-120 0 -192 -82t-72 -211q0 -128 72 -210.5t192 -82.5q118 0 191 82.5t73 210.5z" />
    <glyph glyph-name="P" unicode="P" 
d="M112 -3q-12 0 -20.5 9t-8.5 20v610q0 31 31 31h219q93 0 147 -56.5t54 -138.5t-54.5 -138.5t-146.5 -56.5h-193v-251q0 -12 -8 -20.5t-20 -8.5zM474 472q0 63 -40.5 103t-106.5 40h-187v-286h187q66 0 106.5 40t40.5 103z" />
    <glyph glyph-name="Q" unicode="Q" horiz-adv-x="764" 
d="M612 82l53 -55q7 -9 7 -18q0 -11 -8 -19t-19 -8q-13 0 -19 8l-55 57q-79 -59 -189 -59q-145 0 -234.5 98t-89.5 247t89.5 247t234.5 98q144 0 234 -98t90 -247q0 -154 -94 -251zM382 40q86 0 151 46l-87 90q-6 8 -6 18q0 11 7.5 19t18.5 8q12 0 20 -9l87 -90
q73 82 73 211t-72.5 211t-191.5 82q-120 0 -192 -82t-72 -211q0 -128 72 -210.5t192 -82.5z" />
    <glyph glyph-name="R" unicode="R" horiz-adv-x="594" 
d="M360 281l170 -238q5 -7 5 -18t-7.5 -19.5t-19.5 -8.5q-16 0 -25 12l-186 267h-157v-250q0 -12 -8 -20.5t-20 -8.5t-20.5 9t-8.5 20v610q0 31 31 31h218q88 0 145.5 -53t57.5 -142q0 -84 -50 -134.5t-125 -56.5zM140 615v-287h187q66 0 107 40.5t41 103.5t-41 103t-107 40
h-187z" />
    <glyph glyph-name="S" unicode="S" horiz-adv-x="581" 
d="M63 76q-9 8 -9 21q0 12 8.5 20.5t19.5 8.5t20 -7q81 -79 189 -79q93 0 134.5 40.5t41.5 92.5q0 27 -11 49t-25.5 35.5t-42.5 26t-48 19t-56 15.5q-36 10 -53.5 15.5t-48.5 17t-47 23.5t-34 30t-26 42t-8 54q0 80 63.5 129t158.5 49q123 0 206 -77q11 -7 11 -21
q0 -11 -8.5 -19.5t-20.5 -8.5t-18 7q-67 67 -173 67q-69 0 -114 -34.5t-45 -88.5q0 -23 10.5 -41.5t24 -30t40 -22.5t45.5 -17t54 -15q43 -12 66 -19.5t59 -25t54 -36t32.5 -49.5t14.5 -70q0 -76 -57 -132.5t-180 -56.5q-137 0 -227 88z" />
    <glyph glyph-name="T" unicode="T" horiz-adv-x="564" 
d="M282 -3q-12 0 -20.5 9t-8.5 20v589h-195q-10 0 -18 7.5t-8 18.5t8 18.5t18 7.5h449q11 0 18.5 -7.5t7.5 -18.5t-7.5 -18.5t-18.5 -7.5h-196v-589q0 -11 -8.5 -20t-20.5 -9z" />
    <glyph glyph-name="U" unicode="U" horiz-adv-x="686" 
d="M83 256v385q0 12 8.5 20.5t20.5 8.5t20.5 -8.5t8.5 -20.5v-384q0 -102 52.5 -159.5t149.5 -57.5q98 0 150 57t52 160v384q0 12 8.5 20.5t20.5 8.5q13 0 21 -8.5t8 -20.5v-385q0 -126 -66.5 -197t-193.5 -71q-126 0 -193 71.5t-67 196.5z" />
    <glyph glyph-name="V" unicode="V" horiz-adv-x="647" 
d="M323 -3q-34 0 -46 32l-246 598q-3 9 -3 12q0 13 9 22t22 9q20 0 29 -19l235 -587l236 587q7 19 29 19q13 0 21.5 -9t8.5 -21q0 -7 -2 -13l-246 -598q-12 -32 -47 -32z" />
    <glyph glyph-name="W" unicode="W" horiz-adv-x="867" 
d="M626 -3q-32 0 -40 30l-152 546l-153 -546q-3 -13 -14 -21.5t-25 -8.5q-33 0 -40 30l-172 602q-1 5 -1 11q0 12 9 21t21 9q24 0 29 -23l156 -567l158 566q7 24 32 24q26 0 31 -24l158 -566l156 567q5 23 29 23q13 0 22 -9t9 -22l-2 -10l-171 -602q-8 -30 -40 -30z" />
    <glyph glyph-name="X" unicode="X" horiz-adv-x="645" 
d="M602 44q7 -9 7 -18q0 -12 -8 -20.5t-20 -8.5q-14 0 -23 9l-235 294l-236 -294q-9 -9 -23 -9q-12 0 -20 8.5t-8 20.5q0 9 7 18l246 298l-232 281q-6 10 -6 18q0 12 8.5 20.5t20.5 8.5q14 0 22 -11l221 -274l220 274q8 11 22 11q12 0 20.5 -8.5t8.5 -20.5q0 -6 -7 -18
l-231 -280z" />
    <glyph glyph-name="Y" unicode="Y" horiz-adv-x="618" 
d="M580 642q0 -11 -5 -16l-237 -340v-260q0 -11 -8.5 -20t-20.5 -9t-20.5 9t-8.5 20v259l-237 340q-5 7 -5 17q0 11 8.5 19.5t20.5 8.5q16 0 24 -12l218 -321l218 321q7 12 24 12q12 0 20.5 -8.5t8.5 -19.5z" />
    <glyph glyph-name="Z" unicode="Z" horiz-adv-x="581" 
d="M82 0q-14 0 -24.5 10t-10.5 25q0 10 7 19l398 561h-379q-11 0 -18.5 7.5t-7.5 18.5t7.5 18.5t18.5 7.5h419q14 0 24.5 -10t10.5 -24q0 -11 -7 -20l-398 -561h386q10 0 18 -8t8 -18t-8 -18t-18 -8h-426z" />
    <glyph glyph-name="bracketleft" unicode="[" horiz-adv-x="228" 
d="M63 -190q-11 0 -18.5 7t-7.5 18v817q0 11 7.5 18.5t18.5 7.5h130q9 0 15 -6.5t6 -14.5q0 -9 -6 -15.5t-15 -6.5h-112v-782h112q9 0 15 -6.5t6 -15.5q0 -8 -6 -14.5t-15 -6.5h-130z" />
    <glyph glyph-name="backslash" unicode="\" horiz-adv-x="282" 
d="M253 -23q-14 0 -20 14l-224 668q-2 6 -2 9q0 9 6 15.5t16 6.5q14 0 20 -14l224 -668q2 -6 2 -10q0 -8 -6.5 -14.5t-15.5 -6.5z" />
    <glyph glyph-name="bracketright" unicode="]" horiz-adv-x="228" 
d="M34 -190q-8 0 -14.5 6.5t-6.5 14.5q0 9 6.5 15.5t15.5 6.5h112v782h-112q-9 0 -15.5 6.5t-6.5 15.5q0 8 6.5 14.5t15.5 6.5h130q11 0 18.5 -7.5t7.5 -18.5v-817q0 -11 -7.5 -18t-18.5 -7h-131z" />
    <glyph glyph-name="asciicircum" unicode="^" horiz-adv-x="428" 
d="M376 330q-14 0 -19 12l-143 284l-143 -284q-5 -12 -19 -12q-9 0 -15 6.5t-6 14.5q0 4 2 10l153 292q8 17 28 17q21 0 28 -17l153 -292q2 -6 2 -10q0 -8 -6 -14.5t-15 -6.5z" />
    <glyph glyph-name="underscore" unicode="_" horiz-adv-x="564" 
d="M15 -83q-8 0 -14.5 6.5t-6.5 15.5q0 8 6.5 14.5t14.5 6.5h534q8 0 14.5 -6.5t6.5 -14.5q0 -9 -6.5 -15.5t-14.5 -6.5h-534z" />
    <glyph glyph-name="grave" unicode="`" horiz-adv-x="216" 
d="M171 557l-133 111q-7 5 -7 15q0 8 6 14t14 6q7 0 13 -6l127 -118q5 -5 5 -11t-4.5 -10.5t-10.5 -4.5t-10 4z" />
    <glyph glyph-name="a" unicode="a" horiz-adv-x="521" 
d="M264 495q78 0 127 -39t49 -116v-317q0 -11 -8 -18.5t-18 -7.5t-18 7.5t-8 18.5v36q-61 -71 -164 -71q-67 0 -118 43.5t-51 117.5q0 75 50.5 117.5t118.5 42.5q102 0 164 -69v98q0 52 -37 81.5t-93 29.5q-79 0 -136 -57q-7 -5 -15 -5q-10 0 -16.5 6.5t-6.5 16.5q0 11 8 17
q69 68 172 68zM242 29q95 0 146 66v106q-52 67 -146 67q-59 0 -95.5 -34t-36.5 -86t36.5 -85.5t95.5 -33.5z" />
    <glyph glyph-name="b" unicode="b" 
d="M301 495q97 0 156.5 -69.5t59.5 -184.5t-59.5 -184t-156.5 -69q-51 0 -95.5 25t-72.5 64v-54q0 -11 -7.5 -18.5t-18.5 -7.5t-18.5 7.5t-7.5 18.5v621q0 10 7.5 18t18.5 8t18.5 -8t7.5 -18v-239q63 90 168 90zM292 35q79 0 124 58t45 148q0 91 -45 149t-124 58
q-48 0 -92.5 -26t-66.5 -62v-239q22 -36 66 -61t93 -25z" />
    <glyph glyph-name="c" unicode="c" horiz-adv-x="494" 
d="M53 242q0 108 65 180.5t170 72.5q94 0 156 -65q7 -9 7 -17q0 -11 -6.5 -17.5t-17.5 -6.5q-10 0 -16 7q-48 52 -120 52q-83 0 -132.5 -58.5t-49.5 -147.5t49.5 -148t132.5 -59q72 0 119 53q7 7 17 7q11 0 17.5 -6.5t6.5 -17.5t-7 -18q-63 -65 -156 -65q-105 0 -170 73
t-65 181z" />
    <glyph glyph-name="d" unicode="d" 
d="M464 670q10 0 18 -8t8 -18v-621q0 -11 -8 -18.5t-18 -7.5q-11 0 -19 8t-8 18v53q-27 -39 -72 -63.5t-96 -24.5q-97 0 -156.5 69t-59.5 184q0 114 60 184t156 70q103 0 168 -89v238q0 10 8 18t19 8zM278 35q49 0 93 25t66 61v239q-22 37 -66 62.5t-93 25.5
q-78 0 -123.5 -58.5t-45.5 -148.5t45.5 -148t123.5 -58z" />
    <glyph glyph-name="e" unicode="e" horiz-adv-x="567" 
d="M53 242q0 106 66.5 179.5t166.5 73.5q105 0 166.5 -71t61.5 -170q0 -29 -31 -29h-373q4 -82 55 -137t134 -55q84 0 145 55q4 4 13 4t15 -6t6 -16q0 -9 -8 -17q-74 -65 -175 -65q-106 0 -174 71t-68 183zM285 450q-79 0 -125.5 -56.5t-49.5 -127.5h351q-1 70 -46.5 127
t-129.5 57z" />
    <glyph glyph-name="f" unicode="f" horiz-adv-x="265" 
d="M274 670q17 -5 17 -21q0 -22 -22 -22q-3 0 -14.5 2.5t-20.5 2.5q-84 0 -84 -105v-44h78q9 0 16.5 -6.5t7.5 -16.5t-7.5 -16.5t-16.5 -6.5h-78v-414q0 -11 -8 -18.5t-18 -7.5t-18 7.5t-8 18.5v414h-60q-9 0 -16 6.5t-7 16.5t7 16.5t16 6.5h60v44q0 71 35 110.5t96 39.5
q25 0 45 -7z" />
    <glyph glyph-name="g" unicode="g" horiz-adv-x="570" 
d="M464 486q10 0 18 -8t8 -18v-455q0 -104 -60.5 -152.5t-157.5 -48.5q-58 0 -97.5 12.5t-76.5 46.5q-9 6 -9 19q0 10 7 17t17 7q9 0 15 -6q54 -51 144 -51q72 0 118.5 38.5t46.5 116.5v75q-29 -39 -73.5 -64t-94.5 -25q-97 0 -156.5 68.5t-59.5 183.5q0 114 60 183.5
t156 69.5q103 0 168 -89v54q0 11 8 18.5t19 7.5zM278 37q49 0 93 25.5t66 62.5v235q-22 37 -66 62.5t-93 25.5q-78 0 -123.5 -58t-45.5 -148t45.5 -147.5t123.5 -57.5z" />
    <glyph glyph-name="h" unicode="h" horiz-adv-x="540" 
d="M433 -3q-11 0 -18.5 7.5t-7.5 18.5v306q0 66 -30 92.5t-87 26.5q-45 0 -89 -24t-68 -59v-342q0 -11 -7.5 -18.5t-18.5 -7.5t-18.5 7.5t-7.5 18.5v621q0 10 7.5 18t18.5 8t18.5 -8t7.5 -18v-234q29 34 77 59.5t97 25.5q152 0 152 -155v-317q0 -11 -7.5 -18.5t-18.5 -7.5z
" />
    <glyph glyph-name="i" unicode="i" horiz-adv-x="214" 
d="M107 583q-16 0 -28 12t-12 28t12 28t28 12q17 0 28.5 -11.5t11.5 -28.5t-11.5 -28.5t-28.5 -11.5zM107 -3q-11 0 -18.5 7.5t-7.5 18.5v437q0 10 7.5 18t18.5 8t18.5 -8t7.5 -18v-437q0 -11 -7.5 -18.5t-18.5 -7.5z" />
    <glyph glyph-name="j" unicode="j" horiz-adv-x="214" 
d="M107 583q-16 0 -28 12t-12 28t12 28t28 12q17 0 28.5 -11.5t11.5 -28.5t-11.5 -28.5t-28.5 -11.5zM5 -196q-18 0 -33 4q-20 3 -20 23q0 9 6 16t15 7q1 0 9.5 -2t18.5 -2q80 0 80 88v522q0 10 7.5 18t18.5 8t18.5 -8t7.5 -18v-522q0 -66 -33.5 -100t-94.5 -34z" />
    <glyph glyph-name="k" unicode="k" horiz-adv-x="505" 
d="M458 42q6 -8 6 -18q0 -11 -7.5 -19t-18.5 -8q-14 0 -21 9l-194 224l-90 -85v-122q0 -11 -7.5 -18.5t-18.5 -7.5t-18.5 7.5t-7.5 18.5v621q0 10 7.5 18t18.5 8t18.5 -8t7.5 -18v-436l287 272q8 6 17 6q10 0 17 -7.5t7 -17.5t-8 -18l-190 -179z" />
    <glyph glyph-name="l" unicode="l" horiz-adv-x="214" 
d="M107 -3q-11 0 -18.5 7.5t-7.5 18.5v621q0 10 7.5 18t18.5 8t18.5 -8t7.5 -18v-621q0 -11 -7.5 -18.5t-18.5 -7.5z" />
    <glyph glyph-name="m" unicode="m" horiz-adv-x="789" 
d="M576 495q132 0 132 -147v-325q0 -11 -8 -18.5t-18 -7.5t-18 7.5t-8 18.5v315q0 110 -97 110q-38 0 -77.5 -24t-60.5 -58v-343q0 -11 -8 -18.5t-19 -7.5q-10 0 -18 7.5t-8 18.5v315q0 110 -97 110q-37 0 -76 -24.5t-62 -58.5v-342q0 -11 -7.5 -18.5t-18.5 -7.5t-18.5 7.5
t-7.5 18.5v437q0 10 7.5 18t18.5 8t18.5 -8t7.5 -18v-50q17 28 62.5 56.5t93.5 28.5q53 0 85 -26t42 -65q22 36 67 63.5t93 27.5z" />
    <glyph glyph-name="n" unicode="n" horiz-adv-x="540" 
d="M307 495q152 0 152 -157v-315q0 -11 -7.5 -18.5t-18.5 -7.5t-18.5 7.5t-7.5 18.5v304q0 66 -30 93.5t-87 27.5q-45 0 -89 -24t-68 -59v-342q0 -11 -7.5 -18.5t-18.5 -7.5t-18.5 7.5t-7.5 18.5v437q0 10 7.5 18t18.5 8t18.5 -8t7.5 -18v-50q29 34 77 59.5t97 25.5z" />
    <glyph glyph-name="o" unicode="o" 
d="M285 -12q-104 0 -168 73t-64 181t64 180.5t168 72.5q105 0 169 -72.5t64 -180.5t-64 -181t-169 -73zM285 35q82 0 129.5 60.5t47.5 146.5q0 85 -47.5 145.5t-129.5 60.5q-81 0 -128.5 -60.5t-47.5 -145.5t47.5 -146t128.5 -61z" />
    <glyph glyph-name="p" unicode="p" horiz-adv-x="570" 
d="M301 495q97 0 156.5 -68.5t59.5 -184.5q0 -115 -59.5 -184.5t-156.5 -69.5q-105 0 -168 91v-240q0 -11 -7.5 -18.5t-18.5 -7.5t-18.5 7.5t-7.5 18.5v621q0 10 7.5 18t18.5 8t18.5 -8t7.5 -18v-54q27 40 71.5 64.5t96.5 24.5zM292 35q79 0 124 58t45 149q0 90 -45 148
t-124 58q-49 0 -93 -25t-66 -61v-239q22 -36 66.5 -62t92.5 -26z" />
    <glyph glyph-name="q" unicode="q" horiz-adv-x="570" 
d="M463 486q11 0 19 -7.5t8 -18.5v-621q0 -11 -8 -18.5t-19 -7.5t-18.5 7.5t-7.5 18.5v238q-65 -89 -168 -89q-97 0 -156.5 69.5t-59.5 184.5q0 116 59.5 184.5t156.5 68.5q52 0 96.5 -24.5t71.5 -64.5v54q0 10 7.5 18t18.5 8zM278 35q48 0 92.5 26t66.5 62v239
q-22 36 -66 61t-93 25q-78 0 -123.5 -58t-45.5 -148t45.5 -148.5t123.5 -58.5z" />
    <glyph glyph-name="r" unicode="r" horiz-adv-x="317" 
d="M274 491q12 0 19 -7.5t7 -19.5q0 -10 -8.5 -17.5t-22.5 -8.5q-38 -1 -78 -27t-58 -59v-329q0 -11 -7.5 -18.5t-18.5 -7.5t-18.5 7.5t-7.5 18.5v437q0 10 7.5 18t18.5 8t18.5 -8t7.5 -18v-61q54 72 118 88q13 4 23 4z" />
    <glyph glyph-name="s" unicode="s" horiz-adv-x="459" 
d="M54 50q-9 7 -9 18q0 10 7.5 17.5t17.5 7.5q9 0 15 -6q58 -55 141 -55q60 0 94.5 26.5t34.5 69.5q0 18 -8 32.5t-19 23.5t-31.5 17.5t-35 13t-41.5 11.5q-34 8 -50 12.5t-43.5 16t-41 24t-24.5 34t-11 48.5q0 57 46.5 95.5t125.5 38.5q98 0 159 -58q8 -8 8 -18
q0 -9 -6.5 -16t-16.5 -7q-8 0 -14 6q-51 49 -130 49q-55 0 -88 -24.5t-33 -62.5q0 -16 8 -29t17.5 -20.5t30 -15.5t33 -11.5t40.5 -10.5q34 -9 51 -14t45.5 -17t42.5 -26t25.5 -37t11.5 -53q0 -62 -47 -102t-134 -40q-103 0 -171 62z" />
    <glyph glyph-name="t" unicode="t" horiz-adv-x="275" 
d="M242 50q10 0 16.5 -6.5t6.5 -16.5q0 -13 -12 -20q-27 -19 -67 -19q-95 0 -95 105v344h-59q-10 0 -17 6.5t-7 16.5t7 16.5t17 6.5h59v109q0 11 8 18.5t19 7.5q10 0 18 -8t8 -18v-109h77q10 0 17 -6.5t7 -16.5t-7 -16.5t-17 -6.5h-77v-336q0 -66 50 -66q17 0 30.5 7.5
t17.5 7.5z" />
    <glyph glyph-name="u" unicode="u" horiz-adv-x="540" 
d="M433 486q11 0 18.5 -8t7.5 -18v-437q0 -11 -7.5 -18.5t-18.5 -7.5t-18.5 7.5t-7.5 18.5v48q-32 -36 -78 -59.5t-96 -23.5q-76 0 -114 37.5t-38 117.5v317q0 10 7.5 18t18.5 8t18.5 -8t7.5 -18v-305q0 -67 30 -93.5t87 -26.5q45 0 88.5 23t68.5 57v345q0 10 7.5 18t18.5 8
z" />
    <glyph glyph-name="v" unicode="v" horiz-adv-x="481" 
d="M434 486q12 0 19.5 -8t7.5 -19q0 -7 -3 -13l-179 -423q-10 -26 -38 -26q-29 0 -39 26l-180 424q-2 6 -2 12q0 11 7.5 19t18.5 8q18 0 25 -17l170 -410l169 410q5 17 24 17z" />
    <glyph glyph-name="w" unicode="w" horiz-adv-x="719" 
d="M520 -3q-24 0 -31 23l-129 393l-130 -393q-7 -23 -31 -23t-31 23l-140 430q-2 8 -2 10q0 11 7.5 18.5t18.5 7.5q20 0 26 -19l123 -394l131 393q5 20 28 20q22 0 27 -20l131 -393l124 394q5 19 25 19q11 0 18.5 -8t7.5 -19q0 -5 -2 -11l-140 -428q-7 -23 -31 -23z" />
    <glyph glyph-name="x" unicode="x" horiz-adv-x="479" 
d="M440 38q6 -6 6 -16t-7 -17.5t-18 -7.5q-13 0 -20 9l-162 207l-161 -206q-8 -10 -19 -10t-18 7.5t-7 17.5q0 9 5 16l171 212l-160 195q-6 6 -6 15q0 11 7.5 18.5t17.5 7.5q11 0 19 -9l152 -191l151 191q7 9 19 9q10 0 17.5 -7.5t7.5 -18.5q0 -9 -6 -15l-160 -195z" />
    <glyph glyph-name="y" unicode="y" horiz-adv-x="481" 
d="M50 -170q0 10 7.5 17t17.5 7q1 0 9 -1.5t16 -1.5q49 0 73 59l38 86l-189 451q-2 5 -2 12q0 11 7.5 19t18.5 8q18 0 25 -17l170 -408l169 408q5 17 24 17q12 0 19.5 -8t7.5 -19q0 -4 -3 -13l-234 -552q-37 -90 -124 -90q-9 0 -27 2q-23 3 -23 24z" />
    <glyph glyph-name="z" unicode="z" horiz-adv-x="469" 
d="M82 0q-12 0 -20.5 8.5t-8.5 20.5q0 9 6 17l283 391h-266q-9 0 -16 6.5t-7 15.5q0 10 7 17t16 7h307q12 0 20.5 -8t8.5 -21q0 -7 -6 -17l-286 -391h273q9 0 16 -6.5t7 -16.5t-7 -16.5t-16 -6.5h-311z" />
    <glyph glyph-name="braceleft" unicode="{" horiz-adv-x="249" 
d="M170 -190q-44 0 -78 35t-34 88v220q0 57 -39 69q-16 5 -16 22t16 22q39 12 39 69v219q0 54 34 89t78 35h45q8 0 14.5 -6.5t6.5 -14.5q0 -9 -6.5 -15.5t-14.5 -6.5h-45q-28 0 -47.5 -23t-19.5 -58v-222q0 -68 -46 -88q46 -20 46 -88v-222q0 -34 20 -57.5t47 -23.5h45
q8 0 14.5 -6.5t6.5 -15.5t-6.5 -15t-14.5 -6h-45z" />
    <glyph glyph-name="bar" unicode="|" horiz-adv-x="208" 
d="M104 -23q-8 0 -14.5 6.5t-6.5 14.5v671q0 8 6.5 14.5t14.5 6.5q9 0 15.5 -6.5t6.5 -14.5v-671q0 -8 -6.5 -14.5t-15.5 -6.5z" />
    <glyph glyph-name="braceright" unicode="}" horiz-adv-x="249" 
d="M79 -190h-45q-8 0 -14.5 6t-6.5 15t6.5 15.5t14.5 6.5h45q27 0 47 23.5t20 57.5v222q0 68 46 88q-46 20 -46 88v222q0 35 -19.5 58t-47.5 23h-45q-8 0 -14.5 6.5t-6.5 15.5q0 8 6.5 14.5t14.5 6.5h45q44 0 78 -35t34 -89v-219q0 -57 39 -69q16 -5 16 -22t-16 -22
q-39 -12 -39 -69v-220q0 -53 -34 -88t-78 -35z" />
    <glyph glyph-name="asciitilde" unicode="~" horiz-adv-x="499" 
d="M449 668q10 0 16 -8t5 -16q-24 -216 -132 -216q-24 0 -42 9t-31 28.5t-19 34t-16 41.5q-8 22 -12.5 32.5t-13 24.5t-19 20t-24.5 6q-69 0 -89 -178q-2 -19 -21 -19q-10 0 -16.5 7t-5.5 17q24 214 132 214q24 0 42 -9t31 -28.5t19 -34t16 -41.5q11 -29 17 -42.5t20 -27.5
t32 -14q69 0 89 181q2 19 22 19z" />
    <glyph glyph-name="uni00A0" unicode="&#xa0;" horiz-adv-x="259" 
 />
    <glyph glyph-name="exclamdown" unicode="&#xa1;" horiz-adv-x="219" 
d="M109 492q18 0 31.5 -13t13.5 -30q0 -18 -13.5 -31t-31.5 -13t-30.5 13t-12.5 31q0 17 12.5 30t30.5 13zM88 292q2 20 22 20q8 0 14.5 -6t6.5 -14l12 -445q0 -14 -10 -24t-23 -10q-14 0 -24 10t-10 24z" />
    <glyph glyph-name="cent" unicode="&#xa2;" horiz-adv-x="494" 
d="M427 95q11 0 17.5 -6.5t6.5 -17.5t-7 -18q-59 -61 -142 -65v-69q0 -9 -6.5 -15.5t-16.5 -6.5q-9 0 -15.5 6.5t-6.5 15.5v71q-92 11 -148 82t-56 170t56 169.5t148 81.5v53q0 9 6.5 15.5t15.5 6.5q10 0 16.5 -6.5t6.5 -15.5v-51q84 -4 142 -65q7 -9 7 -17
q0 -11 -6.5 -17.5t-17.5 -6.5q-10 0 -16 7q-45 49 -109 52v-413q65 5 108 53q7 7 17 7zM109 242q0 -79 39.5 -135.5t108.5 -68.5v407q-69 -12 -108.5 -68t-39.5 -135z" />
    <glyph glyph-name="sterling" unicode="&#xa3;" horiz-adv-x="505" 
d="M463 68q11 0 18.5 -7.5t7.5 -18.5q0 -14 -12 -23q-46 -33 -111 -33q-47 0 -95 25q-46 22 -84 22q-41 0 -101 -34q-6 -2 -11 -2q-10 0 -18 7.5t-8 17.5q0 15 14 24q126 66 126 160q0 32 -16 61h-137q-8 0 -14.5 6.5t-6.5 14.5q0 9 6.5 15t14.5 6h107l-18 20
q-25 28 -37 43.5t-25 47t-13 65.5q0 79 62 135.5t154 56.5q112 0 173 -86q6 -6 6 -16q0 -11 -7.5 -19t-18.5 -8q-14 0 -22 11q-19 29 -53 48.5t-74 19.5q-67 0 -113 -38.5t-46 -104.5q0 -30 11.5 -58t22 -42.5t33.5 -40.5q20 -22 28 -34h133q8 0 14.5 -6t6.5 -15
q0 -8 -6.5 -14.5t-14.5 -6.5h-108q10 -27 10 -53q0 -81 -81 -140q25 9 54 9q32 0 82 -23q42 -21 72 -21q47 0 82 26q4 3 13 3z" />
    <glyph glyph-name="currency" unicode="&#xa4;" horiz-adv-x="588" 
d="M477 183l66 -66q7 -7 7 -16q0 -10 -7 -17t-17 -7q-11 0 -16 7l-65 65q-61 -53 -152 -53q-90 0 -151 53l-65 -65q-5 -7 -16 -7q-10 0 -17 7t-7 17q0 9 7 16l66 66q-48 62 -48 150t48 151l-67 67q-7 7 -7 16q0 10 7 17t17 7t17 -7l66 -66q62 51 150 51q89 0 151 -51l66 65
q5 7 16 7q10 0 17 -7t7 -17q0 -9 -7 -16l-66 -66q48 -63 48 -151t-48 -150zM293 145q82 0 129.5 55t47.5 133q0 77 -47.5 132t-129.5 55q-81 0 -129 -55t-48 -132q0 -78 48 -133t129 -55z" />
    <glyph glyph-name="yen" unicode="&#xa5;" horiz-adv-x="618" 
d="M551 670q12 0 20.5 -8.5t8.5 -19.5q0 -12 -6 -16l-208 -299h213q8 0 14.5 -6.5t6.5 -14.5t-6.5 -14.5t-14.5 -6.5h-241v-118h241q8 0 14.5 -6.5t6.5 -14.5t-6.5 -14t-14.5 -6h-241v-100q0 -11 -8.5 -20t-20.5 -9t-20.5 9t-8.5 20v100h-241q-8 0 -14.5 6t-6.5 14t6.5 14.5
t14.5 6.5h241v118h-241q-8 0 -14.5 6.5t-6.5 14.5t6.5 14.5t14.5 6.5h213l-208 298q-6 8 -6 17q0 11 8.5 19.5t20.5 8.5q16 0 24 -12l218 -319l218 319q7 12 24 12z" />
    <glyph glyph-name="brokenbar" unicode="&#xa6;" horiz-adv-x="208" 
d="M104 368q-8 0 -14.5 6.5t-6.5 14.5v280q0 8 6.5 14.5t14.5 6.5q9 0 15.5 -6.5t6.5 -14.5v-280q0 -8 -6.5 -14.5t-15.5 -6.5zM104 -23q-8 0 -14.5 6.5t-6.5 14.5v280q0 8 6.5 14.5t14.5 6.5q9 0 15.5 -6.5t6.5 -14.5v-280q0 -8 -6.5 -14.5t-15.5 -6.5z" />
    <glyph glyph-name="section" unicode="&#xa7;" horiz-adv-x="461" 
d="M310 183q96 -36 96 -121q0 -67 -49.5 -105t-131.5 -38q-104 0 -171 63q-9 9 -9 18q0 10 7 16.5t17 6.5q9 0 15 -6q59 -57 141 -57q57 0 93.5 27t36.5 73q0 18 -8 32.5t-19.5 24t-32 18t-36 13t-42.5 10.5q-34 9 -49 14t-43 17t-40.5 24t-23.5 33t-11 48q0 51 34 83.5
t89 45.5q-60 18 -91.5 46t-31.5 76q0 55 46 93.5t126 38.5q95 0 159 -58q7 -9 7 -17q0 -9 -6 -15.5t-15 -6.5t-14 6q-50 50 -130 50q-54 0 -88 -25.5t-34 -66.5q0 -20 9.5 -34.5t31.5 -24.5t38.5 -15t50.5 -14q32 -7 51 -12.5t46 -17t41.5 -25.5t25.5 -37t11 -53
q0 -87 -96 -128zM229 407q-71 -19 -99.5 -45.5t-28.5 -64.5q0 -22 11.5 -38t33 -26t46 -17.5t55.5 -14.5q3 0 5 -0.5t4.5 -1t4.5 -1.5q93 40 93 109q0 23 -10.5 40t-31 28.5t-38.5 18t-45 13.5z" />
    <glyph glyph-name="dieresis" unicode="&#xa8;" horiz-adv-x="409" 
d="M102 568q-15 0 -26 11t-11 27q0 15 11 26t26 11t26 -11t11 -26q0 -16 -11 -27t-26 -11zM306 568q-15 0 -26 11t-11 27q0 15 11 26t26 11t26.5 -11t11.5 -26q0 -16 -11.5 -27t-26.5 -11z" />
    <glyph glyph-name="copyright" unicode="&#xa9;" horiz-adv-x="778" 
d="M44 333q0 143 101 244t244 101t244 -101t101 -244t-101 -244t-244 -101t-244 101t-101 244zM706 333q0 131 -93 224t-224 93t-224 -93t-93 -224q0 -130 93.5 -223t223.5 -93q131 0 224 93t93 223zM182 335q0 91 60.5 152t147.5 61q84 0 138 -56q4 -6 4 -11q0 -16 -16 -16
q-6 0 -12 6q-45 47 -114 47q-71 0 -123 -51.5t-52 -132.5q0 -79 52 -132t123 -53t114 48q6 6 12 6q7 0 11.5 -5t4.5 -11q0 -7 -4 -11q-57 -57 -138 -57q-87 0 -147.5 62.5t-60.5 153.5z" />
    <glyph glyph-name="ordfeminine" unicode="&#xaa;" horiz-adv-x="375" 
d="M188 648q54 0 88 -26t34 -79v-199q0 -8 -6 -14.5t-15 -6.5t-15 6.5t-6 15.5v18q-42 -45 -110 -45q-45 0 -78.5 28.5t-33.5 76.5t33.5 75.5t78.5 27.5q68 0 110 -44v61q0 33 -25 51.5t-60 18.5q-53 0 -89 -37q-6 -4 -12 -4q-8 0 -13 5t-5 13t7 13q49 45 117 45zM174 348
q61 0 94 42v65q-32 41 -94 41q-37 0 -61 -20.5t-24 -52.5q0 -33 24 -54t61 -21z" />
    <glyph glyph-name="guillemotleft" unicode="&#xab;" horiz-adv-x="402" 
d="M202 60q-9 0 -16 7l-137 154q-9 11 -9 22t9 22l137 151q5 7 16 7q9 0 15 -6.5t6 -14.5q0 -7 -5 -14l-131 -145l131 -147q6 -6 6 -15q0 -8 -6.5 -14.5t-15.5 -6.5zM327 60q-11 0 -16 7l-137 154q-9 11 -9 22t9 22l137 151q5 7 16 7q8 0 14 -6.5t6 -14.5q0 -9 -4 -14
l-131 -145l131 -147q5 -7 5 -15t-6.5 -14.5t-14.5 -6.5z" />
    <glyph glyph-name="logicalnot" unicode="&#xac;" horiz-adv-x="499" 
d="M467 234q0 -9 -6 -15.5t-15 -6.5t-15.5 7t-6.5 15v177h-377q-8 0 -14.5 6.5t-6.5 14.5t6.5 14.5t14.5 6.5h389q31 0 31 -32v-187z" />
    <glyph glyph-name="uni00AD" unicode="&#xad;" horiz-adv-x="300" 
d="M51 218q-10 0 -17 7t-7 17t7 17t17 7h198q10 0 17 -7t7 -17t-7 -17t-17 -7h-198z" />
    <glyph glyph-name="registered" unicode="&#xae;" horiz-adv-x="494" 
d="M35 465q0 88 62 150t150 62q89 0 150.5 -61.5t61.5 -150.5q0 -88 -62 -150t-150 -62t-150 62t-62 150zM432 465q0 77 -54 131t-131 54t-131 -54t-54 -131q0 -76 54.5 -130.5t130.5 -54.5t130.5 54.5t54.5 130.5zM309 345l-61 94h-51v-85q0 -15 -15 -15t-15 15v212
q0 8 6 14t14 6h79q32 0 53.5 -20.5t21.5 -53.5t-19 -50t-38 -22l52 -77q2 -3 2 -8q0 -16 -16 -16q-8 0 -13 6zM310 512q0 19 -13.5 32.5t-30.5 13.5h-69v-90h69q16 0 30 13t14 31z" />
    <glyph glyph-name="macron" unicode="&#xaf;" horiz-adv-x="363" 
d="M50 577q-8 0 -13.5 5.5t-5.5 12.5q0 8 5.5 13.5t13.5 5.5h263q8 0 13.5 -5.5t5.5 -13.5q0 -7 -5.5 -12.5t-13.5 -5.5h-263z" />
    <glyph glyph-name="degree" unicode="&#xb0;" horiz-adv-x="282" 
d="M140 445q-48 0 -81.5 33.5t-33.5 81.5t33.5 82.5t81.5 34.5q49 0 83 -34.5t34 -82.5t-34 -81.5t-83 -33.5zM140 638q-31 0 -53.5 -23t-22.5 -55t22 -54t54 -22t55 22.5t23 53.5q0 32 -23 55t-55 23z" />
    <glyph glyph-name="plusminus" unicode="&#xb1;" horiz-adv-x="496" 
d="M271 323v-199q0 -8 -6.5 -15t-16.5 -7q-9 0 -15.5 7t-6.5 15v199h-179q-8 0 -14.5 6t-6.5 14q0 9 6.5 15t14.5 6h179v192q0 9 6.5 16t15.5 7q10 0 16.5 -7t6.5 -16v-192h179q8 0 14.5 -6t6.5 -14q0 -9 -6.5 -15t-14.5 -6h-179zM47 0q-8 0 -14.5 6t-6.5 15q0 8 6.5 14
t14.5 6h403q8 0 14.5 -6t6.5 -15q0 -8 -6.5 -14t-14.5 -6h-403z" />
    <glyph glyph-name="uni00B2" unicode="&#xb2;" horiz-adv-x="337" 
d="M42 421q-9 0 -16 6.5t-7 16.5q0 11 10 18q118 84 173 140.5t55 107.5q0 40 -27 59.5t-66 19.5q-64 0 -102 -40q-5 -5 -13 -5q-19 0 -19 19q0 7 5 14q50 50 130 50q55 0 95.5 -29t40.5 -86q0 -60 -54.5 -119t-158.5 -134h199q8 0 13.5 -5.5t5.5 -13.5t-5.5 -13.5
t-13.5 -5.5h-245z" />
    <glyph glyph-name="uni00B3" unicode="&#xb3;" horiz-adv-x="364" 
d="M170 414q-86 0 -134 53q-6 6 -6 14t6 13.5t14 5.5q9 0 13 -5q41 -43 106 -43q47 0 73.5 20.5t26.5 57.5q0 40 -30.5 59t-79.5 19h-23q-8 0 -13 5t-5 13t5.5 13.5t12.5 5.5h23q46 0 75 17.5t29 54.5q0 34 -27.5 53t-68.5 19q-58 0 -100 -39q-5 -5 -13 -5t-13 5.5t-5 12.5
q0 9 6 15q54 49 128 49q60 0 98.5 -28.5t38.5 -77.5q0 -41 -27.5 -64.5t-61.5 -28.5q34 -3 65 -28.5t31 -70.5q0 -51 -39 -83t-105 -32z" />
    <glyph glyph-name="acute" unicode="&#xb4;" horiz-adv-x="216" 
d="M45 557q-4 -4 -11 -4q-6 0 -10.5 4.5t-4.5 10.5q0 4 5 11l127 118q6 6 14 6t14 -6t6 -14q0 -10 -7 -15z" />
    <glyph glyph-name="uni00B5" unicode="&#xb5;" horiz-adv-x="554" 
d="M513 35q10 -1 15 -8t5 -15q0 -22 -21 -24h-11q-81 0 -93 87q-30 -38 -73 -62.5t-88 -24.5q-84 0 -114 56v-205q0 -11 -7.5 -18.5t-18.5 -7.5t-18.5 7.5t-7.5 18.5v621q0 10 7.5 18t18.5 8t18.5 -8t7.5 -18v-305q0 -122 118 -122q44 0 87.5 24t68.5 58v345q0 10 7.5 18
t18.5 8t18.5 -8t7.5 -18v-361q0 -63 46 -64h8z" />
    <glyph glyph-name="paragraph" unicode="&#xb6;" horiz-adv-x="449" 
d="M349 -103q-7 0 -13 5.5t-6 13.5v714h-93v-714q0 -8 -5.5 -13.5t-13.5 -5.5t-13.5 5.5t-5.5 13.5v407q-71 0 -121.5 50.5t-50.5 121.5t50.5 121.5t121.5 50.5h137q32 0 32 -31v-720q0 -8 -6 -13.5t-13 -5.5z" />
    <glyph glyph-name="periodcentered" unicode="&#xb7;" horiz-adv-x="219" 
d="M109 201q-18 0 -31 13t-13 31q0 17 13 30t31 13t31.5 -13t13.5 -30q0 -18 -13.5 -31t-31.5 -13z" />
    <glyph glyph-name="cedilla" unicode="&#xb8;" horiz-adv-x="198" 
d="M97 -189q-51 0 -88 23q-9 4 -9 15q0 18 17 18q6 0 11 -3q28 -20 68 -20q28 0 46.5 12t18.5 33q0 39 -41 39q-20 0 -34 -12q-6 -4 -12 -4q-8 0 -13.5 5t-5.5 13q0 3 2 9l26 72h38l-26 -68q15 12 37 12q29 0 47.5 -18t18.5 -48q0 -35 -29 -56.5t-72 -21.5z" />
    <glyph glyph-name="uni00B9" unicode="&#xb9;" horiz-adv-x="211" 
d="M128 418q-9 0 -16 6.5t-7 16.5v321l-52 -56q-5 -6 -14 -6q-8 0 -14 5.5t-6 13.5t6 14l81 83q6 8 19 8q11 0 18.5 -8t7.5 -18v-357q0 -10 -7 -16.5t-16 -6.5z" />
    <glyph glyph-name="ordmasculine" unicode="&#xba;" horiz-adv-x="405" 
d="M44 483q0 70 44 117.5t114 47.5q71 0 115 -47t44 -118q0 -70 -44 -117.5t-115 -47.5q-70 0 -114 47.5t-44 117.5zM317 483q0 54 -31 90.5t-84 36.5q-52 0 -82.5 -36t-30.5 -91t30.5 -91.5t82.5 -36.5q53 0 84 36.5t31 91.5z" />
    <glyph glyph-name="guillemotright" unicode="&#xbb;" horiz-adv-x="402" 
d="M75 60q-9 0 -15.5 6.5t-6.5 14.5q0 7 6 15l131 147l-131 145q-5 7 -5 14q0 8 6 14.5t15 6.5q11 0 16 -7l137 -151q9 -11 9 -22t-9 -22l-137 -154q-7 -7 -16 -7zM199 60q-8 0 -14.5 6.5t-6.5 14.5t5 15l132 147l-131 145q-5 5 -5 14q0 8 6 14.5t14 6.5q11 0 16 -7
l137 -151q9 -11 9 -22t-9 -22l-137 -154q-5 -7 -16 -7z" />
    <glyph glyph-name="onequarter" unicode="&#xbc;" horiz-adv-x="681" 
d="M105 287v321l-52 -56q-5 -6 -14 -6q-8 0 -14 5.5t-6 13.5t6 14l81 83q6 8 19 8q11 0 18.5 -8t7.5 -18v-357q0 -10 -7 -16.5t-16 -6.5t-16 6.5t-7 16.5zM541 650q0 -6 -3 -10l-406 -634q-5 -9 -16 -9q-8 0 -14 5.5t-6 13.5q0 5 4 11l404 634q6 9 17 9q8 0 14 -6t6 -14z
M645 144q8 0 13 -5.5t5 -13.5q0 -7 -5.5 -12.5t-12.5 -5.5h-45v-88q0 -9 -6 -15.5t-16 -6.5t-16 6.5t-6 15.5v88h-176q-9 0 -16 6.5t-7 16.5q0 7 4 13l169 243q10 17 32 17q16 0 27 -11.5t11 -26.5v-221h45zM406 144h150v215z" />
    <glyph glyph-name="onehalf" unicode="&#xbd;" horiz-adv-x="721" 
d="M128 264q-9 0 -16 6.5t-7 16.5v321l-52 -56q-5 -6 -14 -6q-8 0 -14 5.5t-6 13.5t6 14l81 83q6 8 19 8q11 0 18.5 -8t7.5 -18v-357q0 -10 -7 -16.5t-16 -6.5zM132 6q-5 -9 -16 -9q-8 0 -14 5.5t-6 13.5q0 5 4 11l404 634q6 9 17 9q8 0 14 -6t6 -14q0 -6 -3 -10zM426 0
q-9 0 -16 6.5t-7 16.5q0 11 10 18q118 84 173 140.5t55 107.5q0 40 -27 59.5t-66 19.5q-64 0 -102 -40q-5 -5 -13 -5q-19 0 -19 19q0 7 5 14q50 50 130 50q55 0 95.5 -29t40.5 -86q0 -60 -54.5 -119t-158.5 -134h199q8 0 13.5 -5.5t5.5 -13.5t-5.5 -13.5t-13.5 -5.5h-245z
" />
    <glyph glyph-name="threequarters" unicode="&#xbe;" horiz-adv-x="791" 
d="M314 375q0 -51 -39 -83t-105 -32q-86 0 -134 53q-6 6 -6 14t6 13.5t14 5.5q9 0 13 -5q41 -43 106 -43q47 0 73.5 20.5t26.5 57.5q0 40 -30.5 59t-79.5 19h-23q-8 0 -13 5t-5 13t5.5 13.5t12.5 5.5h23q46 0 75 17.5t29 54.5q0 34 -27.5 53t-68.5 19q-58 0 -100 -39
q-5 -5 -13 -5t-13 5.5t-5 12.5q0 9 6 15q54 49 128 49q60 0 98.5 -28.5t38.5 -77.5q0 -41 -27.5 -64.5t-61.5 -28.5q34 -3 65 -28.5t31 -70.5zM651 650q0 -6 -3 -10l-406 -634q-5 -9 -16 -9q-8 0 -14 5.5t-6 13.5q0 5 4 11l404 634q6 9 17 9q8 0 14 -6t6 -14zM755 144
q8 0 13 -5.5t5 -13.5q0 -7 -5.5 -12.5t-12.5 -5.5h-45v-88q0 -9 -6 -15.5t-16 -6.5t-16 6.5t-6 15.5v88h-176q-9 0 -16 6.5t-7 16.5q0 7 4 13l169 243q10 17 32 17q16 0 27 -11.5t11 -26.5v-221h45zM516 144h150v215z" />
    <glyph glyph-name="questiondown" unicode="&#xbf;" horiz-adv-x="393" 
d="M286 448q0 -17 -13.5 -30t-31.5 -13t-31 13t-13 30q0 18 13 31t31 13t31.5 -13t13.5 -31zM292 228q0 -31 -17 -58.5t-33 -41t-50 -37.5q-32 -22 -48.5 -35t-32 -37.5t-15.5 -52.5q0 -46 36 -77t99 -31q99 0 160 72q8 8 18 8q11 0 18.5 -8t7.5 -19t-7 -18
q-77 -87 -201 -87q-87 0 -139 44.5t-52 109.5q0 30 9 54.5t29.5 45.5t35 33t42.5 31q30 21 44.5 32t29 32t14.5 43q0 16 -17 35q-3 4 -3 11q0 10 7 17.5t18 7.5q12 0 19 -10q28 -29 28 -64z" />
    <glyph glyph-name="Agrave" unicode="&#xc0;" horiz-adv-x="647" 
d="M173 835q-7 5 -7 15q0 8 6 14t14 6q7 0 13 -6l127 -118q5 -5 5 -11t-4.5 -10.5t-10.5 -4.5t-10 4zM616 39q3 -9 3 -12q0 -12 -8.5 -21t-21.5 -9q-21 0 -28 19l-59 148h-357l-59 -148q-7 -19 -28 -19q-13 0 -21.5 9t-8.5 21q0 5 3 12l246 600q12 31 46 31q33 0 47 -31z
M166 216h315l-158 395z" />
    <glyph glyph-name="Aacute" unicode="&#xc1;" horiz-adv-x="647" 
d="M330 720q-6 0 -10.5 4.5t-4.5 10.5q0 3 5 11l127 118q6 6 14 6t14 -6t6 -14q0 -10 -7 -15l-133 -111q-4 -4 -11 -4zM616 39q3 -9 3 -12q0 -12 -8.5 -21t-21.5 -9q-21 0 -28 19l-59 148h-357l-59 -148q-7 -19 -28 -19q-13 0 -21.5 9t-8.5 21q0 5 3 12l246 600q12 31 46 31
q33 0 47 -31zM166 216h315l-158 395z" />
    <glyph glyph-name="Acircumflex" unicode="&#xc2;" horiz-adv-x="647" 
d="M226 716q-7 0 -12 5t-5 12q0 3 2 9l80 116q8 15 28 15h9q19 0 29 -15l79 -116q3 -4 3 -9q0 -7 -5.5 -12t-12.5 -5q-6 0 -12 6l-85 114l-86 -114q-6 -6 -12 -6zM616 39q3 -9 3 -12q0 -12 -8.5 -21t-21.5 -9q-21 0 -28 19l-59 148h-357l-59 -148q-7 -19 -28 -19
q-13 0 -21.5 9t-8.5 21q0 5 3 12l246 600q12 31 46 31q33 0 47 -31zM166 216h315l-158 395z" />
    <glyph glyph-name="Atilde" unicode="&#xc3;" horiz-adv-x="647" 
d="M188 724q-7 0 -12.5 6t-4.5 13q4 53 28 85.5t64 32.5q19 0 34 -10t22 -19.5t19 -28.5q10 -16 14.5 -22.5t14.5 -14t21 -7.5q22 0 36.5 20.5t16.5 62.5q2 16 18 16q7 0 12.5 -5.5t4.5 -13.5q-4 -53 -28 -85.5t-63 -32.5q-20 0 -35.5 10t-22 19t-18.5 29q-25 45 -50 45
q-22 0 -36.5 -21t-16.5 -63q-2 -16 -18 -16zM616 39q3 -9 3 -12q0 -12 -8.5 -21t-21.5 -9q-21 0 -28 19l-59 148h-357l-59 -148q-7 -19 -28 -19q-13 0 -21.5 9t-8.5 21q0 5 3 12l246 600q12 31 46 31q33 0 47 -31zM166 216h315l-158 395z" />
    <glyph glyph-name="Adieresis" unicode="&#xc4;" horiz-adv-x="647" 
d="M221 735q-15 0 -26 11t-11 27q0 15 11 26t26 11t26 -11t11 -26q0 -16 -11 -27t-26 -11zM425 735q-15 0 -26 11t-11 27q0 15 11 26t26 11t26.5 -11t11.5 -26q0 -16 -11.5 -27t-26.5 -11zM616 39q3 -9 3 -12q0 -12 -8.5 -21t-21.5 -9q-21 0 -28 19l-59 148h-357l-59 -148
q-7 -19 -28 -19q-13 0 -21.5 9t-8.5 21q0 5 3 12l246 600q12 31 46 31q33 0 47 -31zM166 216h315l-158 395z" />
    <glyph glyph-name="Aring" unicode="&#xc5;" horiz-adv-x="647" 
d="M324 715q-40 0 -68 28t-28 68q0 39 28 67.5t68 28.5q39 0 66.5 -28.5t27.5 -67.5q0 -40 -27.5 -68t-66.5 -28zM324 875q-26 0 -45 -19t-19 -45t19 -45t45 -19t44.5 19t18.5 45t-18.5 45t-44.5 19zM616 39q3 -9 3 -12q0 -12 -8.5 -21t-21.5 -9q-21 0 -28 19l-59 148h-357
l-59 -148q-7 -19 -28 -19q-13 0 -21.5 9t-8.5 21q0 5 3 12l246 600q12 31 46 31q33 0 47 -31zM166 216h315l-158 395z" />
    <glyph glyph-name="AE" unicode="&#xc6;" horiz-adv-x="939" 
d="M856 52q10 0 18 -8t8 -18t-8 -18t-18 -8h-368q-32 0 -32 31v133h-276l-95 -154q-8 -13 -24 -13q-11 0 -19 8t-8 20q0 4 4 14l383 607q13 21 38 21h397q10 0 18 -7.5t8 -18.5t-8 -18.5t-18 -7.5h-342v-247h335q11 0 18.5 -8t7.5 -18t-7.5 -18t-18.5 -8h-335v-264h342z
M212 216h244v396z" />
    <glyph glyph-name="Ccedilla" unicode="&#xc7;" horiz-adv-x="669" 
d="M599 131q12 0 20.5 -8.5t8.5 -19.5q0 -13 -8 -19q-89 -92 -215 -96l-17 -45q15 12 37 12q29 0 47.5 -18t18.5 -48q0 -35 -29 -56.5t-72 -21.5q-51 0 -88 23q-9 4 -9 15q0 18 17 18q6 0 11 -3q28 -20 68 -20q28 0 46.5 12t18.5 33q0 39 -41 39q-21 0 -34 -12q-6 -4 -12 -4
q-8 0 -13.5 5t-5.5 13q0 3 2 9l18 50q-133 9 -221.5 104.5t-88.5 239.5q0 151 97 248t239 97q136 0 226 -95q7 -7 7 -19t-8 -20t-20 -8q-13 0 -21 9q-73 81 -184 81q-118 0 -197 -82t-79 -211q0 -128 79.5 -210.5t196.5 -82.5q113 0 185 82q7 9 20 9z" />
    <glyph glyph-name="Egrave" unicode="&#xc8;" horiz-adv-x="564" 
d="M282 724l-133 111q-7 5 -7 15q0 8 6 14t14 6q7 0 13 -6l127 -118q5 -5 5 -11t-4.5 -10.5t-10.5 -4.5t-10 4zM114 0q-31 0 -31 31v605q0 31 31 31h369q11 0 18.5 -7.5t7.5 -18.5t-7.5 -18.5t-18.5 -7.5h-343v-247h336q10 0 18 -8t8 -18t-8 -18t-18 -8h-336v-264h343
q11 0 18.5 -8t7.5 -18t-7.5 -18t-18.5 -8h-369z" />
    <glyph glyph-name="Eacute" unicode="&#xc9;" horiz-adv-x="564" 
d="M317 724q-4 -4 -11 -4q-6 0 -10.5 4.5t-4.5 10.5q0 3 5 11l127 118q6 6 14 6t14 -6t6 -14q0 -10 -7 -15zM114 0q-31 0 -31 31v605q0 31 31 31h369q11 0 18.5 -7.5t7.5 -18.5t-7.5 -18.5t-18.5 -7.5h-343v-247h336q10 0 18 -8t8 -18t-8 -18t-18 -8h-336v-264h343
q11 0 18.5 -8t7.5 -18t-7.5 -18t-18.5 -8h-369z" />
    <glyph glyph-name="Ecircumflex" unicode="&#xca;" horiz-adv-x="564" 
d="M385 722l-85 114l-86 -114q-6 -6 -12 -6q-7 0 -12 5t-5 12q0 3 2 9l80 116q8 15 28 15h9q19 0 29 -15l79 -116q3 -4 3 -9q0 -7 -5.5 -12t-12.5 -5q-6 0 -12 6zM114 0q-31 0 -31 31v605q0 31 31 31h369q11 0 18.5 -7.5t7.5 -18.5t-7.5 -18.5t-18.5 -7.5h-343v-247h336
q10 0 18 -8t8 -18t-8 -18t-18 -8h-336v-264h343q11 0 18.5 -8t7.5 -18t-7.5 -18t-18.5 -8h-369z" />
    <glyph glyph-name="Edieresis" unicode="&#xcb;" horiz-adv-x="564" 
d="M197 735q-15 0 -26 11t-11 27q0 15 11 26t26 11t26 -11t11 -26q0 -16 -11 -27t-26 -11zM401 735q-15 0 -26 11t-11 27q0 15 11 26t26 11t26.5 -11t11.5 -26q0 -16 -11.5 -27t-26.5 -11zM114 0q-31 0 -31 31v605q0 31 31 31h369q11 0 18.5 -7.5t7.5 -18.5t-7.5 -18.5
t-18.5 -7.5h-343v-247h336q10 0 18 -8t8 -18t-8 -18t-18 -8h-336v-264h343q11 0 18.5 -8t7.5 -18t-7.5 -18t-18.5 -8h-369z" />
    <glyph glyph-name="Igrave" unicode="&#xcc;" horiz-adv-x="223" 
d="M95 724l-133 111q-7 5 -7 15q0 8 6 14t14 6q7 0 13 -6l127 -118q5 -5 5 -11t-4.5 -10.5t-10.5 -4.5t-10 4zM112 -3q-12 0 -20.5 9t-8.5 20v615q0 12 8.5 20.5t20.5 8.5t20 -8.5t8 -20.5v-615q0 -12 -8 -20.5t-20 -8.5z" />
    <glyph glyph-name="Iacute" unicode="&#xcd;" horiz-adv-x="223" 
d="M130 724q-4 -4 -11 -4q-6 0 -10.5 4.5t-4.5 10.5q0 3 5 11l127 118q6 6 14 6t14 -6t6 -14q0 -10 -7 -15zM112 -3q-12 0 -20.5 9t-8.5 20v615q0 12 8.5 20.5t20.5 8.5t20 -8.5t8 -20.5v-615q0 -12 -8 -20.5t-20 -8.5z" />
    <glyph glyph-name="Icircumflex" unicode="&#xce;" horiz-adv-x="223" 
d="M198 722l-85 114l-86 -114q-6 -6 -12 -6q-7 0 -12 5t-5 12q0 3 2 9l80 116q8 15 28 15h9q19 0 29 -15l79 -116q3 -4 3 -9q0 -7 -5.5 -12t-12.5 -5q-6 0 -12 6zM112 -3q-12 0 -20.5 9t-8.5 20v615q0 12 8.5 20.5t20.5 8.5t20 -8.5t8 -20.5v-615q0 -12 -8 -20.5t-20 -8.5z
" />
    <glyph glyph-name="Idieresis" unicode="&#xcf;" horiz-adv-x="223" 
d="M10 735q-15 0 -26 11t-11 27q0 15 11 26t26 11t26 -11t11 -26q0 -16 -11 -27t-26 -11zM214 735q-15 0 -26 11t-11 27q0 15 11 26t26 11t26.5 -11t11.5 -26q0 -16 -11.5 -27t-26.5 -11zM112 -3q-12 0 -20.5 9t-8.5 20v615q0 12 8.5 20.5t20.5 8.5t20 -8.5t8 -20.5v-615
q0 -12 -8 -20.5t-20 -8.5z" />
    <glyph glyph-name="Eth" unicode="&#xd0;" horiz-adv-x="721" 
d="M325 667q152 0 245 -96.5t93 -237.5q0 -142 -93 -237.5t-245 -95.5h-181q-32 0 -32 31v276h-81q-9 0 -16 7t-7 17t7 16.5t16 6.5h81v282q0 31 32 31h181zM325 52q128 0 202.5 80t74.5 201t-74 201.5t-203 80.5h-155v-261h159q9 0 16 -6.5t7 -16.5t-7 -17t-16 -7h-159
v-255h155z" />
    <glyph glyph-name="Ntilde" unicode="&#xd1;" horiz-adv-x="699" 
d="M412 721q-20 0 -35.5 10t-22 19t-18.5 29q-25 45 -50 45q-22 0 -36.5 -21t-16.5 -63q-2 -16 -18 -16q-7 0 -12.5 6t-4.5 13q4 53 28 85.5t64 32.5q19 0 34 -10t22 -19.5t19 -28.5q10 -16 14.5 -22.5t14.5 -14t21 -7.5q22 0 36.5 20.5t16.5 62.5q2 16 18 16q7 0 12.5 -5.5
t4.5 -13.5q-4 -53 -28 -85.5t-63 -32.5zM581 -3q-20 0 -30 15l-411 564v-550q0 -12 -8 -20.5t-20 -8.5t-20.5 9t-8.5 20v606q0 16 10.5 27t26.5 11q20 0 31 -16l408 -555v542q0 12 8 20.5t20 8.5t20.5 -8.5t8.5 -20.5v-608q0 -14 -10.5 -25t-24.5 -11z" />
    <glyph glyph-name="Ograve" unicode="&#xd2;" horiz-adv-x="764" 
d="M365 724l-133 111q-7 5 -7 15q0 8 6 14t14 6q7 0 13 -6l127 -118q5 -5 5 -11t-4.5 -10.5t-10.5 -4.5t-10 4zM58 333q0 149 89.5 247t234.5 98q144 0 234 -98t90 -247t-90 -247t-234 -98q-145 0 -234.5 98t-89.5 247zM646 333q0 129 -72.5 211t-191.5 82q-120 0 -192 -82
t-72 -211q0 -128 72 -210.5t192 -82.5q118 0 191 82.5t73 210.5z" />
    <glyph glyph-name="Oacute" unicode="&#xd3;" horiz-adv-x="764" 
d="M400 724q-4 -4 -11 -4q-6 0 -10.5 4.5t-4.5 10.5q0 3 5 11l127 118q6 6 14 6t14 -6t6 -14q0 -10 -7 -15zM58 333q0 149 89.5 247t234.5 98q144 0 234 -98t90 -247t-90 -247t-234 -98q-145 0 -234.5 98t-89.5 247zM646 333q0 129 -72.5 211t-191.5 82q-120 0 -192 -82
t-72 -211q0 -128 72 -210.5t192 -82.5q118 0 191 82.5t73 210.5z" />
    <glyph glyph-name="Ocircumflex" unicode="&#xd4;" horiz-adv-x="764" 
d="M468 722l-85 114l-86 -114q-6 -6 -12 -6q-7 0 -12 5t-5 12q0 3 2 9l80 116q8 15 28 15h9q19 0 29 -15l79 -116q3 -4 3 -9q0 -7 -5.5 -12t-12.5 -5q-6 0 -12 6zM58 333q0 149 89.5 247t234.5 98q144 0 234 -98t90 -247t-90 -247t-234 -98q-145 0 -234.5 98t-89.5 247z
M646 333q0 129 -72.5 211t-191.5 82q-120 0 -192 -82t-72 -211q0 -128 72 -210.5t192 -82.5q118 0 191 82.5t73 210.5z" />
    <glyph glyph-name="Otilde" unicode="&#xd5;" horiz-adv-x="764" 
d="M444 721q-20 0 -35.5 10t-22 19t-18.5 29q-25 45 -50 45q-22 0 -36.5 -21t-16.5 -63q-2 -16 -18 -16q-7 0 -12.5 6t-4.5 13q4 53 28 85.5t64 32.5q19 0 34 -10t22 -19.5t19 -28.5q10 -16 14.5 -22.5t14.5 -14t21 -7.5q22 0 36.5 20.5t16.5 62.5q2 16 18 16q7 0 12.5 -5.5
t4.5 -13.5q-4 -53 -28 -85.5t-63 -32.5zM58 333q0 149 89.5 247t234.5 98q144 0 234 -98t90 -247t-90 -247t-234 -98q-145 0 -234.5 98t-89.5 247zM646 333q0 129 -72.5 211t-191.5 82q-120 0 -192 -82t-72 -211q0 -128 72 -210.5t192 -82.5q118 0 191 82.5t73 210.5z" />
    <glyph glyph-name="Odieresis" unicode="&#xd6;" horiz-adv-x="764" 
d="M280 735q-15 0 -26 11t-11 27q0 15 11 26t26 11t26 -11t11 -26q0 -16 -11 -27t-26 -11zM484 735q-15 0 -26 11t-11 27q0 15 11 26t26 11t26.5 -11t11.5 -26q0 -16 -11.5 -27t-26.5 -11zM58 333q0 149 89.5 247t234.5 98q144 0 234 -98t90 -247t-90 -247t-234 -98
q-145 0 -234.5 98t-89.5 247zM646 333q0 129 -72.5 211t-191.5 82q-120 0 -192 -82t-72 -211q0 -128 72 -210.5t192 -82.5q118 0 191 82.5t73 210.5z" />
    <glyph glyph-name="multiply" unicode="&#xd7;" horiz-adv-x="496" 
d="M248 305l-139 -140q-7 -5 -14 -5q-9 0 -15 6t-6 14t6 14l139 140l-139 139q-6 8 -6 15q0 8 6 14t15 6t14 -5l139 -140l140 140q5 5 14 5q8 0 14.5 -6t6.5 -14q0 -7 -6 -15l-140 -139l140 -140q6 -6 6 -14t-6.5 -14t-14.5 -6q-9 0 -14 5z" />
    <glyph glyph-name="Oslash" unicode="&#xd8;" horiz-adv-x="764" 
d="M582 612q59 -48 91.5 -120.5t32.5 -158.5q0 -149 -90 -247t-234 -98q-94 0 -168 44l-16 -25q-5 -10 -17 -10q-9 0 -15 6.5t-6 15.5q0 8 3 11l17 26q-58 47 -90 119t-32 158q0 149 89.5 247t234.5 98q92 0 165 -42l15 24q7 10 18 10q9 0 15 -6t6 -15q0 -7 -3 -12zM118 333
q0 -147 91 -230l309 487q-61 36 -136 36q-120 0 -192 -82t-72 -211zM382 40q118 0 191 82.5t73 210.5q0 151 -94 232l-309 -487q62 -38 139 -38z" />
    <glyph glyph-name="Ugrave" unicode="&#xd9;" horiz-adv-x="686" 
d="M326 724l-133 111q-7 5 -7 15q0 8 6 14t14 6q7 0 13 -6l127 -118q5 -5 5 -11t-4.5 -10.5t-10.5 -4.5t-10 4zM83 256v385q0 12 8.5 20.5t20.5 8.5t20.5 -8.5t8.5 -20.5v-384q0 -102 52.5 -159.5t149.5 -57.5q98 0 150 57t52 160v384q0 12 8.5 20.5t20.5 8.5q13 0 21 -8.5
t8 -20.5v-385q0 -126 -66.5 -197t-193.5 -71q-126 0 -193 71.5t-67 196.5z" />
    <glyph glyph-name="Uacute" unicode="&#xda;" horiz-adv-x="686" 
d="M361 724q-4 -4 -11 -4q-6 0 -10.5 4.5t-4.5 10.5q0 3 5 11l127 118q6 6 14 6t14 -6t6 -14q0 -10 -7 -15zM83 256v385q0 12 8.5 20.5t20.5 8.5t20.5 -8.5t8.5 -20.5v-384q0 -102 52.5 -159.5t149.5 -57.5q98 0 150 57t52 160v384q0 12 8.5 20.5t20.5 8.5q13 0 21 -8.5
t8 -20.5v-385q0 -126 -66.5 -197t-193.5 -71q-126 0 -193 71.5t-67 196.5z" />
    <glyph glyph-name="Ucircumflex" unicode="&#xdb;" horiz-adv-x="686" 
d="M429 722l-85 114l-86 -114q-6 -6 -12 -6q-7 0 -12 5t-5 12q0 3 2 9l80 116q8 15 28 15h9q19 0 29 -15l79 -116q3 -4 3 -9q0 -7 -5.5 -12t-12.5 -5q-6 0 -12 6zM83 256v385q0 12 8.5 20.5t20.5 8.5t20.5 -8.5t8.5 -20.5v-384q0 -102 52.5 -159.5t149.5 -57.5q98 0 150 57
t52 160v384q0 12 8.5 20.5t20.5 8.5q13 0 21 -8.5t8 -20.5v-385q0 -126 -66.5 -197t-193.5 -71q-126 0 -193 71.5t-67 196.5z" />
    <glyph glyph-name="Udieresis" unicode="&#xdc;" horiz-adv-x="686" 
d="M241 735q-15 0 -26 11t-11 27q0 15 11 26t26 11t26 -11t11 -26q0 -16 -11 -27t-26 -11zM445 735q-15 0 -26 11t-11 27q0 15 11 26t26 11t26.5 -11t11.5 -26q0 -16 -11.5 -27t-26.5 -11zM83 256v385q0 12 8.5 20.5t20.5 8.5t20.5 -8.5t8.5 -20.5v-384q0 -102 52.5 -159.5
t149.5 -57.5q98 0 150 57t52 160v384q0 12 8.5 20.5t20.5 8.5q13 0 21 -8.5t8 -20.5v-385q0 -126 -66.5 -197t-193.5 -71q-126 0 -193 71.5t-67 196.5z" />
    <glyph glyph-name="Yacute" unicode="&#xdd;" horiz-adv-x="618" 
d="M316 720q-6 0 -10.5 4.5t-4.5 10.5q0 3 5 11l127 118q6 6 14 6t14 -6t6 -14q0 -10 -7 -15l-133 -111q-4 -4 -11 -4zM580 642q0 -11 -5 -16l-237 -340v-260q0 -11 -8.5 -20t-20.5 -9t-20.5 9t-8.5 20v259l-237 340q-5 7 -5 17q0 11 8.5 19.5t20.5 8.5q16 0 24 -12
l218 -321l218 321q7 12 24 12q12 0 20.5 -8.5t8.5 -19.5z" />
    <glyph glyph-name="Thorn" unicode="&#xde;" 
d="M112 -3q-12 0 -20.5 9t-8.5 20v615q0 12 8.5 20.5t20.5 8.5t20 -8.5t8 -20.5v-98h193q93 0 147 -57t54 -139t-54.5 -138t-146.5 -56h-193v-127q0 -12 -8 -20.5t-20 -8.5zM474 347q0 63 -41 103.5t-106 40.5h-187v-286h187q66 0 106.5 39.5t40.5 102.5z" />
    <glyph glyph-name="germandbls" unicode="&#xdf;" horiz-adv-x="578" 
d="M377 -12q-101 0 -167 63q-8 8 -8 18t7 16.5t17 6.5q8 0 16 -5q55 -55 135 -55q62 0 95.5 28.5t33.5 69.5q0 29 -21.5 49t-44.5 28t-68 20q-31 8 -48.5 13t-43 16.5t-39 24t-24 33.5t-10.5 48q0 28 15.5 52t30.5 36t43 30q22 13 34 22t22.5 23.5t10.5 29.5
q0 34 -33.5 54.5t-74.5 20.5q-51 0 -86.5 -33t-35.5 -88v-486q0 -11 -7.5 -18.5t-18.5 -7.5t-18.5 7.5t-7.5 18.5v486q0 72 48 120t126 48q66 0 113.5 -32.5t47.5 -85.5q0 -27 -14 -49t-28.5 -32.5t-41.5 -27.5q-25 -15 -37 -24.5t-24.5 -27t-12.5 -37.5q0 -19 9 -33t31 -24
t36.5 -14.5t49.5 -13.5q32 -7 50 -12.5t45 -17t41.5 -25.5t25.5 -37t11 -53q0 -60 -46 -101.5t-134 -41.5z" />
    <glyph glyph-name="agrave" unicode="&#xe0;" horiz-adv-x="521" 
d="M115 688q-7 5 -7 15q0 8 6 14t14 6q7 0 13 -6l127 -118q5 -5 5 -11t-4.5 -10.5t-10.5 -4.5t-10 4zM264 495q78 0 127 -39t49 -116v-317q0 -11 -8 -18.5t-18 -7.5t-18 7.5t-8 18.5v36q-61 -71 -164 -71q-67 0 -118 43.5t-51 117.5q0 75 50.5 117.5t118.5 42.5
q102 0 164 -69v98q0 52 -37 81.5t-93 29.5q-79 0 -136 -57q-7 -5 -15 -5q-10 0 -16.5 6.5t-6.5 16.5q0 11 8 17q69 68 172 68zM242 29q95 0 146 66v106q-52 67 -146 67q-59 0 -95.5 -34t-36.5 -86t36.5 -85.5t95.5 -33.5z" />
    <glyph glyph-name="aacute" unicode="&#xe1;" horiz-adv-x="521" 
d="M272 573q-6 0 -10.5 4.5t-4.5 10.5q0 4 5 11l127 118q6 6 14 6t14 -6t6 -14q0 -10 -7 -15l-133 -111q-4 -4 -11 -4zM264 495q78 0 127 -39t49 -116v-317q0 -11 -8 -18.5t-18 -7.5t-18 7.5t-8 18.5v36q-61 -71 -164 -71q-67 0 -118 43.5t-51 117.5q0 75 50.5 117.5
t118.5 42.5q102 0 164 -69v98q0 52 -37 81.5t-93 29.5q-79 0 -136 -57q-7 -5 -15 -5q-10 0 -16.5 6.5t-6.5 16.5q0 11 8 17q69 68 172 68zM242 29q95 0 146 66v106q-52 67 -146 67q-59 0 -95.5 -34t-36.5 -86t36.5 -85.5t95.5 -33.5z" />
    <glyph glyph-name="acircumflex" unicode="&#xe2;" horiz-adv-x="521" 
d="M168 569q-7 0 -12 5t-5 12q0 3 2 9l80 116q8 15 28 15h9q19 0 29 -15l79 -116q3 -5 3 -9q0 -7 -5.5 -12t-12.5 -5q-6 0 -12 6l-85 114l-86 -114q-6 -6 -12 -6zM264 495q78 0 127 -39t49 -116v-317q0 -11 -8 -18.5t-18 -7.5t-18 7.5t-8 18.5v36q-61 -71 -164 -71
q-67 0 -118 43.5t-51 117.5q0 75 50.5 117.5t118.5 42.5q102 0 164 -69v98q0 52 -37 81.5t-93 29.5q-79 0 -136 -57q-7 -5 -15 -5q-10 0 -16.5 6.5t-6.5 16.5q0 11 8 17q69 68 172 68zM242 29q95 0 146 66v106q-52 67 -146 67q-59 0 -95.5 -34t-36.5 -86t36.5 -85.5
t95.5 -33.5z" />
    <glyph glyph-name="atilde" unicode="&#xe3;" horiz-adv-x="521" 
d="M130 577q-7 0 -12.5 6t-4.5 13q4 53 28 85.5t64 32.5q19 0 34 -10t22 -19.5t19 -28.5q10 -16 14.5 -22.5t14.5 -14t21 -7.5q22 0 36.5 20.5t16.5 62.5q2 16 18 16q7 0 12.5 -5.5t4.5 -13.5q-4 -53 -28 -85.5t-63 -32.5q-20 0 -35.5 10t-22 19t-18.5 29q-25 45 -50 45
q-22 0 -36.5 -21t-16.5 -63q-2 -16 -18 -16zM264 495q78 0 127 -39t49 -116v-317q0 -11 -8 -18.5t-18 -7.5t-18 7.5t-8 18.5v36q-61 -71 -164 -71q-67 0 -118 43.5t-51 117.5q0 75 50.5 117.5t118.5 42.5q102 0 164 -69v98q0 52 -37 81.5t-93 29.5q-79 0 -136 -57
q-7 -5 -15 -5q-10 0 -16.5 6.5t-6.5 16.5q0 11 8 17q69 68 172 68zM242 29q95 0 146 66v106q-52 67 -146 67q-59 0 -95.5 -34t-36.5 -86t36.5 -85.5t95.5 -33.5z" />
    <glyph glyph-name="adieresis" unicode="&#xe4;" horiz-adv-x="521" 
d="M163 588q-15 0 -26 11t-11 27q0 15 11 26t26 11t26 -11t11 -26q0 -16 -11 -27t-26 -11zM367 588q-15 0 -26 11t-11 27q0 15 11 26t26 11t26.5 -11t11.5 -26q0 -16 -11.5 -27t-26.5 -11zM264 495q78 0 127 -39t49 -116v-317q0 -11 -8 -18.5t-18 -7.5t-18 7.5t-8 18.5v36
q-61 -71 -164 -71q-67 0 -118 43.5t-51 117.5q0 75 50.5 117.5t118.5 42.5q102 0 164 -69v98q0 52 -37 81.5t-93 29.5q-79 0 -136 -57q-7 -5 -15 -5q-10 0 -16.5 6.5t-6.5 16.5q0 11 8 17q69 68 172 68zM242 29q95 0 146 66v106q-52 67 -146 67q-59 0 -95.5 -34t-36.5 -86
t36.5 -85.5t95.5 -33.5z" />
    <glyph glyph-name="aring" unicode="&#xe5;" horiz-adv-x="521" 
d="M266 568q-40 0 -68 28t-28 68q0 39 28 67.5t68 28.5q39 0 66.5 -28.5t27.5 -67.5q0 -40 -27.5 -68t-66.5 -28zM266 728q-26 0 -45 -19t-19 -45t19 -45t45 -19t44.5 19t18.5 45t-18.5 45t-44.5 19zM264 495q78 0 127 -39t49 -116v-317q0 -11 -8 -18.5t-18 -7.5t-18 7.5
t-8 18.5v36q-61 -71 -164 -71q-67 0 -118 43.5t-51 117.5q0 75 50.5 117.5t118.5 42.5q102 0 164 -69v98q0 52 -37 81.5t-93 29.5q-79 0 -136 -57q-7 -5 -15 -5q-10 0 -16.5 6.5t-6.5 16.5q0 11 8 17q69 68 172 68zM242 29q95 0 146 66v106q-52 67 -146 67q-59 0 -95.5 -34
t-36.5 -86t36.5 -85.5t95.5 -33.5z" />
    <glyph glyph-name="ae" unicode="&#xe6;" horiz-adv-x="897" 
d="M465 225q4 -82 51 -137t123 -55t135 54q5 5 13 5q9 0 15.5 -6.5t6.5 -15.5q0 -7 -8 -17q-70 -65 -162 -65q-67 0 -118 33t-78 96q-23 -59 -75.5 -94t-119.5 -35q-84 0 -138.5 43t-54.5 118t52 117.5t127 42.5q111 0 179 -67v96q0 53 -38.5 82t-102.5 29q-88 0 -150 -58
q-7 -5 -14 -5q-10 0 -17 7t-7 17q0 11 9 18q73 67 187 67q63 0 111.5 -27.5t58.5 -87.5q26 51 72.5 83t107.5 32q100 0 157 -71t57 -170q0 -29 -31 -29h-348zM791 266q0 71 -42 127.5t-121 56.5q-73 0 -116.5 -57t-46.5 -127h326zM413 200q-57 68 -159 68q-65 0 -104.5 -33
t-39.5 -84q0 -52 39.5 -85t104.5 -33q69 0 114 45.5t45 105.5v16z" />
    <glyph glyph-name="ccedilla" unicode="&#xe7;" horiz-adv-x="494" 
d="M427 95q11 0 17.5 -6.5t6.5 -17.5t-7 -18q-58 -60 -140 -65l-17 -45q15 12 37 12q29 0 47.5 -18t18.5 -48q0 -35 -29 -56.5t-72 -21.5q-51 0 -88 23q-9 4 -9 15q0 18 17 18q7 0 11 -3q28 -20 68 -20q28 0 46.5 12t18.5 33q0 39 -41 39q-20 0 -34 -12q-6 -4 -12 -4
q-8 0 -13.5 5t-5.5 13q0 3 2 9l18 50q-96 7 -155 79t-59 174q0 108 65 180.5t170 72.5q94 0 156 -65q7 -9 7 -17q0 -11 -6.5 -17.5t-17.5 -6.5q-10 0 -16 7q-48 52 -120 52q-83 0 -132.5 -58.5t-49.5 -147.5t49.5 -148t132.5 -59q72 0 119 53q7 7 17 7z" />
    <glyph glyph-name="egrave" unicode="&#xe8;" horiz-adv-x="567" 
d="M268 577l-133 111q-7 5 -7 15q0 8 6 14t14 6q7 0 13 -6l127 -118q5 -5 5 -11t-4.5 -10.5t-10.5 -4.5t-10 4zM53 242q0 106 66.5 179.5t166.5 73.5q105 0 166.5 -71t61.5 -170q0 -29 -31 -29h-373q4 -82 55 -137t134 -55q84 0 145 55q4 4 13 4t15 -6t6 -16q0 -9 -8 -17
q-74 -65 -175 -65q-106 0 -174 71t-68 183zM285 450q-79 0 -125.5 -56.5t-49.5 -127.5h351q-1 70 -46.5 127t-129.5 57z" />
    <glyph glyph-name="eacute" unicode="&#xe9;" horiz-adv-x="567" 
d="M303 577q-4 -4 -11 -4q-6 0 -10.5 4.5t-4.5 10.5q0 4 5 11l127 118q6 6 14 6t14 -6t6 -14q0 -10 -7 -15zM53 242q0 106 66.5 179.5t166.5 73.5q105 0 166.5 -71t61.5 -170q0 -29 -31 -29h-373q4 -82 55 -137t134 -55q84 0 145 55q4 4 13 4t15 -6t6 -16q0 -9 -8 -17
q-74 -65 -175 -65q-106 0 -174 71t-68 183zM285 450q-79 0 -125.5 -56.5t-49.5 -127.5h351q-1 70 -46.5 127t-129.5 57z" />
    <glyph glyph-name="ecircumflex" unicode="&#xea;" horiz-adv-x="567" 
d="M371 575l-85 114l-86 -114q-6 -6 -12 -6q-7 0 -12 5t-5 12q0 3 2 9l80 116q8 15 28 15h9q19 0 29 -15l79 -116q3 -5 3 -9q0 -7 -5.5 -12t-12.5 -5q-6 0 -12 6zM53 242q0 106 66.5 179.5t166.5 73.5q105 0 166.5 -71t61.5 -170q0 -29 -31 -29h-373q4 -82 55 -137t134 -55
q84 0 145 55q4 4 13 4t15 -6t6 -16q0 -9 -8 -17q-74 -65 -175 -65q-106 0 -174 71t-68 183zM285 450q-79 0 -125.5 -56.5t-49.5 -127.5h351q-1 70 -46.5 127t-129.5 57z" />
    <glyph glyph-name="edieresis" unicode="&#xeb;" horiz-adv-x="567" 
d="M183 588q-15 0 -26 11t-11 27q0 15 11 26t26 11t26 -11t11 -26q0 -16 -11 -27t-26 -11zM387 588q-15 0 -26 11t-11 27q0 15 11 26t26 11t26.5 -11t11.5 -26q0 -16 -11.5 -27t-26.5 -11zM53 242q0 106 66.5 179.5t166.5 73.5q105 0 166.5 -71t61.5 -170q0 -29 -31 -29
h-373q4 -82 55 -137t134 -55q84 0 145 55q4 4 13 4t15 -6t6 -16q0 -9 -8 -17q-74 -65 -175 -65q-106 0 -174 71t-68 183zM285 450q-79 0 -125.5 -56.5t-49.5 -127.5h351q-1 70 -46.5 127t-129.5 57z" />
    <glyph glyph-name="igrave" unicode="&#xec;" horiz-adv-x="214" 
d="M90 577l-133 111q-7 5 -7 15q0 8 6 14t14 6q7 0 13 -6l127 -118q5 -5 5 -11t-4.5 -10.5t-10.5 -4.5t-10 4zM107 -3q-11 0 -18.5 7.5t-7.5 18.5v437q0 10 7.5 18t18.5 8t18.5 -8t7.5 -18v-437q0 -11 -7.5 -18.5t-18.5 -7.5z" />
    <glyph glyph-name="iacute" unicode="&#xed;" horiz-adv-x="214" 
d="M125 577q-4 -4 -11 -4q-6 0 -10.5 4.5t-4.5 10.5q0 4 5 11l127 118q6 6 14 6t14 -6t6 -14q0 -10 -7 -15zM107 -3q-11 0 -18.5 7.5t-7.5 18.5v437q0 10 7.5 18t18.5 8t18.5 -8t7.5 -18v-437q0 -11 -7.5 -18.5t-18.5 -7.5z" />
    <glyph glyph-name="icircumflex" unicode="&#xee;" horiz-adv-x="214" 
d="M193 575l-85 114l-86 -114q-6 -6 -12 -6q-7 0 -12 5t-5 12q0 3 2 9l80 116q8 15 28 15h9q19 0 29 -15l79 -116q3 -5 3 -9q0 -7 -5.5 -12t-12.5 -5q-6 0 -12 6zM107 -3q-11 0 -18.5 7.5t-7.5 18.5v437q0 10 7.5 18t18.5 8t18.5 -8t7.5 -18v-437q0 -11 -7.5 -18.5
t-18.5 -7.5z" />
    <glyph glyph-name="idieresis" unicode="&#xef;" horiz-adv-x="214" 
d="M5 588q-15 0 -26 11t-11 27q0 15 11 26t26 11t26 -11t11 -26q0 -16 -11 -27t-26 -11zM209 588q-15 0 -26 11t-11 27q0 15 11 26t26 11t26.5 -11t11.5 -26q0 -16 -11.5 -27t-26.5 -11zM107 -3q-11 0 -18.5 7.5t-7.5 18.5v437q0 10 7.5 18t18.5 8t18.5 -8t7.5 -18v-437
q0 -11 -7.5 -18.5t-18.5 -7.5z" />
    <glyph glyph-name="eth" unicode="&#xf0;" 
d="M326 597q192 -162 192 -353q0 -111 -64 -183.5t-169 -72.5q-103 0 -167.5 71t-64.5 179q0 107 62 178t161 71q96 0 157 -87q-54 91 -161 173l-127 -57q-3 -1 -8 -1q-18 0 -18 18q0 12 10 17l108 48q-38 26 -59 39q-13 9 -13 23q0 11 8 18.5t19 7.5q8 0 14 -3
q46 -29 88 -61l94 42q3 2 8 2q7 0 12.5 -5.5t5.5 -12.5q0 -14 -11 -17zM285 35q82 0 129.5 59.5t47.5 143.5q0 83 -47.5 142.5t-129.5 59.5q-81 0 -128.5 -59.5t-47.5 -142.5q0 -84 47.5 -143.5t128.5 -59.5z" />
    <glyph glyph-name="ntilde" unicode="&#xf1;" horiz-adv-x="540" 
d="M135 577q-7 0 -12.5 6t-4.5 13q4 53 28 85.5t64 32.5q19 0 34 -10t22 -19.5t19 -28.5q10 -16 14.5 -22.5t14.5 -14t21 -7.5q22 0 36.5 20.5t16.5 62.5q2 16 18 16q7 0 12.5 -5.5t4.5 -13.5q-4 -53 -28 -85.5t-63 -32.5q-20 0 -35.5 10t-22 19t-18.5 29q-25 45 -50 45
q-22 0 -36.5 -21t-16.5 -63q-2 -16 -18 -16zM307 495q152 0 152 -157v-315q0 -11 -7.5 -18.5t-18.5 -7.5t-18.5 7.5t-7.5 18.5v304q0 66 -30 93.5t-87 27.5q-45 0 -89 -24t-68 -59v-342q0 -11 -7.5 -18.5t-18.5 -7.5t-18.5 7.5t-7.5 18.5v437q0 10 7.5 18t18.5 8t18.5 -8
t7.5 -18v-50q29 34 77 59.5t97 25.5z" />
    <glyph glyph-name="ograve" unicode="&#xf2;" 
d="M268 577l-133 111q-7 5 -7 15q0 8 6 14t14 6q7 0 13 -6l127 -118q5 -5 5 -11t-4.5 -10.5t-10.5 -4.5t-10 4zM285 -12q-104 0 -168 73t-64 181t64 180.5t168 72.5q105 0 169 -72.5t64 -180.5t-64 -181t-169 -73zM285 35q82 0 129.5 60.5t47.5 146.5q0 85 -47.5 145.5
t-129.5 60.5q-81 0 -128.5 -60.5t-47.5 -145.5t47.5 -146t128.5 -61z" />
    <glyph glyph-name="oacute" unicode="&#xf3;" 
d="M303 577q-4 -4 -11 -4q-6 0 -10.5 4.5t-4.5 10.5q0 4 5 11l127 118q6 6 14 6t14 -6t6 -14q0 -10 -7 -15zM285 -12q-104 0 -168 73t-64 181t64 180.5t168 72.5q105 0 169 -72.5t64 -180.5t-64 -181t-169 -73zM285 35q82 0 129.5 60.5t47.5 146.5q0 85 -47.5 145.5
t-129.5 60.5q-81 0 -128.5 -60.5t-47.5 -145.5t47.5 -146t128.5 -61z" />
    <glyph glyph-name="ocircumflex" unicode="&#xf4;" 
d="M371 575l-85 114l-86 -114q-6 -6 -12 -6q-7 0 -12 5t-5 12q0 3 2 9l80 116q8 15 28 15h9q19 0 29 -15l79 -116q3 -5 3 -9q0 -7 -5.5 -12t-12.5 -5q-6 0 -12 6zM285 -12q-104 0 -168 73t-64 181t64 180.5t168 72.5q105 0 169 -72.5t64 -180.5t-64 -181t-169 -73zM285 35
q82 0 129.5 60.5t47.5 146.5q0 85 -47.5 145.5t-129.5 60.5q-81 0 -128.5 -60.5t-47.5 -145.5t47.5 -146t128.5 -61z" />
    <glyph glyph-name="otilde" unicode="&#xf5;" 
d="M347 574q-20 0 -35.5 10t-22 19t-18.5 29q-25 45 -50 45q-22 0 -36.5 -21t-16.5 -63q-2 -16 -18 -16q-7 0 -12.5 6t-4.5 13q4 53 28 85.5t64 32.5q19 0 34 -10t22 -19.5t19 -28.5q10 -16 14.5 -22.5t14.5 -14t21 -7.5q22 0 36.5 20.5t16.5 62.5q2 16 18 16q7 0 12.5 -5.5
t4.5 -13.5q-4 -53 -28 -85.5t-63 -32.5zM285 -12q-104 0 -168 73t-64 181t64 180.5t168 72.5q105 0 169 -72.5t64 -180.5t-64 -181t-169 -73zM285 35q82 0 129.5 60.5t47.5 146.5q0 85 -47.5 145.5t-129.5 60.5q-81 0 -128.5 -60.5t-47.5 -145.5t47.5 -146t128.5 -61z" />
    <glyph glyph-name="odieresis" unicode="&#xf6;" 
d="M183 588q-15 0 -26 11t-11 27q0 15 11 26t26 11t26 -11t11 -26q0 -16 -11 -27t-26 -11zM387 588q-15 0 -26 11t-11 27q0 15 11 26t26 11t26.5 -11t11.5 -26q0 -16 -11.5 -27t-26.5 -11zM285 -12q-104 0 -168 73t-64 181t64 180.5t168 72.5q105 0 169 -72.5t64 -180.5
t-64 -181t-169 -73zM285 35q82 0 129.5 60.5t47.5 146.5q0 85 -47.5 145.5t-129.5 60.5q-81 0 -128.5 -60.5t-47.5 -145.5t47.5 -146t128.5 -61z" />
    <glyph glyph-name="divide" unicode="&#xf7;" horiz-adv-x="511" 
d="M256 491q-16 0 -28 12t-12 28t11.5 27.5t28.5 11.5q16 0 27.5 -11.5t11.5 -27.5t-11.5 -28t-27.5 -12zM47 316q-8 0 -14.5 6.5t-6.5 14.5t6.5 14.5t14.5 6.5h418q8 0 14 -6.5t6 -14.5t-6 -14.5t-14 -6.5h-418zM256 99q-16 0 -28 11.5t-12 27.5t12 28t28 12t27.5 -12
t11.5 -28t-11.5 -27.5t-27.5 -11.5z" />
    <glyph glyph-name="oslash" unicode="&#xf8;" 
d="M447 430q71 -71 71 -188q0 -108 -64 -181t-169 -73q-82 0 -140 47l-24 -31q-5 -7 -14 -7q-7 0 -12 5t-5 12t4 11l26 33q-67 73 -67 184q0 108 64 180.5t168 72.5q76 0 136 -42l20 26q5 7 14 7q7 0 12 -5.5t5 -12.5q0 -1 -3 -10zM109 242q0 -83 43 -141l238 311
q-46 36 -105 36q-81 0 -128.5 -60.5t-47.5 -145.5zM285 35q82 0 129.5 60.5t47.5 146.5q0 87 -47 145l-239 -311q44 -41 109 -41z" />
    <glyph glyph-name="ugrave" unicode="&#xf9;" horiz-adv-x="540" 
d="M120 688q-7 5 -7 15q0 8 6 14t14 6q7 0 13 -6l127 -118q5 -5 5 -11t-4.5 -10.5t-10.5 -4.5t-10 4zM433 486q11 0 18.5 -8t7.5 -18v-437q0 -11 -7.5 -18.5t-18.5 -7.5t-18.5 7.5t-7.5 18.5v48q-32 -36 -78 -59.5t-96 -23.5q-76 0 -114 37.5t-38 117.5v317q0 10 7.5 18
t18.5 8t18.5 -8t7.5 -18v-305q0 -67 30 -93.5t87 -26.5q45 0 88.5 23t68.5 57v345q0 10 7.5 18t18.5 8z" />
    <glyph glyph-name="uacute" unicode="&#xfa;" horiz-adv-x="540" 
d="M277 573q-6 0 -10.5 4.5t-4.5 10.5q0 4 5 11l127 118q6 6 14 6t14 -6t6 -14q0 -10 -7 -15l-133 -111q-4 -4 -11 -4zM433 486q11 0 18.5 -8t7.5 -18v-437q0 -11 -7.5 -18.5t-18.5 -7.5t-18.5 7.5t-7.5 18.5v48q-32 -36 -78 -59.5t-96 -23.5q-76 0 -114 37.5t-38 117.5v317
q0 10 7.5 18t18.5 8t18.5 -8t7.5 -18v-305q0 -67 30 -93.5t87 -26.5q45 0 88.5 23t68.5 57v345q0 10 7.5 18t18.5 8z" />
    <glyph glyph-name="ucircumflex" unicode="&#xfb;" horiz-adv-x="540" 
d="M173 569q-7 0 -12 5t-5 12q0 3 2 9l80 116q8 15 28 15h9q19 0 29 -15l79 -116q3 -5 3 -9q0 -7 -5.5 -12t-12.5 -5q-6 0 -12 6l-85 114l-86 -114q-6 -6 -12 -6zM433 486q11 0 18.5 -8t7.5 -18v-437q0 -11 -7.5 -18.5t-18.5 -7.5t-18.5 7.5t-7.5 18.5v48q-32 -36 -78 -59.5
t-96 -23.5q-76 0 -114 37.5t-38 117.5v317q0 10 7.5 18t18.5 8t18.5 -8t7.5 -18v-305q0 -67 30 -93.5t87 -26.5q45 0 88.5 23t68.5 57v345q0 10 7.5 18t18.5 8z" />
    <glyph glyph-name="udieresis" unicode="&#xfc;" horiz-adv-x="540" 
d="M168 588q-15 0 -26 11t-11 27q0 15 11 26t26 11t26 -11t11 -26q0 -16 -11 -27t-26 -11zM372 588q-15 0 -26 11t-11 27q0 15 11 26t26 11t26.5 -11t11.5 -26q0 -16 -11.5 -27t-26.5 -11zM433 486q11 0 18.5 -8t7.5 -18v-437q0 -11 -7.5 -18.5t-18.5 -7.5t-18.5 7.5
t-7.5 18.5v48q-32 -36 -78 -59.5t-96 -23.5q-76 0 -114 37.5t-38 117.5v317q0 10 7.5 18t18.5 8t18.5 -8t7.5 -18v-305q0 -67 30 -93.5t87 -26.5q45 0 88.5 23t68.5 57v345q0 10 7.5 18t18.5 8z" />
    <glyph glyph-name="yacute" unicode="&#xfd;" horiz-adv-x="481" 
d="M259 577q-4 -4 -11 -4q-6 0 -10.5 4.5t-4.5 10.5q0 4 5 11l127 118q6 6 14 6t14 -6t6 -14q0 -10 -7 -15zM50 -170q0 10 7.5 17t17.5 7q1 0 9 -1.5t16 -1.5q49 0 73 59l38 86l-189 451q-2 5 -2 12q0 11 7.5 19t18.5 8q18 0 25 -17l170 -408l169 408q5 17 24 17
q12 0 19.5 -8t7.5 -19q0 -4 -3 -13l-234 -552q-37 -90 -124 -90q-9 0 -27 2q-23 3 -23 24z" />
    <glyph glyph-name="thorn" unicode="&#xfe;" horiz-adv-x="570" 
d="M133 78v-239q0 -11 -7.5 -18.5t-18.5 -7.5t-18.5 7.5t-7.5 18.5v805q0 10 7.5 18t18.5 8t18.5 -8t7.5 -18v-237q27 39 71.5 63.5t96.5 24.5q97 0 156.5 -68.5t59.5 -184.5q0 -115 -59.5 -184.5t-156.5 -69.5q-104 0 -168 90zM461 242q0 90 -45 148t-124 58q-49 0 -93 -25
t-66 -61v-239q22 -36 66.5 -62t92.5 -26q79 0 124 58t45 149z" />
    <glyph glyph-name="ydieresis" unicode="&#xff;" horiz-adv-x="481" 
d="M139 588q-15 0 -26 11t-11 27q0 15 11 26t26 11t26 -11t11 -26q0 -16 -11 -27t-26 -11zM343 588q-15 0 -26 11t-11 27q0 15 11 26t26 11t26.5 -11t11.5 -26q0 -16 -11.5 -27t-26.5 -11zM50 -170q0 10 7.5 17t17.5 7q1 0 9 -1.5t16 -1.5q49 0 73 59l38 86l-189 451
q-2 5 -2 12q0 11 7.5 19t18.5 8q18 0 25 -17l170 -408l169 408q5 17 24 17q12 0 19.5 -8t7.5 -19q0 -4 -3 -13l-234 -552q-37 -90 -124 -90q-9 0 -27 2q-23 3 -23 24z" />
    <glyph glyph-name="Amacron" unicode="&#x100;" horiz-adv-x="647" 
d="M191 744q-8 0 -13.5 5.5t-5.5 12.5q0 8 5.5 13.5t13.5 5.5h263q8 0 13.5 -5.5t5.5 -13.5q0 -7 -5.5 -12.5t-13.5 -5.5h-263zM616 39q3 -9 3 -12q0 -12 -8.5 -21t-21.5 -9q-21 0 -28 19l-59 148h-357l-59 -148q-7 -19 -28 -19q-13 0 -21.5 9t-8.5 21q0 5 3 12l246 600
q12 31 46 31q33 0 47 -31zM166 216h315l-158 395z" />
    <glyph glyph-name="amacron" unicode="&#x101;" horiz-adv-x="521" 
d="M133 597q-8 0 -13.5 5.5t-5.5 12.5q0 8 5.5 13.5t13.5 5.5h263q8 0 13.5 -5.5t5.5 -13.5q0 -7 -5.5 -12.5t-13.5 -5.5h-263zM264 495q78 0 127 -39t49 -116v-317q0 -11 -8 -18.5t-18 -7.5t-18 7.5t-8 18.5v36q-61 -71 -164 -71q-67 0 -118 43.5t-51 117.5
q0 75 50.5 117.5t118.5 42.5q102 0 164 -69v98q0 52 -37 81.5t-93 29.5q-79 0 -136 -57q-7 -5 -15 -5q-10 0 -16.5 6.5t-6.5 16.5q0 11 8 17q69 68 172 68zM242 29q95 0 146 66v106q-52 67 -146 67q-59 0 -95.5 -34t-36.5 -86t36.5 -85.5t95.5 -33.5z" />
    <glyph glyph-name="Abreve" unicode="&#x102;" horiz-adv-x="647" 
d="M323 714q-97 0 -166 75q-4 5 -4 13t5.5 13.5t13.5 5.5q10 0 14 -6q54 -63 137 -63q82 0 137 63q3 6 14 6q8 0 13.5 -5.5t5.5 -13.5q0 -6 -5 -13q-67 -75 -165 -75zM616 39q3 -9 3 -12q0 -12 -8.5 -21t-21.5 -9q-21 0 -28 19l-59 148h-357l-59 -148q-7 -19 -28 -19
q-13 0 -21.5 9t-8.5 21q0 5 3 12l246 600q12 31 46 31q33 0 47 -31zM166 216h315l-158 395z" />
    <glyph glyph-name="abreve" unicode="&#x103;" horiz-adv-x="521" 
d="M265 567q-97 0 -166 75q-4 5 -4 13t5.5 13.5t13.5 5.5q10 0 14 -6q54 -63 137 -63q82 0 137 63q3 6 14 6q8 0 13.5 -6t5.5 -13q0 -6 -5 -13q-67 -75 -165 -75zM264 495q78 0 127 -39t49 -116v-317q0 -11 -8 -18.5t-18 -7.5t-18 7.5t-8 18.5v36q-61 -71 -164 -71
q-67 0 -118 43.5t-51 117.5q0 75 50.5 117.5t118.5 42.5q102 0 164 -69v98q0 52 -37 81.5t-93 29.5q-79 0 -136 -57q-7 -5 -15 -5q-10 0 -16.5 6.5t-6.5 16.5q0 11 8 17q69 68 172 68zM242 29q95 0 146 66v106q-52 67 -146 67q-59 0 -95.5 -34t-36.5 -86t36.5 -85.5
t95.5 -33.5z" />
    <glyph glyph-name="Aogonek" unicode="&#x104;" horiz-adv-x="647" 
d="M605 -139q8 0 13.5 -5.5t5.5 -13.5q0 -12 -11 -18q-24 -10 -48 -10q-38 0 -65 19.5t-27 53.5q0 65 101 114q-10 5 -13 15l-59 148h-357l-59 -148q-7 -19 -28 -19q-13 0 -21.5 9t-8.5 21q0 5 3 12l246 600q12 31 46 31q33 0 47 -31l246 -600q3 -9 3 -12q0 -9 -5 -17
q13 -2 3 -8q-44 -28 -67.5 -52t-23.5 -52q0 -20 12.5 -32t34.5 -12q11 0 20 3.5t12 3.5zM166 216h315l-158 395z" />
    <glyph glyph-name="aogonek" unicode="&#x105;" horiz-adv-x="521" 
d="M440 340v-317q0 -6 -4 -14q7 -2 -3 -7q-44 -28 -67.5 -52t-23.5 -52q0 -20 12.5 -32t34.5 -12q11 0 20 3.5t12 3.5q8 0 13.5 -5.5t5.5 -13.5q0 -12 -11 -18q-24 -10 -48 -10q-38 0 -65 19.5t-27 53.5t30 64.5t78 52.5q-9 8 -9 19v36q-61 -71 -164 -71q-67 0 -118 43.5
t-51 117.5q0 75 50.5 117.5t118.5 42.5q102 0 164 -69v98q0 52 -37 81.5t-93 29.5q-79 0 -136 -57q-7 -5 -15 -5q-10 0 -16.5 6.5t-6.5 16.5q0 11 8 17q69 68 172 68q78 0 127 -39t49 -116zM242 29q95 0 146 66v106q-52 67 -146 67q-59 0 -95.5 -34t-36.5 -86t36.5 -85.5
t95.5 -33.5z" />
    <glyph glyph-name="Cacute" unicode="&#x106;" horiz-adv-x="669" 
d="M412 724q-4 -4 -11 -4q-6 0 -10.5 4.5t-4.5 10.5q0 3 5 11l127 118q6 6 14 6t14 -6t6 -14q0 -10 -7 -15zM394 -12q-142 0 -239 97t-97 248t97 248t239 97q136 0 226 -95q7 -7 7 -19t-8 -20t-20 -8q-13 0 -21 9q-73 81 -184 81q-118 0 -197 -82t-79 -211
q0 -128 79.5 -210.5t196.5 -82.5q113 0 185 82q7 9 20 9q12 0 20.5 -8.5t8.5 -19.5q0 -13 -8 -19q-91 -96 -226 -96z" />
    <glyph glyph-name="cacute" unicode="&#x107;" horiz-adv-x="494" 
d="M304 577q-4 -4 -11 -4q-6 0 -10.5 4.5t-4.5 10.5q0 4 5 11l127 118q6 6 14 6t14 -6t6 -14q0 -10 -7 -15zM53 242q0 108 65 180.5t170 72.5q94 0 156 -65q7 -9 7 -17q0 -11 -6.5 -17.5t-17.5 -6.5q-10 0 -16 7q-48 52 -120 52q-83 0 -132.5 -58.5t-49.5 -147.5t49.5 -148
t132.5 -59q72 0 119 53q7 7 17 7q11 0 17.5 -6.5t6.5 -17.5t-7 -18q-63 -65 -156 -65q-105 0 -170 73t-65 181z" />
    <glyph glyph-name="Ccircumflex" unicode="&#x108;" horiz-adv-x="669" 
d="M480 722l-85 114l-86 -114q-6 -6 -12 -6q-7 0 -12 5t-5 12q0 3 2 9l80 116q8 15 28 15h9q19 0 29 -15l79 -116q3 -4 3 -9q0 -7 -5.5 -12t-12.5 -5q-6 0 -12 6zM394 -12q-142 0 -239 97t-97 248t97 248t239 97q136 0 226 -95q7 -7 7 -19t-8 -20t-20 -8q-13 0 -21 9
q-73 81 -184 81q-118 0 -197 -82t-79 -211q0 -128 79.5 -210.5t196.5 -82.5q113 0 185 82q7 9 20 9q12 0 20.5 -8.5t8.5 -19.5q0 -13 -8 -19q-91 -96 -226 -96z" />
    <glyph glyph-name="ccircumflex" unicode="&#x109;" horiz-adv-x="494" 
d="M372 575l-85 114l-86 -114q-6 -6 -12 -6q-7 0 -12 5t-5 12q0 3 2 9l80 116q8 15 28 15h9q19 0 29 -15l79 -116q3 -5 3 -9q0 -7 -5.5 -12t-12.5 -5q-6 0 -12 6zM53 242q0 108 65 180.5t170 72.5q94 0 156 -65q7 -9 7 -17q0 -11 -6.5 -17.5t-17.5 -6.5q-10 0 -16 7
q-48 52 -120 52q-83 0 -132.5 -58.5t-49.5 -147.5t49.5 -148t132.5 -59q72 0 119 53q7 7 17 7q11 0 17.5 -6.5t6.5 -17.5t-7 -18q-63 -65 -156 -65q-105 0 -170 73t-65 181z" />
    <glyph glyph-name="Cdotaccent" unicode="&#x10a;" horiz-adv-x="669" 
d="M356 770q0 16 11 27t27 11q15 0 26 -11t11 -27t-11 -27t-26 -11q-16 0 -27 11t-11 27zM394 -12q-142 0 -239 97t-97 248t97 248t239 97q136 0 226 -95q7 -7 7 -19t-8 -20t-20 -8q-13 0 -21 9q-73 81 -184 81q-118 0 -197 -82t-79 -211q0 -128 79.5 -210.5t196.5 -82.5
q113 0 185 82q7 9 20 9q12 0 20.5 -8.5t8.5 -19.5q0 -13 -8 -19q-91 -96 -226 -96z" />
    <glyph glyph-name="cdotaccent" unicode="&#x10b;" horiz-adv-x="494" 
d="M248 623q0 16 11 27t27 11q15 0 26 -11t11 -27t-11 -27t-26 -11q-16 0 -27 11t-11 27zM53 242q0 108 65 180.5t170 72.5q94 0 156 -65q7 -9 7 -17q0 -11 -6.5 -17.5t-17.5 -6.5q-10 0 -16 7q-48 52 -120 52q-83 0 -132.5 -58.5t-49.5 -147.5t49.5 -148t132.5 -59
q72 0 119 53q7 7 17 7q11 0 17.5 -6.5t6.5 -17.5t-7 -18q-63 -65 -156 -65q-105 0 -170 73t-65 181z" />
    <glyph glyph-name="Ccaron" unicode="&#x10c;" horiz-adv-x="669" 
d="M489 873q7 0 12.5 -5t5.5 -12q0 -5 -3 -8l-79 -116q-10 -16 -29 -16h-9q-20 0 -28 16l-80 116q-2 4 -2 8q0 7 5 12t12 5q8 0 12 -6l86 -113l85 113q5 6 12 6zM394 -12q-142 0 -239 97t-97 248t97 248t239 97q136 0 226 -95q7 -7 7 -19t-8 -20t-20 -8q-13 0 -21 9
q-73 81 -184 81q-118 0 -197 -82t-79 -211q0 -128 79.5 -210.5t196.5 -82.5q113 0 185 82q7 9 20 9q12 0 20.5 -8.5t8.5 -19.5q0 -13 -8 -19q-91 -96 -226 -96z" />
    <glyph glyph-name="ccaron" unicode="&#x10d;" horiz-adv-x="494" 
d="M381 726q7 0 12.5 -5t5.5 -12q0 -5 -3 -8l-79 -116q-10 -16 -29 -16h-9q-20 0 -28 16l-80 116q-2 4 -2 8q0 7 5 12t12 5q8 0 12 -6l86 -113l85 113q5 6 12 6zM53 242q0 108 65 180.5t170 72.5q94 0 156 -65q7 -9 7 -17q0 -11 -6.5 -17.5t-17.5 -6.5q-10 0 -16 7
q-48 52 -120 52q-83 0 -132.5 -58.5t-49.5 -147.5t49.5 -148t132.5 -59q72 0 119 53q7 7 17 7q11 0 17.5 -6.5t6.5 -17.5t-7 -18q-63 -65 -156 -65q-105 0 -170 73t-65 181z" />
    <glyph glyph-name="Dcaron" unicode="&#x10e;" horiz-adv-x="692" 
d="M444 873q7 0 12.5 -5t5.5 -12q0 -5 -3 -8l-79 -116q-10 -16 -29 -16h-9q-20 0 -28 16l-80 116q-2 4 -2 8q0 7 5 12t12 5t12 -6l86 -113l85 113q4 6 12 6zM114 0q-31 0 -31 31v605q0 31 31 31h182q151 0 244 -96.5t93 -237.5q0 -142 -92.5 -237.5t-244.5 -95.5h-182z
M140 52h156q128 0 202.5 80t74.5 201t-74 201.5t-203 80.5h-156v-563z" />
    <glyph glyph-name="dcaron" unicode="&#x10f;" horiz-adv-x="625" 
d="M582 679q20 0 33.5 -16t13.5 -43q0 -72 -58 -121q-6 -6 -13 -6t-12.5 5t-5.5 12q0 8 9 15q39 38 41 78l-10 -1q-16 0 -26 10.5t-10 27.5q0 16 11 27.5t27 11.5zM464 670q10 0 18 -8t8 -18v-621q0 -11 -8 -18.5t-18 -7.5q-11 0 -19 8t-8 18v53q-27 -39 -72 -63.5
t-96 -24.5q-97 0 -156.5 69t-59.5 184q0 114 60 184t156 70q103 0 168 -89v238q0 10 8 18t19 8zM278 35q49 0 93 25t66 61v239q-22 37 -66 62.5t-93 25.5q-78 0 -123.5 -58.5t-45.5 -148.5t45.5 -148t123.5 -58z" />
    <glyph glyph-name="Dcroat" unicode="&#x110;" horiz-adv-x="721" 
d="M325 667q152 0 245 -96.5t93 -237.5q0 -142 -93 -237.5t-245 -95.5h-181q-32 0 -32 31v276h-81q-9 0 -16 7t-7 17t7 16.5t16 6.5h81v282q0 31 32 31h181zM325 52q128 0 202.5 80t74.5 201t-74 201.5t-203 80.5h-155v-261h159q9 0 16 -6.5t7 -16.5t-7 -17t-16 -7h-159
v-255h155z" />
    <glyph glyph-name="dcroat" unicode="&#x111;" horiz-adv-x="572" 
d="M547 576q7 0 13 -6t6 -13q0 -8 -5.5 -13.5t-13.5 -5.5h-57v-515q0 -11 -8 -18.5t-18 -7.5q-11 0 -19 8t-8 18v53q-27 -39 -72 -63.5t-96 -24.5q-97 0 -156.5 69t-59.5 184q0 114 60 184t156 70q103 0 168 -89v132h-145q-8 0 -13.5 5.5t-5.5 12.5q0 8 5.5 14t13.5 6h145
v68q0 10 8 18t19 8q10 0 18 -8t8 -18v-68h57zM278 35q49 0 93 25t66 61v239q-22 37 -66 62.5t-93 25.5q-78 0 -123.5 -58.5t-45.5 -148.5t45.5 -148t123.5 -58z" />
    <glyph glyph-name="Emacron" unicode="&#x112;" horiz-adv-x="564" 
d="M167 744q-8 0 -13.5 5.5t-5.5 12.5q0 8 5.5 13.5t13.5 5.5h263q8 0 13.5 -5.5t5.5 -13.5q0 -7 -5.5 -12.5t-13.5 -5.5h-263zM114 0q-31 0 -31 31v605q0 31 31 31h369q11 0 18.5 -7.5t7.5 -18.5t-7.5 -18.5t-18.5 -7.5h-343v-247h336q10 0 18 -8t8 -18t-8 -18t-18 -8h-336
v-264h343q11 0 18.5 -8t7.5 -18t-7.5 -18t-18.5 -8h-369z" />
    <glyph glyph-name="emacron" unicode="&#x113;" horiz-adv-x="567" 
d="M153 597q-8 0 -13.5 5.5t-5.5 12.5q0 8 5.5 13.5t13.5 5.5h263q8 0 13.5 -5.5t5.5 -13.5q0 -7 -5.5 -12.5t-13.5 -5.5h-263zM53 242q0 106 66.5 179.5t166.5 73.5q105 0 166.5 -71t61.5 -170q0 -29 -31 -29h-373q4 -82 55 -137t134 -55q84 0 145 55q4 4 13 4t15 -6t6 -16
q0 -9 -8 -17q-74 -65 -175 -65q-106 0 -174 71t-68 183zM285 450q-79 0 -125.5 -56.5t-49.5 -127.5h351q-1 70 -46.5 127t-129.5 57z" />
    <glyph glyph-name="Ebreve" unicode="&#x114;" horiz-adv-x="564" 
d="M299 714q-97 0 -166 75q-4 5 -4 13t5.5 13.5t13.5 5.5q10 0 14 -6q54 -63 137 -63q82 0 137 63q3 6 14 6q8 0 13.5 -5.5t5.5 -13.5q0 -6 -5 -13q-67 -75 -165 -75zM114 0q-31 0 -31 31v605q0 31 31 31h369q11 0 18.5 -7.5t7.5 -18.5t-7.5 -18.5t-18.5 -7.5h-343v-247h336
q10 0 18 -8t8 -18t-8 -18t-18 -8h-336v-264h343q11 0 18.5 -8t7.5 -18t-7.5 -18t-18.5 -8h-369z" />
    <glyph glyph-name="ebreve" unicode="&#x115;" horiz-adv-x="567" 
d="M285 567q-97 0 -166 75q-4 5 -4 13t5.5 13.5t13.5 5.5q10 0 14 -6q54 -63 137 -63q82 0 137 63q3 6 14 6q8 0 13.5 -6t5.5 -13q0 -6 -5 -13q-67 -75 -165 -75zM53 242q0 106 66.5 179.5t166.5 73.5q105 0 166.5 -71t61.5 -170q0 -29 -31 -29h-373q4 -82 55 -137t134 -55
q84 0 145 55q4 4 13 4t15 -6t6 -16q0 -9 -8 -17q-74 -65 -175 -65q-106 0 -174 71t-68 183zM285 450q-79 0 -125.5 -56.5t-49.5 -127.5h351q-1 70 -46.5 127t-129.5 57z" />
    <glyph glyph-name="Edotaccent" unicode="&#x116;" horiz-adv-x="564" 
d="M261 770q0 16 11 27t27 11q15 0 26 -11t11 -27t-11 -27t-26 -11q-16 0 -27 11t-11 27zM114 0q-31 0 -31 31v605q0 31 31 31h369q11 0 18.5 -7.5t7.5 -18.5t-7.5 -18.5t-18.5 -7.5h-343v-247h336q10 0 18 -8t8 -18t-8 -18t-18 -8h-336v-264h343q11 0 18.5 -8t7.5 -18
t-7.5 -18t-18.5 -8h-369z" />
    <glyph glyph-name="edotaccent" unicode="&#x117;" horiz-adv-x="567" 
d="M247 623q0 16 11 27t27 11q15 0 26 -11t11 -27t-11 -27t-26 -11q-16 0 -27 11t-11 27zM53 242q0 106 66.5 179.5t166.5 73.5q105 0 166.5 -71t61.5 -170q0 -29 -31 -29h-373q4 -82 55 -137t134 -55q84 0 145 55q4 4 13 4t15 -6t6 -16q0 -9 -8 -17q-74 -65 -175 -65
q-106 0 -174 71t-68 183zM285 450q-79 0 -125.5 -56.5t-49.5 -127.5h351q-1 70 -46.5 127t-129.5 57z" />
    <glyph glyph-name="Eogonek" unicode="&#x118;" horiz-adv-x="564" 
d="M483 52q11 0 18.5 -8t7.5 -18t-7 -17q4 -3 -3 -7q-44 -28 -67.5 -52t-23.5 -52q0 -20 12.5 -32t34.5 -12q11 0 20 3.5t12 3.5q8 0 13.5 -5.5t5.5 -13.5q0 -12 -11 -18q-24 -10 -48 -10q-38 0 -65 19.5t-27 53.5q0 65 100 113h-341q-31 0 -31 31v605q0 31 31 31h369
q11 0 18.5 -7.5t7.5 -18.5t-7.5 -18.5t-18.5 -7.5h-343v-247h336q10 0 18 -8t8 -18t-8 -18t-18 -8h-336v-264h343z" />
    <glyph glyph-name="eogonek" unicode="&#x119;" horiz-adv-x="567" 
d="M295 -12q-106 0 -174 71t-68 183q0 106 66.5 179.5t166.5 73.5q105 0 166.5 -71t61.5 -170q0 -29 -35 -29h-369q4 -82 55 -137t134 -55q84 0 145 55q4 4 12 4q22 0 22 -22q0 -10 -7 -16q-105 -96 -105 -153q0 -22 13 -34.5t34 -12.5q11 0 23 5q9 2 17 -3.5t8 -15.5
q0 -12 -13 -18q-19 -8 -43 -8q-37 0 -64.5 19.5t-27.5 53.5q0 58 73 116q-42 -15 -91 -15zM285 450q-79 0 -125.5 -56.5t-49.5 -127.5h351q-1 70 -46.5 127t-129.5 57z" />
    <glyph glyph-name="Ecaron" unicode="&#x11a;" horiz-adv-x="564" 
d="M394 873q7 0 12.5 -5t5.5 -12q0 -5 -3 -8l-79 -116q-10 -16 -29 -16h-9q-20 0 -28 16l-80 116q-2 4 -2 8q0 7 5 12t12 5t12 -6l86 -113l85 113q4 6 12 6zM114 0q-31 0 -31 31v605q0 31 31 31h369q11 0 18.5 -7.5t7.5 -18.5t-7.5 -18.5t-18.5 -7.5h-343v-247h336
q10 0 18 -8t8 -18t-8 -18t-18 -8h-336v-264h343q11 0 18.5 -8t7.5 -18t-7.5 -18t-18.5 -8h-369z" />
    <glyph glyph-name="ecaron" unicode="&#x11b;" horiz-adv-x="567" 
d="M380 726q7 0 12.5 -5t5.5 -12q0 -5 -3 -8l-79 -116q-10 -16 -29 -16h-9q-20 0 -28 16l-80 116q-2 4 -2 8q0 7 5 12t12 5t12 -6l86 -113l85 113q4 6 12 6zM53 242q0 106 66.5 179.5t166.5 73.5q105 0 166.5 -71t61.5 -170q0 -29 -31 -29h-373q4 -82 55 -137t134 -55
q84 0 145 55q4 4 13 4t15 -6t6 -16q0 -9 -8 -17q-74 -65 -175 -65q-106 0 -174 71t-68 183zM285 450q-79 0 -125.5 -56.5t-49.5 -127.5h351q-1 70 -46.5 127t-129.5 57z" />
    <glyph glyph-name="Gcircumflex" unicode="&#x11c;" horiz-adv-x="711" 
d="M298 716q-7 0 -12 5t-5 12q0 3 2 9l80 116q8 15 28 15h9q19 0 29 -15l79 -116q3 -4 3 -9q0 -7 -5.5 -12t-12.5 -5q-6 0 -12 6l-85 114l-86 -114q-6 -6 -12 -6zM618 331q31 0 31 -31v-179q0 -25 -16 -38q-96 -96 -237 -96q-143 0 -240.5 97t-97.5 249t97.5 248.5
t240.5 96.5q138 0 233 -93q7 -6 7 -18t-7.5 -19.5t-19.5 -7.5q-11 0 -18 7q-79 79 -195 79q-119 0 -198.5 -82t-79.5 -211q0 -128 79.5 -211t198.5 -83q61 0 112 24t84 57v160h-230q-11 0 -18.5 7.5t-7.5 18.5q0 10 7.5 17.5t18.5 7.5h256z" />
    <glyph glyph-name="gcircumflex" unicode="&#x11d;" horiz-adv-x="570" 
d="M190 569q-7 0 -12 5t-5 12q0 3 2 9l80 116q8 15 28 15h9q19 0 29 -15l79 -116q3 -5 3 -9q0 -7 -5.5 -12t-12.5 -5q-6 0 -12 6l-85 114l-86 -114q-6 -6 -12 -6zM464 486q10 0 18 -8t8 -18v-455q0 -104 -60.5 -152.5t-157.5 -48.5q-58 0 -97.5 12.5t-76.5 46.5q-9 6 -9 19
q0 10 7 17t17 7q9 0 15 -6q54 -51 144 -51q72 0 118.5 38.5t46.5 116.5v75q-29 -39 -73.5 -64t-94.5 -25q-97 0 -156.5 68.5t-59.5 183.5q0 114 60 183.5t156 69.5q103 0 168 -89v54q0 11 8 18.5t19 7.5zM278 37q49 0 93 25.5t66 62.5v235q-22 37 -66 62.5t-93 25.5
q-78 0 -123.5 -58t-45.5 -148t45.5 -147.5t123.5 -57.5z" />
    <glyph glyph-name="Gbreve" unicode="&#x11e;" horiz-adv-x="711" 
d="M395 714q-97 0 -166 75q-4 5 -4 13t5.5 13.5t13.5 5.5q10 0 14 -6q54 -63 137 -63q82 0 137 63q3 6 14 6q8 0 13.5 -5.5t5.5 -13.5q0 -6 -5 -13q-67 -75 -165 -75zM618 331q31 0 31 -31v-179q0 -25 -16 -38q-96 -96 -237 -96q-143 0 -240.5 97t-97.5 249t97.5 248.5
t240.5 96.5q138 0 233 -93q7 -6 7 -18t-7.5 -19.5t-19.5 -7.5q-11 0 -18 7q-79 79 -195 79q-119 0 -198.5 -82t-79.5 -211q0 -128 79.5 -211t198.5 -83q61 0 112 24t84 57v160h-230q-11 0 -18.5 7.5t-7.5 18.5q0 10 7.5 17.5t18.5 7.5h256z" />
    <glyph glyph-name="gbreve" unicode="&#x11f;" horiz-adv-x="570" 
d="M287 567q-97 0 -166 75q-4 5 -4 13t5.5 13.5t13.5 5.5q10 0 14 -6q54 -63 137 -63q82 0 137 63q3 6 14 6q8 0 13.5 -6t5.5 -13q0 -6 -5 -13q-67 -75 -165 -75zM464 486q10 0 18 -8t8 -18v-455q0 -104 -60.5 -152.5t-157.5 -48.5q-58 0 -97.5 12.5t-76.5 46.5q-9 6 -9 19
q0 10 7 17t17 7q9 0 15 -6q54 -51 144 -51q72 0 118.5 38.5t46.5 116.5v75q-29 -39 -73.5 -64t-94.5 -25q-97 0 -156.5 68.5t-59.5 183.5q0 114 60 183.5t156 69.5q103 0 168 -89v54q0 11 8 18.5t19 7.5zM278 37q49 0 93 25.5t66 62.5v235q-22 37 -66 62.5t-93 25.5
q-78 0 -123.5 -58t-45.5 -148t45.5 -147.5t123.5 -57.5z" />
    <glyph glyph-name="Gdotaccent" unicode="&#x120;" horiz-adv-x="711" 
d="M395 732q-16 0 -27 11t-11 27t11 27t27 11q15 0 26 -11t11 -27t-11 -27t-26 -11zM618 331q31 0 31 -31v-179q0 -25 -16 -38q-96 -96 -237 -96q-143 0 -240.5 97t-97.5 249t97.5 248.5t240.5 96.5q138 0 233 -93q7 -6 7 -18t-7.5 -19.5t-19.5 -7.5q-11 0 -18 7
q-79 79 -195 79q-119 0 -198.5 -82t-79.5 -211q0 -128 79.5 -211t198.5 -83q61 0 112 24t84 57v160h-230q-11 0 -18.5 7.5t-7.5 18.5q0 10 7.5 17.5t18.5 7.5h256z" />
    <glyph glyph-name="gdotaccent" unicode="&#x121;" horiz-adv-x="570" 
d="M287 585q-16 0 -27 11t-11 27t11 27t27 11q15 0 26 -11t11 -27t-11 -27t-26 -11zM464 486q10 0 18 -8t8 -18v-455q0 -104 -60.5 -152.5t-157.5 -48.5q-58 0 -97.5 12.5t-76.5 46.5q-9 6 -9 19q0 10 7 17t17 7q9 0 15 -6q54 -51 144 -51q72 0 118.5 38.5t46.5 116.5v75
q-29 -39 -73.5 -64t-94.5 -25q-97 0 -156.5 68.5t-59.5 183.5q0 114 60 183.5t156 69.5q103 0 168 -89v54q0 11 8 18.5t19 7.5zM278 37q49 0 93 25.5t66 62.5v235q-22 37 -66 62.5t-93 25.5q-78 0 -123.5 -58t-45.5 -148t45.5 -147.5t123.5 -57.5z" />
    <glyph glyph-name="uni0122" unicode="&#x122;" horiz-adv-x="711" 
d="M618 331q31 0 31 -31v-179q0 -25 -16 -38q-96 -96 -237 -96q-143 0 -240.5 97t-97.5 249t97.5 248.5t240.5 96.5q138 0 233 -93q7 -6 7 -18t-7.5 -19.5t-19.5 -7.5q-11 0 -18 7q-79 79 -195 79q-119 0 -198.5 -82t-79.5 -211q0 -128 79.5 -211t198.5 -83q61 0 112 24
t84 57v160h-230q-11 0 -18.5 7.5t-7.5 18.5q0 10 7.5 17.5t18.5 7.5h256zM396 -78q20 0 33.5 -16t13.5 -43q0 -72 -58 -121q-6 -6 -13 -6t-12.5 5t-5.5 12q0 8 9 15q39 38 41 78l-10 -1q-16 0 -26 10.5t-10 27.5q0 16 11 27.5t27 11.5z" />
    <glyph glyph-name="uni0123" unicode="&#x123;" horiz-adv-x="570" 
d="M282 562q-19 0 -32.5 16t-13.5 44q0 70 58 121q8 6 13 6q7 0 12.5 -5.5t5.5 -12.5q0 -8 -9 -15q-39 -36 -41 -78q0 2 10 2q16 0 26 -11t10 -28q0 -16 -11 -27.5t-28 -11.5zM464 486q10 0 18 -8t8 -18v-455q0 -104 -60.5 -152.5t-157.5 -48.5q-58 0 -97.5 12.5t-76.5 46.5
q-9 6 -9 19q0 10 7 17t17 7q9 0 15 -6q54 -51 144 -51q72 0 118.5 38.5t46.5 116.5v75q-29 -39 -73.5 -64t-94.5 -25q-97 0 -156.5 68.5t-59.5 183.5q0 114 60 183.5t156 69.5q103 0 168 -89v54q0 11 8 18.5t19 7.5zM278 37q49 0 93 25.5t66 62.5v235q-22 37 -66 62.5
t-93 25.5q-78 0 -123.5 -58t-45.5 -148t45.5 -147.5t123.5 -57.5z" />
    <glyph glyph-name="Hcircumflex" unicode="&#x124;" horiz-adv-x="703" 
d="M438 722l-85 114l-86 -114q-6 -6 -12 -6q-7 0 -12 5t-5 12q0 3 2 9l80 116q8 15 28 15h9q19 0 29 -15l79 -116q3 -4 3 -9q0 -7 -5.5 -12t-12.5 -5q-6 0 -12 6zM592 -3q-12 0 -20.5 9t-8.5 20v291h-423v-291q0 -12 -8 -20.5t-20 -8.5t-20.5 9t-8.5 20v615q0 12 8.5 20.5
t20.5 8.5t20 -8.5t8 -20.5v-272h423v272q0 12 8.5 20.5t20.5 8.5t20.5 -8.5t8.5 -20.5v-615q0 -11 -8.5 -20t-20.5 -9z" />
    <glyph glyph-name="hcircumflex" unicode="&#x125;" horiz-adv-x="540" 
d="M356 722l-85 114l-86 -114q-6 -6 -12 -6q-7 0 -12 5t-5 12q0 3 2 9l80 116q8 15 28 15h9q19 0 29 -15l79 -116q3 -4 3 -9q0 -7 -5.5 -12t-12.5 -5q-6 0 -12 6zM433 -3q-11 0 -18.5 7.5t-7.5 18.5v306q0 66 -30 92.5t-87 26.5q-45 0 -89 -24t-68 -59v-342
q0 -11 -7.5 -18.5t-18.5 -7.5t-18.5 7.5t-7.5 18.5v621q0 10 7.5 18t18.5 8t18.5 -8t7.5 -18v-234q29 34 77 59.5t97 25.5q152 0 152 -155v-317q0 -11 -7.5 -18.5t-18.5 -7.5z" />
    <glyph glyph-name="Hbar" unicode="&#x126;" horiz-adv-x="724" 
d="M698 537q8 0 13.5 -5.5t5.5 -12.5q0 -8 -5.5 -13.5t-13.5 -5.5h-66v-474q0 -11 -8.5 -20t-20.5 -9t-20.5 9t-8.5 20v291h-422v-291q0 -11 -8.5 -20t-20.5 -9t-20.5 9t-8.5 20v474h-67q-8 0 -13.5 5.5t-5.5 13.5q0 7 5.5 12.5t13.5 5.5h67v104q0 12 8.5 20.5t20.5 8.5
t20.5 -8.5t8.5 -20.5v-104h422v104q0 12 8.5 20.5t20.5 8.5t20.5 -8.5t8.5 -20.5v-104h66zM574 369v131h-422v-131h422z" />
    <glyph glyph-name="hbar" unicode="&#x127;" horiz-adv-x="541" 
d="M308 495q152 0 152 -155v-317q0 -11 -8 -18.5t-18 -7.5t-18 7.5t-8 18.5v306q0 66 -30 92.5t-87 26.5q-45 0 -89 -24t-68 -59v-342q0 -11 -8 -18.5t-18 -7.5t-18 7.5t-8 18.5v515h-56q-8 0 -13.5 5.5t-5.5 13.5q0 7 5.5 13t13.5 6h56v68q0 10 8 18t18 8t18 -8t8 -18v-68
h146q8 0 13.5 -6t5.5 -13q0 -8 -5.5 -13.5t-13.5 -5.5h-146v-128q29 34 77 59.5t97 25.5z" />
    <glyph glyph-name="Itilde" unicode="&#x128;" horiz-adv-x="223" 
d="M174 721q-20 0 -35.5 10t-22 19t-18.5 29q-25 45 -50 45q-22 0 -36.5 -21t-16.5 -63q-2 -16 -18 -16q-7 0 -12.5 6t-4.5 13q4 53 28 85.5t64 32.5q19 0 34 -10t22 -19.5t19 -28.5q10 -16 14.5 -22.5t14.5 -14t21 -7.5q22 0 36.5 20.5t16.5 62.5q2 16 18 16q7 0 12.5 -5.5
t4.5 -13.5q-4 -53 -28 -85.5t-63 -32.5zM112 -3q-12 0 -20.5 9t-8.5 20v615q0 12 8.5 20.5t20.5 8.5t20 -8.5t8 -20.5v-615q0 -12 -8 -20.5t-20 -8.5z" />
    <glyph glyph-name="itilde" unicode="&#x129;" horiz-adv-x="214" 
d="M169 574q-20 0 -35.5 10t-22 19t-18.5 29q-25 45 -50 45q-22 0 -36.5 -21t-16.5 -63q-2 -16 -18 -16q-7 0 -12.5 6t-4.5 13q4 53 28 85.5t64 32.5q19 0 34 -10t22 -19.5t19 -28.5q10 -16 14.5 -22.5t14.5 -14t21 -7.5q22 0 36.5 20.5t16.5 62.5q2 16 18 16q7 0 12.5 -5.5
t4.5 -13.5q-4 -53 -28 -85.5t-63 -32.5zM107 -3q-11 0 -18.5 7.5t-7.5 18.5v437q0 10 7.5 18t18.5 8t18.5 -8t7.5 -18v-437q0 -11 -7.5 -18.5t-18.5 -7.5z" />
    <glyph glyph-name="Imacron" unicode="&#x12a;" horiz-adv-x="223" 
d="M-20 744q-8 0 -13.5 5.5t-5.5 12.5q0 8 5.5 13.5t13.5 5.5h263q8 0 13.5 -5.5t5.5 -13.5q0 -7 -5.5 -12.5t-13.5 -5.5h-263zM112 -3q-12 0 -20.5 9t-8.5 20v615q0 12 8.5 20.5t20.5 8.5t20 -8.5t8 -20.5v-615q0 -12 -8 -20.5t-20 -8.5z" />
    <glyph glyph-name="imacron" unicode="&#x12b;" horiz-adv-x="214" 
d="M-25 597q-8 0 -13.5 5.5t-5.5 12.5q0 8 5.5 13.5t13.5 5.5h263q8 0 13.5 -5.5t5.5 -13.5q0 -7 -5.5 -12.5t-13.5 -5.5h-263zM107 -3q-11 0 -18.5 7.5t-7.5 18.5v437q0 10 7.5 18t18.5 8t18.5 -8t7.5 -18v-437q0 -11 -7.5 -18.5t-18.5 -7.5z" />
    <glyph glyph-name="Ibreve" unicode="&#x12c;" horiz-adv-x="223" 
d="M112 714q-97 0 -166 75q-4 5 -4 13t5.5 13.5t13.5 5.5q10 0 14 -6q54 -63 137 -63q82 0 137 63q3 6 14 6q7 0 13 -5.5t6 -13.5q0 -6 -5 -13q-67 -75 -165 -75zM112 -3q-12 0 -20.5 9t-8.5 20v615q0 12 8.5 20.5t20.5 8.5t20 -8.5t8 -20.5v-615q0 -12 -8 -20.5t-20 -8.5z
" />
    <glyph glyph-name="ibreve" unicode="&#x12d;" horiz-adv-x="214" 
d="M107 567q-97 0 -166 75q-4 5 -4 13t5.5 13.5t13.5 5.5q10 0 14 -6q54 -63 137 -63q82 0 137 63q3 6 14 6q8 0 13.5 -6t5.5 -13q0 -6 -5 -13q-67 -75 -165 -75zM107 -3q-11 0 -18.5 7.5t-7.5 18.5v437q0 10 7.5 18t18.5 8t18.5 -8t7.5 -18v-437q0 -11 -7.5 -18.5
t-18.5 -7.5z" />
    <glyph glyph-name="Iogonek" unicode="&#x12e;" horiz-adv-x="223" 
d="M140 641v-615q0 -9 -5 -17q6 -2 -2 -7q-44 -28 -67.5 -52t-23.5 -52q0 -20 12.5 -32t34.5 -12q11 0 20 3.5t12 3.5q8 0 13.5 -5.5t5.5 -13.5q0 -12 -11 -18q-24 -10 -48 -10q-38 0 -65 19.5t-27 53.5q0 33 29.5 63.5t76.5 52.5q-12 9 -12 23v615q0 12 8.5 20.5t20.5 8.5
t20 -8.5t8 -20.5z" />
    <glyph glyph-name="iogonek" unicode="&#x12f;" horiz-adv-x="214" 
d="M107 663q17 0 28.5 -11.5t11.5 -28.5t-11.5 -28.5t-28.5 -11.5q-16 0 -28 12t-12 28t12 28t28 12zM107 486q11 0 18.5 -8t7.5 -18v-437q0 -6 -4 -14q7 -2 -3 -7q-44 -28 -67.5 -52t-23.5 -52q0 -20 12.5 -32t34.5 -12q11 0 20 3.5t12 3.5q8 0 13.5 -5.5t5.5 -13.5
q0 -12 -11 -18q-24 -10 -48 -10q-38 0 -65 19.5t-27 53.5t30 64.5t78 52.5q-9 7 -9 19v437q0 10 7.5 18t18.5 8z" />
    <glyph glyph-name="Idotaccent" unicode="&#x130;" horiz-adv-x="223" 
d="M74 770q0 16 11 27t27 11q15 0 26 -11t11 -27t-11 -27t-26 -11q-16 0 -27 11t-11 27zM112 -3q-12 0 -20.5 9t-8.5 20v615q0 12 8.5 20.5t20.5 8.5t20 -8.5t8 -20.5v-615q0 -12 -8 -20.5t-20 -8.5z" />
    <glyph glyph-name="dotlessi" unicode="&#x131;" horiz-adv-x="214" 
d="M107 -3q-11 0 -18.5 7.5t-7.5 18.5v437q0 10 7.5 18t18.5 8t18.5 -8t7.5 -18v-437q0 -11 -7.5 -18.5t-18.5 -7.5z" />
    <glyph glyph-name="IJ" unicode="&#x132;" horiz-adv-x="693" 
d="M112 -3q-12 0 -20.5 9t-8.5 20v615q0 12 8.5 20.5t20.5 8.5t20 -8.5t8 -20.5v-615q0 -12 -8 -20.5t-20 -8.5zM253 53q-10 8 -10 20t8.5 20.5t19.5 8.5t19 -8q49 -54 115 -54q67 0 107 42.5t40 110.5v448q0 12 8.5 20.5t20.5 8.5t20.5 -8.5t8.5 -20.5v-448
q0 -100 -57 -152.5t-145 -52.5q-94 0 -155 65z" />
    <glyph glyph-name="ij" unicode="&#x133;" horiz-adv-x="428" 
d="M107 583q-16 0 -28 12t-12 28t12 28t28 12q17 0 28.5 -11.5t11.5 -28.5t-11.5 -28.5t-28.5 -11.5zM321 583q-16 0 -28 12t-12 28t12 28t28 12q17 0 28.5 -11.5t11.5 -28.5t-11.5 -28.5t-28.5 -11.5zM107 -3q-11 0 -18.5 7.5t-7.5 18.5v437q0 10 7.5 18t18.5 8t18.5 -8
t7.5 -18v-437q0 -11 -7.5 -18.5t-18.5 -7.5zM219 -196q-18 0 -33 4q-20 3 -20 23q0 9 6 16t15 7q1 0 9.5 -2t18.5 -2q80 0 80 88v522q0 10 7.5 18t18.5 8t18.5 -8t7.5 -18v-522q0 -66 -33.5 -100t-94.5 -34z" />
    <glyph glyph-name="Jcircumflex" unicode="&#x134;" horiz-adv-x="470" 
d="M445 739l-85 114l-86 -114q-6 -6 -12 -6q-7 0 -12 5t-5 12q0 3 2 9l80 116q8 15 28 15h9q19 0 29 -15l79 -116q3 -5 3 -9q0 -7 -5.5 -12t-12.5 -5q-6 0 -12 6zM30 53q-10 8 -10 20t8.5 20.5t19.5 8.5t19 -8q49 -54 115 -54q67 0 107 42.5t40 110.5v448q0 12 8.5 20.5
t20.5 8.5t20.5 -8.5t8.5 -20.5v-448q0 -100 -57 -152.5t-145 -52.5q-94 0 -155 65z" />
    <glyph glyph-name="jcircumflex" unicode="&#x135;" horiz-adv-x="214" 
d="M193 575l-85 114l-86 -114q-6 -6 -12 -6q-7 0 -12 5t-5 12q0 3 2 9l80 116q8 15 28 15h9q19 0 29 -15l79 -116q3 -5 3 -9q0 -7 -5.5 -12t-12.5 -5q-6 0 -12 6zM5 -196q-18 0 -33 4q-20 3 -20 23q0 9 6 16t15 7q1 0 9.5 -2t18.5 -2q80 0 80 88v522q0 10 7.5 18t18.5 8
t18.5 -8t7.5 -18v-522q0 -66 -33.5 -100t-94.5 -34z" />
    <glyph glyph-name="uni0136" unicode="&#x136;" horiz-adv-x="586" 
d="M533 44q8 -10 8 -19q0 -11 -8 -19.5t-19 -8.5q-13 0 -21 8l-279 307l-74 -80v-206q0 -12 -8 -20.5t-20 -8.5t-20.5 9t-8.5 20v615q0 12 8.5 20.5t20.5 8.5t20 -8.5t8 -20.5v-340l326 360q7 9 20 9q11 0 19.5 -8t8.5 -19t-8 -19l-255 -276zM307 -78q20 0 33.5 -16
t13.5 -43q0 -72 -58 -121q-6 -6 -13 -6t-12.5 5t-5.5 12q0 8 9 15q39 38 41 78l-10 -1q-16 0 -26 10.5t-10 27.5q0 16 11 27.5t27 11.5z" />
    <glyph glyph-name="uni0137" unicode="&#x137;" horiz-adv-x="505" 
d="M458 42q6 -8 6 -18q0 -11 -7.5 -19t-18.5 -8q-14 0 -21 9l-194 224l-90 -85v-122q0 -11 -7.5 -18.5t-18.5 -7.5t-18.5 7.5t-7.5 18.5v621q0 10 7.5 18t18.5 8t18.5 -8t7.5 -18v-436l287 272q8 6 17 6q10 0 17 -7.5t7 -17.5t-8 -18l-190 -179zM257 -78q20 0 33.5 -16
t13.5 -43q0 -72 -58 -121q-6 -6 -13 -6t-12.5 5t-5.5 12q0 8 9 15q39 38 41 78l-10 -1q-16 0 -26 10.5t-10 27.5q0 16 11 27.5t27 11.5z" />
    <glyph glyph-name="kgreenlandic" unicode="&#x138;" horiz-adv-x="505" 
d="M458 42q6 -8 6 -18q0 -11 -7.5 -19t-18.5 -8q-14 0 -21 9l-194 224l-90 -85v-122q0 -11 -7.5 -18.5t-18.5 -7.5t-18.5 7.5t-7.5 18.5v437q0 10 7.5 18t18.5 8t18.5 -8t7.5 -18v-252l287 272q8 6 17 6q10 0 17 -7.5t7 -17.5t-8 -18l-190 -179z" />
    <glyph glyph-name="Lacute" unicode="&#x139;" horiz-adv-x="504" 
d="M130 724q-4 -4 -11 -4q-6 0 -10.5 4.5t-4.5 10.5q0 3 5 11l127 118q6 6 14 6t14 -6t6 -14q0 -10 -7 -15zM114 0q-31 0 -31 31v610q0 12 8.5 20.5t20.5 8.5t20 -8.5t8 -20.5v-589h300q10 0 18 -8t8 -18t-8 -18t-18 -8h-326z" />
    <glyph glyph-name="lacute" unicode="&#x13a;" horiz-adv-x="214" 
d="M125 724q-4 -4 -11 -4q-6 0 -10.5 4.5t-4.5 10.5q0 3 5 11l127 118q6 6 14 6t14 -6t6 -14q0 -10 -7 -15zM107 -3q-11 0 -18.5 7.5t-7.5 18.5v621q0 10 7.5 18t18.5 8t18.5 -8t7.5 -18v-621q0 -11 -7.5 -18.5t-18.5 -7.5z" />
    <glyph glyph-name="uni013B" unicode="&#x13b;" horiz-adv-x="504" 
d="M114 0q-31 0 -31 31v610q0 12 8.5 20.5t20.5 8.5t20 -8.5t8 -20.5v-589h300q10 0 18 -8t8 -18t-8 -18t-18 -8h-326zM250 -264q-7 0 -12.5 5t-5.5 12q0 8 9 15q39 38 41 78l-10 -1q-16 0 -26 10.5t-10 27.5q0 16 11 27.5t27 11.5q20 0 33.5 -16t13.5 -43q0 -72 -58 -121
q-6 -6 -13 -6z" />
    <glyph glyph-name="uni013C" unicode="&#x13c;" horiz-adv-x="214" 
d="M107 -3q-11 0 -18.5 7.5t-7.5 18.5v621q0 10 7.5 18t18.5 8t18.5 -8t7.5 -18v-621q0 -11 -7.5 -18.5t-18.5 -7.5zM83 -264q-7 0 -12.5 5t-5.5 12q0 8 9 15q39 38 41 78l-10 -1q-16 0 -26 10.5t-10 27.5q0 16 11 27.5t27 11.5q20 0 33.5 -16t13.5 -43q0 -72 -58 -121
q-6 -6 -13 -6z" />
    <glyph glyph-name="Lcaron" unicode="&#x13d;" horiz-adv-x="504" 
d="M256 493q-7 0 -12.5 5t-5.5 12q0 8 9 15q39 38 41 78l-10 -1q-16 0 -26 10.5t-10 27.5q0 16 11 27.5t27 11.5q20 0 33.5 -16t13.5 -43q0 -72 -58 -121q-6 -6 -13 -6zM114 0q-31 0 -31 31v610q0 12 8.5 20.5t20.5 8.5t20 -8.5t8 -20.5v-589h300q10 0 18 -8t8 -18t-8 -18
t-18 -8h-326z" />
    <glyph glyph-name="lcaron" unicode="&#x13e;" horiz-adv-x="264" 
d="M201 493q-7 0 -12.5 5t-5.5 12q0 8 9 15q39 38 41 78l-10 -1q-16 0 -26 10.5t-10 27.5q0 16 11 27.5t27 11.5q20 0 33.5 -16t13.5 -43q0 -72 -58 -121q-6 -6 -13 -6zM107 -3q-11 0 -18.5 7.5t-7.5 18.5v621q0 10 7.5 18t18.5 8t18.5 -8t7.5 -18v-621q0 -11 -7.5 -18.5
t-18.5 -7.5z" />
    <glyph glyph-name="Ldot" unicode="&#x13f;" horiz-adv-x="504" 
d="M114 0q-31 0 -31 31v610q0 12 8.5 20.5t20.5 8.5t20 -8.5t8 -20.5v-589h300q10 0 18 -8t8 -18t-8 -18t-18 -8h-326zM357 298q-18 0 -31 13t-13 31q0 17 13 30t31 13t31.5 -13t13.5 -30q0 -18 -13.5 -31t-31.5 -13z" />
    <glyph glyph-name="ldot" unicode="&#x140;" horiz-adv-x="273" 
d="M107 -3q-11 0 -18.5 7.5t-7.5 18.5v621q0 10 7.5 18t18.5 8t18.5 -8t7.5 -18v-621q0 -11 -7.5 -18.5t-18.5 -7.5zM243 201q-18 0 -31 13t-13 31q0 17 13 30t31 13t31.5 -13t13.5 -30q0 -18 -13.5 -31t-31.5 -13z" />
    <glyph glyph-name="Lslash" unicode="&#x141;" horiz-adv-x="526" 
d="M462 52q10 0 18 -8t8 -18t-8 -18t-18 -8h-326q-31 0 -31 31v257l-63 -36q-4 -3 -11 -3q-9 0 -16 6.5t-7 16.5q0 12 12 19l85 50v300q0 12 8.5 20.5t20.5 8.5t20 -8.5t8 -20.5v-267l74 43q4 3 11 3q10 0 17 -6.5t7 -16.5t-12 -20l-97 -56v-269h300z" />
    <glyph glyph-name="lslash" unicode="&#x142;" horiz-adv-x="277" 
d="M249 417q8 0 14 -5.5t6 -14.5q0 -11 -10 -17l-94 -54v-303q0 -11 -7.5 -18.5t-18.5 -7.5t-18.5 7.5t-7.5 18.5v273l-75 -43q-6 -2 -10 -2q-8 0 -14 5.5t-6 14.5q0 11 10 17l95 55v301q0 10 7.5 18t18.5 8t18.5 -8t7.5 -18v-272l74 43q6 2 10 2z" />
    <glyph glyph-name="Nacute" unicode="&#x143;" horiz-adv-x="699" 
d="M368 724q-4 -4 -11 -4q-6 0 -10.5 4.5t-4.5 10.5q0 3 5 11l127 118q6 6 14 6t14 -6t6 -14q0 -10 -7 -15zM581 -3q-20 0 -30 15l-411 564v-550q0 -12 -8 -20.5t-20 -8.5t-20.5 9t-8.5 20v606q0 16 10.5 27t26.5 11q20 0 31 -16l408 -555v542q0 12 8 20.5t20 8.5t20.5 -8.5
t8.5 -20.5v-608q0 -14 -10.5 -25t-24.5 -11z" />
    <glyph glyph-name="nacute" unicode="&#x144;" horiz-adv-x="540" 
d="M277 573q-6 0 -10.5 4.5t-4.5 10.5q0 4 5 11l127 118q6 6 14 6t14 -6t6 -14q0 -10 -7 -15l-133 -111q-4 -4 -11 -4zM307 495q152 0 152 -157v-315q0 -11 -7.5 -18.5t-18.5 -7.5t-18.5 7.5t-7.5 18.5v304q0 66 -30 93.5t-87 27.5q-45 0 -89 -24t-68 -59v-342
q0 -11 -7.5 -18.5t-18.5 -7.5t-18.5 7.5t-7.5 18.5v437q0 10 7.5 18t18.5 8t18.5 -8t7.5 -18v-50q29 34 77 59.5t97 25.5z" />
    <glyph glyph-name="uni0145" unicode="&#x145;" horiz-adv-x="699" 
d="M581 -3q-20 0 -30 15l-411 564v-550q0 -12 -8 -20.5t-20 -8.5t-20.5 9t-8.5 20v606q0 16 10.5 27t26.5 11q20 0 31 -16l408 -555v542q0 12 8 20.5t20 8.5t20.5 -8.5t8.5 -20.5v-608q0 -14 -10.5 -25t-24.5 -11zM316 -264q-7 0 -12.5 5t-5.5 12q0 8 9 15q39 38 41 78
l-10 -1q-16 0 -26 10.5t-10 27.5q0 16 11 27.5t27 11.5q20 0 33.5 -16t13.5 -43q0 -72 -58 -121q-6 -6 -13 -6z" />
    <glyph glyph-name="uni0146" unicode="&#x146;" horiz-adv-x="540" 
d="M307 495q152 0 152 -157v-315q0 -11 -7.5 -18.5t-18.5 -7.5t-18.5 7.5t-7.5 18.5v304q0 66 -30 93.5t-87 27.5q-45 0 -89 -24t-68 -59v-342q0 -11 -7.5 -18.5t-18.5 -7.5t-18.5 7.5t-7.5 18.5v437q0 10 7.5 18t18.5 8t18.5 -8t7.5 -18v-50q29 34 77 59.5t97 25.5z
M270 -78q20 0 33.5 -16t13.5 -43q0 -72 -58 -121q-6 -6 -13 -6t-12.5 5t-5.5 12q0 8 9 15q39 38 41 78l-10 -1q-16 0 -26 10.5t-10 27.5q0 16 11 27.5t27 11.5z" />
    <glyph glyph-name="Ncaron" unicode="&#x147;" horiz-adv-x="699" 
d="M445 873q7 0 12.5 -5t5.5 -12q0 -5 -3 -8l-79 -116q-10 -16 -29 -16h-9q-20 0 -28 16l-80 116q-2 4 -2 8q0 7 5 12t12 5q8 0 12 -6l86 -113l85 113q5 6 12 6zM581 -3q-20 0 -30 15l-411 564v-550q0 -12 -8 -20.5t-20 -8.5t-20.5 9t-8.5 20v606q0 16 10.5 27t26.5 11
q20 0 31 -16l408 -555v542q0 12 8 20.5t20 8.5t20.5 -8.5t8.5 -20.5v-608q0 -14 -10.5 -25t-24.5 -11z" />
    <glyph glyph-name="ncaron" unicode="&#x148;" horiz-adv-x="540" 
d="M235 585l-80 116q-2 4 -2 8q0 7 5 12t12 5q8 0 12 -6l86 -113l85 113q5 6 12 6t12.5 -5t5.5 -12q0 -5 -3 -8l-79 -116q-10 -16 -29 -16h-9q-20 0 -28 16zM307 495q152 0 152 -157v-315q0 -11 -7.5 -18.5t-18.5 -7.5t-18.5 7.5t-7.5 18.5v304q0 66 -30 93.5t-87 27.5
q-45 0 -89 -24t-68 -59v-342q0 -11 -7.5 -18.5t-18.5 -7.5t-18.5 7.5t-7.5 18.5v437q0 10 7.5 18t18.5 8t18.5 -8t7.5 -18v-50q29 34 77 59.5t97 25.5z" />
    <glyph glyph-name="napostrophe" unicode="&#x149;" horiz-adv-x="540" 
d="M97 554q-6 -6 -13 -6t-12.5 5t-5.5 12q0 8 9 15q39 38 41 78l-10 -1q-16 0 -26 10.5t-10 27.5q0 16 11 27.5t27 11.5q20 0 33.5 -16t13.5 -43q0 -72 -58 -121zM307 495q152 0 152 -157v-315q0 -11 -7.5 -18.5t-18.5 -7.5t-18.5 7.5t-7.5 18.5v304q0 66 -30 93.5t-87 27.5
q-45 0 -89 -24t-68 -59v-342q0 -11 -7.5 -18.5t-18.5 -7.5t-18.5 7.5t-7.5 18.5v437q0 10 7.5 18t18.5 8t18.5 -8t7.5 -18v-50q29 34 77 59.5t97 25.5z" />
    <glyph glyph-name="Eng" unicode="&#x14a;" horiz-adv-x="699" 
d="M587 670q12 0 20.5 -8.5t8.5 -20.5v-635q0 -99 -57 -150.5t-145 -51.5q-94 0 -155 65q-10 8 -10 20t8.5 20.5t19.5 8.5t19 -8q49 -54 116 -54t106 41t37 109l-415 570v-550q0 -12 -8 -20.5t-20 -8.5t-20.5 9t-8.5 20v606q0 16 10.5 27t26.5 11q20 0 31 -16l408 -555v542
q0 12 8 20.5t20 8.5z" />
    <glyph glyph-name="eng" unicode="&#x14b;" horiz-adv-x="540" 
d="M307 495q152 0 152 -157v-400q0 -66 -33.5 -100t-94.5 -34q-20 0 -33 4q-20 4 -20 23q0 9 6 16t15 7q1 0 9.5 -2t18.5 -2q80 0 80 88v389q0 66 -30 93.5t-87 27.5q-45 0 -89 -24t-68 -59v-342q0 -11 -7.5 -18.5t-18.5 -7.5t-18.5 7.5t-7.5 18.5v437q0 10 7.5 18t18.5 8
t18.5 -8t7.5 -18v-50q29 34 77 59.5t97 25.5z" />
    <glyph glyph-name="Omacron" unicode="&#x14c;" horiz-adv-x="764" 
d="M250 744q-8 0 -13.5 5.5t-5.5 12.5q0 8 5.5 13.5t13.5 5.5h263q8 0 13.5 -5.5t5.5 -13.5q0 -7 -5.5 -12.5t-13.5 -5.5h-263zM58 333q0 149 89.5 247t234.5 98q144 0 234 -98t90 -247t-90 -247t-234 -98q-145 0 -234.5 98t-89.5 247zM646 333q0 129 -72.5 211t-191.5 82
q-120 0 -192 -82t-72 -211q0 -128 72 -210.5t192 -82.5q118 0 191 82.5t73 210.5z" />
    <glyph glyph-name="omacron" unicode="&#x14d;" 
d="M153 597q-8 0 -13.5 5.5t-5.5 12.5q0 8 5.5 13.5t13.5 5.5h263q8 0 13.5 -5.5t5.5 -13.5q0 -7 -5.5 -12.5t-13.5 -5.5h-263zM285 -12q-104 0 -168 73t-64 181t64 180.5t168 72.5q105 0 169 -72.5t64 -180.5t-64 -181t-169 -73zM285 35q82 0 129.5 60.5t47.5 146.5
q0 85 -47.5 145.5t-129.5 60.5q-81 0 -128.5 -60.5t-47.5 -145.5t47.5 -146t128.5 -61z" />
    <glyph glyph-name="Obreve" unicode="&#x14e;" horiz-adv-x="764" 
d="M382 714q-97 0 -166 75q-4 5 -4 13t5.5 13.5t13.5 5.5q9 0 14 -6q54 -63 137 -63q82 0 137 63q3 6 14 6q7 0 13 -5.5t6 -13.5q0 -6 -5 -13q-67 -75 -165 -75zM58 333q0 149 89.5 247t234.5 98q144 0 234 -98t90 -247t-90 -247t-234 -98q-145 0 -234.5 98t-89.5 247z
M646 333q0 129 -72.5 211t-191.5 82q-120 0 -192 -82t-72 -211q0 -128 72 -210.5t192 -82.5q118 0 191 82.5t73 210.5z" />
    <glyph glyph-name="obreve" unicode="&#x14f;" 
d="M285 567q-97 0 -166 75q-4 5 -4 13t5.5 13.5t13.5 5.5q10 0 14 -6q54 -63 137 -63q82 0 137 63q3 6 14 6q8 0 13.5 -6t5.5 -13q0 -6 -5 -13q-67 -75 -165 -75zM285 -12q-104 0 -168 73t-64 181t64 180.5t168 72.5q105 0 169 -72.5t64 -180.5t-64 -181t-169 -73zM285 35
q82 0 129.5 60.5t47.5 146.5q0 85 -47.5 145.5t-129.5 60.5q-81 0 -128.5 -60.5t-47.5 -145.5t47.5 -146t128.5 -61z" />
    <glyph glyph-name="Ohungarumlaut" unicode="&#x150;" horiz-adv-x="764" 
d="M315 717q-16 0 -16 15q0 6 4 11l83 121q5 10 17 10q8 0 14.5 -6.5t6.5 -15.5q0 -7 -4 -12l-92 -115q-5 -8 -13 -8zM454 717q-16 0 -16 15q0 6 4 11l83 121q5 10 17 10q8 0 14.5 -6.5t6.5 -15.5q0 -7 -4 -12l-92 -115q-5 -8 -13 -8zM58 333q0 149 89.5 247t234.5 98
q144 0 234 -98t90 -247t-90 -247t-234 -98q-145 0 -234.5 98t-89.5 247zM646 333q0 129 -72.5 211t-191.5 82q-120 0 -192 -82t-72 -211q0 -128 72 -210.5t192 -82.5q118 0 191 82.5t73 210.5z" />
    <glyph glyph-name="ohungarumlaut" unicode="&#x151;" 
d="M218 570q-16 0 -16 15q0 6 4 11l83 121q5 10 17 10q8 0 14.5 -6.5t6.5 -15.5q0 -7 -4 -12l-92 -115q-5 -8 -13 -8zM357 570q-16 0 -16 15q0 6 4 11l83 121q5 10 17 10q8 0 14.5 -6.5t6.5 -15.5q0 -7 -4 -12l-92 -115q-5 -8 -13 -8zM285 -12q-104 0 -168 73t-64 181
t64 180.5t168 72.5q105 0 169 -72.5t64 -180.5t-64 -181t-169 -73zM285 35q82 0 129.5 60.5t47.5 146.5q0 85 -47.5 145.5t-129.5 60.5q-81 0 -128.5 -60.5t-47.5 -145.5t47.5 -146t128.5 -61z" />
    <glyph glyph-name="OE" unicode="&#x152;" horiz-adv-x="1115" 
d="M1032 52q10 0 18 -8t8 -18t-8 -18t-18 -8h-369q-31 0 -31 31v105q-37 -71 -105.5 -109.5t-147.5 -38.5q-143 0 -232 98t-89 247t89 246.5t232 97.5q79 0 147.5 -38.5t105.5 -108.5v106q0 31 31 31h369q10 0 18 -7.5t8 -18.5t-8 -18.5t-18 -7.5h-342v-247h335
q11 0 18.5 -8t7.5 -18t-7.5 -18t-18.5 -8h-335v-264h342zM383 40q86 0 151.5 46.5t97.5 134.5v225q-31 88 -96.5 133.5t-152.5 45.5q-121 0 -193 -81.5t-72 -210.5t72.5 -211t192.5 -82z" />
    <glyph glyph-name="oe" unicode="&#x153;" horiz-adv-x="975" 
d="M519 225q3 -82 54 -137t134 -55q84 0 145 55q5 4 13 4q9 0 15.5 -6t6.5 -16t-9 -17q-74 -65 -174 -65q-89 0 -142 46.5t-72 104.5q-10 -25 -23.5 -47.5t-37.5 -48t-61.5 -40.5t-82.5 -15q-104 0 -168 73t-64 181t64 180.5t168 72.5q46 0 83.5 -15.5t61.5 -40.5t38 -48
t22 -47q19 55 70.5 103t133.5 48q106 0 167 -73.5t61 -182.5q0 -14 -31 -14h-372zM869 266q-1 70 -46.5 127t-129.5 57q-79 0 -125.5 -56.5t-49.5 -127.5h351zM285 448q-80 0 -128 -60t-48 -146t48 -147t128 -61q81 0 129 60.5t48 147.5q0 86 -48 146t-129 60z" />
    <glyph glyph-name="Racute" unicode="&#x154;" horiz-adv-x="594" 
d="M307 720q-6 0 -10.5 4.5t-4.5 10.5q0 3 5 11l127 118q6 6 14 6t14 -6t6 -14q0 -10 -7 -15l-133 -111q-4 -4 -11 -4zM360 281l170 -238q5 -7 5 -18t-7.5 -19.5t-19.5 -8.5q-16 0 -25 12l-186 267h-157v-250q0 -12 -8 -20.5t-20 -8.5t-20.5 9t-8.5 20v610q0 31 31 31h218
q88 0 145.5 -53t57.5 -142q0 -84 -50 -134.5t-125 -56.5zM140 615v-287h187q66 0 107 40.5t41 103.5t-41 103t-107 40h-187z" />
    <glyph glyph-name="racute" unicode="&#x155;" horiz-adv-x="317" 
d="M326 723q8 0 14 -6t6 -14q0 -10 -7 -15l-133 -111q-4 -4 -11 -4q-6 0 -10.5 4.5t-4.5 10.5q0 4 5 11l127 118q6 6 14 6zM274 491q12 0 19 -7.5t7 -19.5q0 -10 -8.5 -17.5t-22.5 -8.5q-38 -1 -78 -27t-58 -59v-329q0 -11 -7.5 -18.5t-18.5 -7.5t-18.5 7.5t-7.5 18.5v437
q0 10 7.5 18t18.5 8t18.5 -8t7.5 -18v-61q54 72 118 88q13 4 23 4z" />
    <glyph glyph-name="uni0156" unicode="&#x156;" horiz-adv-x="594" 
d="M360 281l170 -238q5 -7 5 -18t-7.5 -19.5t-19.5 -8.5q-16 0 -25 12l-186 267h-157v-250q0 -12 -8 -20.5t-20 -8.5t-20.5 9t-8.5 20v610q0 31 31 31h218q88 0 145.5 -53t57.5 -142q0 -84 -50 -134.5t-125 -56.5zM140 615v-287h187q66 0 107 40.5t41 103.5t-41 103t-107 40
h-187zM300 -78q20 0 33.5 -16t13.5 -43q0 -72 -58 -121q-6 -6 -13 -6t-12.5 5t-5.5 12q0 8 9 15q39 38 41 78l-10 -1q-16 0 -26 10.5t-10 27.5q0 16 11 27.5t27 11.5z" />
    <glyph glyph-name="uni0157" unicode="&#x157;" horiz-adv-x="317" 
d="M274 491q12 0 19 -7.5t7 -19.5q0 -10 -8.5 -17.5t-22.5 -8.5q-38 -1 -78 -27t-58 -59v-329q0 -11 -7.5 -18.5t-18.5 -7.5t-18.5 7.5t-7.5 18.5v437q0 10 7.5 18t18.5 8t18.5 -8t7.5 -18v-61q54 72 118 88q13 4 23 4zM108 -78q20 0 33.5 -16t13.5 -43q0 -72 -58 -121
q-6 -6 -13 -6t-12.5 5t-5.5 12q0 8 9 15q39 38 41 78l-10 -1q-16 0 -26 10.5t-10 27.5q0 16 11 27.5t27 11.5z" />
    <glyph glyph-name="Rcaron" unicode="&#x158;" horiz-adv-x="594" 
d="M265 732l-80 116q-2 4 -2 8q0 7 5 12t12 5q8 0 12 -6l86 -113l85 113q5 6 12 6t12.5 -5t5.5 -12q0 -5 -3 -8l-79 -116q-10 -16 -29 -16h-9q-20 0 -28 16zM360 281l170 -238q5 -7 5 -18t-7.5 -19.5t-19.5 -8.5q-16 0 -25 12l-186 267h-157v-250q0 -12 -8 -20.5t-20 -8.5
t-20.5 9t-8.5 20v610q0 31 31 31h218q88 0 145.5 -53t57.5 -142q0 -84 -50 -134.5t-125 -56.5zM140 615v-287h187q66 0 107 40.5t41 103.5t-41 103t-107 40h-187z" />
    <glyph glyph-name="rcaron" unicode="&#x159;" horiz-adv-x="317" 
d="M181 569q-20 0 -28 16l-80 116q-2 4 -2 8q0 7 5 12t12 5q8 0 12 -6l86 -113l85 113q5 6 12 6t12.5 -5t5.5 -12q0 -5 -3 -8l-79 -116q-10 -16 -29 -16h-9zM274 491q12 0 19 -7.5t7 -19.5q0 -10 -8.5 -17.5t-22.5 -8.5q-38 -1 -78 -27t-58 -59v-329q0 -11 -7.5 -18.5
t-18.5 -7.5t-18.5 7.5t-7.5 18.5v437q0 10 7.5 18t18.5 8t18.5 -8t7.5 -18v-61q54 72 118 88q13 4 23 4z" />
    <glyph glyph-name="Sacute" unicode="&#x15a;" horiz-adv-x="581" 
d="M304 724q-4 -4 -11 -4q-6 0 -10.5 4.5t-4.5 10.5q0 3 5 11l127 118q6 6 14 6t14 -6t6 -14q0 -10 -7 -15zM63 76q-9 8 -9 21q0 12 8.5 20.5t19.5 8.5t20 -7q81 -79 189 -79q93 0 134.5 40.5t41.5 92.5q0 27 -11 49t-25.5 35.5t-42.5 26t-48 19t-56 15.5q-36 10 -53.5 15.5
t-48.5 17t-47 23.5t-34 30t-26 42t-8 54q0 80 63.5 129t158.5 49q123 0 206 -77q11 -7 11 -21q0 -11 -8.5 -19.5t-20.5 -8.5t-18 7q-67 67 -173 67q-69 0 -114 -34.5t-45 -88.5q0 -23 10.5 -41.5t24 -30t40 -22.5t45.5 -17t54 -15q43 -12 66 -19.5t59 -25t54 -36t32.5 -49.5
t14.5 -70q0 -76 -57 -132.5t-180 -56.5q-137 0 -227 88z" />
    <glyph glyph-name="sacute" unicode="&#x15b;" horiz-adv-x="459" 
d="M240 577q-4 -4 -11 -4q-6 0 -10.5 4.5t-4.5 10.5q0 4 5 11l127 118q6 6 14 6t14 -6t6 -14q0 -10 -7 -15zM54 50q-9 7 -9 18q0 10 7.5 17.5t17.5 7.5q9 0 15 -6q58 -55 141 -55q60 0 94.5 26.5t34.5 69.5q0 18 -8 32.5t-19 23.5t-31.5 17.5t-35 13t-41.5 11.5
q-34 8 -50 12.5t-43.5 16t-41 24t-24.5 34t-11 48.5q0 57 46.5 95.5t125.5 38.5q98 0 159 -58q8 -8 8 -18q0 -9 -6.5 -16t-16.5 -7q-8 0 -14 6q-51 49 -130 49q-55 0 -88 -24.5t-33 -62.5q0 -16 8 -29t17.5 -20.5t30 -15.5t33 -11.5t40.5 -10.5q34 -9 51 -14t45.5 -17
t42.5 -26t25.5 -37t11.5 -53q0 -62 -47 -102t-134 -40q-103 0 -171 62z" />
    <glyph glyph-name="Scircumflex" unicode="&#x15c;" horiz-adv-x="581" 
d="M372 722l-85 114l-86 -114q-6 -6 -12 -6q-7 0 -12 5t-5 12q0 3 2 9l80 116q8 15 28 15h9q19 0 29 -15l79 -116q3 -4 3 -9q0 -7 -5.5 -12t-12.5 -5q-6 0 -12 6zM63 76q-9 8 -9 21q0 12 8.5 20.5t19.5 8.5t20 -7q81 -79 189 -79q93 0 134.5 40.5t41.5 92.5q0 27 -11 49
t-25.5 35.5t-42.5 26t-48 19t-56 15.5q-36 10 -53.5 15.5t-48.5 17t-47 23.5t-34 30t-26 42t-8 54q0 80 63.5 129t158.5 49q123 0 206 -77q11 -7 11 -21q0 -11 -8.5 -19.5t-20.5 -8.5t-18 7q-67 67 -173 67q-69 0 -114 -34.5t-45 -88.5q0 -23 10.5 -41.5t24 -30t40 -22.5
t45.5 -17t54 -15q43 -12 66 -19.5t59 -25t54 -36t32.5 -49.5t14.5 -70q0 -76 -57 -132.5t-180 -56.5q-137 0 -227 88z" />
    <glyph glyph-name="scircumflex" unicode="&#x15d;" horiz-adv-x="459" 
d="M308 575l-85 114l-86 -114q-6 -6 -12 -6q-7 0 -12 5t-5 12q0 3 2 9l80 116q8 15 28 15h9q19 0 29 -15l79 -116q3 -5 3 -9q0 -7 -5.5 -12t-12.5 -5q-6 0 -12 6zM54 50q-9 7 -9 18q0 10 7.5 17.5t17.5 7.5q9 0 15 -6q58 -55 141 -55q60 0 94.5 26.5t34.5 69.5q0 18 -8 32.5
t-19 23.5t-31.5 17.5t-35 13t-41.5 11.5q-34 8 -50 12.5t-43.5 16t-41 24t-24.5 34t-11 48.5q0 57 46.5 95.5t125.5 38.5q98 0 159 -58q8 -8 8 -18q0 -9 -6.5 -16t-16.5 -7q-8 0 -14 6q-51 49 -130 49q-55 0 -88 -24.5t-33 -62.5q0 -16 8 -29t17.5 -20.5t30 -15.5t33 -11.5
t40.5 -10.5q34 -9 51 -14t45.5 -17t42.5 -26t25.5 -37t11.5 -53q0 -62 -47 -102t-134 -40q-103 0 -171 62z" />
    <glyph glyph-name="uni015E" unicode="&#x15e;" horiz-adv-x="581" 
d="M527 177q0 -34 -11.5 -64.5t-36 -58.5t-69.5 -46t-106 -20l-17 -45q15 12 37 12q29 0 47.5 -18t18.5 -48q0 -35 -29 -56.5t-72 -21.5q-51 0 -88 23q-9 4 -9 15q0 18 17 18q7 0 11 -3q28 -20 68 -20q28 0 46.5 12t18.5 33q0 39 -41 39q-20 0 -34 -12q-6 -4 -12 -4
q-8 0 -13.5 5t-5.5 13q0 3 2 9l18 50q-122 7 -204 87q-9 8 -9 21q0 12 8.5 20.5t19.5 8.5t20 -7q81 -79 189 -79q93 0 134.5 40.5t41.5 92.5q0 27 -11 49t-25.5 35.5t-42.5 26t-48 19t-56 15.5q-36 10 -53.5 15.5t-48.5 17t-47 23.5t-34 30t-26 42t-8 54q0 80 63.5 129
t158.5 49q123 0 206 -77q11 -7 11 -21q0 -11 -8.5 -19.5t-20.5 -8.5t-18 7q-67 67 -173 67q-69 0 -114 -34.5t-45 -88.5q0 -23 10.5 -41.5t24 -30t40 -22.5t45.5 -17t54 -15q43 -12 66 -19.5t59 -25t54 -36t32.5 -49.5t14.5 -70z" />
    <glyph glyph-name="uni015F" unicode="&#x15f;" horiz-adv-x="459" 
d="M406 130q0 -59 -43 -98.5t-123 -43.5l-17 -45q15 12 37 12q29 0 47.5 -18t18.5 -48q0 -35 -29 -56.5t-72 -21.5q-51 0 -88 23q-9 4 -9 15q0 18 17 18q7 0 11 -3q28 -20 68 -20q28 0 46.5 12t18.5 33q0 39 -41 39q-20 0 -34 -12q-6 -4 -12 -4q-8 0 -13.5 5t-5.5 13
q0 3 2 9l18 50q-87 4 -149 61q-9 7 -9 18q0 10 7.5 17.5t17.5 7.5q9 0 15 -6q58 -55 141 -55q60 0 94.5 26.5t34.5 69.5q0 18 -8 32.5t-19 23.5t-31.5 17.5t-35 13t-41.5 11.5q-34 8 -50 12.5t-43.5 16t-41 24t-24.5 34t-11 48.5q0 57 46.5 95.5t125.5 38.5q98 0 159 -58
q8 -8 8 -18q0 -9 -6.5 -16t-16.5 -7q-8 0 -14 6q-51 49 -130 49q-55 0 -88 -24.5t-33 -62.5q0 -16 8 -29t17.5 -20.5t30 -15.5t33 -11.5t40.5 -10.5q34 -9 51 -14t45.5 -17t42.5 -26t25.5 -37t11.5 -53z" />
    <glyph glyph-name="Scaron" unicode="&#x160;" horiz-adv-x="581" 
d="M381 873q7 0 12.5 -5t5.5 -12q0 -5 -3 -8l-79 -116q-10 -16 -29 -16h-9q-20 0 -28 16l-80 116q-2 4 -2 8q0 7 5 12t12 5q8 0 12 -6l86 -113l85 113q5 6 12 6zM63 76q-9 8 -9 21q0 12 8.5 20.5t19.5 8.5t20 -7q81 -79 189 -79q93 0 134.5 40.5t41.5 92.5q0 27 -11 49
t-25.5 35.5t-42.5 26t-48 19t-56 15.5q-36 10 -53.5 15.5t-48.5 17t-47 23.5t-34 30t-26 42t-8 54q0 80 63.5 129t158.5 49q123 0 206 -77q11 -7 11 -21q0 -11 -8.5 -19.5t-20.5 -8.5t-18 7q-67 67 -173 67q-69 0 -114 -34.5t-45 -88.5q0 -23 10.5 -41.5t24 -30t40 -22.5
t45.5 -17t54 -15q43 -12 66 -19.5t59 -25t54 -36t32.5 -49.5t14.5 -70q0 -76 -57 -132.5t-180 -56.5q-137 0 -227 88z" />
    <glyph glyph-name="scaron" unicode="&#x161;" horiz-adv-x="459" 
d="M317 726q7 0 12.5 -5t5.5 -12q0 -5 -3 -8l-79 -116q-10 -16 -29 -16h-9q-20 0 -28 16l-80 116q-2 4 -2 8q0 7 5 12t12 5q8 0 12 -6l86 -113l85 113q5 6 12 6zM54 50q-9 7 -9 18q0 10 7.5 17.5t17.5 7.5q9 0 15 -6q58 -55 141 -55q60 0 94.5 26.5t34.5 69.5q0 18 -8 32.5
t-19 23.5t-31.5 17.5t-35 13t-41.5 11.5q-34 8 -50 12.5t-43.5 16t-41 24t-24.5 34t-11 48.5q0 57 46.5 95.5t125.5 38.5q98 0 159 -58q8 -8 8 -18q0 -9 -6.5 -16t-16.5 -7q-8 0 -14 6q-51 49 -130 49q-55 0 -88 -24.5t-33 -62.5q0 -16 8 -29t17.5 -20.5t30 -15.5t33 -11.5
t40.5 -10.5q34 -9 51 -14t45.5 -17t42.5 -26t25.5 -37t11.5 -53q0 -62 -47 -102t-134 -40q-103 0 -171 62z" />
    <glyph glyph-name="uni0162" unicode="&#x162;" horiz-adv-x="564" 
d="M282 -3q-12 0 -20.5 9t-8.5 20v589h-195q-10 0 -18 7.5t-8 18.5t8 18.5t18 7.5h449q11 0 18.5 -7.5t7.5 -18.5t-7.5 -18.5t-18.5 -7.5h-196v-589q0 -11 -8.5 -20t-20.5 -9zM259 -264q-7 0 -12.5 5t-5.5 12q0 8 9 15q39 38 41 78l-10 -1q-16 0 -26 10.5t-10 27.5
q0 16 11 27.5t27 11.5q20 0 33.5 -16t13.5 -43q0 -72 -58 -121q-6 -6 -13 -6z" />
    <glyph glyph-name="uni0163" unicode="&#x163;" horiz-adv-x="275" 
d="M242 50q10 0 16.5 -6.5t6.5 -16.5q0 -13 -12 -20q-27 -19 -67 -19q-95 0 -95 105v344h-59q-10 0 -17 6.5t-7 16.5t7 16.5t17 6.5h59v109q0 11 8 18.5t19 7.5q10 0 18 -8t8 -18v-109h77q10 0 17 -6.5t7 -16.5t-7 -16.5t-17 -6.5h-77v-336q0 -66 50 -66q17 0 30.5 7.5
t17.5 7.5zM142 -78q20 0 33.5 -16t13.5 -43q0 -72 -58 -121q-6 -6 -13 -6t-12.5 5t-5.5 12q0 8 9 15q39 38 41 78l-10 -1q-16 0 -26 10.5t-10 27.5q0 16 11 27.5t27 11.5z" />
    <glyph glyph-name="Tcaron" unicode="&#x164;" horiz-adv-x="564" 
d="M378 873q7 0 12.5 -5t5.5 -12q0 -5 -3 -8l-79 -116q-10 -16 -29 -16h-9q-20 0 -28 16l-80 116q-2 4 -2 8q0 7 5 12t12 5t12 -6l86 -113l85 113q4 6 12 6zM282 -3q-12 0 -20.5 9t-8.5 20v589h-195q-10 0 -18 7.5t-8 18.5t8 18.5t18 7.5h449q11 0 18.5 -7.5t7.5 -18.5
t-7.5 -18.5t-18.5 -7.5h-196v-589q0 -11 -8.5 -20t-20.5 -9z" />
    <glyph glyph-name="tcaron" unicode="&#x165;" horiz-adv-x="285" 
d="M213 580q39 38 41 78l-10 -1q-16 0 -26 10.5t-10 27.5q0 16 11 27.5t27 11.5q20 0 33.5 -16t13.5 -43q0 -72 -58 -121q-6 -6 -13 -6t-12.5 5t-5.5 12q0 8 9 15zM242 50q10 0 16.5 -6.5t6.5 -16.5q0 -13 -12 -20q-27 -19 -67 -19q-95 0 -95 105v344h-59q-10 0 -17 6.5
t-7 16.5t7 16.5t17 6.5h59v109q0 11 8 18.5t19 7.5q10 0 18 -8t8 -18v-109h77q10 0 17 -6.5t7 -16.5t-7 -16.5t-17 -6.5h-77v-336q0 -66 50 -66q17 0 30.5 7.5t17.5 7.5z" />
    <glyph glyph-name="Tbar" unicode="&#x166;" horiz-adv-x="564" 
d="M507 667q11 0 18.5 -7.5t7.5 -18.5t-7.5 -18.5t-18.5 -7.5h-196v-270h142q8 0 13.5 -5.5t5.5 -13.5q0 -7 -5.5 -12.5t-13.5 -5.5h-142v-282q0 -11 -8.5 -20t-20.5 -9t-20.5 9t-8.5 20v282h-142q-8 0 -13.5 5.5t-5.5 13.5q0 7 5.5 12.5t13.5 5.5h142v270h-195
q-10 0 -18 7.5t-8 18.5t8 18.5t18 7.5h449z" />
    <glyph glyph-name="tbar" unicode="&#x167;" horiz-adv-x="275" 
d="M242 50q10 0 16.5 -6.5t6.5 -16.5q0 -13 -12 -20q-27 -19 -67 -19q-95 0 -95 105v141h-64q-7 0 -13 6t-6 13t6 13t13 6h64v165h-59q-10 0 -17 6.5t-7 16.5t7 16.5t17 6.5h59v109q0 11 8 18.5t19 7.5q10 0 18 -8t8 -18v-109h77q10 0 17 -6.5t7 -16.5t-7 -16.5t-17 -6.5
h-77v-165h55q7 0 13 -6t6 -13t-6 -13t-13 -6h-55v-133q0 -66 50 -66q17 0 30.5 7.5t17.5 7.5z" />
    <glyph glyph-name="Utilde" unicode="&#x168;" horiz-adv-x="686" 
d="M405 721q-20 0 -35.5 10t-22 19t-18.5 29q-25 45 -50 45q-22 0 -36.5 -21t-16.5 -63q-2 -16 -18 -16q-7 0 -12.5 6t-4.5 13q4 53 28 85.5t64 32.5q19 0 34 -10t22 -19.5t19 -28.5q10 -16 14.5 -22.5t14.5 -14t21 -7.5q22 0 36.5 20.5t16.5 62.5q2 16 18 16q7 0 12.5 -5.5
t4.5 -13.5q-4 -53 -28 -85.5t-63 -32.5zM83 256v385q0 12 8.5 20.5t20.5 8.5t20.5 -8.5t8.5 -20.5v-384q0 -102 52.5 -159.5t149.5 -57.5q98 0 150 57t52 160v384q0 12 8.5 20.5t20.5 8.5q13 0 21 -8.5t8 -20.5v-385q0 -126 -66.5 -197t-193.5 -71q-126 0 -193 71.5
t-67 196.5z" />
    <glyph glyph-name="utilde" unicode="&#x169;" horiz-adv-x="540" 
d="M135 577q-7 0 -12.5 6t-4.5 13q4 53 28 85.5t64 32.5q19 0 34 -10t22 -19.5t19 -28.5q10 -16 14.5 -22.5t14.5 -14t21 -7.5q22 0 36.5 20.5t16.5 62.5q2 16 18 16q7 0 12.5 -5.5t4.5 -13.5q-4 -53 -28 -85.5t-63 -32.5q-20 0 -35.5 10t-22 19t-18.5 29q-25 45 -50 45
q-22 0 -36.5 -21t-16.5 -63q-2 -16 -18 -16zM433 486q11 0 18.5 -8t7.5 -18v-437q0 -11 -7.5 -18.5t-18.5 -7.5t-18.5 7.5t-7.5 18.5v48q-32 -36 -78 -59.5t-96 -23.5q-76 0 -114 37.5t-38 117.5v317q0 10 7.5 18t18.5 8t18.5 -8t7.5 -18v-305q0 -67 30 -93.5t87 -26.5
q45 0 88.5 23t68.5 57v345q0 10 7.5 18t18.5 8z" />
    <glyph glyph-name="Umacron" unicode="&#x16a;" horiz-adv-x="686" 
d="M211 744q-8 0 -13.5 5.5t-5.5 12.5q0 8 5.5 13.5t13.5 5.5h263q8 0 13.5 -5.5t5.5 -13.5q0 -7 -5.5 -12.5t-13.5 -5.5h-263zM83 256v385q0 12 8.5 20.5t20.5 8.5t20.5 -8.5t8.5 -20.5v-384q0 -102 52.5 -159.5t149.5 -57.5q98 0 150 57t52 160v384q0 12 8.5 20.5
t20.5 8.5q13 0 21 -8.5t8 -20.5v-385q0 -126 -66.5 -197t-193.5 -71q-126 0 -193 71.5t-67 196.5z" />
    <glyph glyph-name="umacron" unicode="&#x16b;" horiz-adv-x="540" 
d="M138 597q-8 0 -13.5 5.5t-5.5 12.5q0 8 5.5 13.5t13.5 5.5h263q8 0 13.5 -5.5t5.5 -13.5q0 -7 -5.5 -12.5t-13.5 -5.5h-263zM433 486q11 0 18.5 -8t7.5 -18v-437q0 -11 -7.5 -18.5t-18.5 -7.5t-18.5 7.5t-7.5 18.5v48q-32 -36 -78 -59.5t-96 -23.5q-76 0 -114 37.5
t-38 117.5v317q0 10 7.5 18t18.5 8t18.5 -8t7.5 -18v-305q0 -67 30 -93.5t87 -26.5q45 0 88.5 23t68.5 57v345q0 10 7.5 18t18.5 8z" />
    <glyph glyph-name="Ubreve" unicode="&#x16c;" horiz-adv-x="686" 
d="M343 714q-97 0 -166 75q-4 5 -4 13t5.5 13.5t13.5 5.5q9 0 14 -6q54 -63 137 -63q82 0 137 63q3 6 14 6q8 0 13.5 -5.5t5.5 -13.5q0 -6 -5 -13q-67 -75 -165 -75zM83 256v385q0 12 8.5 20.5t20.5 8.5t20.5 -8.5t8.5 -20.5v-384q0 -102 52.5 -159.5t149.5 -57.5
q98 0 150 57t52 160v384q0 12 8.5 20.5t20.5 8.5q13 0 21 -8.5t8 -20.5v-385q0 -126 -66.5 -197t-193.5 -71q-126 0 -193 71.5t-67 196.5z" />
    <glyph glyph-name="ubreve" unicode="&#x16d;" horiz-adv-x="540" 
d="M270 567q-97 0 -166 75q-4 5 -4 13t5.5 13.5t13.5 5.5q9 0 14 -6q54 -63 137 -63q82 0 137 63q3 6 14 6q7 0 13 -6t6 -13q0 -6 -5 -13q-67 -75 -165 -75zM433 486q11 0 18.5 -8t7.5 -18v-437q0 -11 -7.5 -18.5t-18.5 -7.5t-18.5 7.5t-7.5 18.5v48q-32 -36 -78 -59.5
t-96 -23.5q-76 0 -114 37.5t-38 117.5v317q0 10 7.5 18t18.5 8t18.5 -8t7.5 -18v-305q0 -67 30 -93.5t87 -26.5q45 0 88.5 23t68.5 57v345q0 10 7.5 18t18.5 8z" />
    <glyph glyph-name="Uring" unicode="&#x16e;" horiz-adv-x="686" 
d="M248 811q0 39 28 67.5t68 28.5q39 0 66.5 -28.5t27.5 -67.5q0 -40 -27.5 -68t-66.5 -28q-40 0 -68 28t-28 68zM407 811q0 26 -18.5 45t-44.5 19t-45 -19t-19 -45t19 -45t45 -19t44.5 19t18.5 45zM83 256v385q0 12 8.5 20.5t20.5 8.5t20.5 -8.5t8.5 -20.5v-384
q0 -102 52.5 -159.5t149.5 -57.5q98 0 150 57t52 160v384q0 12 8.5 20.5t20.5 8.5q13 0 21 -8.5t8 -20.5v-385q0 -126 -66.5 -197t-193.5 -71q-126 0 -193 71.5t-67 196.5z" />
    <glyph glyph-name="uring" unicode="&#x16f;" horiz-adv-x="540" 
d="M271 568q-40 0 -68 28t-28 68q0 39 28 67.5t68 28.5q39 0 66.5 -28.5t27.5 -67.5q0 -40 -27.5 -68t-66.5 -28zM271 728q-26 0 -45 -19t-19 -45t19 -45t45 -19t44.5 19t18.5 45t-18.5 45t-44.5 19zM433 486q11 0 18.5 -8t7.5 -18v-437q0 -11 -7.5 -18.5t-18.5 -7.5
t-18.5 7.5t-7.5 18.5v48q-32 -36 -78 -59.5t-96 -23.5q-76 0 -114 37.5t-38 117.5v317q0 10 7.5 18t18.5 8t18.5 -8t7.5 -18v-305q0 -67 30 -93.5t87 -26.5q45 0 88.5 23t68.5 57v345q0 10 7.5 18t18.5 8z" />
    <glyph glyph-name="Uhungarumlaut" unicode="&#x170;" horiz-adv-x="686" 
d="M276 717q-16 0 -16 15q0 6 4 11l83 121q5 10 17 10q8 0 14.5 -6.5t6.5 -15.5q0 -7 -4 -12l-92 -115q-5 -8 -13 -8zM415 717q-16 0 -16 15q0 6 4 11l83 121q5 10 17 10q8 0 14.5 -6.5t6.5 -15.5q0 -7 -4 -12l-92 -115q-5 -8 -13 -8zM83 256v385q0 12 8.5 20.5t20.5 8.5
t20.5 -8.5t8.5 -20.5v-384q0 -102 52.5 -159.5t149.5 -57.5q98 0 150 57t52 160v384q0 12 8.5 20.5t20.5 8.5q13 0 21 -8.5t8 -20.5v-385q0 -126 -66.5 -197t-193.5 -71q-126 0 -193 71.5t-67 196.5z" />
    <glyph glyph-name="uhungarumlaut" unicode="&#x171;" horiz-adv-x="540" 
d="M203 570q-16 0 -16 15q0 6 4 11l83 121q5 10 17 10q8 0 14.5 -6.5t6.5 -15.5q0 -7 -4 -12l-92 -115q-5 -8 -13 -8zM342 570q-16 0 -16 15q0 6 4 11l83 121q5 10 17 10q8 0 14.5 -6.5t6.5 -15.5q0 -7 -4 -12l-92 -115q-5 -8 -13 -8zM433 486q11 0 18.5 -8t7.5 -18v-437
q0 -11 -7.5 -18.5t-18.5 -7.5t-18.5 7.5t-7.5 18.5v48q-32 -36 -78 -59.5t-96 -23.5q-76 0 -114 37.5t-38 117.5v317q0 10 7.5 18t18.5 8t18.5 -8t7.5 -18v-305q0 -67 30 -93.5t87 -26.5q45 0 88.5 23t68.5 57v345q0 10 7.5 18t18.5 8z" />
    <glyph glyph-name="Uogonek" unicode="&#x172;" horiz-adv-x="686" 
d="M343 -12q-126 0 -193 71.5t-67 196.5v385q0 12 8.5 20.5t20.5 8.5t20.5 -8.5t8.5 -20.5v-384q0 -102 52.5 -159.5t149.5 -57.5q98 0 150 57t52 160v384q0 12 8.5 20.5t20.5 8.5q13 0 21 -8.5t8 -20.5v-385q0 -194 -149 -250q-55 -21 -86 -49t-31 -59q0 -20 12.5 -32
t34.5 -12q10 0 22 5q9 2 17 -3.5t8 -15.5q0 -13 -12 -18q-21 -8 -43 -8q-38 0 -65 19.5t-27 53.5q0 56 80 102q-7 -1 -21 -1z" />
    <glyph glyph-name="uogonek" unicode="&#x173;" horiz-adv-x="540" 
d="M459 460v-437q0 -6 -4 -14q7 -2 -3 -7q-44 -28 -67.5 -52t-23.5 -52q0 -20 12.5 -32t34.5 -12q11 0 20 3.5t12 3.5q8 0 13.5 -5.5t5.5 -13.5q0 -12 -11 -18q-24 -10 -48 -10q-38 0 -65 19.5t-27 53.5t30 64.5t78 52.5q-9 8 -9 19v48q-32 -36 -78 -59.5t-96 -23.5
q-76 0 -114 37.5t-38 117.5v317q0 10 7.5 18t18.5 8t18.5 -8t7.5 -18v-305q0 -67 30 -93.5t87 -26.5q45 0 88.5 23t68.5 57v345q0 10 7.5 18t18.5 8t18.5 -8t7.5 -18z" />
    <glyph glyph-name="Wcircumflex" unicode="&#x174;" horiz-adv-x="867" 
d="M520 722l-85 114l-86 -114q-6 -6 -12 -6q-7 0 -12 5t-5 12q0 3 2 9l80 116q8 15 28 15h9q19 0 29 -15l79 -116q3 -4 3 -9q0 -7 -5.5 -12t-12.5 -5q-6 0 -12 6zM626 -3q-32 0 -40 30l-152 546l-153 -546q-3 -13 -14 -21.5t-25 -8.5q-33 0 -40 30l-172 602q-1 5 -1 11
q0 12 9 21t21 9q24 0 29 -23l156 -567l158 566q7 24 32 24q26 0 31 -24l158 -566l156 567q5 23 29 23q13 0 22 -9t9 -22l-2 -10l-171 -602q-8 -30 -40 -30z" />
    <glyph glyph-name="wcircumflex" unicode="&#x175;" horiz-adv-x="719" 
d="M446 569l-85 114l-86 -114q-6 -6 -12 -6q-7 0 -12 5t-5 12q0 3 2 9l80 116q8 15 28 15h9q19 0 29 -15l79 -116q3 -5 3 -9q0 -7 -5.5 -12t-12.5 -5q-6 0 -12 6zM520 -3q-24 0 -31 23l-129 393l-130 -393q-7 -23 -31 -23t-31 23l-140 430q-2 8 -2 10q0 11 7.5 18.5
t18.5 7.5q20 0 26 -19l123 -394l131 393q5 20 28 20q22 0 27 -20l131 -393l124 394q5 19 25 19q11 0 18.5 -8t7.5 -19q0 -5 -2 -11l-140 -428q-7 -23 -31 -23z" />
    <glyph glyph-name="Ycircumflex" unicode="&#x176;" horiz-adv-x="618" 
d="M212 716q-7 0 -12 5t-5 12q0 3 2 9l80 116q8 15 28 15h9q19 0 29 -15l79 -116q3 -4 3 -9q0 -7 -5.5 -12t-12.5 -5q-6 0 -12 6l-85 114l-86 -114q-6 -6 -12 -6zM580 642q0 -11 -5 -16l-237 -340v-260q0 -11 -8.5 -20t-20.5 -9t-20.5 9t-8.5 20v259l-237 340q-5 7 -5 17
q0 11 8.5 19.5t20.5 8.5q16 0 24 -12l218 -321l218 321q7 12 24 12q12 0 20.5 -8.5t8.5 -19.5z" />
    <glyph glyph-name="ycircumflex" unicode="&#x177;" horiz-adv-x="481" 
d="M327 575l-85 114l-86 -114q-6 -6 -12 -6q-7 0 -12 5t-5 12q0 3 2 9l80 116q8 15 28 15h9q19 0 29 -15l79 -116q3 -5 3 -9q0 -7 -5.5 -12t-12.5 -5q-6 0 -12 6zM50 -170q0 10 7.5 17t17.5 7q1 0 9 -1.5t16 -1.5q49 0 73 59l38 86l-189 451q-2 5 -2 12q0 11 7.5 19t18.5 8
q18 0 25 -17l170 -408l169 408q5 17 24 17q12 0 19.5 -8t7.5 -19q0 -4 -3 -13l-234 -552q-37 -90 -124 -90q-9 0 -27 2q-23 3 -23 24z" />
    <glyph glyph-name="Ydieresis" unicode="&#x178;" horiz-adv-x="618" 
d="M207 735q-15 0 -26 11t-11 27q0 15 11 26t26 11t26 -11t11 -26q0 -16 -11 -27t-26 -11zM411 735q-15 0 -26 11t-11 27q0 15 11 26t26 11t26.5 -11t11.5 -26q0 -16 -11.5 -27t-26.5 -11zM580 642q0 -11 -5 -16l-237 -340v-260q0 -11 -8.5 -20t-20.5 -9t-20.5 9t-8.5 20
v259l-237 340q-5 7 -5 17q0 11 8.5 19.5t20.5 8.5q16 0 24 -12l218 -321l218 321q7 12 24 12q12 0 20.5 -8.5t8.5 -19.5z" />
    <glyph glyph-name="Zacute" unicode="&#x179;" horiz-adv-x="581" 
d="M309 724q-4 -4 -11 -4q-6 0 -10.5 4.5t-4.5 10.5q0 3 5 11l127 118q6 6 14 6t14 -6t6 -14q0 -10 -7 -15zM82 0q-14 0 -24.5 10t-10.5 25q0 10 7 19l398 561h-379q-11 0 -18.5 7.5t-7.5 18.5t7.5 18.5t18.5 7.5h419q14 0 24.5 -10t10.5 -24q0 -11 -7 -20l-398 -561h386
q10 0 18 -8t8 -18t-8 -18t-18 -8h-426z" />
    <glyph glyph-name="zacute" unicode="&#x17a;" horiz-adv-x="469" 
d="M253 577q-4 -4 -11 -4q-6 0 -10.5 4.5t-4.5 10.5q0 4 5 11l127 118q6 6 14 6t14 -6t6 -14q0 -10 -7 -15zM82 0q-12 0 -20.5 8.5t-8.5 20.5q0 9 6 17l283 391h-266q-9 0 -16 6.5t-7 15.5q0 10 7 17t16 7h307q12 0 20.5 -8t8.5 -21q0 -7 -6 -17l-286 -391h273q9 0 16 -6.5
t7 -16.5t-7 -16.5t-16 -6.5h-311z" />
    <glyph glyph-name="Zdotaccent" unicode="&#x17b;" horiz-adv-x="581" 
d="M253 770q0 16 11 27t27 11q15 0 26 -11t11 -27t-11 -27t-26 -11q-16 0 -27 11t-11 27zM82 0q-14 0 -24.5 10t-10.5 25q0 10 7 19l398 561h-379q-11 0 -18.5 7.5t-7.5 18.5t7.5 18.5t18.5 7.5h419q14 0 24.5 -10t10.5 -24q0 -11 -7 -20l-398 -561h386q10 0 18 -8t8 -18
t-8 -18t-18 -8h-426z" />
    <glyph glyph-name="zdotaccent" unicode="&#x17c;" horiz-adv-x="469" 
d="M197 623q0 16 11 27t27 11q15 0 26 -11t11 -27t-11 -27t-26 -11q-16 0 -27 11t-11 27zM82 0q-12 0 -20.5 8.5t-8.5 20.5q0 9 6 17l283 391h-266q-9 0 -16 6.5t-7 15.5q0 10 7 17t16 7h307q12 0 20.5 -8t8.5 -21q0 -7 -6 -17l-286 -391h273q9 0 16 -6.5t7 -16.5t-7 -16.5
t-16 -6.5h-311z" />
    <glyph glyph-name="Zcaron" unicode="&#x17d;" horiz-adv-x="581" 
d="M386 873q7 0 12.5 -5t5.5 -12q0 -5 -3 -8l-79 -116q-10 -16 -29 -16h-9q-20 0 -28 16l-80 116q-2 4 -2 8q0 7 5 12t12 5t12 -6l86 -113l85 113q4 6 12 6zM82 0q-14 0 -24.5 10t-10.5 25q0 10 7 19l398 561h-379q-11 0 -18.5 7.5t-7.5 18.5t7.5 18.5t18.5 7.5h419
q14 0 24.5 -10t10.5 -24q0 -11 -7 -20l-398 -561h386q10 0 18 -8t8 -18t-8 -18t-18 -8h-426z" />
    <glyph glyph-name="zcaron" unicode="&#x17e;" horiz-adv-x="469" 
d="M330 726q7 0 12.5 -5t5.5 -12q0 -5 -3 -8l-79 -116q-10 -16 -29 -16h-9q-20 0 -28 16l-80 116q-2 4 -2 8q0 7 5 12t12 5t12 -6l86 -113l85 113q4 6 12 6zM82 0q-12 0 -20.5 8.5t-8.5 20.5q0 9 6 17l283 391h-266q-9 0 -16 6.5t-7 15.5q0 10 7 17t16 7h307q12 0 20.5 -8
t8.5 -21q0 -7 -6 -17l-286 -391h273q9 0 16 -6.5t7 -16.5t-7 -16.5t-16 -6.5h-311z" />
    <glyph glyph-name="longs" unicode="&#x17f;" horiz-adv-x="265" 
d="M274 670q17 -5 17 -21q0 -22 -22 -22q-3 0 -14.5 2.5t-20.5 2.5q-84 0 -84 -105v-504q0 -11 -8 -18.5t-18 -7.5t-18 7.5t-8 18.5v414h-60q-9 0 -16 6.5t-7 16.5t7 16.5t16 6.5h60v44q0 71 35 110.5t96 39.5q25 0 45 -7z" />
    <glyph glyph-name="uni018F" unicode="&#x18f;" horiz-adv-x="748" 
d="M352 678q143 0 240.5 -96.5t97.5 -248.5q0 -153 -93.5 -249.5t-233.5 -96.5q-141 0 -225 89.5t-93 240.5q-2 31 31 31h553q-5 123 -83.5 200.5t-193.5 77.5q-116 0 -195 -79q-7 -7 -19 -7q-11 0 -18.5 7.5t-7.5 19.5t7 18q95 93 233 93zM360 39q109 0 182.5 71.5
t83.5 186.5h-520q9 -113 75.5 -185.5t178.5 -72.5z" />
    <glyph glyph-name="uni0192" unicode="&#x192;" horiz-adv-x="422" 
d="M414 660q13 -8 13 -23q0 -11 -7.5 -18.5t-18.5 -7.5q-6 0 -12 3q-16 11 -36 11q-41 0 -70.5 -27.5t-40.5 -74.5l-47 -214h129q10 0 17 -7t7 -17t-7 -17.5t-17 -7.5h-140l-89 -401q-5 -23 -28 -23q-12 0 -20 8.5t-8 19.5q0 1 2 9l85 387h-53q-10 0 -17 7.5t-7 17.5t7 17
t17 7h64l48 221q16 68 59.5 107.5t104.5 39.5q39 0 65 -17z" />
    <glyph glyph-name="uni019D" unicode="&#x19d;" horiz-adv-x="699" 
d="M559 641q0 12 8 20.5t20 8.5t20.5 -8.5t8.5 -20.5v-608q0 -14 -10.5 -25t-24.5 -11q-20 0 -30 15l-411 564v-567q0 -100 -57 -152.5t-145 -52.5q-16 0 -31 3q-10 0 -17.5 7.5t-7.5 18.5t8.5 19t18.5 7q15 -3 27 -3q67 0 107 42.5t40 110.5v623q0 16 10.5 27t26.5 11
q20 0 31 -16l408 -555v542z" />
    <glyph glyph-name="Ohorn" unicode="&#x1a0;" horiz-adv-x="764" 
d="M710 664q0 -37 -18 -70t-45 -54q59 -88 59 -207q0 -149 -90 -247t-234 -98q-145 0 -234.5 98t-89.5 247t89.5 247t234.5 98q155 0 245 -111q43 36 46 81l-10 -1q-15 0 -25 10.5t-10 26.5q0 15 10.5 26t26.5 11q19 0 32 -15t13 -42zM382 40q118 0 191 82.5t73 210.5
q0 129 -72.5 211t-191.5 82q-120 0 -192 -82t-72 -211q0 -128 72 -210.5t192 -82.5z" />
    <glyph glyph-name="ohorn" unicode="&#x1a1;" 
d="M462 413q56 -70 56 -171q0 -108 -64 -181t-169 -73q-104 0 -168 73t-64 181t64 180.5t168 72.5q91 0 154 -58q38 36 41 77l-10 -1q-15 0 -25 10.5t-10 26.5q0 15 10.5 26t26.5 11q19 0 32 -15t13 -42q0 -69 -55 -117zM285 35q82 0 129.5 60.5t47.5 146.5
q0 85 -47.5 145.5t-129.5 60.5q-81 0 -128.5 -60.5t-47.5 -145.5t47.5 -146t128.5 -61z" />
    <glyph glyph-name="Uhorn" unicode="&#x1af;" horiz-adv-x="686" 
d="M721 729q0 -50 -32 -92t-86 -61v-320q0 -126 -66.5 -197t-193.5 -71q-126 0 -193 71.5t-67 196.5v385q0 12 8.5 20.5t20.5 8.5t20.5 -8.5t8.5 -20.5v-384q0 -102 52.5 -159.5t149.5 -57.5q98 0 150 57t52 160v384q0 12 8.5 20.5t20.5 8.5q13 0 21 -8.5t8 -20.5v-31
q34 15 57 44t24 60q0 -2 -9 -2q-16 0 -26 11t-10 27q0 15 10.5 26t26.5 11q19 0 32 -15.5t13 -42.5z" />
    <glyph glyph-name="uhorn" unicode="&#x1b0;" horiz-adv-x="540" 
d="M557 533q0 -45 -26.5 -83.5t-71.5 -61.5v-365q0 -11 -7.5 -18.5t-18.5 -7.5t-18.5 7.5t-7.5 18.5v48q-32 -36 -78 -59.5t-96 -23.5q-76 0 -114 37.5t-38 117.5v317q0 10 7.5 18t18.5 8t18.5 -8t7.5 -18v-305q0 -67 30 -93.5t87 -26.5q45 0 88.5 23t68.5 57v345
q0 10 7.5 18t18.5 8t18.5 -8t7.5 -18v-36q59 37 61 93q-6 -1 -9 -1q-16 0 -26 10.5t-10 26.5q0 15 11 26t27 11q19 0 31.5 -15t12.5 -42z" />
    <glyph glyph-name="Gcaron" unicode="&#x1e6;" horiz-adv-x="711" 
d="M360 732l-80 116q-2 4 -2 8q0 7 5 12t12 5t12 -6l86 -113l85 113q4 6 12 6q7 0 12.5 -5t5.5 -12q0 -5 -3 -8l-79 -116q-10 -16 -29 -16h-9q-20 0 -28 16zM618 331q31 0 31 -31v-179q0 -25 -16 -38q-96 -96 -237 -96q-143 0 -240.5 97t-97.5 249t97.5 248.5t240.5 96.5
q138 0 233 -93q7 -6 7 -18t-7.5 -19.5t-19.5 -7.5q-11 0 -18 7q-79 79 -195 79q-119 0 -198.5 -82t-79.5 -211q0 -128 79.5 -211t198.5 -83q61 0 112 24t84 57v160h-230q-11 0 -18.5 7.5t-7.5 18.5q0 10 7.5 17.5t18.5 7.5h256z" />
    <glyph glyph-name="gcaron" unicode="&#x1e7;" horiz-adv-x="570" 
d="M252 585l-80 116q-2 4 -2 8q0 7 5 12t12 5t12 -6l86 -113l85 113q4 6 12 6q7 0 12.5 -5t5.5 -12q0 -5 -3 -8l-79 -116q-10 -16 -29 -16h-9q-20 0 -28 16zM464 486q10 0 18 -8t8 -18v-455q0 -104 -60.5 -152.5t-157.5 -48.5q-58 0 -97.5 12.5t-76.5 46.5q-9 6 -9 19
q0 10 7 17t17 7q9 0 15 -6q54 -51 144 -51q72 0 118.5 38.5t46.5 116.5v75q-29 -39 -73.5 -64t-94.5 -25q-97 0 -156.5 68.5t-59.5 183.5q0 114 60 183.5t156 69.5q103 0 168 -89v54q0 11 8 18.5t19 7.5zM278 37q49 0 93 25.5t66 62.5v235q-22 37 -66 62.5t-93 25.5
q-78 0 -123.5 -58t-45.5 -148t45.5 -147.5t123.5 -57.5z" />
    <glyph glyph-name="uni01EA" unicode="&#x1ea;" horiz-adv-x="764" 
d="M443 -7q-77 -50 -77 -95q0 -20 12.5 -32t34.5 -12q11 0 20 3.5t12 3.5q8 0 13.5 -5.5t5.5 -13.5q0 -12 -11 -18q-24 -10 -48 -10q-38 0 -65 19.5t-27 53.5q0 55 77 101h-8q-145 0 -234.5 98t-89.5 247t89.5 247t234.5 98q144 0 234 -98t90 -247q0 -132 -71.5 -225.5
t-191.5 -114.5zM118 333q0 -128 72 -210.5t192 -82.5q118 0 191 82.5t73 210.5q0 129 -72.5 211t-191.5 82q-120 0 -192 -82t-72 -211z" />
    <glyph glyph-name="uni01EB" unicode="&#x1eb;" 
d="M336 -7q-77 -50 -77 -95q0 -20 12.5 -32t34.5 -12q11 0 20 3.5t12 3.5q8 0 13.5 -5.5t5.5 -13.5q0 -12 -11 -18q-24 -10 -48 -10q-38 0 -65 19.5t-27 53.5q0 55 77 101q-103 1 -166.5 74t-63.5 180q0 108 64 180.5t168 72.5q105 0 169 -72.5t64 -180.5q0 -94 -49 -162.5
t-133 -86.5zM109 242q0 -85 47.5 -146t128.5 -61q82 0 129.5 60.5t47.5 146.5q0 85 -47.5 145.5t-129.5 60.5q-81 0 -128.5 -60.5t-47.5 -145.5z" />
    <glyph glyph-name="Aringacute" unicode="&#x1fa;" horiz-adv-x="647" 
d="M330 932q-6 0 -10.5 4.5t-4.5 10.5q0 3 5 11l127 118q6 6 14 6t14 -6t6 -14q0 -10 -7 -15l-133 -111q-4 -4 -11 -4zM324 715q-40 0 -68 28t-28 68q0 39 28 67.5t68 28.5q39 0 66.5 -28.5t27.5 -67.5q0 -40 -27.5 -68t-66.5 -28zM324 875q-26 0 -45 -19t-19 -45t19 -45
t45 -19t44.5 19t18.5 45t-18.5 45t-44.5 19zM616 39q3 -9 3 -12q0 -12 -8.5 -21t-21.5 -9q-21 0 -28 19l-59 148h-357l-59 -148q-7 -19 -28 -19q-13 0 -21.5 9t-8.5 21q0 5 3 12l246 600q12 31 46 31q33 0 47 -31zM166 216h315l-158 395z" />
    <glyph glyph-name="aringacute" unicode="&#x1fb;" horiz-adv-x="521" 
d="M272 785q-6 0 -10.5 4.5t-4.5 10.5q0 4 5 11l127 118q6 6 14 6t14 -6t6 -14q0 -10 -7 -15l-133 -111q-4 -4 -11 -4zM266 568q-40 0 -68 28t-28 68q0 39 28 67.5t68 28.5q39 0 66.5 -28.5t27.5 -67.5q0 -40 -27.5 -68t-66.5 -28zM266 728q-26 0 -45 -19t-19 -45t19 -45
t45 -19t44.5 19t18.5 45t-18.5 45t-44.5 19zM264 495q78 0 127 -39t49 -116v-317q0 -11 -8 -18.5t-18 -7.5t-18 7.5t-8 18.5v36q-61 -71 -164 -71q-67 0 -118 43.5t-51 117.5q0 75 50.5 117.5t118.5 42.5q102 0 164 -69v98q0 52 -37 81.5t-93 29.5q-79 0 -136 -57
q-7 -5 -15 -5q-10 0 -16.5 6.5t-6.5 16.5q0 11 8 17q69 68 172 68zM242 29q95 0 146 66v106q-52 67 -146 67q-59 0 -95.5 -34t-36.5 -86t36.5 -85.5t95.5 -33.5z" />
    <glyph glyph-name="AEacute" unicode="&#x1fc;" horiz-adv-x="939" 
d="M491 720q-6 0 -10.5 4.5t-4.5 10.5q0 3 5 11l127 118q6 6 14 6t14 -6t6 -14q0 -10 -7 -15l-133 -111q-4 -4 -11 -4zM856 52q10 0 18 -8t8 -18t-8 -18t-18 -8h-368q-32 0 -32 31v133h-276l-95 -154q-8 -13 -24 -13q-11 0 -19 8t-8 20q0 4 4 14l383 607q13 21 38 21h397
q10 0 18 -7.5t8 -18.5t-8 -18.5t-18 -7.5h-342v-247h335q11 0 18.5 -8t7.5 -18t-7.5 -18t-18.5 -8h-335v-264h342zM212 216h244v396z" />
    <glyph glyph-name="aeacute" unicode="&#x1fd;" horiz-adv-x="897" 
d="M459 577q-4 -4 -11 -4q-6 0 -10.5 4.5t-4.5 10.5q0 4 5 11l127 118q6 6 14 6t14 -6t6 -14q0 -10 -7 -15zM465 225q4 -82 51 -137t123 -55t135 54q5 5 13 5q9 0 15.5 -6.5t6.5 -15.5q0 -7 -8 -17q-70 -65 -162 -65q-67 0 -118 33t-78 96q-23 -59 -75.5 -94t-119.5 -35
q-84 0 -138.5 43t-54.5 118t52 117.5t127 42.5q111 0 179 -67v96q0 53 -38.5 82t-102.5 29q-88 0 -150 -58q-7 -5 -14 -5q-10 0 -17 7t-7 17q0 11 9 18q73 67 187 67q63 0 111.5 -27.5t58.5 -87.5q26 51 72.5 83t107.5 32q100 0 157 -71t57 -170q0 -29 -31 -29h-348z
M791 266q0 71 -42 127.5t-121 56.5q-73 0 -116.5 -57t-46.5 -127h326zM413 200q-57 68 -159 68q-65 0 -104.5 -33t-39.5 -84q0 -52 39.5 -85t104.5 -33q69 0 114 45.5t45 105.5v16z" />
    <glyph glyph-name="Oslashacute" unicode="&#x1fe;" horiz-adv-x="764" 
d="M389 720q-6 0 -10.5 4.5t-4.5 10.5q0 3 5 11l127 118q6 6 14 6t14 -6t6 -14q0 -10 -7 -15l-133 -111q-4 -4 -11 -4zM582 612q59 -48 91.5 -120.5t32.5 -158.5q0 -149 -90 -247t-234 -98q-94 0 -168 44l-16 -25q-5 -10 -17 -10q-9 0 -15 6.5t-6 15.5q0 8 3 11l17 26
q-58 47 -90 119t-32 158q0 149 89.5 247t234.5 98q92 0 165 -42l15 24q7 10 18 10q9 0 15 -6t6 -15q0 -7 -3 -12zM118 333q0 -147 91 -230l309 487q-61 36 -136 36q-120 0 -192 -82t-72 -211zM382 40q118 0 191 82.5t73 210.5q0 151 -94 232l-309 -487q62 -38 139 -38z" />
    <glyph glyph-name="oslashacute" unicode="&#x1ff;" 
d="M292 573q-6 0 -10.5 4.5t-4.5 10.5q0 4 5 11l127 118q6 6 14 6t14 -6t6 -14q0 -10 -7 -15l-133 -111q-4 -4 -11 -4zM447 430q71 -71 71 -188q0 -108 -64 -181t-169 -73q-82 0 -140 47l-24 -31q-5 -7 -14 -7q-7 0 -12 5t-5 12t4 11l26 33q-67 73 -67 184q0 108 64 180.5
t168 72.5q76 0 136 -42l20 26q5 7 14 7q7 0 12 -5.5t5 -12.5q0 -1 -3 -10zM109 242q0 -83 43 -141l238 311q-46 36 -105 36q-81 0 -128.5 -60.5t-47.5 -145.5zM285 35q82 0 129.5 60.5t47.5 146.5q0 87 -47 145l-239 -311q44 -41 109 -41z" />
    <glyph glyph-name="uni0218" unicode="&#x218;" horiz-adv-x="581" 
d="M63 76q-9 8 -9 21q0 12 8.5 20.5t19.5 8.5t20 -7q81 -79 189 -79q93 0 134.5 40.5t41.5 92.5q0 27 -11 49t-25.5 35.5t-42.5 26t-48 19t-56 15.5q-36 10 -53.5 15.5t-48.5 17t-47 23.5t-34 30t-26 42t-8 54q0 80 63.5 129t158.5 49q123 0 206 -77q11 -7 11 -21
q0 -11 -8.5 -19.5t-20.5 -8.5t-18 7q-67 67 -173 67q-69 0 -114 -34.5t-45 -88.5q0 -23 10.5 -41.5t24 -30t40 -22.5t45.5 -17t54 -15q43 -12 66 -19.5t59 -25t54 -36t32.5 -49.5t14.5 -70q0 -76 -57 -132.5t-180 -56.5q-137 0 -227 88zM262 -264q-7 0 -12.5 5t-5.5 12
q0 8 9 15q39 38 41 78l-10 -1q-16 0 -26 10.5t-10 27.5q0 16 11 27.5t27 11.5q20 0 33.5 -16t13.5 -43q0 -72 -58 -121q-6 -6 -13 -6z" />
    <glyph glyph-name="uni0219" unicode="&#x219;" horiz-adv-x="459" 
d="M54 50q-9 7 -9 18q0 10 7.5 17.5t17.5 7.5q9 0 15 -6q58 -55 141 -55q60 0 94.5 26.5t34.5 69.5q0 18 -8 32.5t-19 23.5t-31.5 17.5t-35 13t-41.5 11.5q-34 8 -50 12.5t-43.5 16t-41 24t-24.5 34t-11 48.5q0 57 46.5 95.5t125.5 38.5q98 0 159 -58q8 -8 8 -18
q0 -9 -6.5 -16t-16.5 -7q-8 0 -14 6q-51 49 -130 49q-55 0 -88 -24.5t-33 -62.5q0 -16 8 -29t17.5 -20.5t30 -15.5t33 -11.5t40.5 -10.5q34 -9 51 -14t45.5 -17t42.5 -26t25.5 -37t11.5 -53q0 -62 -47 -102t-134 -40q-103 0 -171 62zM198 -264q-7 0 -12.5 5t-5.5 12
q0 8 9 15q39 38 41 78l-10 -1q-16 0 -26 10.5t-10 27.5q0 16 11 27.5t27 11.5q20 0 33.5 -16t13.5 -43q0 -72 -58 -121q-6 -6 -13 -6z" />
    <glyph glyph-name="uni021A" unicode="&#x21a;" horiz-adv-x="564" 
d="M282 -3q-12 0 -20.5 9t-8.5 20v589h-195q-10 0 -18 7.5t-8 18.5t8 18.5t18 7.5h449q11 0 18.5 -7.5t7.5 -18.5t-7.5 -18.5t-18.5 -7.5h-196v-589q0 -11 -8.5 -20t-20.5 -9zM259 -264q-7 0 -12.5 5t-5.5 12q0 8 9 15q39 38 41 78l-10 -1q-16 0 -26 10.5t-10 27.5
q0 16 11 27.5t27 11.5q20 0 33.5 -16t13.5 -43q0 -72 -58 -121q-6 -6 -13 -6z" />
    <glyph glyph-name="uni021B" unicode="&#x21b;" horiz-adv-x="275" 
d="M242 50q10 0 16.5 -6.5t6.5 -16.5q0 -13 -12 -20q-27 -19 -67 -19q-95 0 -95 105v344h-59q-10 0 -17 6.5t-7 16.5t7 16.5t17 6.5h59v109q0 11 8 18.5t19 7.5q10 0 18 -8t8 -18v-109h77q10 0 17 -6.5t7 -16.5t-7 -16.5t-17 -6.5h-77v-336q0 -66 50 -66q17 0 30.5 7.5
t17.5 7.5zM142 -78q20 0 33.5 -16t13.5 -43q0 -72 -58 -121q-6 -6 -13 -6t-12.5 5t-5.5 12q0 8 9 15q39 38 41 78l-10 -1q-16 0 -26 10.5t-10 27.5q0 16 11 27.5t27 11.5z" />
    <glyph glyph-name="uni0232" unicode="&#x232;" horiz-adv-x="618" 
d="M177 744q-8 0 -13.5 5.5t-5.5 12.5q0 8 5.5 13.5t13.5 5.5h263q8 0 13.5 -5.5t5.5 -13.5q0 -7 -5.5 -12.5t-13.5 -5.5h-263zM580 642q0 -11 -5 -16l-237 -340v-260q0 -11 -8.5 -20t-20.5 -9t-20.5 9t-8.5 20v259l-237 340q-5 7 -5 17q0 11 8.5 19.5t20.5 8.5q16 0 24 -12
l218 -321l218 321q7 12 24 12q12 0 20.5 -8.5t8.5 -19.5z" />
    <glyph glyph-name="uni0233" unicode="&#x233;" horiz-adv-x="481" 
d="M109 597q-8 0 -13.5 5.5t-5.5 12.5q0 8 5.5 13.5t13.5 5.5h263q8 0 13.5 -5.5t5.5 -13.5q0 -7 -5.5 -12.5t-13.5 -5.5h-263zM50 -170q0 10 7.5 17t17.5 7q1 0 9 -1.5t16 -1.5q49 0 73 59l38 86l-189 451q-2 5 -2 12q0 11 7.5 19t18.5 8q18 0 25 -17l170 -408l169 408
q5 17 24 17q12 0 19.5 -8t7.5 -19q0 -4 -3 -13l-234 -552q-37 -90 -124 -90q-9 0 -27 2q-23 3 -23 24z" />
    <glyph glyph-name="uni0237" unicode="&#x237;" horiz-adv-x="214" 
d="M5 -196q-18 0 -33 4q-20 3 -20 23q0 9 6 16t15 7q1 0 9.5 -2t18.5 -2q80 0 80 88v522q0 10 7.5 18t18.5 8t18.5 -8t7.5 -18v-522q0 -66 -33.5 -100t-94.5 -34z" />
    <glyph glyph-name="uni0259" unicode="&#x259;" horiz-adv-x="567" 
d="M513 241q0 -106 -66 -179.5t-166 -73.5q-106 0 -167 73.5t-61 182.5q0 15 31 15h373q-4 81 -55 136t-134 55q-84 0 -145 -55q-5 -4 -13 -4q-9 0 -15.5 6.5t-6.5 15.5q0 8 9 17q74 65 175 65q106 0 173.5 -71t67.5 -183zM282 33q79 0 125.5 56.5t49.5 127.5h-351
q0 -70 46 -127t130 -57z" />
    <glyph glyph-name="uni0272" unicode="&#x272;" horiz-adv-x="540" 
d="M307 495q152 0 152 -157v-315q0 -11 -7.5 -18.5t-18.5 -7.5t-18.5 7.5t-7.5 18.5v304q0 66 -30 93.5t-87 27.5q-45 0 -89 -24t-68 -59v-427q0 -66 -33.5 -100t-94.5 -34q-18 0 -33 4q-20 3 -20 22q0 11 7.5 18t17.5 6q14 -4 24 -4q80 2 80 88v522q0 10 7.5 18t18.5 8
t18.5 -8t7.5 -18v-50q29 34 77 59.5t97 25.5z" />
    <glyph glyph-name="uni02B0" unicode="&#x2b0;" horiz-adv-x="392" 
d="M306 323q-9 0 -15 6.5t-6 14.5v190q0 43 -19.5 60.5t-56.5 17.5q-29 0 -57.5 -15t-44.5 -36v-217q0 -8 -6 -14.5t-15 -6.5t-15 6.5t-6 14.5v398q0 8 6 14.5t15 6.5t15 -6.5t6 -14.5v-149q19 22 51 38.5t66 16.5q104 0 104 -108v-196q0 -8 -6 -14.5t-16 -6.5z" />
    <glyph glyph-name="uni02BC" unicode="&#x2bc;" horiz-adv-x="219" 
d="M98 484q-6 -4 -13 -4q-8 0 -13 5.5t-5 13.5t5 13q42 41 44 82q-6 -2 -10 -2q-18 0 -29.5 12t-11.5 30q0 17 12.5 30t30.5 13q21 0 36 -17t15 -47q0 -73 -61 -129z" />
    <glyph glyph-name="circumflex" unicode="&#x2c6;" horiz-adv-x="250" 
d="M210 555l-85 114l-86 -114q-6 -6 -12 -6q-7 0 -12 5t-5 12q0 3 2 9l80 116q8 15 28 15h9q19 0 29 -15l79 -116q3 -5 3 -9q0 -7 -5.5 -12t-12.5 -5q-6 0 -12 6z" />
    <glyph glyph-name="caron" unicode="&#x2c7;" horiz-adv-x="250" 
d="M222 706q7 0 12.5 -5t5.5 -12q0 -5 -3 -8l-79 -116q-10 -16 -29 -16h-9q-20 0 -28 16l-80 116q-2 4 -2 8q0 7 5 12t12 5t12 -6l86 -113l85 113q4 6 12 6z" />
    <glyph glyph-name="uni02C9" unicode="&#x2c9;" horiz-adv-x="363" 
d="M50 591q-8 0 -13.5 5.5t-5.5 12.5q0 8 5.5 14t13.5 6h263q8 0 13.5 -6t5.5 -14q0 -7 -5.5 -12.5t-13.5 -5.5h-263z" />
    <glyph glyph-name="uni02CB" unicode="&#x2cb;" horiz-adv-x="216" 
d="M171 557l-133 111q-7 5 -7 15q0 8 6 14t14 6q7 0 13 -6l127 -118q5 -5 5 -11t-4.5 -10.5t-10.5 -4.5t-10 4z" />
    <glyph glyph-name="breve" unicode="&#x2d8;" horiz-adv-x="351" 
d="M176 547q-97 0 -166 75q-4 5 -4 13t5.5 13.5t13.5 5.5q9 0 14 -6q54 -63 137 -63q82 0 137 63q3 6 14 6q7 0 13 -6t6 -13q0 -6 -5 -13q-67 -75 -165 -75z" />
    <glyph glyph-name="dotaccent" unicode="&#x2d9;" horiz-adv-x="113" 
d="M19 603q0 16 11 27t27 11q15 0 26 -11t11 -27t-11 -27t-26 -11q-16 0 -27 11t-11 27z" />
    <glyph glyph-name="ring" unicode="&#x2da;" horiz-adv-x="230" 
d="M20 644q0 39 28 67.5t68 28.5q39 0 66.5 -28.5t27.5 -67.5q0 -40 -27.5 -68t-66.5 -28q-40 0 -68 28t-28 68zM179 644q0 26 -18.5 45t-44.5 19t-45 -19t-19 -45t19 -45t45 -19t44.5 19t18.5 45z" />
    <glyph glyph-name="ogonek" unicode="&#x2db;" horiz-adv-x="185" 
d="M109 -186q-38 0 -65 19.5t-27 53.5t30 64.5t78 52.5q30 11 40 4q3 -2 -4 -6q-44 -28 -67.5 -52t-23.5 -52q0 -20 12.5 -32t34.5 -12q11 0 20 3.5t12 3.5q8 0 13.5 -5.5t5.5 -13.5q0 -12 -11 -18q-24 -10 -48 -10z" />
    <glyph glyph-name="tilde" unicode="&#x2dc;" horiz-adv-x="307" 
d="M215 554q-20 0 -35.5 10t-22 19t-18.5 29q-25 45 -50 45q-22 0 -36.5 -21t-16.5 -63q-2 -16 -18 -16q-7 0 -12.5 6t-4.5 13q4 53 28 85.5t64 32.5q19 0 34 -10t22 -19.5t19 -28.5q10 -16 14.5 -22.5t14.5 -14t21 -7.5q22 0 36.5 20.5t16.5 62.5q2 16 18 16q7 0 12.5 -5.5
t4.5 -13.5q-4 -53 -28 -85.5t-63 -32.5z" />
    <glyph glyph-name="hungarumlaut" unicode="&#x2dd;" horiz-adv-x="291" 
d="M25 550q-16 0 -16 15q0 6 4 11l83 121q5 10 17 10q8 0 14.5 -6.5t6.5 -15.5q0 -7 -4 -12l-92 -115q-5 -8 -13 -8zM164 550q-16 0 -16 15q0 6 4 11l83 121q5 10 17 10q8 0 14.5 -6.5t6.5 -15.5q0 -7 -4 -12l-92 -115q-5 -8 -13 -8z" />
    <glyph glyph-name="gravecomb" unicode="&#x300;" horiz-adv-x="0" 
d="M-45 557l-133 111q-7 5 -7 15q0 8 6 14t14 6q7 0 13 -6l127 -118q5 -5 5 -11t-4.5 -10.5t-10.5 -4.5t-10 4z" />
    <glyph glyph-name="acutecomb" unicode="&#x301;" horiz-adv-x="0" 
d="M-171 557q-4 -4 -11 -4q-6 0 -10.5 4.5t-4.5 10.5q0 4 5 11l127 118q6 6 14 6t14 -6t6 -14q0 -10 -7 -15z" />
    <glyph glyph-name="uni0302" unicode="&#x302;" horiz-adv-x="0" 
d="M-40 555l-85 114l-86 -114q-6 -6 -12 -6q-7 0 -12 5t-5 12q0 3 2 9l80 116q8 15 28 15h9q19 0 29 -15l79 -116q3 -5 3 -9q0 -7 -5.5 -12t-12.5 -5q-6 0 -12 6z" />
    <glyph glyph-name="tildecomb" unicode="&#x303;" horiz-adv-x="0" 
d="M-92 554q-20 0 -35.5 10t-22 19t-18.5 29q-25 45 -50 45q-22 0 -36.5 -21t-16.5 -63q-2 -16 -18 -16q-7 0 -12.5 6t-4.5 13q4 53 28 85.5t64 32.5q19 0 34 -10t22 -19.5t19 -28.5q10 -16 14.5 -22.5t14.5 -14t21 -7.5q22 0 36.5 20.5t16.5 62.5q2 16 18 16q7 0 12.5 -5.5
t4.5 -13.5q-4 -53 -28 -85.5t-63 -32.5z" />
    <glyph glyph-name="uni0304" unicode="&#x304;" horiz-adv-x="0" 
d="M-313 577q-8 0 -13.5 5.5t-5.5 12.5q0 8 5.5 13.5t13.5 5.5h263q8 0 13.5 -5.5t5.5 -13.5q0 -7 -5.5 -12.5t-13.5 -5.5h-263z" />
    <glyph glyph-name="uni0306" unicode="&#x306;" horiz-adv-x="0" 
d="M-175 547q-97 0 -166 75q-4 5 -4 13t5.5 13.5t13.5 5.5q10 0 14 -6q54 -63 137 -63q82 0 137 63q3 6 14 6q8 0 13.5 -6t5.5 -13q0 -6 -5 -13q-67 -75 -165 -75z" />
    <glyph glyph-name="uni0307" unicode="&#x307;" horiz-adv-x="0" 
d="M-94 603q0 16 11 27t27 11q15 0 26 -11t11 -27t-11 -27t-26 -11q-16 0 -27 11t-11 27z" />
    <glyph glyph-name="uni0308" unicode="&#x308;" horiz-adv-x="0" 
d="M-307 568q-15 0 -26 11t-11 27q0 15 11 26t26 11t26 -11t11 -26q0 -16 -11 -27t-26 -11zM-103 568q-15 0 -26 11t-11 27q0 15 11 26t26 11t26.5 -11t11.5 -26q0 -16 -11.5 -27t-26.5 -11z" />
    <glyph glyph-name="uni0309" unicode="&#x309;" horiz-adv-x="0" 
d="M-38 554q-7 0 -12 5t-5 12q0 4 3 10q14 22 14 47q0 26 -13.5 40t-37.5 14q-36 0 -51 -35q-5 -10 -16 -10q-7 0 -12.5 5.5t-5.5 12.5q0 6 3 11q26 50 82 50q38 0 63 -22t25 -66q0 -33 -22 -65q-6 -9 -15 -9z" />
    <glyph glyph-name="uni030A" unicode="&#x30a;" horiz-adv-x="0" 
d="M-210 644q0 39 28 67.5t68 28.5q39 0 66.5 -28.5t27.5 -67.5q0 -40 -27.5 -68t-66.5 -28q-40 0 -68 28t-28 68zM-51 644q0 26 -18.5 45t-44.5 19t-45 -19t-19 -45t19 -45t45 -19t44.5 19t18.5 45z" />
    <glyph glyph-name="uni030B" unicode="&#x30b;" horiz-adv-x="0" 
d="M-266 550q-16 0 -16 15q0 6 4 11l83 121q5 10 17 10q8 0 14.5 -6.5t6.5 -15.5q0 -7 -4 -12l-92 -115q-5 -8 -13 -8zM-127 550q-16 0 -16 15q0 6 4 11l83 121q5 10 17 10q8 0 14.5 -6.5t6.5 -15.5q0 -7 -4 -12l-92 -115q-5 -8 -13 -8z" />
    <glyph glyph-name="uni030C" unicode="&#x30c;" horiz-adv-x="0" 
d="M-28 706q7 0 12.5 -5t5.5 -12q0 -5 -3 -8l-79 -116q-10 -16 -29 -16h-9q-20 0 -28 16l-80 116q-2 4 -2 8q0 7 5 12t12 5t12 -6l86 -113l85 113q4 6 12 6z" />
    <glyph glyph-name="dotbelowcomb" unicode="&#x323;" horiz-adv-x="0" 
d="M-94 -119q0 16 11 27t27 11q15 0 26 -11t11 -27t-11 -27t-26 -11q-16 0 -27 11t-11 27z" />
    <glyph glyph-name="uni0326" unicode="&#x326;" horiz-adv-x="0" 
d="M-135 -264q-7 0 -12.5 5t-5.5 12q0 8 9 15q39 38 41 78l-10 -1q-16 0 -26 10.5t-10 27.5q0 16 11 27.5t27 11.5q20 0 33.5 -16t13.5 -43q0 -72 -58 -121q-6 -6 -13 -6z" />
    <glyph glyph-name="uni0327" unicode="&#x327;" horiz-adv-x="0" 
d="M-101 -189q-51 0 -88 23q-9 4 -9 15q0 18 17 18q7 0 11 -3q28 -20 68 -20q28 0 46.5 12t18.5 33q0 39 -41 39q-20 0 -34 -12q-6 -4 -12 -4q-8 0 -13.5 5t-5.5 13q0 3 2 9l26 72h38l-26 -68q15 12 37 12q29 0 47.5 -18t18.5 -48q0 -35 -29 -56.5t-72 -21.5z" />
    <glyph glyph-name="uni0328" unicode="&#x328;" horiz-adv-x="0" 
d="M-76 -186q-38 0 -65 19.5t-27 53.5t30 64.5t78 52.5q30 11 40 4q3 -2 -4 -6q-44 -28 -67.5 -52t-23.5 -52q0 -20 12.5 -32t34.5 -12q11 0 20 3.5t12 3.5q8 0 13.5 -5.5t5.5 -13.5q0 -12 -11 -18q-24 -10 -48 -10z" />
    <glyph glyph-name="uni037E" unicode="&#x37e;" horiz-adv-x="219" 
d="M109 403q-18 0 -31 13t-13 30q0 18 13 31t31 13t31.5 -13t13.5 -31q0 -17 -13.5 -30t-31.5 -13zM98 -115q-4 -4 -13 -4q-8 0 -13 5.5t-5 13.5t5 13q42 41 44 81q-3 -1 -10 -1q-18 0 -29.5 12t-11.5 30q0 17 12.5 30t30.5 13q21 0 36 -17t15 -47q0 -73 -61 -129z" />
    <glyph glyph-name="tonos" unicode="&#x384;" horiz-adv-x="116" 
d="M34 568q-7 0 -12 5.5t-4 12.5l15 157q1 11 9.5 19t19.5 8q12 0 20.5 -9t8.5 -20q0 -2 -2 -12l-40 -149q-2 -12 -15 -12z" />
    <glyph glyph-name="dieresistonos" unicode="&#x385;" horiz-adv-x="364" 
d="M173 568q-7 0 -12 5.5t-4 12.5l14 157q1 12 9.5 19.5t19.5 7.5q12 0 20.5 -8.5t8.5 -20.5q0 -4 -2 -12l-39 -149q-3 -12 -15 -12zM54 568q-15 0 -26 11t-11 27q0 15 11 26t26 11t26 -11t11 -26q0 -16 -11 -27t-26 -11zM310 568q-16 0 -26.5 11t-10.5 27q0 15 10.5 26
t26.5 11q15 0 26 -11t11 -26q0 -16 -11 -27t-26 -11z" />
    <glyph glyph-name="Alphatonos" unicode="&#x386;" horiz-adv-x="647" 
d="M123 471q-7 0 -12 5.5t-4 12.5l15 157q1 11 9.5 19t19.5 8q12 0 20.5 -9t8.5 -20q0 -2 -2 -12l-40 -149q-2 -12 -15 -12zM616 39q3 -9 3 -12q0 -12 -8.5 -21t-21.5 -9q-21 0 -28 19l-59 148h-357l-59 -148q-7 -19 -28 -19q-13 0 -21.5 9t-8.5 21q0 5 3 12l246 600
q12 31 46 31q33 0 47 -31zM166 216h315l-158 395z" />
    <glyph glyph-name="Epsilontonos" unicode="&#x388;" horiz-adv-x="600" 
d="M5 471q-7 0 -12 5.5t-4 12.5l15 157q1 11 9.5 19t19.5 8q12 0 20.5 -9t8.5 -20q0 -2 -2 -12l-40 -149q-2 -12 -15 -12zM151 0q-31 0 -31 31v605q0 31 31 31h369q10 0 18 -7.5t8 -18.5t-8 -18.5t-18 -7.5h-343v-247h336q11 0 18.5 -8t7.5 -18t-7.5 -18t-18.5 -8h-336v-264
h343q10 0 18 -8t8 -18t-8 -18t-18 -8h-369z" />
    <glyph glyph-name="Etatonos" unicode="&#x389;" horiz-adv-x="740" 
d="M5 471q-7 0 -12 5.5t-4 12.5l15 157q1 11 9.5 19t19.5 8q12 0 20.5 -9t8.5 -20q0 -2 -2 -12l-40 -149q-2 -12 -15 -12zM629 -3q-12 0 -20.5 9t-8.5 20v291h-423v-291q0 -12 -8 -20.5t-20 -8.5t-20.5 9t-8.5 20v615q0 12 8.5 20.5t20.5 8.5t20 -8.5t8 -20.5v-272h423v272
q0 12 8.5 20.5t20.5 8.5t20.5 -8.5t8.5 -20.5v-615q0 -11 -8.5 -20t-20.5 -9z" />
    <glyph glyph-name="Iotatonos" unicode="&#x38a;" horiz-adv-x="260" 
d="M5 471q-7 0 -12 5.5t-4 12.5l15 157q1 11 9.5 19t19.5 8q12 0 20.5 -9t8.5 -20q0 -2 -2 -12l-40 -149q-2 -12 -15 -12zM149 -3q-12 0 -20.5 9t-8.5 20v615q0 12 8.5 20.5t20.5 8.5t20 -8.5t8 -20.5v-615q0 -12 -8 -20.5t-20 -8.5z" />
    <glyph glyph-name="Omicrontonos" unicode="&#x38c;" horiz-adv-x="775" 
d="M69 333q0 149 89.5 247t234.5 98q144 0 234 -98t90 -247t-90 -247t-234 -98q-145 0 -234.5 98t-89.5 247zM12 471q-7 0 -12 5.5t-4 12.5l15 157q1 11 9.5 19t19.5 8q12 0 20.5 -9t8.5 -20q0 -2 -2 -12l-40 -149q-2 -12 -15 -12zM657 333q0 129 -72.5 211t-191.5 82
q-120 0 -192 -82t-72 -211q0 -128 72 -210.5t192 -82.5q118 0 191 82.5t73 210.5z" />
    <glyph glyph-name="Upsilontonos" unicode="&#x38e;" horiz-adv-x="678" 
d="M40 673q12 0 20.5 -9t8.5 -20q0 -2 -2 -12l-40 -149q-2 -12 -15 -12q-7 0 -12 5.5t-4 12.5l15 157q1 11 9.5 19t19.5 8zM640 642q0 -11 -5 -16l-237 -340v-260q0 -11 -8.5 -20t-20.5 -9t-20.5 9t-8.5 20v259l-237 340q-5 7 -5 17q0 11 8.5 19.5t20.5 8.5q17 0 24 -12
l218 -321l218 321q7 12 24 12q12 0 20.5 -8.5t8.5 -19.5z" />
    <glyph glyph-name="Omegatonos" unicode="&#x38f;" horiz-adv-x="778" 
d="M232 52q-160 94 -160 289q0 146 90 241.5t234 95.5q145 0 234.5 -95.5t89.5 -241.5q0 -195 -159 -289h119q10 0 18 -8t8 -18t-8 -18t-18 -8h-178q-13 0 -21.5 9t-8.5 21q0 21 19 28q70 24 119.5 95.5t49.5 179.5q0 127 -71 209.5t-193 82.5t-193 -82.5t-71 -209.5
q0 -108 50 -179.5t120 -95.5q19 -7 19 -28q0 -12 -8.5 -21t-21.5 -9h-178q-11 0 -18.5 8t-7.5 18t7.5 18t18.5 8h119zM12 471q-7 0 -12 5.5t-4 12.5l15 157q1 11 9.5 19t19.5 8q12 0 20.5 -9t8.5 -20q0 -2 -2 -12l-40 -149q-2 -12 -15 -12z" />
    <glyph glyph-name="iotadieresistonos" unicode="&#x390;" horiz-adv-x="228" 
d="M109 588q-7 0 -12 5.5t-4 12.5l14 157q1 12 9.5 19.5t19.5 7.5q12 0 20.5 -8.5t8.5 -20.5q0 -4 -2 -12l-39 -149q-3 -12 -15 -12zM-10 588q-15 0 -26 11t-11 27q0 15 11 26t26 11t26 -11t11 -26q0 -16 -11 -27t-26 -11zM246 588q-16 0 -26.5 11t-10.5 27q0 15 10.5 26
t26.5 11q15 0 26 -11t11 -26q0 -16 -11 -27t-26 -11zM175 -12q-94 0 -94 105v367q0 10 7.5 18t18.5 8t18.5 -8t7.5 -18v-361q0 -29 11.5 -46t34.5 -18h8q10 -1 15 -8t5 -15q0 -22 -21 -24h-11z" />
    <glyph glyph-name="Alpha" unicode="&#x391;" horiz-adv-x="647" 
d="M616 39q3 -9 3 -12q0 -12 -8.5 -21t-21.5 -9q-21 0 -28 19l-59 148h-357l-59 -148q-7 -19 -28 -19q-13 0 -21.5 9t-8.5 21q0 5 3 12l246 600q12 31 46 31q33 0 47 -31zM166 216h315l-158 395z" />
    <glyph glyph-name="Beta" unicode="&#x392;" horiz-adv-x="614" 
d="M114 0q-31 0 -31 31v605q0 31 31 31h243q84 0 134 -46t50 -124q0 -60 -34.5 -101.5t-82.5 -51.5q53 -8 91.5 -56.5t38.5 -107.5q0 -83 -51 -131.5t-140 -48.5h-249zM140 368h210q62 0 96.5 34.5t34.5 88.5q0 53 -34.5 88.5t-96.5 35.5h-210v-247zM140 52h214
q66 0 103 35.5t37 96.5q0 55 -37 93.5t-103 38.5h-214v-264z" />
    <glyph glyph-name="Gamma" unicode="&#x393;" horiz-adv-x="539" 
d="M112 -3q-12 0 -20.5 9t-8.5 20v610q0 31 31 31h369q11 0 18.5 -7.5t7.5 -18.5t-7.5 -18.5t-18.5 -7.5h-343v-589q0 -12 -8 -20.5t-20 -8.5z" />
    <glyph glyph-name="uni0394" unicode="&#x394;" horiz-adv-x="647" 
d="M54 0q-17 0 -24 10t0 26l247 603q12 31 46 31q35 0 47 -31l247 -603q7 -16 0 -26t-24 -10h-539zM323 606l-225 -554h451z" />
    <glyph glyph-name="Epsilon" unicode="&#x395;" horiz-adv-x="564" 
d="M114 0q-31 0 -31 31v605q0 31 31 31h369q11 0 18.5 -7.5t7.5 -18.5t-7.5 -18.5t-18.5 -7.5h-343v-247h336q10 0 18 -8t8 -18t-8 -18t-18 -8h-336v-264h343q11 0 18.5 -8t7.5 -18t-7.5 -18t-18.5 -8h-369z" />
    <glyph glyph-name="Zeta" unicode="&#x396;" horiz-adv-x="581" 
d="M82 0q-14 0 -24.5 10t-10.5 25q0 10 7 19l398 561h-379q-11 0 -18.5 7.5t-7.5 18.5t7.5 18.5t18.5 7.5h419q14 0 24.5 -10t10.5 -24q0 -11 -7 -20l-398 -561h386q10 0 18 -8t8 -18t-8 -18t-18 -8h-426z" />
    <glyph glyph-name="Eta" unicode="&#x397;" horiz-adv-x="703" 
d="M592 -3q-12 0 -20.5 9t-8.5 20v291h-423v-291q0 -12 -8 -20.5t-20 -8.5t-20.5 9t-8.5 20v615q0 12 8.5 20.5t20.5 8.5t20 -8.5t8 -20.5v-272h423v272q0 12 8.5 20.5t20.5 8.5t20.5 -8.5t8.5 -20.5v-615q0 -11 -8.5 -20t-20.5 -9z" />
    <glyph glyph-name="Theta" unicode="&#x398;" horiz-adv-x="764" 
d="M58 333q0 149 89.5 247t234.5 98q144 0 234 -98t90 -247t-90 -247t-234 -98q-145 0 -234.5 98t-89.5 247zM646 333q0 129 -72.5 211t-191.5 82q-120 0 -192 -82t-72 -211q0 -128 72 -210.5t192 -82.5q118 0 191 82.5t73 210.5zM204 316q-10 0 -18 8t-8 18t8 18t18 8h356
q10 0 18 -8t8 -18t-8 -18t-18 -8h-356z" />
    <glyph glyph-name="Iota" unicode="&#x399;" horiz-adv-x="223" 
d="M112 -3q-12 0 -20.5 9t-8.5 20v615q0 12 8.5 20.5t20.5 8.5t20 -8.5t8 -20.5v-615q0 -12 -8 -20.5t-20 -8.5z" />
    <glyph glyph-name="Kappa" unicode="&#x39a;" horiz-adv-x="586" 
d="M533 44q8 -10 8 -19q0 -11 -8 -19.5t-19 -8.5q-13 0 -21 8l-279 307l-74 -80v-206q0 -12 -8 -20.5t-20 -8.5t-20.5 9t-8.5 20v615q0 12 8.5 20.5t20.5 8.5t20 -8.5t8 -20.5v-340l326 360q7 9 20 9q11 0 19.5 -8t8.5 -19t-8 -19l-255 -276z" />
    <glyph glyph-name="Lambda" unicode="&#x39b;" horiz-adv-x="647" 
d="M588 -3q-22 0 -29 20l-236 589l-235 -589q-8 -20 -29 -20q-13 0 -22 9t-9 21q0 6 3 12l246 600q12 31 46 31q33 0 47 -31l246 -600q2 -4 2 -11q0 -12 -9 -21.5t-21 -9.5z" />
    <glyph glyph-name="Mu" unicode="&#x39c;" horiz-adv-x="790" 
d="M678 -3q-12 0 -20.5 9t-8.5 20v566l-237 -581q-6 -14 -17 -14q-12 0 -17 14l-238 581v-566q0 -12 -8 -20.5t-20 -8.5t-20.5 9t-8.5 20v594q0 20 14.5 35t35.5 15q35 0 47 -31l215 -529l215 529q12 31 47 31q21 0 35.5 -15t14.5 -35v-594q0 -11 -8.5 -20t-20.5 -9z" />
    <glyph glyph-name="Nu" unicode="&#x39d;" horiz-adv-x="699" 
d="M581 -3q-20 0 -30 15l-411 564v-550q0 -12 -8 -20.5t-20 -8.5t-20.5 9t-8.5 20v606q0 16 10.5 27t26.5 11q20 0 31 -16l408 -555v542q0 12 8 20.5t20 8.5t20.5 -8.5t8.5 -20.5v-608q0 -14 -10.5 -25t-24.5 -11z" />
    <glyph glyph-name="Xi" unicode="&#x39e;" horiz-adv-x="612" 
d="M82 615q-10 0 -18 7.5t-8 18.5t8 18.5t18 7.5h448q10 0 18 -7.5t8 -18.5t-8 -18.5t-18 -7.5h-448zM89 316q-11 0 -18.5 8t-7.5 18t7.5 18t18.5 8h435q10 0 18 -8t8 -18t-8 -18t-18 -8h-435zM81 0q-11 0 -18.5 8t-7.5 18t7.5 18t18.5 8h449q10 0 18 -8t8 -18t-8 -18
t-18 -8h-449z" />
    <glyph glyph-name="Omicron" unicode="&#x39f;" horiz-adv-x="764" 
d="M58 333q0 149 89.5 247t234.5 98q144 0 234 -98t90 -247t-90 -247t-234 -98q-145 0 -234.5 98t-89.5 247zM646 333q0 129 -72.5 211t-191.5 82q-120 0 -192 -82t-72 -211q0 -128 72 -210.5t192 -82.5q118 0 191 82.5t73 210.5z" />
    <glyph glyph-name="Pi" unicode="&#x3a0;" horiz-adv-x="703" 
d="M592 -3q-12 0 -20.5 9t-8.5 20v589h-423v-589q0 -12 -8 -20.5t-20 -8.5t-20.5 9t-8.5 20v610q0 31 31 31h475q32 0 32 -31v-610q0 -11 -8.5 -20t-20.5 -9z" />
    <glyph glyph-name="Rho" unicode="&#x3a1;" 
d="M112 -3q-12 0 -20.5 9t-8.5 20v610q0 31 31 31h219q93 0 147 -56.5t54 -138.5t-54.5 -138.5t-146.5 -56.5h-193v-251q0 -12 -8 -20.5t-20 -8.5zM474 472q0 63 -40.5 103t-106.5 40h-187v-286h187q66 0 106.5 40t40.5 103z" />
    <glyph glyph-name="Sigma" unicode="&#x3a3;" 
d="M126 52h364q10 0 18 -8t8 -18t-8 -18t-18 -8h-399q-14 0 -25 10.5t-11 25.5q0 14 9 23l237 284l-236 265q-9 9 -9 24q0 14 10.5 24.5t24.5 10.5h399q10 0 18 -7.5t8 -18.5t-8 -18.5t-18 -7.5h-361l222 -250q19 -22 1 -43z" />
    <glyph glyph-name="Tau" unicode="&#x3a4;" horiz-adv-x="564" 
d="M282 -3q-12 0 -20.5 9t-8.5 20v589h-195q-10 0 -18 7.5t-8 18.5t8 18.5t18 7.5h449q11 0 18.5 -7.5t7.5 -18.5t-7.5 -18.5t-18.5 -7.5h-196v-589q0 -11 -8.5 -20t-20.5 -9z" />
    <glyph glyph-name="Upsilon" unicode="&#x3a5;" horiz-adv-x="618" 
d="M580 642q0 -11 -5 -16l-237 -340v-260q0 -11 -8.5 -20t-20.5 -9t-20.5 9t-8.5 20v259l-237 340q-5 7 -5 17q0 11 8.5 19.5t20.5 8.5q16 0 24 -12l218 -321l218 321q7 12 24 12q12 0 20.5 -8.5t8.5 -19.5z" />
    <glyph glyph-name="Phi" unicode="&#x3a6;" horiz-adv-x="785" 
d="M727 333q0 -113 -83 -187.5t-223 -81.5v-38q0 -11 -8.5 -20t-19.5 -9q-12 0 -20.5 8.5t-8.5 20.5v38q-140 7 -223 82t-83 187t83 187t223 82v39q0 12 8 20.5t21 8.5q11 0 19.5 -8.5t8.5 -20.5v-39q139 -7 222.5 -82t83.5 -187zM118 333q0 -92 66 -150.5t180 -64.5v431
q-114 -7 -180 -65.5t-66 -150.5zM421 118q112 6 178.5 65t66.5 150q0 92 -66 150.5t-179 65.5v-431z" />
    <glyph glyph-name="Chi" unicode="&#x3a7;" horiz-adv-x="645" 
d="M602 44q7 -9 7 -18q0 -12 -8 -20.5t-20 -8.5q-14 0 -23 9l-235 294l-236 -294q-9 -9 -23 -9q-12 0 -20 8.5t-8 20.5q0 9 7 18l246 298l-232 281q-6 10 -6 18q0 12 8.5 20.5t20.5 8.5q14 0 22 -11l221 -274l220 274q8 11 22 11q12 0 20.5 -8.5t8.5 -20.5q0 -6 -7 -18
l-231 -280z" />
    <glyph glyph-name="Psi" unicode="&#x3a8;" horiz-adv-x="766" 
d="M625 641q0 11 8.5 20t20.5 9t20.5 -9t8.5 -20v-249q0 -120 -69.5 -190t-201.5 -77v-99q0 -11 -8.5 -20t-20.5 -9t-20.5 9t-8.5 20v99q-132 7 -201.5 77.5t-69.5 189.5v249q0 12 8.5 20.5t20.5 8.5t20.5 -8.5t8.5 -20.5v-248q0 -97 54.5 -153t158.5 -63v464q0 12 8.5 20.5
t20.5 8.5t20.5 -8.5t8.5 -20.5v-464q103 7 158 63t55 153v248z" />
    <glyph glyph-name="uni03A9" unicode="&#x3a9;" horiz-adv-x="764" 
d="M218 52q-160 94 -160 289q0 146 90 241.5t234 95.5q145 0 234.5 -95.5t89.5 -241.5q0 -195 -159 -289h119q10 0 18 -8t8 -18t-8 -18t-18 -8h-178q-13 0 -21.5 9t-8.5 21q0 21 19 28q70 24 119.5 95.5t49.5 179.5q0 127 -71 209.5t-193 82.5t-193 -82.5t-71 -209.5
q0 -108 50 -179.5t120 -95.5q19 -7 19 -28q0 -12 -8.5 -21t-21.5 -9h-178q-11 0 -18.5 8t-7.5 18t7.5 18t18.5 8h119z" />
    <glyph glyph-name="Iotadieresis" unicode="&#x3aa;" horiz-adv-x="223" 
d="M10 735q-15 0 -26 11t-11 27q0 15 11 26t26 11t26 -11t11 -26q0 -16 -11 -27t-26 -11zM214 735q-15 0 -26 11t-11 27q0 15 11 26t26 11t26.5 -11t11.5 -26q0 -16 -11.5 -27t-26.5 -11zM112 -3q-12 0 -20.5 9t-8.5 20v615q0 12 8.5 20.5t20.5 8.5t20 -8.5t8 -20.5v-615
q0 -12 -8 -20.5t-20 -8.5z" />
    <glyph glyph-name="Upsilondieresis" unicode="&#x3ab;" horiz-adv-x="618" 
d="M207 735q-15 0 -26 11t-11 27q0 15 11 26t26 11t26 -11t11 -26q0 -16 -11 -27t-26 -11zM411 735q-15 0 -26 11t-11 27q0 15 11 26t26 11t26.5 -11t11.5 -26q0 -16 -11.5 -27t-26.5 -11zM580 642q0 -11 -5 -16l-237 -340v-260q0 -11 -8.5 -20t-20.5 -9t-20.5 9t-8.5 20
v259l-237 340q-5 7 -5 17q0 11 8.5 19.5t20.5 8.5q16 0 24 -12l218 -321l218 321q7 12 24 12q12 0 20.5 -8.5t8.5 -19.5z" />
    <glyph glyph-name="alphatonos" unicode="&#x3ac;" horiz-adv-x="585" 
d="M289 588q-7 0 -12 5.5t-4 12.5l15 157q1 11 9.5 19t19.5 8q12 0 20.5 -9t8.5 -20q0 -2 -2 -12l-40 -149q-2 -12 -15 -12zM543 35q10 -1 15.5 -8t5.5 -15q0 -22 -22 -24h-10q-43 0 -66.5 24t-26.5 68q-26 -41 -71.5 -66.5t-98.5 -25.5q-97 0 -156.5 69t-59.5 184
q0 114 60 184t156 70q105 0 168 -90v55q0 11 8 18.5t19 7.5q10 0 18 -8t8 -18v-361q0 -63 45 -64h8zM437 121v239q-22 36 -66 62t-93 26q-78 0 -123.5 -58.5t-45.5 -148.5t45.5 -148t123.5 -58q49 0 93 25t66 61z" />
    <glyph glyph-name="epsilontonos" unicode="&#x3ad;" horiz-adv-x="486" 
d="M255 588q-7 0 -12 5.5t-4 12.5l15 157q1 11 9.5 19t19.5 8q12 0 20.5 -9t8.5 -20q0 -2 -2 -12l-40 -149q-2 -12 -15 -12zM252 -12q-94 0 -146.5 39t-52.5 101q0 55 39 84.5t85 33.5q-43 6 -78.5 37t-35.5 83q0 60 53.5 94.5t135.5 34.5q104 0 173 -66q7 -7 7 -17
q0 -9 -6.5 -15.5t-16.5 -6.5q-7 0 -14 5q-55 55 -144 55q-57 0 -95 -24.5t-38 -63.5q0 -46 39.5 -70.5t101.5 -24.5h63q10 0 17 -6t7 -16q0 -9 -7 -15.5t-16 -6.5h-64q-150 0 -150 -92q0 -45 38.5 -72t104.5 -27q88 0 151 57q6 6 14 6q11 0 18 -7.5t7 -17.5q0 -11 -9 -18
q-70 -64 -181 -64z" />
    <glyph glyph-name="etatonos" unicode="&#x3ae;" horiz-adv-x="540" 
d="M272 588q-7 0 -12 5.5t-4 12.5l15 157q1 11 9.5 19t19.5 8q12 0 20.5 -9t8.5 -20q0 -2 -2 -12l-40 -149q-2 -12 -15 -12zM307 495q152 0 152 -157v-499q0 -11 -7.5 -18.5t-18.5 -7.5t-18.5 7.5t-7.5 18.5v488q0 66 -30 93.5t-87 27.5q-45 0 -89 -24t-68 -59v-342
q0 -11 -7.5 -18.5t-18.5 -7.5t-18.5 7.5t-7.5 18.5v437q0 10 7.5 18t18.5 8t18.5 -8t7.5 -18v-50q29 34 77 59.5t97 25.5z" />
    <glyph glyph-name="iotatonos" unicode="&#x3af;" horiz-adv-x="228" 
d="M109 588q-7 0 -12 5.5t-4 12.5l15 157q1 11 9.5 19t19.5 8q12 0 20.5 -9t8.5 -20q0 -2 -2 -12l-40 -149q-2 -12 -15 -12zM175 -12q-94 0 -94 105v367q0 10 7.5 18t18.5 8t18.5 -8t7.5 -18v-361q0 -29 11.5 -46t34.5 -18h8q10 -1 15 -8t5 -15q0 -22 -21 -24h-11z" />
    <glyph glyph-name="upsilondieresistonos" unicode="&#x3b0;" horiz-adv-x="555" 
d="M272 588q-7 0 -12 5.5t-4 12.5l14 157q1 12 9.5 19.5t19.5 7.5q12 0 20.5 -8.5t8.5 -20.5q0 -4 -2 -12l-39 -149q-3 -12 -15 -12zM153 588q-15 0 -26 11t-11 27q0 15 11 26t26 11t26 -11t11 -26q0 -16 -11 -27t-26 -11zM409 588q-16 0 -26.5 11t-10.5 27q0 15 10.5 26
t26.5 11q15 0 26 -11t11 -26q0 -16 -11 -27t-26 -11zM270 -12q-92 0 -140.5 59t-48.5 162v251q0 10 7.5 18t18.5 8t18.5 -8t7.5 -18v-250q0 -82 36 -128.5t101 -46.5q82 0 129 61t47 150q0 120 -64 203q-4 7 -4 15q0 10 8 18t18 8q13 0 22 -12q76 -103 76 -232
q0 -111 -64 -184.5t-168 -73.5z" />
    <glyph glyph-name="alpha" unicode="&#x3b1;" horiz-adv-x="585" 
d="M543 35q10 -1 15.5 -8t5.5 -15q0 -22 -22 -24h-10q-43 0 -66.5 24t-26.5 68q-26 -41 -71.5 -66.5t-98.5 -25.5q-97 0 -156.5 69t-59.5 184q0 114 60 184t156 70q105 0 168 -90v55q0 11 8 18.5t19 7.5q10 0 18 -8t8 -18v-361q0 -63 45 -64h8zM437 121v239q-22 36 -66 62
t-93 26q-78 0 -123.5 -58.5t-45.5 -148.5t45.5 -148t123.5 -58q49 0 93 25t66 61z" />
    <glyph glyph-name="beta" unicode="&#x3b2;" 
d="M133 -161q0 -11 -7.5 -18.5t-18.5 -7.5t-18.5 7.5t-7.5 18.5v619q0 107 64 163t156 56q85 0 143 -47t58 -129q0 -69 -42.5 -108t-95.5 -48q54 -6 103.5 -49.5t49.5 -120.5q0 -84 -59 -135.5t-151 -51.5q-56 0 -101.5 24.5t-72.5 64.5v-238zM133 121q23 -36 67.5 -61
t94.5 -25q79 0 122.5 39t43.5 107q0 69 -49.5 104t-124.5 33q-14 1 -24 11t-11 23q5 14 34 16q69 -2 114.5 31.5t45.5 97.5q0 60 -42 96.5t-103 36.5q-72 0 -120 -44.5t-48 -127.5v-337z" />
    <glyph glyph-name="gamma" unicode="&#x3b3;" horiz-adv-x="481" 
d="M241 -187q-11 0 -19 8t-8 18v124q0 133 -50.5 261.5t-131.5 222.5q-6 10 -6 15q0 10 7 17t17 7q12 0 18 -8q69 -72 122.5 -188.5t63.5 -219.5q59 80 98.5 184.5t43.5 206.5q1 10 8.5 17.5t17.5 7.5q11 0 19 -8.5t7 -19.5q-5 -112 -53.5 -231.5t-127.5 -222.5v-165
q0 -11 -7.5 -18.5t-18.5 -7.5z" />
    <glyph glyph-name="delta" unicode="&#x3b4;" 
d="M289 458q41 -13 64 -21t59 -28t55.5 -42.5t35 -61t15.5 -87.5q0 -92 -64.5 -161t-166.5 -69q-103 0 -168.5 69t-65.5 162q0 77 42 133t112 83q-45 18 -69.5 43t-24.5 67q0 58 46 96t126 38q97 0 158 -58q9 -9 9 -18t-7 -16t-16 -7t-15 6q-49 49 -129 49q-56 0 -88.5 -25
t-32.5 -63q0 -18 9 -32t29 -24.5t37.5 -17t49.5 -15.5zM286 35q81 0 130.5 57t49.5 126q0 38 -12 67.5t-27.5 48t-45.5 35t-51 24.5t-58 20q-79 -22 -121 -72.5t-42 -121.5q0 -70 48.5 -127t128.5 -57z" />
    <glyph glyph-name="epsilon" unicode="&#x3b5;" horiz-adv-x="486" 
d="M252 -12q-94 0 -146.5 39t-52.5 101q0 55 39 84.5t85 33.5q-43 6 -78.5 37t-35.5 83q0 60 53.5 94.5t135.5 34.5q104 0 173 -66q7 -7 7 -17q0 -9 -6.5 -15.5t-16.5 -6.5q-7 0 -14 5q-55 55 -144 55q-57 0 -95 -24.5t-38 -63.5q0 -46 39.5 -70.5t101.5 -24.5h63
q10 0 17 -6t7 -16q0 -9 -7 -15.5t-16 -6.5h-64q-150 0 -150 -92q0 -45 38.5 -72t104.5 -27q88 0 151 57q6 6 14 6q11 0 18 -7.5t7 -17.5q0 -11 -9 -18q-70 -64 -181 -64z" />
    <glyph glyph-name="zeta" unicode="&#x3b6;" horiz-adv-x="491" 
d="M324 0q-124 0 -197.5 55t-73.5 157q0 229 321 409h-284q-10 0 -17 6.5t-7 16.5t7 16.5t17 6.5h331q11 0 18.5 -8t7.5 -19q0 -15 -13 -23q-161 -95 -243 -192t-82 -211q0 -83 59 -125t161 -42q117 0 117 -93q0 -39 -32 -100q-7 -14 -22 -14q-11 0 -18.5 7.5t-7.5 18.5
q0 5 3 11q22 44 22 70q0 53 -67 53z" />
    <glyph glyph-name="eta" unicode="&#x3b7;" horiz-adv-x="540" 
d="M307 495q152 0 152 -157v-499q0 -11 -7.5 -18.5t-18.5 -7.5t-18.5 7.5t-7.5 18.5v488q0 66 -30 93.5t-87 27.5q-45 0 -89 -24t-68 -59v-342q0 -11 -7.5 -18.5t-18.5 -7.5t-18.5 7.5t-7.5 18.5v437q0 10 7.5 18t18.5 8t18.5 -8t7.5 -18v-50q29 34 77 59.5t97 25.5z" />
    <glyph glyph-name="theta" unicode="&#x3b8;" 
d="M285 679q115 0 174 -96t59 -249q0 -99 -24 -175.5t-78 -123.5t-131 -47q-113 0 -172.5 97t-59.5 249q0 99 24.5 175.5t78 123t129.5 46.5zM285 632q-87 0 -129.5 -76t-45.5 -197h351q-3 122 -45.5 197.5t-130.5 75.5zM285 35q88 0 130.5 76.5t45.5 200.5h-351
q2 -80 19.5 -139.5t57 -98.5t98.5 -39z" />
    <glyph glyph-name="iota" unicode="&#x3b9;" horiz-adv-x="228" 
d="M175 -12q-94 0 -94 105v367q0 10 7.5 18t18.5 8t18.5 -8t7.5 -18v-361q0 -29 11.5 -46t34.5 -18h8q10 -1 15 -8t5 -15q0 -22 -21 -24h-11z" />
    <glyph glyph-name="kappa" unicode="&#x3ba;" horiz-adv-x="505" 
d="M458 42q6 -8 6 -18q0 -11 -7.5 -19t-18.5 -8q-14 0 -21 9l-194 224l-90 -85v-122q0 -11 -7.5 -18.5t-18.5 -7.5t-18.5 7.5t-7.5 18.5v437q0 10 7.5 18t18.5 8t18.5 -8t7.5 -18v-252l287 272q8 6 17 6q10 0 17 -7.5t7 -17.5t-8 -18l-190 -179z" />
    <glyph glyph-name="lambda" unicode="&#x3bb;" horiz-adv-x="481" 
d="M434 -3q-19 0 -24 17l-169 408l-170 -408q-7 -17 -25 -17q-11 0 -18.5 8t-7.5 19q0 7 1 10l190 453l-38 86q-24 59 -73 59q-16 0 -23 -3q-11 -1 -19 6t-8 18q0 9 6.5 15.5t14.5 7.5q14 3 29 3q86 -2 124 -90l234 -553q3 -8 3 -12q0 -11 -7.5 -19t-19.5 -8z" />
    <glyph glyph-name="uni03BC" unicode="&#x3bc;" horiz-adv-x="554" 
d="M513 35q10 -1 15 -8t5 -15q0 -22 -21 -24h-11q-81 0 -93 87q-30 -38 -73 -62.5t-88 -24.5q-84 0 -114 56v-205q0 -11 -7.5 -18.5t-18.5 -7.5t-18.5 7.5t-7.5 18.5v621q0 10 7.5 18t18.5 8t18.5 -8t7.5 -18v-305q0 -122 118 -122q44 0 87.5 24t68.5 58v345q0 10 7.5 18
t18.5 8t18.5 -8t7.5 -18v-361q0 -63 46 -64h8z" />
    <glyph glyph-name="nu" unicode="&#x3bd;" horiz-adv-x="481" 
d="M241 -3q-27 0 -40 27l-179 425q-2 3 -2 10q0 11 7.5 19t18.5 8q19 0 24 -17l173 -415q67 91 108 197.5t45 209.5q1 10 8.5 17.5t17.5 7.5q11 0 19 -8.5t7 -19.5q-5 -108 -50.5 -224.5t-120.5 -218.5q-11 -18 -36 -18z" />
    <glyph glyph-name="xi" unicode="&#x3be;" horiz-adv-x="491" 
d="M53 175q0 73 46.5 115t98.5 49q-50 9 -92 43.5t-42 94.5q0 45 32.5 85.5t80.5 58.5h-86q-9 0 -16.5 6.5t-7.5 16.5t7.5 16.5t16.5 6.5h322q10 0 17 -7t7 -17q0 -9 -7 -15.5t-17 -6.5h-166q-54 -13 -90.5 -52t-36.5 -83q0 -57 48 -88t119 -31h120q9 0 16.5 -6.5t7.5 -16.5
t-7.5 -16.5t-16.5 -6.5h-120q-78 0 -128 -34.5t-50 -104.5q0 -136 220 -136q117 0 117 -92q0 -38 -32 -100q-7 -14 -22 -14q-11 0 -19 7.5t-8 18.5q0 6 3 11q23 50 23 73q0 49 -67 49q-131 0 -201 44.5t-70 131.5z" />
    <glyph glyph-name="omicron" unicode="&#x3bf;" 
d="M285 -12q-104 0 -168 73t-64 181t64 180.5t168 72.5q105 0 169 -72.5t64 -180.5t-64 -181t-169 -73zM285 35q82 0 129.5 60.5t47.5 146.5q0 85 -47.5 145.5t-129.5 60.5q-81 0 -128.5 -60.5t-47.5 -145.5t47.5 -146t128.5 -61z" />
    <glyph glyph-name="pi" unicode="&#x3c0;" horiz-adv-x="561" 
d="M530 483q9 0 16 -6.5t7 -16.5t-7 -16.5t-16 -6.5h-60v-414q0 -11 -8 -18.5t-18 -7.5q-11 0 -19 8t-8 18v414h-273v-414q0 -11 -8 -18.5t-18 -7.5q-11 0 -19 7.5t-8 18.5v414h-59q-10 0 -17 6.5t-7 16.5t7 16.5t17 6.5h498z" />
    <glyph glyph-name="rho" unicode="&#x3c1;" horiz-adv-x="567" 
d="M133 78v-239q0 -11 -7.5 -18.5t-18.5 -7.5t-18.5 7.5t-7.5 18.5v403q0 108 59.5 180.5t157.5 72.5t158.5 -72.5t60.5 -180.5q0 -115 -59.5 -184.5t-156.5 -69.5q-104 0 -168 90zM461 242q0 85 -44 145.5t-120 60.5t-120 -60.5t-44 -145.5v-119q22 -36 66.5 -62t92.5 -26
q79 0 124 58t45 149z" />
    <glyph glyph-name="uni03C2" unicode="&#x3c2;" horiz-adv-x="479" 
d="M53 242q0 108 65 180.5t170 72.5q94 0 156 -65q7 -9 7 -17q0 -11 -6.5 -17.5t-17.5 -6.5q-10 0 -16 7q-48 52 -120 52q-83 0 -132.5 -58.5t-49.5 -147.5q0 -99 58 -147t158 -48q62 0 90.5 -18.5t28.5 -62.5t-32 -113q-6 -13 -21 -13q-10 0 -17.5 7t-7.5 17q0 4 3 12
q24 50 24 83q0 23 -17.5 32t-53.5 9q-125 0 -197 62.5t-72 179.5z" />
    <glyph glyph-name="sigma" unicode="&#x3c3;" 
d="M523 483q9 0 16.5 -7t7.5 -17q0 -9 -7.5 -16t-16.5 -7h-105q97 -74 97 -206q0 -102 -63 -172t-167 -70t-168 73t-64 181q0 103 67 172t182 69h221zM462 235q0 70 -31 123t-82 78h-47q-91 0 -142 -57.5t-51 -136.5q0 -85 47.5 -146t128.5 -61t129 59.5t48 140.5z" />
    <glyph glyph-name="tau" unicode="&#x3c4;" horiz-adv-x="453" 
d="M404 483q9 0 16 -7t7 -17q0 -9 -7 -15.5t-16 -6.5h-157v-336q0 -66 50 -66q20 0 39 12q4 3 10 3q9 0 15.5 -6.5t6.5 -16.5q0 -13 -12 -20q-27 -19 -67 -19q-94 0 -94 105v344h-146q-9 0 -16.5 6.5t-7.5 15.5q0 10 7.5 17t16.5 7h355z" />
    <glyph glyph-name="upsilon" unicode="&#x3c5;" horiz-adv-x="555" 
d="M270 -12q-92 0 -140.5 59t-48.5 162v251q0 10 7.5 18t18.5 8t18.5 -8t7.5 -18v-250q0 -82 36 -128.5t101 -46.5q82 0 129 61t47 150q0 120 -64 203q-4 7 -4 15q0 10 8 18t18 8q13 0 22 -12q76 -103 76 -232q0 -111 -64 -184.5t-168 -73.5z" />
    <glyph glyph-name="phi" unicode="&#x3c6;" horiz-adv-x="696" 
d="M642 236q0 -110 -69 -176.5t-199 -70.5v-150q0 -11 -8 -18.5t-18 -7.5t-18 7.5t-8 18.5v150q-130 4 -199.5 75t-69.5 188q0 76 42.5 135t109.5 95q7 4 13 4q10 0 17 -7t7 -17q0 -14 -11 -20q-122 -68 -122 -190q0 -96 53 -154.5t160 -62.5v419q0 14 9.5 23.5t22.5 8.5
q142 -2 215 -70t73 -180zM374 35q106 2 159 57t53 144t-53 142.5t-159 57.5v-401z" />
    <glyph glyph-name="chi" unicode="&#x3c7;" horiz-adv-x="479" 
d="M449 -148q4 -8 4 -13q0 -10 -8 -18t-18 -8q-15 0 -22 13l-165 282l-165 -282q-8 -13 -23 -13q-10 0 -17.5 8t-7.5 18q0 7 3 13l180 306l-169 289q-4 10 -4 13q0 10 8 18t18 8q15 0 22 -13l155 -264l154 264q6 13 22 13q11 0 18.5 -8t7.5 -18q0 -3 -4 -13l-169 -288z" />
    <glyph glyph-name="psi" unicode="&#x3c8;" horiz-adv-x="704" 
d="M571 460q0 10 7.5 18t18.5 8t18.5 -8t7.5 -18v-245q0 -103 -61 -161.5t-184 -64.5v-150q0 -11 -8 -18.5t-18 -7.5t-18 7.5t-8 18.5v150q-123 5 -184 64t-61 162v245q0 10 7.5 18t18.5 8t18.5 -8t7.5 -18v-245q0 -81 49 -127.5t144 -51.5v608q0 10 8 18t18 8t18 -8t8 -18
v-608q95 5 144 51.5t49 127.5v245z" />
    <glyph glyph-name="omega" unicode="&#x3c9;" horiz-adv-x="771" 
d="M542 -12q-65 0 -103.5 44.5t-53.5 106.5q-16 -62 -53.5 -106.5t-102.5 -44.5q-79 0 -127.5 71t-48.5 173q0 171 82 252q8 8 18 8q11 0 18.5 -7.5t7.5 -18.5q0 -9 -5 -16q-65 -72 -65 -218q0 -79 33.5 -138t91.5 -59q60 0 92.5 60t32.5 147v100q0 11 7.5 19t18.5 8t19 -8
t8 -19v-100q0 -87 32 -147t92 -60q58 0 91.5 59t33.5 138q0 148 -64 218q-5 7 -5 16q0 11 7.5 18.5t18.5 7.5q10 0 18 -8q81 -80 81 -252q0 -102 -48 -173t-127 -71z" />
    <glyph glyph-name="iotadieresis" unicode="&#x3ca;" horiz-adv-x="228" 
d="M5 588q-15 0 -26 11t-11 27q0 15 11 26t26 11t26 -11t11 -26q0 -16 -11 -27t-26 -11zM209 588q-15 0 -26 11t-11 27q0 15 11 26t26 11t26.5 -11t11.5 -26q0 -16 -11.5 -27t-26.5 -11zM175 -12q-94 0 -94 105v367q0 10 7.5 18t18.5 8t18.5 -8t7.5 -18v-361q0 -29 11.5 -46
t34.5 -18h8q10 -1 15 -8t5 -15q0 -22 -21 -24h-11z" />
    <glyph glyph-name="upsilondieresis" unicode="&#x3cb;" horiz-adv-x="555" 
d="M168 588q-15 0 -26 11t-11 27q0 15 11 26t26 11t26 -11t11 -26q0 -16 -11 -27t-26 -11zM372 588q-15 0 -26 11t-11 27q0 15 11 26t26 11t26.5 -11t11.5 -26q0 -16 -11.5 -27t-26.5 -11zM270 -12q-92 0 -140.5 59t-48.5 162v251q0 10 7.5 18t18.5 8t18.5 -8t7.5 -18v-250
q0 -82 36 -128.5t101 -46.5q82 0 129 61t47 150q0 120 -64 203q-4 7 -4 15q0 10 8 18t18 8q13 0 22 -12q76 -103 76 -232q0 -111 -64 -184.5t-168 -73.5z" />
    <glyph glyph-name="omicrontonos" unicode="&#x3cc;" 
d="M287 588q-7 0 -12 5.5t-4 12.5l15 157q1 11 9.5 19t19.5 8q12 0 20.5 -9t8.5 -20q0 -2 -2 -12l-40 -149q-2 -12 -15 -12zM285 -12q-104 0 -168 73t-64 181t64 180.5t168 72.5q105 0 169 -72.5t64 -180.5t-64 -181t-169 -73zM285 35q82 0 129.5 60.5t47.5 146.5
q0 85 -47.5 145.5t-129.5 60.5q-81 0 -128.5 -60.5t-47.5 -145.5t47.5 -146t128.5 -61z" />
    <glyph glyph-name="upsilontonos" unicode="&#x3cd;" horiz-adv-x="555" 
d="M272 588q-7 0 -12 5.5t-4 12.5l15 157q1 11 9.5 19t19.5 8q12 0 20.5 -9t8.5 -20q0 -2 -2 -12l-40 -149q-2 -12 -15 -12zM270 -12q-92 0 -140.5 59t-48.5 162v251q0 10 7.5 18t18.5 8t18.5 -8t7.5 -18v-250q0 -82 36 -128.5t101 -46.5q82 0 129 61t47 150q0 120 -64 203
q-4 7 -4 15q0 10 8 18t18 8q13 0 22 -12q76 -103 76 -232q0 -111 -64 -184.5t-168 -73.5z" />
    <glyph glyph-name="omegatonos" unicode="&#x3ce;" horiz-adv-x="771" 
d="M387 588q-7 0 -12 5.5t-4 12.5l15 157q1 11 9.5 19t19.5 8q12 0 20.5 -9t8.5 -20q0 -2 -2 -12l-40 -149q-2 -12 -15 -12zM542 -12q-65 0 -103.5 44.5t-53.5 106.5q-16 -62 -53.5 -106.5t-102.5 -44.5q-79 0 -127.5 71t-48.5 173q0 171 82 252q8 8 18 8q11 0 18.5 -7.5
t7.5 -18.5q0 -9 -5 -16q-65 -72 -65 -218q0 -79 33.5 -138t91.5 -59q60 0 92.5 60t32.5 147v100q0 11 7.5 19t18.5 8t19 -8t8 -19v-100q0 -87 32 -147t92 -60q58 0 91.5 59t33.5 138q0 148 -64 218q-5 7 -5 16q0 11 7.5 18.5t18.5 7.5q10 0 18 -8q81 -80 81 -252
q0 -102 -48 -173t-127 -71z" />
    <glyph glyph-name="uni0401" unicode="&#x401;" horiz-adv-x="564" 
d="M197 735q-15 0 -26 11t-11 27q0 15 11 26t26 11t26 -11t11 -26q0 -16 -11 -27t-26 -11zM401 735q-15 0 -26 11t-11 27q0 15 11 26t26 11t26.5 -11t11.5 -26q0 -16 -11.5 -27t-26.5 -11zM114 0q-31 0 -31 31v605q0 31 31 31h369q11 0 18.5 -7.5t7.5 -18.5t-7.5 -18.5
t-18.5 -7.5h-343v-247h336q10 0 18 -8t8 -18t-8 -18t-18 -8h-336v-264h343q11 0 18.5 -8t7.5 -18t-7.5 -18t-18.5 -8h-369z" />
    <glyph glyph-name="uni0402" unicode="&#x402;" horiz-adv-x="773" 
d="M496 15q0 10 7 17.5t16 8.5q63 5 95 38.5t32 104.5v17q0 78 -36.5 113.5t-117.5 35.5q-106 0 -181 -35v-289q0 -11 -8.5 -20t-20.5 -9t-20.5 9t-8.5 20v589h-195q-10 0 -18 7.5t-8 18.5t8 18.5t18 7.5h449q11 0 18.5 -7.5t7.5 -18.5t-7.5 -18.5t-18.5 -7.5h-196v-253
q90 40 192 40q104 0 152.5 -49t48.5 -152v-17q0 -182 -179 -195q-11 -1 -20 7t-9 19z" />
    <glyph glyph-name="uni0403" unicode="&#x403;" horiz-adv-x="539" 
d="M323 725q-4 -5 -12 -5q-7 0 -12 5t-5 12t6 13l123 114q6 6 15 6t15.5 -6.5t6.5 -15.5t-8 -17zM112 -3q-12 0 -20.5 9t-8.5 20v610q0 31 31 31h369q11 0 18.5 -7.5t7.5 -18.5t-7.5 -18.5t-18.5 -7.5h-343v-589q0 -12 -8 -20.5t-20 -8.5z" />
    <glyph glyph-name="uni0404" unicode="&#x404;" horiz-adv-x="672" 
d="M396 40q111 0 183 82q7 9 20 9q12 0 20.5 -8.5t8.5 -19.5q0 -13 -8 -19q-91 -96 -224 -96q-144 0 -241 96.5t-97 248.5t97 248.5t241 96.5q134 0 224 -95q7 -7 7 -19t-8 -20t-20 -8q-13 0 -21 9q-73 81 -182 81q-110 0 -187.5 -71.5t-87.5 -186.5h378q11 0 18.5 -8
t7.5 -18t-7.5 -18t-18.5 -8h-379q4 -121 83 -198.5t193 -77.5z" />
    <glyph glyph-name="uni0405" unicode="&#x405;" horiz-adv-x="581" 
d="M63 76q-9 8 -9 21q0 12 8.5 20.5t19.5 8.5t20 -7q81 -79 189 -79q93 0 134.5 40.5t41.5 92.5q0 27 -11 49t-25.5 35.5t-42.5 26t-48 19t-56 15.5q-36 10 -53.5 15.5t-48.5 17t-47 23.5t-34 30t-26 42t-8 54q0 80 63.5 129t158.5 49q123 0 206 -77q11 -7 11 -21
q0 -11 -8.5 -19.5t-20.5 -8.5t-18 7q-67 67 -173 67q-69 0 -114 -34.5t-45 -88.5q0 -23 10.5 -41.5t24 -30t40 -22.5t45.5 -17t54 -15q43 -12 66 -19.5t59 -25t54 -36t32.5 -49.5t14.5 -70q0 -76 -57 -132.5t-180 -56.5q-137 0 -227 88z" />
    <glyph glyph-name="uni0406" unicode="&#x406;" horiz-adv-x="223" 
d="M112 -3q-12 0 -20.5 9t-8.5 20v615q0 12 8.5 20.5t20.5 8.5t20 -8.5t8 -20.5v-615q0 -12 -8 -20.5t-20 -8.5z" />
    <glyph glyph-name="uni0407" unicode="&#x407;" horiz-adv-x="223" 
d="M10 735q-15 0 -26 11t-11 27q0 15 11 26t26 11t26 -11t11 -26q0 -16 -11 -27t-26 -11zM214 735q-15 0 -26 11t-11 27q0 15 11 26t26 11t26.5 -11t11.5 -26q0 -16 -11.5 -27t-26.5 -11zM112 -3q-12 0 -20.5 9t-8.5 20v615q0 12 8.5 20.5t20.5 8.5t20 -8.5t8 -20.5v-615
q0 -12 -8 -20.5t-20 -8.5z" />
    <glyph glyph-name="uni0408" unicode="&#x408;" horiz-adv-x="470" 
d="M30 53q-10 8 -10 20t8.5 20.5t19.5 8.5t19 -8q49 -54 115 -54q67 0 107 42.5t40 110.5v448q0 12 8.5 20.5t20.5 8.5t20.5 -8.5t8.5 -20.5v-448q0 -100 -57 -152.5t-145 -52.5q-94 0 -155 65z" />
    <glyph glyph-name="uni0409" unicode="&#x409;" horiz-adv-x="1051" 
d="M813 0h-219q-31 0 -31 31v584h-268l-13 -128q-17 -177 -46.5 -285.5t-62.5 -151t-80 -55.5q-20 -6 -33 -6q-11 0 -19.5 8.5t-8.5 20.5q0 22 22 28q32 4 56 24t47 67t41 135.5t31 218.5l14 146q3 30 33 30h313q32 0 32 -31v-246h192q92 0 147 -56.5t55 -138.5
t-54.5 -138.5t-147.5 -56.5zM621 338v-286h186q66 0 106.5 40t40.5 103t-40.5 103t-106.5 40h-186z" />
    <glyph glyph-name="uni040A" unicode="&#x40a;" horiz-adv-x="1051" 
d="M83 641q0 12 8.5 20.5t20.5 8.5t20 -8.5t8 -20.5v-272h423v272q0 12 8.5 20.5t20.5 8.5t20.5 -8.5t8.5 -20.5v-272h203q87 0 139 -53.5t52 -131.5t-51.5 -131t-139.5 -53h-230q-31 0 -31 31v286h-423v-291q0 -12 -8 -20.5t-20 -8.5t-20.5 9t-8.5 20v615zM819 52
q60 0 97.5 37t37.5 95q0 59 -37.5 96t-97.5 37h-198v-265h198z" />
    <glyph glyph-name="uni040B" unicode="&#x40b;" horiz-adv-x="781" 
d="M646 183q0 91 -35.5 129t-118.5 38q-106 0 -181 -35v-289q0 -11 -8.5 -20t-20.5 -9t-20.5 9t-8.5 20v589h-195q-10 0 -18 7.5t-8 18.5t8 18.5t18 7.5h449q11 0 18.5 -7.5t7.5 -18.5t-7.5 -18.5t-18.5 -7.5h-196v-253q90 40 192 40q106 0 153.5 -51.5t47.5 -167.5v-157
q0 -11 -8.5 -20t-20.5 -9t-20.5 9t-8.5 20v157z" />
    <glyph glyph-name="uni040C" unicode="&#x40c;" horiz-adv-x="586" 
d="M319 720q-7 0 -12 5t-5 12t6 13l123 114q6 6 15 6t15.5 -6.5t6.5 -15.5t-8 -17l-129 -106q-4 -5 -12 -5zM533 44q8 -10 8 -19q0 -11 -8 -19.5t-19 -8.5q-13 0 -21 8l-279 307l-74 -80v-206q0 -12 -8 -20.5t-20 -8.5t-20.5 9t-8.5 20v615q0 12 8.5 20.5t20.5 8.5t20 -8.5
t8 -20.5v-340l326 360q7 9 20 9q11 0 19.5 -8t8.5 -19t-8 -19l-255 -276z" />
    <glyph glyph-name="uni040E" unicode="&#x40e;" horiz-adv-x="622" 
d="M312 714q-84 0 -141 62q-5 8 -5 14q0 9 6 15t14 6q10 0 15 -6q45 -50 111 -50q68 0 110 50q6 6 15 6t15 -6t6 -15q0 -6 -5 -14q-57 -62 -141 -62zM561 670q12 0 20.5 -8.5t8.5 -20.5q0 -5 -2 -13l-254 -515q-32 -64 -68.5 -94.5t-93.5 -30.5q-24 0 -45 6q-21 5 -21 26
q0 11 8.5 19.5t19.5 7.5q3 0 7 -2q12 -5 29 -5q37 0 60 21t54 79l22 41l-264 446q-4 6 -4 14q0 12 8.5 20.5t20.5 8.5q16 0 25 -15l244 -420l198 417q8 18 27 18z" />
    <glyph glyph-name="uni040F" unicode="&#x40f;" horiz-adv-x="690" 
d="M579 670q12 0 20.5 -8.5t8.5 -20.5v-610q0 -31 -32 -31h-204v-104q0 -10 -8 -18t-18 -8q-11 0 -18.5 7.5t-7.5 18.5v104h-206q-31 0 -31 31v610q0 12 8.5 20.5t20.5 8.5t20 -8.5t8 -20.5v-589h410v589q0 12 8.5 20.5t20.5 8.5z" />
    <glyph glyph-name="uni0410" unicode="&#x410;" horiz-adv-x="647" 
d="M616 39q3 -9 3 -12q0 -12 -8.5 -21t-21.5 -9q-21 0 -28 19l-59 148h-357l-59 -148q-7 -19 -28 -19q-13 0 -21.5 9t-8.5 21q0 5 3 12l246 600q12 31 46 31q33 0 47 -31zM166 216h315l-158 395z" />
    <glyph glyph-name="uni0411" unicode="&#x411;" 
d="M476 667q10 0 18 -7.5t8 -18.5t-8 -18.5t-18 -7.5h-336v-225h193q92 0 146.5 -56.5t54.5 -138.5t-54 -138.5t-147 -56.5h-219q-31 0 -31 31v605q0 31 31 31h362zM140 338v-286h187q66 0 106.5 40t40.5 103t-40.5 103t-106.5 40h-187z" />
    <glyph glyph-name="uni0412" unicode="&#x412;" horiz-adv-x="614" 
d="M114 0q-31 0 -31 31v605q0 31 31 31h243q84 0 134 -46t50 -124q0 -60 -34.5 -101.5t-82.5 -51.5q53 -8 91.5 -56.5t38.5 -107.5q0 -83 -51 -131.5t-140 -48.5h-249zM140 368h210q62 0 96.5 34.5t34.5 88.5q0 53 -34.5 88.5t-96.5 35.5h-210v-247zM140 52h214
q66 0 103 35.5t37 96.5q0 55 -37 93.5t-103 38.5h-214v-264z" />
    <glyph glyph-name="uni0413" unicode="&#x413;" horiz-adv-x="539" 
d="M112 -3q-12 0 -20.5 9t-8.5 20v610q0 31 31 31h369q11 0 18.5 -7.5t7.5 -18.5t-7.5 -18.5t-18.5 -7.5h-343v-589q0 -12 -8 -20.5t-20 -8.5z" />
    <glyph glyph-name="uni0414" unicode="&#x414;" horiz-adv-x="714" 
d="M646 52q31 0 31 -31v-121q0 -11 -7.5 -18.5t-17.5 -7.5q-11 0 -18.5 7.5t-7.5 18.5v100h-542v-100q0 -10 -8 -18t-18 -8t-18 8t-8 18v121q0 31 28 31h23q84 78 134 458l16 127q3 30 33 30h307q32 0 32 -31v-584h41zM547 52v563h-264l-14 -110q-27 -214 -55.5 -312.5
t-62.5 -140.5h396z" />
    <glyph glyph-name="uni0415" unicode="&#x415;" horiz-adv-x="564" 
d="M114 0q-31 0 -31 31v605q0 31 31 31h369q11 0 18.5 -7.5t7.5 -18.5t-7.5 -18.5t-18.5 -7.5h-343v-247h336q10 0 18 -8t8 -18t-8 -18t-18 -8h-336v-264h343q11 0 18.5 -8t7.5 -18t-7.5 -18t-18.5 -8h-369z" />
    <glyph glyph-name="uni0416" unicode="&#x416;" horiz-adv-x="894" 
d="M842 43q7 -9 7 -18q0 -12 -8 -20t-19 -8q-12 0 -22 10l-281 313h-43v-294q0 -11 -8.5 -20t-20.5 -9t-20.5 9t-8.5 20v294h-43l-281 -313q-10 -10 -21 -10t-19 8t-8 20q0 10 6 18l277 304l-250 278q-7 7 -7 18t8 19t19 8q13 0 22 -11l258 -293h39v275q0 12 8.5 20.5
t20.5 8.5t20.5 -8.5t8.5 -20.5v-275h40l257 293q8 11 22 11q11 0 19.5 -8t8.5 -19q0 -9 -7 -18l-251 -278z" />
    <glyph glyph-name="uni0417" unicode="&#x417;" horiz-adv-x="573" 
d="M49 80q-8 6 -8 19q0 11 8 18.5t19 7.5q9 0 18 -7q71 -78 188 -78q83 0 131.5 38t48.5 104q0 68 -50 101.5t-132 33.5h-95q-11 0 -19 8t-8 19q0 10 8 17.5t19 7.5h95q74 0 122.5 32t48.5 95q0 60 -49 94.5t-121 34.5q-102 0 -177 -72q-7 -5 -16 -5q-11 0 -18.5 7.5
t-7.5 18.5q0 10 9 19q86 84 213 84q95 0 161 -47.5t66 -128.5q0 -47 -25 -83t-55 -51.5t-63 -21.5q54 -6 103.5 -49t49.5 -117q0 -84 -65 -137.5t-174 -53.5q-144 0 -225 92z" />
    <glyph glyph-name="uni0418" unicode="&#x418;" horiz-adv-x="699" 
d="M83 641q0 12 8.5 20.5t20.5 8.5t20 -8.5t8 -20.5v-548l409 561q11 16 30 16q16 0 26.5 -11t10.5 -26v-607q0 -11 -8.5 -20t-20.5 -9t-20 8.5t-8 20.5v556l-411 -570q-11 -15 -30 -15q-14 0 -24.5 11t-10.5 25v608z" />
    <glyph glyph-name="uni0419" unicode="&#x419;" horiz-adv-x="699" 
d="M350 714q-84 0 -141 62q-5 8 -5 14q0 9 6 15t14 6q10 0 15 -6q45 -50 111 -50q68 0 110 50q6 6 15 6t15 -6t6 -15q0 -6 -5 -14q-57 -62 -141 -62zM83 641q0 12 8.5 20.5t20.5 8.5t20 -8.5t8 -20.5v-548l409 561q11 16 30 16q16 0 26.5 -11t10.5 -26v-607q0 -11 -8.5 -20
t-20.5 -9t-20 8.5t-8 20.5v556l-411 -570q-11 -15 -30 -15q-14 0 -24.5 11t-10.5 25v608z" />
    <glyph glyph-name="uni041A" unicode="&#x41a;" horiz-adv-x="586" 
d="M533 44q8 -10 8 -19q0 -11 -8 -19.5t-19 -8.5q-13 0 -21 8l-279 307l-74 -80v-206q0 -12 -8 -20.5t-20 -8.5t-20.5 9t-8.5 20v615q0 12 8.5 20.5t20.5 8.5t20 -8.5t8 -20.5v-340l326 360q7 9 20 9q11 0 19.5 -8t8.5 -19t-8 -19l-255 -276z" />
    <glyph glyph-name="uni041B" unicode="&#x41b;" horiz-adv-x="703" 
d="M592 -3q-12 0 -20.5 9t-8.5 20v589h-268l-13 -128q-17 -177 -46.5 -285.5t-62.5 -151t-80 -55.5q-15 -5 -33 -6q-11 0 -19.5 8.5t-8.5 20.5q0 22 22 28q32 4 56 24t47 67t41 135.5t31 218.5l14 146q3 30 33 30h313q32 0 32 -31v-610q0 -11 -8.5 -20t-20.5 -9z" />
    <glyph glyph-name="uni041C" unicode="&#x41c;" horiz-adv-x="790" 
d="M678 -3q-12 0 -20.5 9t-8.5 20v566l-237 -581q-6 -14 -17 -14q-12 0 -17 14l-238 581v-566q0 -12 -8 -20.5t-20 -8.5t-20.5 9t-8.5 20v594q0 20 14.5 35t35.5 15q35 0 47 -31l215 -529l215 529q12 31 47 31q21 0 35.5 -15t14.5 -35v-594q0 -11 -8.5 -20t-20.5 -9z" />
    <glyph glyph-name="uni041D" unicode="&#x41d;" horiz-adv-x="703" 
d="M592 -3q-12 0 -20.5 9t-8.5 20v291h-423v-291q0 -12 -8 -20.5t-20 -8.5t-20.5 9t-8.5 20v615q0 12 8.5 20.5t20.5 8.5t20 -8.5t8 -20.5v-272h423v272q0 12 8.5 20.5t20.5 8.5t20.5 -8.5t8.5 -20.5v-615q0 -11 -8.5 -20t-20.5 -9z" />
    <glyph glyph-name="uni041E" unicode="&#x41e;" horiz-adv-x="764" 
d="M58 333q0 149 89.5 247t234.5 98q144 0 234 -98t90 -247t-90 -247t-234 -98q-145 0 -234.5 98t-89.5 247zM646 333q0 129 -72.5 211t-191.5 82q-120 0 -192 -82t-72 -211q0 -128 72 -210.5t192 -82.5q118 0 191 82.5t73 210.5z" />
    <glyph glyph-name="uni041F" unicode="&#x41f;" horiz-adv-x="703" 
d="M592 -3q-12 0 -20.5 9t-8.5 20v589h-423v-589q0 -12 -8 -20.5t-20 -8.5t-20.5 9t-8.5 20v610q0 31 31 31h475q32 0 32 -31v-610q0 -11 -8.5 -20t-20.5 -9z" />
    <glyph glyph-name="uni0420" unicode="&#x420;" 
d="M112 -3q-12 0 -20.5 9t-8.5 20v610q0 31 31 31h219q93 0 147 -56.5t54 -138.5t-54.5 -138.5t-146.5 -56.5h-193v-251q0 -12 -8 -20.5t-20 -8.5zM474 472q0 63 -40.5 103t-106.5 40h-187v-286h187q66 0 106.5 40t40.5 103z" />
    <glyph glyph-name="uni0421" unicode="&#x421;" horiz-adv-x="669" 
d="M394 -12q-142 0 -239 97t-97 248t97 248t239 97q136 0 226 -95q7 -7 7 -19t-8 -20t-20 -8q-13 0 -21 9q-73 81 -184 81q-118 0 -197 -82t-79 -211q0 -128 79.5 -210.5t196.5 -82.5q113 0 185 82q7 9 20 9q12 0 20.5 -8.5t8.5 -19.5q0 -13 -8 -19q-91 -96 -226 -96z" />
    <glyph glyph-name="uni0422" unicode="&#x422;" horiz-adv-x="564" 
d="M282 -3q-12 0 -20.5 9t-8.5 20v589h-195q-10 0 -18 7.5t-8 18.5t8 18.5t18 7.5h449q11 0 18.5 -7.5t7.5 -18.5t-7.5 -18.5t-18.5 -7.5h-196v-589q0 -11 -8.5 -20t-20.5 -9z" />
    <glyph glyph-name="uni0423" unicode="&#x423;" horiz-adv-x="622" 
d="M561 670q12 0 20.5 -8.5t8.5 -20.5q0 -5 -2 -13l-254 -515q-32 -64 -68.5 -94.5t-93.5 -30.5q-24 0 -45 6q-21 5 -21 26q0 11 8.5 19.5t19.5 7.5q3 0 7 -2q12 -5 29 -5q37 0 60 21t54 79l22 41l-264 446q-4 6 -4 14q0 12 8.5 20.5t20.5 8.5q16 0 25 -15l244 -420l198 417
q8 18 27 18z" />
    <glyph glyph-name="uni0424" unicode="&#x424;" horiz-adv-x="785" 
d="M727 333q0 -113 -83 -187.5t-223 -81.5v-38q0 -11 -8.5 -20t-19.5 -9q-12 0 -20.5 8.5t-8.5 20.5v38q-140 7 -223 82t-83 187t83 187t223 82v39q0 12 8 20.5t21 8.5q11 0 19.5 -8.5t8.5 -20.5v-39q139 -7 222.5 -82t83.5 -187zM118 333q0 -92 66 -150.5t180 -64.5v431
q-114 -7 -180 -65.5t-66 -150.5zM421 118q112 6 178.5 65t66.5 150q0 92 -66 150.5t-179 65.5v-431z" />
    <glyph glyph-name="uni0425" unicode="&#x425;" horiz-adv-x="645" 
d="M602 44q7 -9 7 -18q0 -12 -8 -20.5t-20 -8.5q-14 0 -23 9l-235 294l-236 -294q-9 -9 -23 -9q-12 0 -20 8.5t-8 20.5q0 9 7 18l246 298l-232 281q-6 10 -6 18q0 12 8.5 20.5t20.5 8.5q14 0 22 -11l221 -274l220 274q8 11 22 11q12 0 20.5 -8.5t8.5 -20.5q0 -6 -7 -18
l-231 -280z" />
    <glyph glyph-name="uni0426" unicode="&#x426;" horiz-adv-x="717" 
d="M649 52q31 0 31 -31v-121q0 -11 -7.5 -18.5t-17.5 -7.5q-11 0 -18.5 7.5t-7.5 18.5v100h-515q-31 0 -31 31v610q0 12 8.5 20.5t20.5 8.5t20 -8.5t8 -20.5v-589h410v589q0 12 8.5 20.5t20.5 8.5t20.5 -8.5t8.5 -20.5v-589h41z" />
    <glyph glyph-name="uni0427" unicode="&#x427;" horiz-adv-x="595" 
d="M119 484q0 -91 36 -129t119 -38q106 0 181 35v289q0 12 8.5 20.5t20.5 8.5t20 -8.5t8 -20.5v-615q0 -12 -8 -20.5t-20 -8.5t-20.5 9t-8.5 20v279q-90 -40 -192 -40q-106 0 -153.5 51.5t-47.5 167.5v157q0 12 8.5 20.5t20.5 8.5t20 -8.5t8 -20.5v-157z" />
    <glyph glyph-name="uni0428" unicode="&#x428;" horiz-adv-x="962" 
d="M850 670q13 0 21 -8.5t8 -20.5v-610q0 -31 -31 -31h-734q-31 0 -31 31v610q0 12 8.5 20.5t20.5 8.5t20 -8.5t8 -20.5v-589h312v589q0 12 8.5 20.5t20.5 8.5t20.5 -8.5t8.5 -20.5v-589h312v589q0 12 8 20.5t20 8.5z" />
    <glyph glyph-name="uni0429" unicode="&#x429;" horiz-adv-x="988" 
d="M921 52q31 0 31 -31v-121q0 -10 -8 -18t-18 -8t-18 8t-8 18v100h-786q-31 0 -31 31v610q0 12 8.5 20.5t20.5 8.5t20 -8.5t8 -20.5v-589h312v589q0 12 8.5 20.5t20.5 8.5t20.5 -8.5t8.5 -20.5v-589h312v589q0 12 8 20.5t20 8.5q13 0 21 -8.5t8 -20.5v-589h42z" />
    <glyph glyph-name="uni042A" unicode="&#x42a;" horiz-adv-x="741" 
d="M284 0q-31 0 -31 31v584h-195q-10 0 -18 7.5t-8 18.5t8 18.5t18 7.5h221q32 0 32 -31v-246h192q92 0 147 -56.5t55 -138.5t-54.5 -138.5t-147.5 -56.5h-219zM311 338v-286h186q66 0 106.5 40t40.5 103t-40.5 103t-106.5 40h-186z" />
    <glyph glyph-name="uni042B" unicode="&#x42b;" horiz-adv-x="754" 
d="M112 670q12 0 20 -8.5t8 -20.5v-251h193q92 0 146.5 -56.5t54.5 -138.5t-54 -138.5t-147 -56.5h-219q-31 0 -31 31v610q0 12 8.5 20.5t20.5 8.5zM643 -3q-12 0 -20.5 9t-8.5 20v615q0 12 8.5 20.5t20.5 8.5t20 -8.5t8 -20.5v-615q0 -12 -8 -20.5t-20 -8.5zM140 338v-286
h187q66 0 106.5 40t40.5 103t-40.5 103t-106.5 40h-187z" />
    <glyph glyph-name="uni042C" unicode="&#x42c;" 
d="M112 670q12 0 20 -8.5t8 -20.5v-251h193q92 0 146.5 -56.5t54.5 -138.5t-54 -138.5t-147 -56.5h-219q-31 0 -31 31v610q0 12 8.5 20.5t20.5 8.5zM140 338v-286h187q66 0 106.5 40t40.5 103t-40.5 103t-106.5 40h-187z" />
    <glyph glyph-name="uni042D" unicode="&#x42d;" horiz-adv-x="672" 
d="M276 678q143 0 240.5 -97t97.5 -248t-97.5 -248t-240.5 -97q-133 0 -224 96q-8 6 -8 19q0 11 8.5 19.5t19.5 8.5q14 0 21 -9q72 -82 183 -82q114 0 192.5 77.5t83.5 198.5h-379q-11 0 -18.5 8t-7.5 18t7.5 18t18.5 8h378q-11 115 -88.5 186.5t-186.5 71.5
q-110 0 -183 -81q-7 -9 -21 -9q-11 0 -19 8t-8 20t7 19q89 95 224 95z" />
    <glyph glyph-name="uni042E" unicode="&#x42e;" horiz-adv-x="974" 
d="M592 678q144 0 234 -98t90 -247t-90 -247t-234 -98q-140 0 -229 93t-94 236h-129v-291q0 -12 -8 -20.5t-20 -8.5t-20.5 9t-8.5 20v615q0 12 8.5 20.5t20.5 8.5t20 -8.5t8 -20.5v-272h130q11 136 99 222.5t223 86.5zM592 40q118 0 191 82.5t73 210.5q0 129 -72.5 211
t-191.5 82t-191.5 -82t-72.5 -211q0 -128 72.5 -210.5t191.5 -82.5z" />
    <glyph glyph-name="uni042F" unicode="&#x42f;" horiz-adv-x="594" 
d="M480 667q31 0 31 -31v-610q0 -11 -8.5 -20t-20.5 -9t-20.5 9t-8.5 20v250h-156l-186 -267q-9 -12 -25 -12q-12 0 -20 8.5t-8 19.5q0 10 6 18l170 238q-75 6 -125 56.5t-50 134.5q0 89 57.5 142t145.5 53h218zM453 328v287h-186q-66 0 -107 -40t-41 -103t41 -103.5
t107 -40.5h186z" />
    <glyph glyph-name="uni0430" unicode="&#x430;" horiz-adv-x="521" 
d="M264 495q78 0 127 -39t49 -116v-317q0 -11 -8 -18.5t-18 -7.5t-18 7.5t-8 18.5v36q-61 -71 -164 -71q-67 0 -118 43.5t-51 117.5q0 75 50.5 117.5t118.5 42.5q102 0 164 -69v98q0 52 -37 81.5t-93 29.5q-79 0 -136 -57q-7 -5 -15 -5q-10 0 -16.5 6.5t-6.5 16.5q0 11 8 17
q69 68 172 68zM242 29q95 0 146 66v106q-52 67 -146 67q-59 0 -95.5 -34t-36.5 -86t36.5 -85.5t95.5 -33.5z" />
    <glyph glyph-name="uni0431" unicode="&#x431;" horiz-adv-x="576" 
d="M54 272q0 173 71 265.5t233 120.5l93 16q13 2 21.5 -4.5t8.5 -17.5q0 -22 -26 -26l-98 -18q-123 -22 -182 -84.5t-75 -154.5q65 120 192 120q100 0 162.5 -71t62.5 -175q0 -109 -63.5 -182t-168.5 -73q-106 0 -168.5 78t-62.5 206zM462 243q0 84 -47.5 144.5t-129.5 60.5
q-80 0 -128 -60.5t-48 -144.5q0 -86 47.5 -147t128.5 -61q82 0 129.5 61t47.5 147z" />
    <glyph glyph-name="uni0432" unicode="&#x432;" horiz-adv-x="533" 
d="M112 0q-31 0 -31 31v421q0 31 31 31h197q71 0 111 -33t40 -91q0 -42 -23 -71t-57 -39q38 -10 63.5 -43.5t25.5 -74.5q0 -61 -41 -96t-117 -35h-199zM406 354q0 38 -25.5 60.5t-71.5 22.5h-176v-165h176q46 0 71.5 23t25.5 59zM414 135q0 37 -27 64t-76 27h-178v-179h178
q49 0 76 23.5t27 64.5z" />
    <glyph glyph-name="uni0433" unicode="&#x433;" horiz-adv-x="425" 
d="M107 -3q-11 0 -18.5 7.5t-7.5 18.5v429q0 31 31 31h265q10 0 17 -6.5t7 -16.5t-7 -16.5t-17 -6.5h-244v-414q0 -11 -7.5 -18.5t-18.5 -7.5z" />
    <glyph glyph-name="uni0434" unicode="&#x434;" horiz-adv-x="553" 
d="M487 47q30 0 30 -32v-118q0 -9 -6.5 -16t-16.5 -7t-16.5 7t-6.5 16v103h-406v-103q0 -9 -7 -16t-16 -7q-10 0 -17 7t-7 16v118q0 32 30 32h13q56 77 82 327l8 79q3 30 33 30h244q31 0 31 -31v-405h28zM407 47v390h-209l-8 -75q-27 -249 -76 -315h293z" />
    <glyph glyph-name="uni0435" unicode="&#x435;" horiz-adv-x="567" 
d="M53 242q0 106 66.5 179.5t166.5 73.5q105 0 166.5 -71t61.5 -170q0 -29 -31 -29h-373q4 -82 55 -137t134 -55q84 0 145 55q4 4 13 4t15 -6t6 -16q0 -9 -8 -17q-74 -65 -175 -65q-106 0 -174 71t-68 183zM285 450q-79 0 -125.5 -56.5t-49.5 -127.5h351q-1 70 -46.5 127
t-129.5 57z" />
    <glyph glyph-name="uni0436" unicode="&#x436;" horiz-adv-x="694" 
d="M453 246l194 -207q6 -8 6 -16q0 -11 -7.5 -18.5t-18.5 -7.5q-10 0 -20 10l-201 218h-33v-202q0 -11 -7.5 -18.5t-18.5 -7.5t-18.5 7.5t-7.5 18.5v202h-32l-202 -218q-10 -10 -20 -10q-11 0 -18.5 7.5t-7.5 18.5q0 8 6 16l195 207l-195 199q-6 6 -6 16t7 17.5t17 7.5
q12 0 19 -9l205 -211h32v194q0 10 7.5 18t18.5 8t18.5 -8t7.5 -18v-194h32l205 211q7 9 19 9q10 0 17 -7t7 -18q0 -9 -5 -16z" />
    <glyph glyph-name="uni0437" unicode="&#x437;" horiz-adv-x="486" 
d="M54 51q-9 7 -9 19q0 11 7 18t18 7q9 0 14 -5q63 -58 151 -58q65 0 103.5 27t38.5 72q0 92 -150 92h-64q-10 0 -16.5 6t-6.5 16t6.5 16t17.5 6h63q62 0 101.5 24.5t39.5 70.5q0 39 -37.5 63.5t-95.5 24.5q-89 0 -144 -55q-5 -5 -14 -5q-10 0 -16.5 6.5t-6.5 15.5
q0 10 7 17q69 66 173 66q83 0 136 -34t53 -95q0 -52 -35.5 -83t-78.5 -37q46 -4 85 -33.5t39 -84.5q0 -62 -52.5 -101t-145.5 -39q-110 0 -181 63z" />
    <glyph glyph-name="uni0438" unicode="&#x438;" horiz-adv-x="540" 
d="M112 -3q-13 0 -22 9.5t-9 21.5v432q0 10 7.5 18t18.5 8t18.5 -8t7.5 -18v-379l268 391q9 14 26 14q13 0 22.5 -9.5t9.5 -22.5v-431q0 -11 -7.5 -18.5t-18.5 -7.5t-18.5 7.5t-7.5 18.5v385l-269 -397q-10 -14 -26 -14z" />
    <glyph glyph-name="uni0439" unicode="&#x439;" horiz-adv-x="540" 
d="M270 567q-84 0 -141 62q-5 8 -5 14q0 9 6 15t14 6q10 0 15 -6q45 -50 111 -50q68 0 110 50q6 6 15 6t15 -6t6 -15q0 -6 -5 -14q-57 -62 -141 -62zM112 -3q-13 0 -22 9.5t-9 21.5v432q0 10 7.5 18t18.5 8t18.5 -8t7.5 -18v-379l268 391q9 14 26 14q13 0 22.5 -9.5
t9.5 -22.5v-431q0 -11 -7.5 -18.5t-18.5 -7.5t-18.5 7.5t-7.5 18.5v385l-269 -397q-10 -14 -26 -14z" />
    <glyph glyph-name="uni043A" unicode="&#x43a;" horiz-adv-x="505" 
d="M458 42q6 -8 6 -18q0 -11 -7.5 -19t-18.5 -8q-14 0 -21 9l-194 224l-90 -85v-122q0 -11 -7.5 -18.5t-18.5 -7.5t-18.5 7.5t-7.5 18.5v437q0 10 7.5 18t18.5 8t18.5 -8t7.5 -18v-252l287 272q8 6 17 6q10 0 17 -7.5t7 -17.5t-8 -18l-190 -179z" />
    <glyph glyph-name="uni043B" unicode="&#x43b;" horiz-adv-x="540" 
d="M433 -3q-11 0 -18.5 7.5t-7.5 18.5v414h-209l-7 -66q-19 -193 -51.5 -277t-83.5 -100q-8 -3 -14 -3q-11 0 -19 7.5t-8 18.5q0 18 16 23q38 10 65.5 83.5t45.5 249.5l8 80q3 30 33 30h245q31 0 31 -31v-429q0 -11 -7.5 -18.5t-18.5 -7.5z" />
    <glyph glyph-name="uni043C" unicode="&#x43c;" horiz-adv-x="652" 
d="M545 -3q-11 0 -19 8t-8 18v392l-169 -397q-10 -21 -22 -21q-14 0 -22 21l-172 397v-392q0 -11 -7.5 -18.5t-18.5 -7.5t-18.5 7.5t-7.5 18.5v421q0 17 12 29.5t29 12.5q28 0 38 -25l166 -388l164 388q12 25 39 25q17 0 29.5 -12.5t12.5 -29.5v-421q0 -11 -7.5 -18.5
t-18.5 -7.5z" />
    <glyph glyph-name="uni043D" unicode="&#x43d;" horiz-adv-x="540" 
d="M107 -3q-11 0 -18.5 7.5t-7.5 18.5v437q0 10 7.5 18t18.5 8t18.5 -8t7.5 -18v-187h274v187q0 10 7.5 18t18.5 8t18.5 -8t7.5 -18v-437q0 -11 -7.5 -18.5t-18.5 -7.5t-18.5 7.5t-7.5 18.5v204h-274v-204q0 -11 -7.5 -18.5t-18.5 -7.5z" />
    <glyph glyph-name="uni043E" unicode="&#x43e;" 
d="M285 -12q-104 0 -168 73t-64 181t64 180.5t168 72.5q105 0 169 -72.5t64 -180.5t-64 -181t-169 -73zM285 35q82 0 129.5 60.5t47.5 146.5q0 85 -47.5 145.5t-129.5 60.5q-81 0 -128.5 -60.5t-47.5 -145.5t47.5 -146t128.5 -61z" />
    </font>
</defs>
</svg>
