<?xml version="1.0" encoding="UTF-8"?>
<svg width="24px" height="14px" viewBox="0 0 24 14" version="1.1" xmlns="http://www.w3.org/2000/svg" xmlns:xlink="http://www.w3.org/1999/xlink">
    <!-- Generator: Sketch 47.1 (45422) - http://www.bohemiancoding.com/sketch -->
    <title>noun_421_cc</title>
    <desc>Created with Sketch.</desc>
    <defs></defs>
    <g id="Page-1" stroke="none" stroke-width="1" fill="none" fill-rule="evenodd" opacity="0.301403986">
        <g id="Desktop-HD" transform="translate(-246.000000, -899.000000)" fill-rule="nonzero" fill="#FFFFFF">
            <g id="Group-Copy-2" transform="translate(228.000000, 881.000000)">
                <g id="noun_421_cc" transform="translate(18.000000, 18.000000)">
                    <circle id="ellipse" cx="11.5" cy="6.5" r="1.5"></circle>
                    <path d="M23.9999638,6.95468244 C23.9999638,6.94444536 23.9999638,6.93420828 23.9999638,6.9239712 C23.9999638,6.91373412 23.9999638,6.91373412 23.9999638,6.90861558 C23.9999638,6.90349704 23.9999638,6.89399118 23.9999638,6.88667898 C23.9999638,6.87936677 23.9999638,6.86912969 23.9999638,6.86108627 C23.9708303,6.66741282 23.8830157,6.48823156 23.7491102,6.34923221 C22.9637498,5.41990422 22.0919857,4.57226579 21.1463267,3.81847946 C19.1757734,2.10349657 16.8467146,0.883315207 14.3420996,0.253781502 C13.5676135,0.0881724494 12.7789783,0.0031689058 11.9880439,4.81291078e-05 C11.3072778,-0.00200516468 10.6278175,0.0616444003 9.95853892,0.190165354 C8.62803308,0.457458642 7.34295645,0.925592389 6.1447136,1.57948353 C4.2648332,2.59870783 2.54807224,3.91025318 1.05465281,5.46811199 C0.777580026,5.75109417 0.502633125,6.04065733 0.251070883,6.34557611 C-0.0836902944,6.71180415 -0.0836902944,7.28384471 0.251070883,7.65007275 C1.03647719,8.57935512 1.9082367,9.42698913 2.8538543,10.1808255 C4.82144068,11.8948682 7.14695336,13.1154713 9.64816071,13.7469859 C10.4407336,13.9163776 11.2480955,14.0011582 12.0574892,13.9999881 C12.719794,13.9985657 13.3805983,13.9349307 14.0317214,13.8098708 C15.3622055,13.5424952 16.6472706,13.0743656 17.8455467,12.4205526 C19.7255817,11.401536 21.4425715,10.0902451 22.9363161,8.53265541 C23.2133889,8.24894201 23.4883358,7.96011007 23.739898,7.65519129 C23.8738035,7.51619194 23.9616181,7.33701068 23.9907516,7.14333723 C23.9907516,7.13456259 23.9907516,7.12651917 23.9907516,7.11774453 C23.9907516,7.10896988 23.9907516,7.10312012 23.9907516,7.09580792 C23.9907516,7.08849572 23.9907516,7.08557084 23.9907516,7.0804523 C23.9907516,7.07533376 23.9907516,7.06070936 23.9907516,7.05047228 C23.9907516,7.0402352 23.9907516,7.01976103 23.9907516,7.00440541 C23.9907516,6.98904979 24.0006724,6.97003807 23.9999638,6.95468244 Z M12.0007991,11.7661107 C9.45028418,11.7661107 7.38268328,9.63258571 7.38268328,7.00074931 C7.38268328,4.36891291 9.45028418,2.23538796 12.0007991,2.23538796 C14.5513141,2.23538796 16.618915,4.36891291 16.618915,7.00074931 C16.618915,8.26472842 16.1322677,9.47692756 15.2660497,10.3706272 C14.3998317,11.2643268 13.2250138,11.7663046 12.0000905,11.7661107 L12.0007991,11.7661107 Z" id="path"></path>
                </g>
            </g>
        </g>
    </g>
</svg>